<svg xmlns="http://www.w3.org/2000/svg" xmlns:xlink="http://www.w3.org/1999/xlink" viewBox="0 0 970.09 970.09"><defs><style>.cls-1,.cls-10,.cls-11,.cls-12,.cls-13,.cls-14,.cls-15,.cls-16,.cls-17,.cls-18,.cls-19,.cls-2,.cls-20,.cls-21,.cls-22,.cls-23,.cls-24,.cls-25,.cls-26,.cls-27,.cls-28,.cls-29,.cls-3,.cls-30,.cls-31,.cls-32,.cls-33,.cls-34,.cls-35,.cls-36,.cls-37,.cls-38,.cls-4,.cls-42,.cls-43,.cls-44,.cls-45,.cls-46,.cls-47,.cls-48,.cls-49,.cls-50,.cls-51,.cls-52,.cls-53,.cls-54,.cls-55,.cls-56,.cls-57,.cls-58,.cls-59,.cls-60,.cls-61,.cls-62,.cls-63,.cls-64,.cls-65,.cls-66,.cls-67,.cls-68,.cls-69,.cls-70,.cls-71,.cls-72,.cls-73,.cls-74,.cls-75,.cls-76,.cls-77,.cls-78,.cls-79,.cls-80,.cls-81,.cls-82,.cls-83,.cls-9{fill:none;}.cls-1,.cls-2,.cls-3,.cls-4,.cls-42,.cls-43,.cls-44,.cls-45,.cls-46,.cls-47,.cls-48,.cls-49,.cls-50,.cls-51,.cls-52,.cls-53,.cls-54,.cls-55,.cls-56,.cls-57,.cls-58,.cls-59,.cls-60,.cls-61,.cls-62,.cls-63,.cls-64,.cls-65,.cls-66,.cls-67,.cls-68,.cls-69,.cls-70,.cls-71,.cls-72,.cls-73,.cls-74,.cls-75,.cls-76,.cls-77,.cls-78,.cls-79,.cls-80,.cls-9{stroke-miterlimit:10;}.cls-1,.cls-10,.cls-11,.cls-12,.cls-13,.cls-14{stroke-width:7px;}.cls-1{stroke:url(#linear-gradient);}.cls-2,.cls-3,.cls-4{stroke-width:5px;}.cls-2{stroke:url(#linear-gradient-2);}.cls-3{stroke:url(#linear-gradient-3);}.cls-4{stroke:url(#linear-gradient-4);}.cls-5{fill:url(#linear-gradient-5);}.cls-6{fill:url(#linear-gradient-6);}.cls-7{fill:url(#linear-gradient-7);}.cls-8{fill:url(#linear-gradient-8);}.cls-9{stroke:url(#linear-gradient-9);}.cls-10,.cls-11,.cls-12,.cls-13,.cls-14,.cls-15,.cls-16,.cls-17,.cls-18,.cls-19,.cls-20,.cls-21,.cls-22,.cls-23,.cls-24,.cls-25,.cls-26,.cls-27,.cls-28,.cls-29,.cls-30,.cls-31,.cls-32,.cls-33,.cls-34,.cls-35,.cls-36,.cls-37,.cls-38,.cls-81,.cls-82,.cls-83{stroke-linecap:round;stroke-linejoin:round;}.cls-10{stroke:url(#linear-gradient-10);}.cls-11{stroke:url(#linear-gradient-11);}.cls-12{stroke:url(#linear-gradient-12);}.cls-13{stroke:url(#linear-gradient-13);}.cls-14{stroke:url(#linear-gradient-14);}.cls-15{stroke-width:20px;stroke:url(#linear-gradient-15);}.cls-16,.cls-17,.cls-42,.cls-43,.cls-44,.cls-45,.cls-46,.cls-47,.cls-57,.cls-58,.cls-59,.cls-60,.cls-61,.cls-62,.cls-63,.cls-64,.cls-65,.cls-66,.cls-67,.cls-68,.cls-69,.cls-70,.cls-71,.cls-72,.cls-73,.cls-74,.cls-75,.cls-76,.cls-77,.cls-78,.cls-79,.cls-80,.cls-81,.cls-82,.cls-83{stroke-width:3px;}.cls-16{stroke:url(#linear-gradient-16);}.cls-17{stroke:url(#linear-gradient-17);}.cls-18,.cls-19,.cls-20,.cls-21,.cls-22,.cls-23,.cls-24,.cls-25,.cls-26,.cls-27,.cls-28,.cls-29,.cls-30,.cls-31,.cls-32,.cls-33,.cls-34,.cls-35,.cls-36,.cls-37,.cls-38,.cls-48,.cls-49,.cls-50,.cls-51,.cls-52,.cls-53,.cls-54,.cls-55,.cls-56{stroke-width:2px;}.cls-18{stroke:url(#linear-gradient-18);}.cls-19{stroke:url(#linear-gradient-19);}.cls-20{stroke:url(#linear-gradient-20);}.cls-21{stroke:url(#linear-gradient-21);}.cls-22{stroke:url(#linear-gradient-22);}.cls-23{stroke:url(#linear-gradient-23);}.cls-24{stroke:url(#linear-gradient-24);}.cls-25{stroke:url(#linear-gradient-25);}.cls-26{stroke:url(#linear-gradient-26);}.cls-27{stroke:url(#linear-gradient-27);}.cls-28{stroke:url(#linear-gradient-28);}.cls-29{stroke:url(#linear-gradient-29);}.cls-30{stroke:url(#linear-gradient-30);}.cls-31{stroke:url(#linear-gradient-31);}.cls-32{stroke:url(#linear-gradient-32);}.cls-33{stroke:url(#linear-gradient-33);}.cls-34{stroke:url(#linear-gradient-34);}.cls-35{stroke:url(#linear-gradient-35);}.cls-36{stroke:url(#linear-gradient-36);}.cls-37{stroke:url(#linear-gradient-37);}.cls-38{stroke:url(#linear-gradient-38);}.cls-39{fill:url(#linear-gradient-39);}.cls-40{fill:url(#linear-gradient-40);}.cls-41{fill:url(#linear-gradient-41);}.cls-42{stroke:url(#linear-gradient-42);}.cls-43{stroke:url(#linear-gradient-43);}.cls-44{stroke:url(#linear-gradient-44);}.cls-45{stroke:url(#linear-gradient-45);}.cls-46{stroke:url(#linear-gradient-46);}.cls-47{stroke:url(#linear-gradient-47);}.cls-48{stroke:url(#linear-gradient-48);}.cls-49{stroke:url(#linear-gradient-49);}.cls-50{stroke:url(#linear-gradient-50);}.cls-51{stroke:url(#linear-gradient-51);}.cls-52{stroke:url(#linear-gradient-52);}.cls-53{stroke:url(#linear-gradient-53);}.cls-54{stroke:url(#linear-gradient-54);}.cls-55{stroke:url(#linear-gradient-55);}.cls-56{stroke:url(#linear-gradient-56);}.cls-57{stroke:url(#linear-gradient-57);}.cls-58{stroke:url(#linear-gradient-58);}.cls-59{stroke:url(#linear-gradient-59);}.cls-60{stroke:url(#linear-gradient-60);}.cls-61{stroke:url(#linear-gradient-61);}.cls-62{stroke:url(#linear-gradient-62);}.cls-63{stroke:url(#linear-gradient-63);}.cls-64{stroke:url(#linear-gradient-64);}.cls-65{stroke:url(#linear-gradient-65);}.cls-66{stroke:url(#linear-gradient-66);}.cls-67{stroke:url(#linear-gradient-67);}.cls-68{stroke:url(#linear-gradient-68);}.cls-69{stroke:url(#linear-gradient-69);}.cls-70{stroke:url(#linear-gradient-70);}.cls-71{stroke:url(#linear-gradient-71);}.cls-72{stroke:url(#linear-gradient-72);}.cls-73{stroke:url(#linear-gradient-73);}.cls-74{stroke:url(#linear-gradient-74);}.cls-75{stroke:url(#linear-gradient-75);}.cls-76{stroke:url(#linear-gradient-76);}.cls-77{stroke:url(#linear-gradient-77);}.cls-78{stroke:url(#linear-gradient-78);}.cls-79{stroke:url(#linear-gradient-79);}.cls-80{stroke:url(#linear-gradient-80);}.cls-81{stroke:url(#linear-gradient-81);}.cls-82{stroke:url(#linear-gradient-82);}.cls-83{stroke:url(#linear-gradient-83);}</style><linearGradient id="linear-gradient" x1="408.76" y1="510.86" x2="570.61" y2="510.86" gradientUnits="userSpaceOnUse"><stop offset="0" stop-color="#ed2024"/><stop offset="0.12" stop-color="#f26164"/><stop offset="0.25" stop-color="#f8a4a6"/><stop offset="0.36" stop-color="#fcd5d6"/><stop offset="0.45" stop-color="#fef4f4"/><stop offset="0.49" stop-color="#fff"/><stop offset="0.56" stop-color="#fffbfb"/><stop offset="0.63" stop-color="#feefef"/><stop offset="0.69" stop-color="#fcdbdb"/><stop offset="0.76" stop-color="#fabebf"/><stop offset="0.82" stop-color="#f79a9b"/><stop offset="0.89" stop-color="#f36d6f"/><stop offset="0.96" stop-color="#ef393c"/><stop offset="0.98" stop-color="#ed2024"/></linearGradient><linearGradient id="linear-gradient-2" x1="446.89" y1="607.41" x2="502.57" y2="607.41" xlink:href="#linear-gradient"/><linearGradient id="linear-gradient-3" x1="449.05" y1="624" x2="500.41" y2="624" xlink:href="#linear-gradient"/><linearGradient id="linear-gradient-4" x1="456.38" y1="640.59" x2="493.08" y2="640.59" xlink:href="#linear-gradient"/><linearGradient id="linear-gradient-5" x1="450.68" y1="503.65" x2="466.28" y2="503.65" xlink:href="#linear-gradient"/><linearGradient id="linear-gradient-6" x1="464" y1="501.82" x2="491.77" y2="501.82" xlink:href="#linear-gradient"/><linearGradient id="linear-gradient-7" x1="488.43" y1="506.46" x2="505.72" y2="506.46" xlink:href="#linear-gradient"/><linearGradient id="linear-gradient-8" x1="505.43" y1="506.13" x2="529.69" y2="506.13" xlink:href="#linear-gradient"/><linearGradient id="linear-gradient-9" x1="441.41" y1="557.78" x2="537.97" y2="557.78" xlink:href="#linear-gradient"/><linearGradient id="linear-gradient-10" x1="298.93" y1="486.33" x2="372.86" y2="486.33" xlink:href="#linear-gradient"/><linearGradient id="linear-gradient-11" x1="314.5" y1="501.53" x2="388.42" y2="501.53" gradientTransform="translate(487.59 -216.13) rotate(45)" xlink:href="#linear-gradient"/><linearGradient id="linear-gradient-12" x1="315.1" y1="501.27" x2="389.02" y2="501.27" gradientTransform="translate(985.19 -3.02) rotate(90)" xlink:href="#linear-gradient"/><linearGradient id="linear-gradient-13" x1="315.34" y1="500.67" x2="389.27" y2="500.67" gradientTransform="translate(1186.36 499.52) rotate(135)" xlink:href="#linear-gradient"/><linearGradient id="linear-gradient-14" x1="315.09" y1="500.06" x2="389.01" y2="500.06" gradientTransform="translate(973.25 997.12) rotate(180)" xlink:href="#linear-gradient"/><linearGradient id="linear-gradient-15" x1="0" y1="485.04" x2="970.09" y2="485.04" xlink:href="#linear-gradient"/><linearGradient id="linear-gradient-16" x1="366.12" y1="158.09" x2="602.32" y2="158.09" xlink:href="#linear-gradient"/><linearGradient id="linear-gradient-17" x1="162.31" y1="249.01" x2="308.72" y2="249.01" xlink:href="#linear-gradient"/><linearGradient id="linear-gradient-18" x1="174.34" y1="183.21" x2="282.06" y2="183.21" xlink:href="#linear-gradient"/><linearGradient id="linear-gradient-19" x1="174.34" y1="190.15" x2="282.06" y2="190.15" xlink:href="#linear-gradient"/><linearGradient id="linear-gradient-20" x1="174.34" y1="197.08" x2="282.06" y2="197.08" xlink:href="#linear-gradient"/><linearGradient id="linear-gradient-21" x1="174.34" y1="204.02" x2="282.06" y2="204.02" xlink:href="#linear-gradient"/><linearGradient id="linear-gradient-22" x1="174.34" y1="210.96" x2="282.06" y2="210.96" xlink:href="#linear-gradient"/><linearGradient id="linear-gradient-23" x1="174.34" y1="217.89" x2="282.06" y2="217.89" xlink:href="#linear-gradient"/><linearGradient id="linear-gradient-24" x1="174.34" y1="224.83" x2="282.06" y2="224.83" xlink:href="#linear-gradient"/><linearGradient id="linear-gradient-25" x1="174.34" y1="231.76" x2="282.06" y2="231.76" xlink:href="#linear-gradient"/><linearGradient id="linear-gradient-26" x1="174.34" y1="238.7" x2="282.06" y2="238.7" xlink:href="#linear-gradient"/><linearGradient id="linear-gradient-27" x1="174.34" y1="245.63" x2="282.06" y2="245.63" xlink:href="#linear-gradient"/><linearGradient id="linear-gradient-28" x1="174.34" y1="252.57" x2="282.06" y2="252.57" xlink:href="#linear-gradient"/><linearGradient id="linear-gradient-29" x1="174.34" y1="259.51" x2="282.06" y2="259.51" xlink:href="#linear-gradient"/><linearGradient id="linear-gradient-30" x1="174.34" y1="266.44" x2="282.06" y2="266.44" xlink:href="#linear-gradient"/><linearGradient id="linear-gradient-31" x1="174.34" y1="273.38" x2="282.06" y2="273.38" xlink:href="#linear-gradient"/><linearGradient id="linear-gradient-32" x1="174.34" y1="280.31" x2="282.06" y2="280.31" xlink:href="#linear-gradient"/><linearGradient id="linear-gradient-33" x1="174.34" y1="287.25" x2="282.06" y2="287.25" xlink:href="#linear-gradient"/><linearGradient id="linear-gradient-34" x1="174.34" y1="294.19" x2="282.06" y2="294.19" xlink:href="#linear-gradient"/><linearGradient id="linear-gradient-35" x1="174.34" y1="301.12" x2="282.06" y2="301.12" xlink:href="#linear-gradient"/><linearGradient id="linear-gradient-36" x1="174.34" y1="308.06" x2="282.06" y2="308.06" xlink:href="#linear-gradient"/><linearGradient id="linear-gradient-37" x1="174.34" y1="314.99" x2="282.06" y2="314.99" xlink:href="#linear-gradient"/><linearGradient id="linear-gradient-38" x1="174.34" y1="321.93" x2="282.06" y2="321.93" xlink:href="#linear-gradient"/><linearGradient id="linear-gradient-39" x1="290.2" y1="242.05" x2="298.22" y2="242.05" xlink:href="#linear-gradient"/><linearGradient id="linear-gradient-40" x1="290.2" y1="179.06" x2="298.22" y2="179.06" xlink:href="#linear-gradient"/><linearGradient id="linear-gradient-41" x1="290.2" y1="315.86" x2="298.22" y2="315.86" xlink:href="#linear-gradient"/><linearGradient id="linear-gradient-42" x1="144.15" y1="746.64" x2="255.13" y2="746.64" xlink:href="#linear-gradient"/><linearGradient id="linear-gradient-43" x1="256.61" y1="758.9" x2="352.98" y2="758.9" xlink:href="#linear-gradient"/><linearGradient id="linear-gradient-44" x1="143.89" y1="721.91" x2="354.16" y2="721.91" xlink:href="#linear-gradient"/><linearGradient id="linear-gradient-45" x1="731.15" y1="500.25" x2="862.09" y2="500.25" xlink:href="#linear-gradient"/><linearGradient id="linear-gradient-46" x1="742.19" y1="500.25" x2="851.05" y2="500.25" xlink:href="#linear-gradient"/><linearGradient id="linear-gradient-47" x1="745.27" y1="606.03" x2="878.46" y2="606.03" xlink:href="#linear-gradient"/><linearGradient id="linear-gradient-48" x1="749.09" y1="548.19" x2="777.7" y2="548.19" xlink:href="#linear-gradient"/><linearGradient id="linear-gradient-49" x1="792.13" y1="548.19" x2="820.75" y2="548.19" xlink:href="#linear-gradient"/><linearGradient id="linear-gradient-50" x1="749.09" y1="591.12" x2="777.7" y2="591.12" xlink:href="#linear-gradient"/><linearGradient id="linear-gradient-51" x1="792.13" y1="591.12" x2="820.75" y2="591.12" xlink:href="#linear-gradient"/><linearGradient id="linear-gradient-52" x1="749.09" y1="634.05" x2="777.7" y2="634.05" xlink:href="#linear-gradient"/><linearGradient id="linear-gradient-53" x1="792.13" y1="634.05" x2="820.75" y2="634.05" xlink:href="#linear-gradient"/><linearGradient id="linear-gradient-54" x1="432.36" y1="782.89" x2="547.96" y2="782.89" xlink:href="#linear-gradient"/><linearGradient id="linear-gradient-55" x1="417.59" y1="750.04" x2="533.18" y2="750.04" gradientTransform="translate(40.13 1658.17) rotate(-120)" xlink:href="#linear-gradient"/><linearGradient id="linear-gradient-56" x1="473.86" y1="748.19" x2="589.46" y2="748.19" gradientTransform="translate(1461.55 773.9) rotate(120)" xlink:href="#linear-gradient"/><linearGradient id="linear-gradient-57" x1="198.02" y1="549.88" x2="241.51" y2="549.88" xlink:href="#linear-gradient"/><linearGradient id="linear-gradient-58" x1="185.09" y1="549.88" x2="254.45" y2="549.88" xlink:href="#linear-gradient"/><linearGradient id="linear-gradient-59" x1="156.59" y1="550.05" x2="282.19" y2="550.05" xlink:href="#linear-gradient"/><linearGradient id="linear-gradient-60" x1="103.31" y1="463.98" x2="146.8" y2="463.98" xlink:href="#linear-gradient"/><linearGradient id="linear-gradient-61" x1="90.37" y1="463.98" x2="159.73" y2="463.98" xlink:href="#linear-gradient"/><linearGradient id="linear-gradient-62" x1="61.88" y1="464.14" x2="187.48" y2="464.14" xlink:href="#linear-gradient"/><linearGradient id="linear-gradient-63" x1="689.93" y1="332.68" x2="842.81" y2="332.68" xlink:href="#linear-gradient"/><linearGradient id="linear-gradient-64" x1="705.14" y1="437.32" x2="820.49" y2="437.32" xlink:href="#linear-gradient"/><linearGradient id="linear-gradient-65" x1="701.12" y1="357.11" x2="809.73" y2="357.11" xlink:href="#linear-gradient"/><linearGradient id="linear-gradient-66" x1="751.76" y1="329.29" x2="786.01" y2="329.29" xlink:href="#linear-gradient"/><linearGradient id="linear-gradient-67" x1="718.94" y1="367.32" x2="794.17" y2="367.32" xlink:href="#linear-gradient"/><linearGradient id="linear-gradient-68" x1="742.47" y1="179.42" x2="774.22" y2="179.42" xlink:href="#linear-gradient"/><linearGradient id="linear-gradient-69" x1="607.49" y1="790.3" x2="834.43" y2="790.3" xlink:href="#linear-gradient"/><linearGradient id="linear-gradient-70" x1="665.83" y1="730.26" x2="731.49" y2="730.26" xlink:href="#linear-gradient"/><linearGradient id="linear-gradient-71" x1="706.24" y1="785.26" x2="788.16" y2="785.26" xlink:href="#linear-gradient"/><linearGradient id="linear-gradient-72" x1="662.16" y1="781.57" x2="772.21" y2="781.57" xlink:href="#linear-gradient"/><linearGradient id="linear-gradient-73" x1="657.64" y1="745.73" x2="683.1" y2="745.73" xlink:href="#linear-gradient"/><linearGradient id="linear-gradient-74" x1="642.17" y1="748.54" x2="667.63" y2="748.54" xlink:href="#linear-gradient"/><linearGradient id="linear-gradient-75" x1="626.71" y1="751.35" x2="652.17" y2="751.35" xlink:href="#linear-gradient"/><linearGradient id="linear-gradient-76" x1="611.24" y1="754.16" x2="636.7" y2="754.16" xlink:href="#linear-gradient"/><linearGradient id="linear-gradient-77" x1="713.81" y1="804.1" x2="739.27" y2="804.1" xlink:href="#linear-gradient"/><linearGradient id="linear-gradient-78" x1="698.34" y1="806.91" x2="723.8" y2="806.91" xlink:href="#linear-gradient"/><linearGradient id="linear-gradient-79" x1="682.88" y1="809.72" x2="708.33" y2="809.72" xlink:href="#linear-gradient"/><linearGradient id="linear-gradient-80" x1="667.41" y1="812.53" x2="692.87" y2="812.53" xlink:href="#linear-gradient"/><linearGradient id="linear-gradient-81" x1="428.13" y1="103.07" x2="456.43" y2="103.07" xlink:href="#linear-gradient"/><linearGradient id="linear-gradient-82" x1="505.22" y1="103.07" x2="533.52" y2="103.07" xlink:href="#linear-gradient"/><linearGradient id="linear-gradient-83" x1="426.12" y1="229" x2="573.37" y2="229" xlink:href="#linear-gradient"/></defs><title>creation x nihilo</title><g id="creation_x_nihilo" data-name="creation x nihilo"><path class="cls-1" d="M554,541.21h0a84.17,84.17,0,0,0,13.15-45.44c0-45-34.66-81.49-77.42-81.49s-77.43,36.49-77.43,81.49a83.62,83.62,0,0,0,20.09,54.76c6.78,9.19,16.67,22.82,20.91,29.74l.14.2v27H526V580.5l.15-.23c4.28-7,14.32-20.81,21.1-30a82.43,82.43,0,0,0,6.69-9Z" transform="translate(-14.96 -14.96)"/><line class="cls-2" x1="446.89" y1="607.41" x2="502.57" y2="607.41"/><line class="cls-3" x1="449.05" y1="624" x2="500.41" y2="624"/><line class="cls-4" x1="456.38" y1="640.59" x2="493.08" y2="640.59"/><path class="cls-5" d="M464.54,507.27v1.55a26.3,26.3,0,0,1-5.16,4,8.71,8.71,0,0,1-4.08,1.34,3.81,3.81,0,0,1-3.48-1.82,7.41,7.41,0,0,1-1.14-4,5.48,5.48,0,0,1,.22-1.58,5.16,5.16,0,0,1,.55-1.24,14.28,14.28,0,0,1,1.17-1.53q4-4.69,7.41-4.7c1.16,0,1.75.33,1.75,1a4.36,4.36,0,0,1-1.13,2.12,10.21,10.21,0,0,1-2,2.07A39.05,39.05,0,0,0,455.4,507a2.12,2.12,0,0,0-.76,1.6,1.5,1.5,0,0,0,.77,1.27,3.58,3.58,0,0,0,2,.51,7.16,7.16,0,0,0,2.95-.73A36.69,36.69,0,0,0,464.54,507.27Zm-1.94-9.5a2.5,2.5,0,0,1-1.35-.4,1.18,1.18,0,0,1-.64-1,3.09,3.09,0,0,1,1.19-2.08,3.58,3.58,0,0,1,2.49-1.15,2.45,2.45,0,0,1,1.42.39,1.29,1.29,0,0,1,.57,1.14,3,3,0,0,1-1.17,2A3.62,3.62,0,0,1,462.6,497.77Z" transform="translate(-14.96 -14.96)"/><path class="cls-6" d="M477.33,507.31q-2.52,2.13-4.5,3.61a33.42,33.42,0,0,1-3.22,2.22,4.51,4.51,0,0,1-1.7.74,2.6,2.6,0,0,1-1.67-.9,7.45,7.45,0,0,1-1.58-2.27,6.42,6.42,0,0,1-.66-2.8c0-1.38.9-2.76,2.68-4.16a25.4,25.4,0,0,1,6.11-3.47,15.42,15.42,0,0,1,5.14-1.38,4,4,0,0,1,2.74,1.31q2.19-3.42,4.18-6.07a34,34,0,0,1,3.32-3.95c.89-.87,1.53-1.3,1.91-1.3a1.71,1.71,0,0,1,1.16.46,1.33,1.33,0,0,1,.53,1c0,.73-.73,2-2.17,3.79s-2.88,3.54-4.28,5.24a43.4,43.4,0,0,0-3.63,5,8.9,8.9,0,0,0-1.51,4.58c0,1.28.55,1.91,1.66,1.91a5.53,5.53,0,0,0,2.51-.84c1-.56,2.44-1.49,4.31-2.81v1.55q-6.17,5.93-9.51,5.93a2.27,2.27,0,0,1-1.92-.77,3.69,3.69,0,0,1-.59-2.27A15.72,15.72,0,0,1,477.33,507.31Zm2.11-5.18a44.44,44.44,0,0,0-6,2.05,26.68,26.68,0,0,0-4.13,1.94,3.59,3.59,0,0,0-1.12,1.6,5.12,5.12,0,0,0-.48,1.76.72.72,0,0,0,.28.59,1.08,1.08,0,0,0,.72.24,2.12,2.12,0,0,0,.91-.26,17.27,17.27,0,0,0,1.64-1l1.47-.95c.32-.21,1-.67,2.16-1.37s1.92-1.25,2.44-1.65a6.86,6.86,0,0,0,1.31-1.33A4.65,4.65,0,0,0,479.44,502.13Z" transform="translate(-14.96 -14.96)"/><path class="cls-7" d="M493.22,508v.54a2.43,2.43,0,0,0,.83,1.95,3.22,3.22,0,0,0,2.17.7,9.18,9.18,0,0,0,2.89-.49,18,18,0,0,0,3-1.29c1-.54,2.19-1.26,3.62-2.17v1.3a33.47,33.47,0,0,1-6.05,4.43,11.94,11.94,0,0,1-5.74,1.54,5.46,5.46,0,0,1-4-1.47,5.4,5.4,0,0,1-1.48-4,6.42,6.42,0,0,1,1.4-4,18,18,0,0,1,4.56-3.84,19.3,19.3,0,0,1,4.31-2.08,12.38,12.38,0,0,1,3.82-.7,4.27,4.27,0,0,1,2.13.45,1.5,1.5,0,0,1,.78,1.37,3.78,3.78,0,0,1-1.34,2.67,15.12,15.12,0,0,1-4.09,2.64A48.53,48.53,0,0,1,493.22,508Zm.29-1.38a18,18,0,0,0,4.39-1.85,11.19,11.19,0,0,0,2.7-2.11,2.91,2.91,0,0,0,.87-1.48c0-.32-.2-.49-.6-.49a5.21,5.21,0,0,0-1.67.49,14.31,14.31,0,0,0-2.34,1.28,10.73,10.73,0,0,0-2.13,1.85A5.29,5.29,0,0,0,493.51,506.65Z" transform="translate(-14.96 -14.96)"/><path class="cls-8" d="M509.06,503.47a36.67,36.67,0,0,1,8.42-4.36,20.81,20.81,0,0,1,6.3-1.42,1.83,1.83,0,0,1,1.11.37,2.9,2.9,0,0,1,.82.86,1.64,1.64,0,0,1,.3.72.59.59,0,0,1-.4.56,9.54,9.54,0,0,1-1.4.44l.51.87c.21.35.37.64.49.86a1.37,1.37,0,0,1,.17.59c0,.34-.46,1-1.38,1.9s-1.57,1.61-1.94,2.05a2.38,2.38,0,0,0-.56,1.61c0,1.05.65,1.58,1.94,1.58s3.41-.93,6.25-2.79v1.3q-7.22,6-10.33,6a2,2,0,0,1-1.58-.54,2.36,2.36,0,0,1-.48-1.61,12.11,12.11,0,0,1,1.63-4.86q-4.17,3.44-6.19,4.89a6.28,6.28,0,0,1-3.34,1.46,2.7,2.7,0,0,1-1.57-.81,7.76,7.76,0,0,1-1.67-2.09,5.42,5.42,0,0,1-.73-2.67,4.76,4.76,0,0,1,.26-1.67,3.86,3.86,0,0,1,1-1.37A22.32,22.32,0,0,1,509.06,503.47Zm13.67-2.34a69.61,69.61,0,0,0-10.58,4.29q-3.15,1.77-3.15,3.63a1.93,1.93,0,0,0,.31,1.12,1,1,0,0,0,.86.44,3.82,3.82,0,0,0,1.11-.3,22.06,22.06,0,0,0,5.48-3.43Q519.25,504.77,522.73,501.13Z" transform="translate(-14.96 -14.96)"/><path class="cls-9" d="M451.52,511.41s-10.41,2.81-9.56,4.5,54.83,62.42,41.9,89.14H497s15.37-65.14,40.11-90.08l-10.68-4.5" transform="translate(-14.96 -14.96)"/><line class="cls-10" x1="369.36" y1="486.33" x2="302.43" y2="486.33"/><line class="cls-11" x1="405.13" y1="410.69" x2="357.81" y2="363.37"/><line class="cls-12" x1="483.91" y1="382.5" x2="483.91" y2="315.58"/><line class="cls-13" x1="559.55" y1="418.28" x2="606.87" y2="370.96"/><line class="cls-14" x1="587.74" y1="497.06" x2="654.66" y2="497.06"/><circle class="cls-15" cx="485.04" cy="485.04" r="475.04"/><circle class="cls-16" cx="484.22" cy="158.09" r="116.6"/><rect class="cls-17" x="163.81" y="163.81" width="143.41" height="170.4"/><line class="cls-18" x1="175.34" y1="183.21" x2="281.06" y2="183.21"/><line class="cls-19" x1="175.34" y1="190.15" x2="281.06" y2="190.15"/><line class="cls-20" x1="175.34" y1="197.08" x2="281.06" y2="197.08"/><line class="cls-21" x1="175.34" y1="204.02" x2="281.06" y2="204.02"/><line class="cls-22" x1="175.34" y1="210.96" x2="281.06" y2="210.96"/><line class="cls-23" x1="175.34" y1="217.89" x2="281.06" y2="217.89"/><line class="cls-24" x1="175.34" y1="224.83" x2="281.06" y2="224.83"/><line class="cls-25" x1="175.34" y1="231.76" x2="281.06" y2="231.76"/><line class="cls-26" x1="175.34" y1="238.7" x2="281.06" y2="238.7"/><line class="cls-27" x1="175.34" y1="245.63" x2="281.06" y2="245.63"/><line class="cls-28" x1="175.34" y1="252.57" x2="281.06" y2="252.57"/><line class="cls-29" x1="175.34" y1="259.51" x2="281.06" y2="259.51"/><line class="cls-30" x1="175.34" y1="266.44" x2="281.06" y2="266.44"/><line class="cls-31" x1="175.34" y1="273.38" x2="281.06" y2="273.38"/><line class="cls-32" x1="175.34" y1="280.31" x2="281.06" y2="280.31"/><line class="cls-33" x1="175.34" y1="287.25" x2="281.06" y2="287.25"/><line class="cls-34" x1="175.34" y1="294.19" x2="281.06" y2="294.19"/><line class="cls-35" x1="175.34" y1="301.12" x2="281.06" y2="301.12"/><line class="cls-36" x1="175.34" y1="308.06" x2="281.06" y2="308.06"/><line class="cls-37" x1="175.34" y1="314.99" x2="281.06" y2="314.99"/><line class="cls-38" x1="175.34" y1="321.93" x2="281.06" y2="321.93"/><circle class="cls-39" cx="294.21" cy="242.05" r="4.01"/><circle class="cls-40" cx="294.21" cy="179.06" r="4.01"/><circle class="cls-41" cx="294.21" cy="315.86" r="4.01"/><polygon class="cls-42" points="145.65 709.92 145.65 740.29 253.63 783.31 253.63 750.41 145.65 709.92"/><polygon class="cls-43" points="258.12 748.54 351.48 733.92 351.48 763.16 258.5 783.78 258.12 748.54"/><polygon class="cls-44" points="150.52 707.67 244.25 697.92 347.73 730.92 255.5 745.87 150.52 707.67"/><ellipse class="cls-45" cx="796.62" cy="500.25" rx="63.97" ry="21.93"/><ellipse class="cls-46" cx="796.62" cy="500.25" rx="52.08" ry="10.92"/><path class="cls-47" d="M746.77,526.88v143.4s66.36,38.24,130.19,0V526S823.25,560.62,746.77,526.88Z" transform="translate(-14.96 -14.96)"/><rect class="cls-48" x="750.09" y="534.88" width="26.62" height="26.62"/><rect class="cls-49" x="793.13" y="534.88" width="26.62" height="26.62"/><rect class="cls-50" x="750.09" y="577.81" width="26.62" height="26.62"/><rect class="cls-51" x="793.13" y="577.81" width="26.62" height="26.62"/><rect class="cls-52" x="750.09" y="620.74" width="26.62" height="26.62"/><rect class="cls-53" x="793.13" y="620.74" width="26.62" height="26.62"/><polygon class="cls-54" points="496.64 780.08 513.51 803.7 546.5 785.7 528.51 759.83 461.02 759.83 443.78 777.83 434.03 777.83 449.03 805.95 486.14 805.95 476.4 801.07 505.45 762.46 509.01 762.46 496.64 780.08"/><polygon class="cls-55" points="446.31 867.25 458.33 840.83 426.25 821.25 412.85 849.77 446.59 908.21 470.8 914.15 475.67 922.59 492.53 895.55 473.97 863.4 474.62 874.28 426.65 868.43 424.87 865.34 446.31 867.25"/><polygon class="cls-56" points="546.97 867.25 518.08 870.05 517.17 907.62 548.57 904.97 582.31 846.52 575.35 822.59 580.22 814.15 548.37 813.08 529.81 845.22 538.91 839.22 557.82 883.69 556.04 886.77 546.97 867.25"/><circle class="cls-57" cx="219.77" cy="549.88" r="20.25"/><circle class="cls-58" cx="219.77" cy="549.88" r="33.18"/><polygon class="cls-59" points="168.22 516.89 185.84 499.27 195.21 507.51 207.58 503.39 207.21 489.89 234.57 489.14 234.95 501.51 242.82 508.64 254.45 498.14 273.19 513.89 263.07 526.63 263.82 534.51 280.69 537.51 280.69 564.5 265.32 564.5 264.94 574.62 274.69 583.25 254.45 603.87 246.57 594.87 234.2 595.62 234.2 610.99 206.83 610.99 206.83 595.25 197.08 593.75 188.46 604.24 166.34 585.12 176.46 575 176.46 563.38 158.09 563.38 158.09 537.51 170.46 537.51 179.46 528.88 168.22 516.89"/><circle class="cls-60" cx="125.05" cy="463.98" r="20.25"/><circle class="cls-61" cx="125.05" cy="463.98" r="33.18"/><polygon class="cls-62" points="73.5 430.98 91.12 413.36 100.5 421.61 112.87 417.49 112.49 403.99 139.86 403.24 140.24 415.61 148.11 422.74 159.73 412.24 178.48 427.99 168.35 440.73 169.1 448.61 185.98 451.61 185.98 478.6 170.6 478.6 170.23 488.72 179.98 497.34 159.73 517.97 151.86 508.97 139.49 509.72 139.49 525.09 112.12 525.09 112.12 509.34 102.37 507.84 93.75 518.34 71.63 499.22 81.75 489.1 81.75 477.47 63.38 477.47 63.38 451.61 75.75 451.61 84.75 442.98 73.5 430.98"/><path class="cls-63" d="M693.34,457.14s54.46-1,69.08.1,71.23,5.24,77.23-5.63S834,297.9,826.9,293s-48.36-36.74-43.11-52.86l1.87-33.74H763.17s3,30-4.5,34.49-35.62,27-42,26.62S684.25,436.8,693.34,457.14Z" transform="translate(-14.96 -14.96)"/><path class="cls-64" d="M706.56,444.86s5.62-16.12,38.24-13.87,66,15,75,10.12" transform="translate(-14.96 -14.96)"/><path class="cls-65" d="M716.68,299h70.86s19.49-2.25,20.62,19.87-11.62,96.36-11.62,96.36l-93.73-.75Z" transform="translate(-14.96 -14.96)"/><path class="cls-66" d="M753.42,347.76l15-37.87s4.5-3,13.49,12.38-7.49,22.87-17.24,25.49S753.42,347.76,753.42,347.76Z" transform="translate(-14.96 -14.96)"/><path class="cls-67" d="M719.68,360.51s40.11,22.49,41.61,16.87,3.75-19.12,9-20.62,5.63.75,11.62,14.25,7.5-.75,10.88-9" transform="translate(-14.96 -14.96)"/><polygon class="cls-68" points="748.26 186.02 770.19 186.02 772.44 172.81 744.46 172.81 748.26 186.02"/><path class="cls-69" d="M608.14,758.29s108.54-51.73,114.16-51.73S832,814,832,814L721.18,872.46s-45.56,10.12-38.24-20.81S614.33,756.61,608.14,758.29Z" transform="translate(-14.96 -14.96)"/><polyline class="cls-70" points="692.16 752.9 668.26 727.03 703.69 708.47 730.4 736.87"/><polyline class="cls-71" points="737.43 750.09 785.8 800.7 755.43 819.54 707.35 767.52"/><path class="cls-72" d="M771.79,755.2s-81.26,23.9-108.54,53.15" transform="translate(-14.96 -14.96)"/><line class="cls-73" x1="658.7" y1="734.06" x2="682.04" y2="757.4"/><line class="cls-74" x1="643.23" y1="736.87" x2="666.57" y2="760.21"/><line class="cls-75" x1="627.77" y1="739.68" x2="651.11" y2="763.02"/><line class="cls-76" x1="612.3" y1="742.49" x2="635.64" y2="765.83"/><line class="cls-77" x1="714.87" y1="792.43" x2="738.2" y2="815.77"/><line class="cls-78" x1="699.4" y1="795.24" x2="722.74" y2="818.58"/><line class="cls-79" x1="683.94" y1="798.05" x2="707.27" y2="821.39"/><line class="cls-80" x1="668.47" y1="800.86" x2="691.81" y2="824.2"/><circle class="cls-81" cx="442.28" cy="103.07" r="12.65"/><circle class="cls-82" cx="519.37" cy="103.07" r="12.65"/><path class="cls-83" d="M571.87,218.84c0,13.27-32.29,24-72.13,24s-72.12-10.77-72.12-24,32.29,13.4,72.12,13.4S571.87,205.56,571.87,218.84Z" transform="translate(-14.96 -14.96)"/></g></svg>