<svg xmlns="http://www.w3.org/2000/svg" xmlns:xlink="http://www.w3.org/1999/xlink" viewBox="0 0 970.11 970.11"><defs><style>.cls-1,.cls-2,.cls-3,.cls-4,.cls-5{fill:none;stroke-miterlimit:10;}.cls-1{stroke-width:20px;stroke:url(#linear-gradient);}.cls-2,.cls-3,.cls-4,.cls-5{stroke-width:10px;}.cls-2{stroke:url(#linear-gradient-2);}.cls-3{stroke:url(#linear-gradient-3);}.cls-4{stroke:url(#linear-gradient-4);}.cls-5{stroke:url(#linear-gradient-5);}</style><linearGradient id="linear-gradient" x1="500" y1="14.99" x2="500" y2="985.01" gradientTransform="translate(609.38 -211.04) rotate(55.13)" gradientUnits="userSpaceOnUse"><stop offset="0" stop-color="#ed2024"/><stop offset="0.12" stop-color="#f26164"/><stop offset="0.25" stop-color="#f8a4a6"/><stop offset="0.36" stop-color="#fcd5d6"/><stop offset="0.45" stop-color="#fef4f4"/><stop offset="0.49" stop-color="#fff"/><stop offset="0.56" stop-color="#fffbfb"/><stop offset="0.63" stop-color="#feefef"/><stop offset="0.69" stop-color="#fcdbdb"/><stop offset="0.76" stop-color="#fabebf"/><stop offset="0.82" stop-color="#f79a9b"/><stop offset="0.89" stop-color="#f36d6f"/><stop offset="0.96" stop-color="#ef393c"/><stop offset="0.98" stop-color="#ed2024"/></linearGradient><linearGradient id="linear-gradient-2" x1="417.1" y1="371.89" x2="417.1" y2="862.15" gradientTransform="matrix(1, 0, 0, 1, 0, 0)" xlink:href="#linear-gradient"/><linearGradient id="linear-gradient-3" x1="685.2" y1="113.54" x2="685.2" y2="307" gradientTransform="matrix(1, 0, 0, 1, 0, 0)" xlink:href="#linear-gradient"/><linearGradient id="linear-gradient-4" x1="481.63" y1="286.67" x2="481.63" y2="347.74" gradientTransform="matrix(1, 0, 0, 1, 0, 0)" xlink:href="#linear-gradient"/><linearGradient id="linear-gradient-5" x1="578.88" y1="245.51" x2="578.88" y2="329.36" gradientTransform="matrix(1, 0, 0, 1, 0, 0)" xlink:href="#linear-gradient"/></defs><title>Wiz case</title><g id="wizcase"><circle class="cls-1" cx="485.06" cy="485.06" r="475.01"/><path class="cls-2" d="M588,845.6l-24.51-87.32s35.23-3.07,49.79-29.88,47.48-9.95,50.55-89.61c0,0-29.87-67.41-158.55-65.11l90.12,2.3s-14.55-52.34-5.87-67.15c0,0,18.38,88.34,79.66,101.36,0,0,44.94-64.59-29.62-113.1,0,0-60.76-139.92-177.7-89.88,0,0-86.3,53.11-65.36,128.68,0,0-15.83-49.53-8.68-74l-29.62-4.08S398,475.13,444,393.43c0,0-89.87-50.05-125.62,24,0,0-75.06-26.05-104.17,65.36,0,0-79.66,18.38-59.23,109.27,0,0-23,177.2,146.55,124.6,0,0,22-76.09-83.23-115.4,0,0,55.15,1,82.21,42.89,0,0,23-31.15,43.4-41.36,0,0-54.63,72-21.95,113.87,0,0,34.72,49.53,108.25,27.57,0,0,49,37.28,71,16.86Z" transform="translate(-14.94 -14.94)"/><path class="cls-3" d="M693.85,126.87s-99.06-35.74-107.23,40.85c0,0-34.73,40.85,17.36,70.47,0,0,58.21,98,151.15,51.07,0,0,51.06,0,37.78-96C792.91,193.26,767.38,131,693.85,126.87Z" transform="translate(-14.94 -14.94)"/><circle class="cls-4" cx="481.63" cy="317.2" r="25.53"/><path class="cls-5" d="M571.13,319.21S533,310.7,543.89,271.55s30.3-13.95,43.58-1.7,36.42,18,25.53,33.7S584.4,331.81,571.13,319.21Z" transform="translate(-14.94 -14.94)"/></g></svg>