<svg xmlns="http://www.w3.org/2000/svg" xmlns:xlink="http://www.w3.org/1999/xlink" viewBox="0 0 941.24 941.24"><defs><style>.cls-1,.cls-10,.cls-11,.cls-13,.cls-14,.cls-15,.cls-17,.cls-18,.cls-19,.cls-2,.cls-21,.cls-22,.cls-23,.cls-25,.cls-26,.cls-27,.cls-29,.cls-3,.cls-30,.cls-31,.cls-33,.cls-34,.cls-35,.cls-37,.cls-38,.cls-39,.cls-4,.cls-41,.cls-42,.cls-43,.cls-45,.cls-46,.cls-47,.cls-49,.cls-5,.cls-50,.cls-51,.cls-53,.cls-55,.cls-57,.cls-59,.cls-60,.cls-61,.cls-62,.cls-64,.cls-65,.cls-66,.cls-67,.cls-7,.cls-9{fill:none;}.cls-1,.cls-67{stroke-miterlimit:10;}.cls-1{stroke-width:10px;stroke:url(#linear-gradient);}.cls-10,.cls-11,.cls-13,.cls-14,.cls-15,.cls-17,.cls-18,.cls-19,.cls-2,.cls-21,.cls-22,.cls-23,.cls-25,.cls-26,.cls-27,.cls-29,.cls-3,.cls-30,.cls-31,.cls-33,.cls-34,.cls-35,.cls-37,.cls-38,.cls-39,.cls-4,.cls-41,.cls-42,.cls-43,.cls-45,.cls-46,.cls-47,.cls-49,.cls-5,.cls-50,.cls-51,.cls-53,.cls-55,.cls-57,.cls-59,.cls-60,.cls-61,.cls-62,.cls-64,.cls-65,.cls-66,.cls-7,.cls-9{stroke-linecap:round;stroke-linejoin:round;}.cls-10,.cls-11,.cls-13,.cls-14,.cls-15,.cls-17,.cls-18,.cls-19,.cls-2,.cls-21,.cls-22,.cls-23,.cls-25,.cls-3,.cls-34,.cls-35,.cls-37,.cls-38,.cls-39,.cls-4,.cls-41,.cls-42,.cls-43,.cls-45,.cls-46,.cls-47,.cls-49,.cls-5,.cls-50,.cls-51,.cls-53,.cls-55,.cls-57,.cls-59,.cls-60,.cls-61,.cls-62,.cls-64,.cls-65,.cls-66,.cls-7,.cls-9{stroke-width:5px;}.cls-2{stroke:url(#linear-gradient-2);}.cls-3{stroke:url(#linear-gradient-3);}.cls-4{stroke:url(#linear-gradient-4);}.cls-5{stroke:url(#linear-gradient-5);}.cls-6{fill:url(#linear-gradient-6);}.cls-7{stroke:url(#linear-gradient-7);}.cls-8{fill:url(#linear-gradient-8);}.cls-9{stroke:url(#linear-gradient-9);}.cls-10{stroke:url(#linear-gradient-10);}.cls-11{stroke:url(#linear-gradient-11);}.cls-12{fill:url(#linear-gradient-12);}.cls-13{stroke:url(#linear-gradient-13);}.cls-14{stroke:url(#linear-gradient-14);}.cls-15{stroke:url(#linear-gradient-15);}.cls-16{fill:url(#linear-gradient-16);}.cls-17{stroke:url(#linear-gradient-17);}.cls-18{stroke:url(#linear-gradient-18);}.cls-19{stroke:url(#linear-gradient-19);}.cls-20{fill:url(#linear-gradient-20);}.cls-21{stroke:url(#linear-gradient-21);}.cls-22{stroke:url(#linear-gradient-22);}.cls-23{stroke:url(#linear-gradient-23);}.cls-24{fill:url(#linear-gradient-24);}.cls-25{stroke:url(#linear-gradient-25);}.cls-26,.cls-27,.cls-29,.cls-30,.cls-31,.cls-33{stroke-width:2px;}.cls-26{stroke:url(#linear-gradient-26);}.cls-27{stroke:url(#linear-gradient-27);}.cls-28{fill:url(#linear-gradient-28);}.cls-29{stroke:url(#linear-gradient-29);}.cls-30{stroke:url(#linear-gradient-30);}.cls-31{stroke:url(#linear-gradient-31);}.cls-32{fill:url(#linear-gradient-32);}.cls-33{stroke:url(#linear-gradient-33);}.cls-34{stroke:url(#linear-gradient-34);}.cls-35{stroke:url(#linear-gradient-35);}.cls-36{fill:url(#linear-gradient-36);}.cls-37{stroke:url(#linear-gradient-37);}.cls-38{stroke:url(#linear-gradient-38);}.cls-39{stroke:url(#linear-gradient-39);}.cls-40{fill:url(#linear-gradient-40);}.cls-41{stroke:url(#linear-gradient-41);}.cls-42{stroke:url(#linear-gradient-42);}.cls-43{stroke:url(#linear-gradient-43);}.cls-44{fill:url(#linear-gradient-44);}.cls-45{stroke:url(#linear-gradient-45);}.cls-46{stroke:url(#linear-gradient-46);}.cls-47{stroke:url(#linear-gradient-47);}.cls-48{fill:url(#linear-gradient-48);}.cls-49{stroke:url(#linear-gradient-49);}.cls-50{stroke:url(#linear-gradient-50);}.cls-51{stroke:url(#linear-gradient-51);}.cls-52{fill:url(#linear-gradient-52);}.cls-53{stroke:url(#linear-gradient-53);}.cls-54{fill:url(#linear-gradient-54);}.cls-55{stroke:url(#linear-gradient-55);}.cls-56{fill:url(#linear-gradient-56);}.cls-57{stroke:url(#linear-gradient-57);}.cls-58{fill:url(#linear-gradient-58);}.cls-59{stroke:url(#linear-gradient-59);}.cls-60{stroke:url(#linear-gradient-60);}.cls-61{stroke:url(#linear-gradient-61);}.cls-62{stroke:url(#linear-gradient-62);}.cls-63{fill:url(#linear-gradient-63);}.cls-64{stroke:url(#linear-gradient-64);}.cls-65{stroke:url(#linear-gradient-65);}.cls-66{stroke:url(#linear-gradient-66);}.cls-67{stroke-width:20px;stroke:url(#linear-gradient-67);}</style><linearGradient id="linear-gradient" x1="770.82" y1="444.4" x2="232.31" y2="250.82" gradientTransform="translate(-1.57 152.39)" gradientUnits="userSpaceOnUse"><stop offset="0" stop-color="#ed2024"/><stop offset="0.12" stop-color="#f26164"/><stop offset="0.25" stop-color="#f8a4a6"/><stop offset="0.36" stop-color="#fcd5d6"/><stop offset="0.45" stop-color="#fef4f4"/><stop offset="0.49" stop-color="#fff"/><stop offset="0.56" stop-color="#fffbfb"/><stop offset="0.63" stop-color="#feefef"/><stop offset="0.69" stop-color="#fcdbdb"/><stop offset="0.76" stop-color="#fabebf"/><stop offset="0.82" stop-color="#f79a9b"/><stop offset="0.89" stop-color="#f36d6f"/><stop offset="0.96" stop-color="#ef393c"/><stop offset="0.98" stop-color="#ed2024"/></linearGradient><linearGradient id="linear-gradient-2" x1="-504.61" y1="554.73" x2="-383.54" y2="554.73" gradientTransform="matrix(-1, 0, 0, 1, 371.85, 0)" xlink:href="#linear-gradient"/><linearGradient id="linear-gradient-3" x1="-480.1" y1="637.49" x2="-423.82" y2="637.49" gradientTransform="matrix(-1, 0, 0, 1, 371.85, 0)" xlink:href="#linear-gradient"/><linearGradient id="linear-gradient-4" x1="518.05" y1="452.12" x2="567.77" y2="452.12" gradientTransform="matrix(1, 0, 0, 1, 0, 0)" xlink:href="#linear-gradient"/><linearGradient id="linear-gradient-5" x1="501.5" y1="399.97" x2="547.83" y2="399.97" gradientTransform="matrix(1, 0, 0, 1, 0, 0)" xlink:href="#linear-gradient"/><linearGradient id="linear-gradient-6" x1="504.92" y1="390.82" x2="565.97" y2="390.82" gradientTransform="translate(-29.38 -198.06) scale(1 1.38)" xlink:href="#linear-gradient"/><linearGradient id="linear-gradient-7" x1="500.71" y1="428.46" x2="567.77" y2="428.46" gradientTransform="matrix(1, 0, 0, 1, 0, 0)" xlink:href="#linear-gradient"/><linearGradient id="linear-gradient-8" x1="171.52" y1="354.89" x2="239.11" y2="354.89" gradientTransform="translate(-29.38 -198.06) scale(1 1.38)" xlink:href="#linear-gradient"/><linearGradient id="linear-gradient-9" x1="167.12" y1="343.82" x2="240.83" y2="343.82" gradientTransform="matrix(1, 0, 0, 1, 0, 0)" xlink:href="#linear-gradient"/><linearGradient id="linear-gradient-10" x1="179.51" y1="485.37" x2="229.22" y2="485.37" gradientTransform="matrix(1, 0, 0, 1, 0, 0)" xlink:href="#linear-gradient"/><linearGradient id="linear-gradient-11" x1="162.95" y1="433.22" x2="209.28" y2="433.22" gradientTransform="matrix(1, 0, 0, 1, 0, 0)" xlink:href="#linear-gradient"/><linearGradient id="linear-gradient-12" x1="166.38" y1="414.87" x2="227.42" y2="414.87" gradientTransform="translate(-29.38 -198.06) scale(1 1.38)" xlink:href="#linear-gradient"/><linearGradient id="linear-gradient-13" x1="162.16" y1="461.71" x2="229.22" y2="461.71" gradientTransform="matrix(1, 0, 0, 1, 0, 0)" xlink:href="#linear-gradient"/><linearGradient id="linear-gradient-14" x1="473.13" y1="469.39" x2="522.84" y2="469.39" gradientTransform="matrix(1, 0, 0, 1, 0, 0)" xlink:href="#linear-gradient"/><linearGradient id="linear-gradient-15" x1="456.57" y1="417.25" x2="502.91" y2="417.25" gradientTransform="matrix(1, 0, 0, 1, 0, 0)" xlink:href="#linear-gradient"/><linearGradient id="linear-gradient-16" x1="460" y1="403.31" x2="521.05" y2="403.31" gradientTransform="translate(-29.38 -198.06) scale(1 1.38)" xlink:href="#linear-gradient"/><linearGradient id="linear-gradient-17" x1="455.78" y1="445.74" x2="522.84" y2="445.74" gradientTransform="matrix(1, 0, 0, 1, 0, 0)" xlink:href="#linear-gradient"/><linearGradient id="linear-gradient-18" x1="481.45" y1="360.56" x2="531.16" y2="360.56" gradientTransform="matrix(1, 0, 0, 1, 0, 0)" xlink:href="#linear-gradient"/><linearGradient id="linear-gradient-19" x1="464.89" y1="308.41" x2="511.23" y2="308.41" gradientTransform="matrix(1, 0, 0, 1, 0, 0)" xlink:href="#linear-gradient"/><linearGradient id="linear-gradient-20" x1="468.32" y1="324.58" x2="529.37" y2="324.58" gradientTransform="translate(-29.38 -198.06) scale(1 1.38)" xlink:href="#linear-gradient"/><linearGradient id="linear-gradient-21" x1="464.1" y1="336.9" x2="531.16" y2="336.9" gradientTransform="matrix(1, 0, 0, 1, 0, 0)" xlink:href="#linear-gradient"/><linearGradient id="linear-gradient-22" x1="670.78" y1="495.81" x2="704.06" y2="495.81" gradientTransform="matrix(1, 0, 0, 1, 0, 0)" xlink:href="#linear-gradient"/><linearGradient id="linear-gradient-23" x1="660.31" y1="462.83" x2="691.45" y2="462.83" gradientTransform="matrix(1, 0, 0, 1, 0, 0)" xlink:href="#linear-gradient"/><linearGradient id="linear-gradient-24" x1="663.39" y1="443.84" x2="702.01" y2="443.84" gradientTransform="translate(-29.38 -198.06) scale(1 1.38)" xlink:href="#linear-gradient"/><linearGradient id="linear-gradient-25" x1="659.81" y1="480.85" x2="704.06" y2="480.85" gradientTransform="matrix(1, 0, 0, 1, 0, 0)" xlink:href="#linear-gradient"/><linearGradient id="linear-gradient-26" x1="721.67" y1="496.25" x2="740.91" y2="496.25" gradientTransform="matrix(1, 0, 0, 1, 0, 0)" xlink:href="#linear-gradient"/><linearGradient id="linear-gradient-27" x1="715.28" y1="476.14" x2="733.22" y2="476.14" gradientTransform="matrix(1, 0, 0, 1, 0, 0)" xlink:href="#linear-gradient"/><linearGradient id="linear-gradient-28" x1="716.64" y1="458.54" x2="740.18" y2="458.54" gradientTransform="translate(-29.38 -198.06) scale(1 1.38)" xlink:href="#linear-gradient"/><linearGradient id="linear-gradient-29" x1="714.98" y1="487.13" x2="740.91" y2="487.13" gradientTransform="matrix(1, 0, 0, 1, 0, 0)" xlink:href="#linear-gradient"/><linearGradient id="linear-gradient-30" x1="551.02" y1="354.7" x2="570.27" y2="354.7" gradientTransform="matrix(1, 0, 0, 1, 0, 0)" xlink:href="#linear-gradient"/><linearGradient id="linear-gradient-31" x1="544.63" y1="334.59" x2="562.58" y2="334.59" gradientTransform="matrix(1, 0, 0, 1, 0, 0)" xlink:href="#linear-gradient"/><linearGradient id="linear-gradient-32" x1="545.99" y1="356.14" x2="569.54" y2="356.14" gradientTransform="translate(-29.38 -198.06) scale(1 1.38)" xlink:href="#linear-gradient"/><linearGradient id="linear-gradient-33" x1="544.33" y1="345.58" x2="570.27" y2="345.58" gradientTransform="matrix(1, 0, 0, 1, 0, 0)" xlink:href="#linear-gradient"/><linearGradient id="linear-gradient-34" x1="241.46" y1="431.34" x2="301.41" y2="431.34" gradientTransform="matrix(1, 0, 0, 1, 0, 0)" xlink:href="#linear-gradient"/><linearGradient id="linear-gradient-35" x1="221.11" y1="367.25" x2="276.91" y2="367.25" gradientTransform="matrix(1, 0, 0, 1, 0, 0)" xlink:href="#linear-gradient"/><linearGradient id="linear-gradient-36" x1="224.75" y1="362.44" x2="299.78" y2="362.44" gradientTransform="translate(-29.38 -198.06) scale(1 1.38)" xlink:href="#linear-gradient"/><linearGradient id="linear-gradient-37" x1="220.14" y1="402.26" x2="301.41" y2="402.26" gradientTransform="matrix(1, 0, 0, 1, 0, 0)" xlink:href="#linear-gradient"/><linearGradient id="linear-gradient-38" x1="385.42" y1="447.45" x2="426.65" y2="447.45" gradientTransform="matrix(1, 0, 0, 1, 0, 0)" xlink:href="#linear-gradient"/><linearGradient id="linear-gradient-39" x1="372.01" y1="412.91" x2="410.5" y2="412.91" gradientTransform="matrix(1, 0, 0, 1, 0, 0)" xlink:href="#linear-gradient"/><linearGradient id="linear-gradient-40" x1="375.26" y1="407.11" x2="424.72" y2="407.11" gradientTransform="translate(-29.38 -198.06) scale(1 1.38)" xlink:href="#linear-gradient"/><linearGradient id="linear-gradient-41" x1="371.37" y1="431.77" x2="426.65" y2="431.77" gradientTransform="matrix(1, 0, 0, 1, 0, 0)" xlink:href="#linear-gradient"/><linearGradient id="linear-gradient-42" x1="435.71" y1="410.6" x2="476.94" y2="410.6" gradientTransform="matrix(1, 0, 0, 1, 0, 0)" xlink:href="#linear-gradient"/><linearGradient id="linear-gradient-43" x1="422.29" y1="376.07" x2="460.78" y2="376.07" gradientTransform="matrix(1, 0, 0, 1, 0, 0)" xlink:href="#linear-gradient"/><linearGradient id="linear-gradient-44" x1="425.55" y1="380.46" x2="475.01" y2="380.46" gradientTransform="translate(-29.38 -198.06) scale(1 1.38)" xlink:href="#linear-gradient"/><linearGradient id="linear-gradient-45" x1="421.65" y1="394.93" x2="476.94" y2="394.93" gradientTransform="matrix(1, 0, 0, 1, 0, 0)" xlink:href="#linear-gradient"/><linearGradient id="linear-gradient-46" x1="310.58" y1="434.3" x2="383.03" y2="434.3" gradientTransform="matrix(1, 0, 0, 1, 0, 0)" xlink:href="#linear-gradient"/><linearGradient id="linear-gradient-47" x1="285.61" y1="355.64" x2="352.96" y2="355.64" gradientTransform="matrix(1, 0, 0, 1, 0, 0)" xlink:href="#linear-gradient"/><linearGradient id="linear-gradient-48" x1="289.51" y1="348.3" x2="381.59" y2="348.3" gradientTransform="translate(-29.38 -198.06) scale(1 1.38)" xlink:href="#linear-gradient"/><linearGradient id="linear-gradient-49" x1="284.42" y1="398.61" x2="383.03" y2="398.61" gradientTransform="matrix(1, 0, 0, 1, 0, 0)" xlink:href="#linear-gradient"/><linearGradient id="linear-gradient-50" x1="600.55" y1="476.86" x2="672.99" y2="476.86" gradientTransform="matrix(1, 0, 0, 1, 0, 0)" xlink:href="#linear-gradient"/><linearGradient id="linear-gradient-51" x1="575.57" y1="398.21" x2="642.92" y2="398.21" gradientTransform="matrix(1, 0, 0, 1, 0, 0)" xlink:href="#linear-gradient"/><linearGradient id="linear-gradient-52" x1="579.48" y1="379.09" x2="671.55" y2="379.09" gradientTransform="translate(-29.38 -198.06) scale(1 1.38)" xlink:href="#linear-gradient"/><linearGradient id="linear-gradient-53" x1="574.39" y1="441.18" x2="672.99" y2="441.18" gradientTransform="matrix(1, 0, 0, 1, 0, 0)" xlink:href="#linear-gradient"/><linearGradient id="linear-gradient-54" x1="276.31" y1="480.89" x2="343.9" y2="480.89" gradientTransform="translate(-29.38 -198.06) scale(1 1.38)" xlink:href="#linear-gradient"/><linearGradient id="linear-gradient-55" x1="271.91" y1="518" x2="345.62" y2="518" gradientTransform="matrix(1, 0, 0, 1, 0, 0)" xlink:href="#linear-gradient"/><linearGradient id="linear-gradient-56" x1="741.42" y1="475.01" x2="809.02" y2="475.01" gradientTransform="translate(-29.38 -198.06) scale(1 1.38)" xlink:href="#linear-gradient"/><linearGradient id="linear-gradient-57" x1="737.02" y1="509.87" x2="810.74" y2="509.87" gradientTransform="matrix(1, 0, 0, 1, 0, 0)" xlink:href="#linear-gradient"/><linearGradient id="linear-gradient-58" x1="369.31" y1="461.67" x2="436.9" y2="461.67" gradientTransform="translate(-29.38 -198.06) scale(1 1.38)" xlink:href="#linear-gradient"/><linearGradient id="linear-gradient-59" x1="364.91" y1="491.43" x2="438.62" y2="491.43" gradientTransform="matrix(1, 0, 0, 1, 0, 0)" xlink:href="#linear-gradient"/><linearGradient id="linear-gradient-60" x1="201.18" y1="576.46" x2="798.82" y2="576.46" gradientTransform="matrix(1, 0, 0, 1, 0, 0)" xlink:href="#linear-gradient"/><linearGradient id="linear-gradient-61" x1="403.55" y1="359.86" x2="475.99" y2="359.86" gradientTransform="matrix(1, 0, 0, 1, 0, 0)" xlink:href="#linear-gradient"/><linearGradient id="linear-gradient-62" x1="378.57" y1="281.21" x2="445.92" y2="281.21" gradientTransform="matrix(1, 0, 0, 1, 0, 0)" xlink:href="#linear-gradient"/><linearGradient id="linear-gradient-63" x1="382.48" y1="294.45" x2="474.55" y2="294.45" gradientTransform="translate(-29.38 -198.06) scale(1 1.38)" xlink:href="#linear-gradient"/><linearGradient id="linear-gradient-64" x1="377.39" y1="324.18" x2="475.99" y2="324.18" gradientTransform="matrix(1, 0, 0, 1, 0, 0)" xlink:href="#linear-gradient"/><linearGradient id="linear-gradient-65" x1="125.39" y1="553.73" x2="246.46" y2="553.73" gradientTransform="matrix(1, 0, 0, 1, 0, 0)" xlink:href="#linear-gradient"/><linearGradient id="linear-gradient-66" x1="149.9" y1="636.49" x2="206.18" y2="636.49" gradientTransform="matrix(1, 0, 0, 1, 0, 0)" xlink:href="#linear-gradient"/><linearGradient id="linear-gradient-67" x1="942.99" y1="659.24" x2="57.01" y2="340.76" gradientTransform="translate(483.33 -236.37) rotate(46.03)" xlink:href="#linear-gradient"/></defs><title>food labelling</title><g id="food_labelling" data-name="food labelling"><rect class="cls-1" x="281.35" y="281.35" width="437.31" height="437.31" transform="translate(-236.49 470.62) rotate(-45)"/><path class="cls-2" d="M798.17,558.74l-40.28-44.27S861.7,564.77,874,595" transform="translate(-29.38 -29.38)"/><path class="cls-3" d="M798.17,613s47.19,30.64,51.28,49" transform="translate(-29.38 -29.38)"/><path class="cls-4" d="M565.15,424l-29.28,3-15.32,52.5s24.78,3.51,44.72-5.69C565.27,473.87,565.15,424.36,565.15,424Z" transform="translate(-29.38 -29.38)"/><path class="cls-5" d="M545.33,380.32l-13,43.25H504V376.38S525.71,382.68,545.33,380.32Z" transform="translate(-29.38 -29.38)"/><ellipse class="cls-6" cx="506.07" cy="342.18" rx="30.52" ry="4.31"/><path class="cls-7" d="M504.45,376.38s24,9.7,60.82,0v97.49s-26.25,13.6-62.06,2C503.21,475.85,504,375.91,504.45,376.38Z" transform="translate(-29.38 -29.38)"/><ellipse class="cls-8" cx="175.93" cy="292.52" rx="33.8" ry="4.77"/><path class="cls-9" d="M171,329.5s26.56,2.6,67.34,0v26.85s-29.06,3.64-68.71.53C169.62,356.88,170.46,329.37,171,329.5Z" transform="translate(-29.38 -29.38)"/><path class="cls-10" d="M226.61,457.27l-29.29,3L182,512.81s24.77,3.51,44.71-5.69C226.72,507.12,226.61,457.61,226.61,457.27Z" transform="translate(-29.38 -29.38)"/><path class="cls-11" d="M206.78,413.57l-13,43.25H165.45V409.63S187.16,415.93,206.78,413.57Z" transform="translate(-29.38 -29.38)"/><ellipse class="cls-12" cx="167.52" cy="375.43" rx="30.52" ry="4.31"/><path class="cls-13" d="M165.9,409.63s24,9.7,60.82,0v97.49s-26.24,13.59-62.06,2C164.66,509.1,165.42,409.16,165.9,409.63Z" transform="translate(-29.38 -29.38)"/><path class="cls-14" d="M520.23,441.3l-29.28,3-15.32,52.5s24.78,3.5,44.71-5.69C520.34,491.15,520.23,441.63,520.23,441.3Z" transform="translate(-29.38 -29.38)"/><path class="cls-15" d="M500.41,397.6l-13,43.25H459.07V393.66S480.79,400,500.41,397.6Z" transform="translate(-29.38 -29.38)"/><ellipse class="cls-16" cx="461.15" cy="359.46" rx="30.52" ry="4.31"/><path class="cls-17" d="M459.52,393.66s24,9.7,60.82,0v97.49s-26.24,13.59-62.06,2C458.28,493.12,459,393.19,459.52,393.66Z" transform="translate(-29.38 -29.38)"/><path class="cls-18" d="M528.55,332.46l-29.28,3L484,388s24.78,3.51,44.71-5.69C528.66,382.31,528.55,332.8,528.55,332.46Z" transform="translate(-29.38 -29.38)"/><path class="cls-19" d="M508.73,288.76l-13,43.25H467.39V284.82S489.11,291.12,508.73,288.76Z" transform="translate(-29.38 -29.38)"/><ellipse class="cls-20" cx="469.47" cy="250.62" rx="30.52" ry="4.31"/><path class="cls-21" d="M467.84,284.82s24,9.7,60.82,0v97.49s-26.24,13.59-62.06,2C466.6,384.28,467.36,284.35,467.84,284.82Z" transform="translate(-29.38 -29.38)"/><path class="cls-22" d="M701.49,478,683,480l-9.69,33.21s15.67,2.22,28.28-3.6C701.56,509.57,701.49,478.25,701.49,478Z" transform="translate(-29.38 -29.38)"/><path class="cls-23" d="M689,450.39l-8.22,27.36H662.81V447.9S676.54,451.89,689,450.39Z" transform="translate(-29.38 -29.38)"/><ellipse class="cls-24" cx="653.32" cy="415.48" rx="19.31" ry="2.73"/><path class="cls-25" d="M663.09,447.9s15.18,6.14,38.47,0v61.67s-16.6,8.6-39.25,1.25C662.31,510.82,662.79,447.61,663.09,447.9Z" transform="translate(-29.38 -29.38)"/><path class="cls-26" d="M739.87,485.41l-11.3,1.18-5.9,20.25s9.55,1.35,17.24-2.2C739.91,504.64,739.87,485.55,739.87,485.41Z" transform="translate(-29.38 -29.38)"/><path class="cls-27" d="M732.22,468.56l-5,16.68H716.28V467S724.66,469.47,732.22,468.56Z" transform="translate(-29.38 -29.38)"/><ellipse class="cls-28" cx="699.03" cy="435.8" rx="11.77" ry="1.66"/><path class="cls-29" d="M716.45,467s9.26,3.74,23.46,0v37.6s-10.12,5.25-23.93.77C716,505.41,716.27,466.86,716.45,467Z" transform="translate(-29.38 -29.38)"/><path class="cls-30" d="M569.22,343.86,557.93,345,552,365.29s9.56,1.35,17.25-2.2C569.27,363.09,569.22,344,569.22,343.86Z" transform="translate(-29.38 -29.38)"/><path class="cls-31" d="M561.58,327l-5,16.68H545.63v-18.2S554,327.92,561.58,327Z" transform="translate(-29.38 -29.38)"/><ellipse class="cls-32" cx="528.39" cy="294.25" rx="11.77" ry="1.66"/><path class="cls-33" d="M545.81,325.49s9.25,3.74,23.46,0v37.6s-10.12,5.25-23.94.77C545.33,363.86,545.62,325.31,545.81,325.49Z" transform="translate(-29.38 -29.38)"/><path class="cls-34" d="M298.77,396.81l-36,3.73L244,465.06s30.45,4.32,55-7C298.91,458.08,298.77,397.22,298.77,396.81Z" transform="translate(-29.38 -29.38)"/><path class="cls-35" d="M274.41,343.1l-16,53.15H223.61v-58S250.3,346,274.41,343.1Z" transform="translate(-29.38 -29.38)"/><ellipse class="cls-36" cx="232.89" cy="302.96" rx="37.51" ry="5.29"/><path class="cls-37" d="M224.16,338.26s29.49,11.92,74.75,0V458.08s-32.25,16.7-76.27,2.42C222.64,460.5,223.58,337.68,224.16,338.26Z" transform="translate(-29.38 -29.38)"/><path class="cls-38" d="M424.06,428.83l-23.72,2-12.42,34.77S408,468,424.15,461.86C424.15,461.86,424.06,429.06,424.06,428.83Z" transform="translate(-29.38 -29.38)"/><path class="cls-39" d="M408,399.89l-10.54,28.64H374.51V397.28S392.1,401.45,408,399.89Z" transform="translate(-29.38 -29.38)"/><ellipse class="cls-40" cx="370.61" cy="364.71" rx="24.73" ry="2.85"/><path class="cls-41" d="M374.87,397.28s19.44,6.42,49.28,0v64.58s-21.26,9-50.28,1.3C373.87,463.16,374.49,397,374.87,397.28Z" transform="translate(-29.38 -29.38)"/><path class="cls-42" d="M474.35,392l-23.73,2-12.41,34.77s20.07,2.32,36.23-3.77C474.44,425,474.35,392.22,474.35,392Z" transform="translate(-29.38 -29.38)"/><path class="cls-43" d="M458.28,363.05l-10.53,28.64h-23V360.44S442.39,364.61,458.28,363.05Z" transform="translate(-29.38 -29.38)"/><ellipse class="cls-44" cx="420.9" cy="327.87" rx="24.73" ry="2.85"/><path class="cls-45" d="M425.16,360.44s19.44,6.42,49.28,0V425s-21.27,9-50.29,1.31C424.15,426.32,424.77,360.13,425.16,360.44Z" transform="translate(-29.38 -29.38)"/><path class="cls-46" d="M380.36,391.91l-44.17,4.59-23.11,79.19s37.38,5.29,67.45-8.58C380.53,467.11,380.36,392.42,380.36,391.91Z" transform="translate(-29.38 -29.38)"/><path class="cls-47" d="M350.46,326l-19.62,65.23H288.11V320.05S320.86,329.57,350.46,326Z" transform="translate(-29.38 -29.38)"/><ellipse class="cls-48" cx="306.17" cy="283.41" rx="46.04" ry="6.5"/><path class="cls-49" d="M288.79,320.05s36.18,14.64,91.74,0V467.11s-39.59,20.5-93.61,3C286.92,470.08,288.07,319.35,288.79,320.05Z" transform="translate(-29.38 -29.38)"/><path class="cls-50" d="M670.32,434.48l-44.17,4.58-23.1,79.19s37.37,5.29,67.44-8.58C670.49,509.67,670.32,435,670.32,434.48Z" transform="translate(-29.38 -29.38)"/><path class="cls-51" d="M640.42,368.56,620.8,433.8H578.07V362.62S610.83,372.13,640.42,368.56Z" transform="translate(-29.38 -29.38)"/><ellipse class="cls-52" cx="596.14" cy="325.98" rx="46.04" ry="6.5"/><path class="cls-53" d="M578.75,362.62s36.19,14.63,91.74,0V509.67s-39.58,20.5-93.6,3C576.89,512.65,578,361.92,578.75,362.62Z" transform="translate(-29.38 -29.38)"/><ellipse class="cls-54" cx="280.73" cy="466.7" rx="33.8" ry="4.77"/><path class="cls-55" d="M275.78,503.68s26.56,2.6,67.34,0v26.85s-29.05,3.64-68.71.53C274.41,531.06,275.25,503.55,275.78,503.68Z" transform="translate(-29.38 -29.38)"/><ellipse class="cls-56" cx="745.84" cy="458.56" rx="33.8" ry="4.77"/><path class="cls-57" d="M740.89,495.55s26.57,2.59,67.35,0V522.4s-29.06,3.64-68.72.53C739.52,522.93,740.36,495.42,740.89,495.55Z" transform="translate(-29.38 -29.38)"/><ellipse class="cls-58" cx="373.73" cy="440.13" rx="33.8" ry="4.77"/><path class="cls-59" d="M368.78,477.11s26.56,2.6,67.34,0V504s-29.06,3.64-68.71.53C367.41,504.49,368.25,477,368.78,477.11Z" transform="translate(-29.38 -29.38)"/><path class="cls-60" d="M796.32,630.26a1269.13,1269.13,0,0,0-592.64,0V557.74a1269.4,1269.4,0,0,1,592.64,0Z" transform="translate(-29.38 -29.38)"/><path class="cls-61" d="M473.32,317.48l-44.17,4.58-23.1,79.19s37.37,5.29,67.44-8.58C473.49,392.67,473.32,318,473.32,317.48Z" transform="translate(-29.38 -29.38)"/><path class="cls-62" d="M443.42,251.56,423.8,316.8H381.07V245.62S413.83,255.13,443.42,251.56Z" transform="translate(-29.38 -29.38)"/><ellipse class="cls-63" cx="399.14" cy="208.98" rx="46.04" ry="6.5"/><path class="cls-64" d="M381.75,245.62s36.19,14.63,91.74,0V392.67s-39.58,20.5-93.6,3C379.89,395.65,381,244.92,381.75,245.62Z" transform="translate(-29.38 -29.38)"/><path class="cls-65" d="M203.68,557.74,244,513.47S140.15,563.77,127.89,594" transform="translate(-29.38 -29.38)"/><path class="cls-66" d="M203.68,612s-47.19,30.64-51.28,49" transform="translate(-29.38 -29.38)"/><circle class="cls-67" cx="470.62" cy="470.62" r="460.62"/></g></svg>