<svg xmlns="http://www.w3.org/2000/svg" xmlns:xlink="http://www.w3.org/1999/xlink" viewBox="0 0 856.13 856.13"><defs><style>.cls-1,.cls-13,.cls-14,.cls-15,.cls-16,.cls-17,.cls-18,.cls-19,.cls-2,.cls-20,.cls-21,.cls-3,.cls-4,.cls-5,.cls-6,.cls-7,.cls-8{fill:none;stroke-miterlimit:10;}.cls-1,.cls-14,.cls-15,.cls-16,.cls-19,.cls-20,.cls-21{stroke-linecap:round;}.cls-1,.cls-19,.cls-20,.cls-21{stroke-width:18px;}.cls-1{stroke:url(#radial-gradient);}.cls-17,.cls-18,.cls-2,.cls-3{stroke-width:10px;}.cls-2{stroke:url(#radial-gradient-2);}.cls-3{stroke:url(#radial-gradient-3);}.cls-13,.cls-4,.cls-5{stroke-width:7px;}.cls-4{stroke:url(#radial-gradient-4);}.cls-5{stroke:url(#radial-gradient-5);}.cls-6{stroke-width:20px;stroke:url(#linear-gradient);}.cls-7{stroke-width:12px;stroke:url(#linear-gradient-2);}.cls-8{stroke-width:3px;stroke:url(#radial-gradient-6);}.cls-9{fill:url(#radial-gradient-7);}.cls-10{fill:url(#radial-gradient-8);}.cls-11{fill:url(#radial-gradient-9);}.cls-12{fill:url(#radial-gradient-10);}.cls-13{stroke:url(#radial-gradient-11);}.cls-14,.cls-15,.cls-16{stroke-width:14px;}.cls-14{stroke:url(#radial-gradient-12);}.cls-15{stroke:url(#radial-gradient-13);}.cls-16{stroke:url(#radial-gradient-14);}.cls-17{stroke:url(#radial-gradient-15);}.cls-18{stroke:url(#radial-gradient-16);}.cls-19{stroke:url(#radial-gradient-17);}.cls-20{stroke:url(#radial-gradient-18);}.cls-21{stroke:url(#radial-gradient-19);}</style><radialGradient id="radial-gradient" cx="340.55" cy="477.6" r="29.12" gradientTransform="translate(-276.1 149.32) rotate(-30)" gradientUnits="userSpaceOnUse"><stop offset="0" stop-color="#ed2024"/><stop offset="0.12" stop-color="#f26164"/><stop offset="0.25" stop-color="#f8a4a6"/><stop offset="0.36" stop-color="#fcd5d6"/><stop offset="0.45" stop-color="#fef4f4"/><stop offset="0.49" stop-color="#fff"/><stop offset="0.56" stop-color="#fffbfb"/><stop offset="0.63" stop-color="#feefef"/><stop offset="0.69" stop-color="#fcdbdb"/><stop offset="0.76" stop-color="#fabebf"/><stop offset="0.82" stop-color="#f79a9b"/><stop offset="0.89" stop-color="#f36d6f"/><stop offset="0.96" stop-color="#ef393c"/><stop offset="0.98" stop-color="#ed2024"/></radialGradient><radialGradient id="radial-gradient-2" cx="238.32" cy="562.3" r="39.58" gradientTransform="matrix(1, 0, 0, 1, 0, 0)" xlink:href="#radial-gradient"/><radialGradient id="radial-gradient-3" cx="388.58" cy="562.3" r="39.58" gradientTransform="matrix(-1, 0, 0, 1, 777.15, 0)" xlink:href="#radial-gradient"/><radialGradient id="radial-gradient-4" cx="631.45" cy="360.81" r="136.79" gradientTransform="matrix(1, 0, 0, 1, 0, 0)" xlink:href="#radial-gradient"/><radialGradient id="radial-gradient-5" cx="630.68" cy="204.55" r="55.22" gradientTransform="matrix(1, 0, 0, 1, 0, 0)" xlink:href="#radial-gradient"/><linearGradient id="linear-gradient" x1="0" y1="428.06" x2="856.13" y2="428.06" gradientTransform="matrix(1, 0, 0, 1, 0, 0)" xlink:href="#radial-gradient"/><linearGradient id="linear-gradient-2" x1="177.91" y1="437.34" x2="453.4" y2="437.34" gradientTransform="translate(-191.63 47.01) rotate(-18)" xlink:href="#radial-gradient"/><radialGradient id="radial-gradient-6" cx="483.96" cy="759.23" r="142.66" gradientTransform="matrix(1, 0, 0, 1, 0, 0)" xlink:href="#radial-gradient"/><radialGradient id="radial-gradient-7" cx="425.12" cy="767.1" r="28.22" gradientTransform="matrix(1, 0, 0, 1, 0, 0)" xlink:href="#radial-gradient"/><radialGradient id="radial-gradient-8" cx="480.8" cy="765.13" r="24.81" gradientTransform="matrix(1, 0, 0, 1, 0, 0)" xlink:href="#radial-gradient"/><radialGradient id="radial-gradient-9" cx="520.23" cy="765.13" r="19.61" gradientTransform="matrix(1, 0, 0, 1, 0, 0)" xlink:href="#radial-gradient"/><radialGradient id="radial-gradient-10" cx="555.22" cy="765.13" r="24.74" gradientTransform="matrix(1, 0, 0, 1, 0, 0)" xlink:href="#radial-gradient"/><radialGradient id="radial-gradient-11" cx="631.45" cy="378.17" r="145.61" gradientTransform="matrix(1, 0, 0, 1, 0, 0)" xlink:href="#radial-gradient"/><radialGradient id="radial-gradient-12" cx="632.98" cy="268.38" r="65.08" gradientTransform="matrix(1, 0, 0, 1, 0, 0)" xlink:href="#radial-gradient"/><radialGradient id="radial-gradient-13" cx="632.98" cy="301.57" r="65.08" gradientTransform="matrix(1, 0, 0, 1, 0, 0)" xlink:href="#radial-gradient"/><radialGradient id="radial-gradient-14" cx="590.6" cy="333.77" r="35.27" gradientTransform="matrix(1, 0, 0, 1, 0, 0)" xlink:href="#radial-gradient"/><radialGradient id="radial-gradient-15" cx="209.55" cy="320.99" r="69.51" gradientTransform="matrix(1, 0, 0, 1, 0, 0)" xlink:href="#radial-gradient"/><radialGradient id="radial-gradient-16" cx="-6.75" cy="320.99" r="69.51" gradientTransform="matrix(-1, 0, 0, 1, 415.63, 0)" xlink:href="#radial-gradient"/><radialGradient id="radial-gradient-17" cx="242.83" cy="319.06" r="41.43" gradientTransform="matrix(1, 0, 0, 1, 0, 0)" xlink:href="#radial-gradient"/><radialGradient id="radial-gradient-18" cx="663.55" cy="479.64" r="37.98" gradientTransform="matrix(0.92, -0.09, -0.08, 0.91, 23.5, 32.31)" xlink:href="#radial-gradient"/><radialGradient id="radial-gradient-19" cx="790.84" cy="542.38" r="37.98" gradientTransform="matrix(0.08, -1.1, 1.1, -0.12, -0.24, 1335.96)" xlink:href="#radial-gradient"/></defs><title>Kwiz net</title><g id="kwiznet"><line class="cls-1" x1="242.83" y1="365.4" x2="272.43" y2="419.92"/><path class="cls-2" d="M209.85,517.43v63.4S216.77,604,237,602.06a30.26,30.26,0,0,1,4-.14c4.71.14,17.33-.92,25.71-15.22V559.1" transform="translate(-71.94 -71.94)"/><path class="cls-3" d="M417,517.43v63.4s-6.91,23.13-27.19,21.23a30.16,30.16,0,0,0-4-.14c-4.72.14-17.34-.92-25.71-15.22V559.1" transform="translate(-71.94 -71.94)"/><rect class="cls-4" x="496.13" y="229.57" width="270.64" height="262.47" rx="24"/><path class="cls-5" d="M585.49,179.53h90.38a24,24,0,0,1,24,24v26a0,0,0,0,1,0,0H561.49a0,0,0,0,1,0,0v-26A24,24,0,0,1,585.49,179.53Z"/><circle class="cls-6" cx="428.06" cy="428.06" r="418.06"/><circle class="cls-7" cx="243.72" cy="365.4" r="131.74"/><path class="cls-8" d="M506.52,616.8c-5.89,37.15-39.24,37.15-45.12,0,5.88,37.15-25.83,47.46-42.91,13.94,17.08,33.52-9.9,53.12-36.5,26.52,26.6,26.6,7,53.58-26.52,36.5,33.52,17.08,23.21,48.79-13.94,42.91,37.15,5.88,37.15,39.23,0,45.11,37.15-5.88,47.46,25.83,13.94,42.91,33.52-17.08,53.12,9.9,26.52,36.5,26.6-26.6,53.58-7,36.5,26.52,17.08-33.52,48.79-23.21,42.91,13.94,5.88-37.15,39.23-37.15,45.12,0-5.89-37.15,25.83-47.46,42.9-13.94-17.07-33.52,9.91-53.12,36.51-26.52-26.6-26.6-7-53.58,26.51-36.5-33.51-17.08-23.21-48.79,13.95-42.91-37.16-5.88-37.16-39.23,0-45.11-37.16,5.88-47.46-25.83-13.95-42.91-33.51,17.08-53.11-9.9-26.51-36.5-26.6,26.6-53.58,7-36.51-26.52C532.35,664.26,500.63,654,506.52,616.8Z" transform="translate(-71.94 -71.94)"/><path class="cls-9" d="M442.68,784.92q2.34,1.58,5.1,3.07a17.93,17.93,0,0,1,3.66,2.37,3.3,3.3,0,0,1,.9,2.49,3.41,3.41,0,0,1-1.06,2.3,3.36,3.36,0,0,1-2.57,1.15,7.57,7.57,0,0,1-3-.79,33.5,33.5,0,0,1-4.09-2.3q-2.36-1.51-5.16-3.52a27.9,27.9,0,0,1-12.78,2.66,29.23,29.23,0,0,1-11-2,21.62,21.62,0,0,1-8.17-5.64,24.2,24.2,0,0,1-5-8.74,35.11,35.11,0,0,1-1.67-11,34.11,34.11,0,0,1,1.74-11.14,23.92,23.92,0,0,1,5.05-8.61,21.73,21.73,0,0,1,8-5.45,29.11,29.11,0,0,1,10.78-1.88,28.13,28.13,0,0,1,14.05,3.32,21.5,21.5,0,0,1,8.89,9.45,32.18,32.18,0,0,1,3,14.38Q449.47,777.59,442.68,784.92Zm-8.37-5.82a16.2,16.2,0,0,0,3.29-6,27.77,27.77,0,0,0,1.06-8.08,24.58,24.58,0,0,0-1.87-10,13.89,13.89,0,0,0-5.33-6.41,14.64,14.64,0,0,0-7.95-2.18,14.27,14.27,0,0,0-5.91,1.21,12.92,12.92,0,0,0-4.67,3.5,16.9,16.9,0,0,0-3.09,5.87,26.68,26.68,0,0,0-1.13,8q0,9.07,4.24,14a13.52,13.52,0,0,0,10.7,4.9,14.79,14.79,0,0,0,5.46-1.11,28,28,0,0,0-4.22-2.51,27.72,27.72,0,0,1-3.47-1.94,2.27,2.27,0,0,1-.93-1.94,2.51,2.51,0,0,1,.9-1.9,2.83,2.83,0,0,1,2-.83Q426.63,773.64,434.31,779.1Z" transform="translate(-71.94 -71.94)"/><path class="cls-10" d="M458.66,769.69V744.37a7,7,0,0,1,1.46-4.84,4.87,4.87,0,0,1,3.82-1.62,5,5,0,0,1,3.93,1.62,7,7,0,0,1,1.46,4.84v25.89a23.85,23.85,0,0,0,1,7.38,8.54,8.54,0,0,0,3.5,4.6,12.89,12.89,0,0,0,7,1.63q6.25,0,8.84-3.32t2.58-10.07V744.37a7.07,7.07,0,0,1,1.44-4.86,4.9,4.9,0,0,1,3.84-1.6,5.09,5.09,0,0,1,3.9,1.6,6.93,6.93,0,0,1,1.49,4.86v25.32A37.18,37.18,0,0,1,501.73,780a15.85,15.85,0,0,1-4.54,7.25,17.69,17.69,0,0,1-6.68,3.88,29.32,29.32,0,0,1-8.9,1.22A36.83,36.83,0,0,1,471.16,791,16.8,16.8,0,0,1,464,787a16.48,16.48,0,0,1-4.06-7A35.87,35.87,0,0,1,458.66,769.69Z" transform="translate(-71.94 -71.94)"/><path class="cls-11" d="M514.9,785.85V744.37a7,7,0,0,1,1.47-4.84,4.9,4.9,0,0,1,3.8-1.62,5.06,5.06,0,0,1,3.9,1.6,6.93,6.93,0,0,1,1.49,4.86v41.48a7,7,0,0,1-1.49,4.88,5,5,0,0,1-3.9,1.62,4.89,4.89,0,0,1-3.78-1.64A7,7,0,0,1,514.9,785.85Z" transform="translate(-71.94 -71.94)"/><path class="cls-12" d="M536.08,779.17l27-32.35H539.89a5.44,5.44,0,0,1-3.68-1.08A3.58,3.58,0,0,1,535,742.9a3.8,3.8,0,0,1,1.24-3,5.25,5.25,0,0,1,3.68-1.13h30q5.82,0,5.82,5.42a7.77,7.77,0,0,1-1,4.13,52.2,52.2,0,0,1-3.92,5l-25.28,30.09h27.87a5.63,5.63,0,0,1,3.7,1,3.52,3.52,0,0,1,1.22,2.85,3.9,3.9,0,0,1-1.22,3,5.37,5.37,0,0,1-3.7,1.11H539.17a7.68,7.68,0,0,1-5.24-1.56,5.3,5.3,0,0,1-1.76-4.18,4.49,4.49,0,0,1,.29-1.66,5.7,5.7,0,0,1,.77-1.41c.32-.45.77-1,1.34-1.69Z" transform="translate(-71.94 -71.94)"/><rect class="cls-13" x="496.13" y="229.57" width="270.64" height="297.19" rx="24"/><line class="cls-14" x1="548.21" y1="268.38" x2="717.74" y2="268.38"/><line class="cls-15" x1="548.21" y1="301.57" x2="717.74" y2="301.57"/><line class="cls-16" x1="548.21" y1="333.77" x2="632.98" y2="333.77"/><path class="cls-17" d="M166.19,381.43s23-73.54,104.94-100.34c0,0-28.27-34.65-71.61-20.79-23.82,7.62-42.12,26.65-50.25,50.3C142,331.7,139.86,360,166.19,381.43Z" transform="translate(-71.94 -71.94)"/><path class="cls-18" d="M465.74,381.43s-23-73.54-104.93-100.34c0,0,28.27-34.65,71.6-20.79,23.83,7.62,42.12,26.65,50.25,50.3C489.9,331.7,492.08,360,465.74,381.43Z" transform="translate(-71.94 -71.94)"/><line class="cls-19" x1="242.83" y1="270.17" x2="242.83" y2="367.96"/><line class="cls-20" x1="572.38" y1="388.21" x2="620.04" y2="437.23"/><line class="cls-21" x1="623.1" y1="438.77" x2="692.48" y2="369.38"/></g></svg>