<svg xmlns="http://www.w3.org/2000/svg" xmlns:xlink="http://www.w3.org/1999/xlink" viewBox="0 0 987.74 987.74"><defs><style>.cls-1,.cls-10,.cls-11,.cls-12,.cls-13,.cls-14,.cls-16,.cls-17,.cls-18,.cls-19,.cls-2,.cls-3,.cls-4,.cls-5,.cls-6,.cls-7,.cls-8,.cls-9{fill:none;stroke-miterlimit:10;}.cls-1,.cls-10,.cls-11,.cls-12,.cls-13,.cls-16,.cls-17,.cls-18,.cls-19,.cls-2,.cls-3,.cls-4,.cls-5,.cls-6,.cls-7,.cls-8,.cls-9{stroke-linecap:round;}.cls-1,.cls-2,.cls-3,.cls-4,.cls-5{stroke-width:2px;}.cls-1{stroke:url(#radial-gradient);}.cls-2{stroke:url(#radial-gradient-2);}.cls-3{stroke:url(#radial-gradient-3);}.cls-4{stroke:url(#radial-gradient-4);}.cls-5{stroke:url(#radial-gradient-5);}.cls-19,.cls-6,.cls-7{stroke-width:3px;}.cls-6{stroke:url(#radial-gradient-6);}.cls-7{stroke:url(#radial-gradient-7);}.cls-10,.cls-11,.cls-12,.cls-13,.cls-8,.cls-9{stroke-width:9px;}.cls-8{stroke:url(#radial-gradient-8);}.cls-9{stroke:url(#radial-gradient-9);}.cls-10{stroke:url(#radial-gradient-10);}.cls-11{stroke:url(#radial-gradient-11);}.cls-12{stroke:url(#radial-gradient-12);}.cls-13{stroke:url(#radial-gradient-13);}.cls-14{stroke-width:20px;stroke:url(#linear-gradient);}.cls-15{fill:url(#radial-gradient-14);}.cls-16,.cls-18{stroke-width:4px;}.cls-16{stroke:url(#radial-gradient-15);}.cls-17{stroke-width:10px;stroke:url(#radial-gradient-16);}.cls-18{stroke:url(#radial-gradient-17);}.cls-19{stroke:url(#radial-gradient-18);}.cls-20{fill:url(#radial-gradient-19);}.cls-21{fill:url(#radial-gradient-20);}.cls-22{fill:url(#radial-gradient-21);}.cls-23{fill:url(#radial-gradient-22);}</style><radialGradient id="radial-gradient" cx="396.02" cy="407.24" r="13.28" gradientUnits="userSpaceOnUse"><stop offset="0" stop-color="#ed2024"/><stop offset="0.12" stop-color="#f26164"/><stop offset="0.25" stop-color="#f8a4a6"/><stop offset="0.36" stop-color="#fcd5d6"/><stop offset="0.45" stop-color="#fef4f4"/><stop offset="0.49" stop-color="#fff"/><stop offset="0.56" stop-color="#fffbfb"/><stop offset="0.63" stop-color="#feefef"/><stop offset="0.69" stop-color="#fcdbdb"/><stop offset="0.76" stop-color="#fabebf"/><stop offset="0.82" stop-color="#f79a9b"/><stop offset="0.89" stop-color="#f36d6f"/><stop offset="0.96" stop-color="#ef393c"/><stop offset="0.98" stop-color="#ed2024"/></radialGradient><radialGradient id="radial-gradient-2" cx="433.38" cy="436.28" r="11.61" xlink:href="#radial-gradient"/><radialGradient id="radial-gradient-3" cx="477.02" cy="451.04" r="11.64" xlink:href="#radial-gradient"/><radialGradient id="radial-gradient-4" cx="526.01" cy="456.75" r="11.39" xlink:href="#radial-gradient"/><radialGradient id="radial-gradient-5" cx="579.2" cy="452.2" r="10.36" xlink:href="#radial-gradient"/><radialGradient id="radial-gradient-6" cx="491.83" cy="829.52" r="123.73" xlink:href="#radial-gradient"/><radialGradient id="radial-gradient-7" cx="543.28" cy="390.84" r="65.87" xlink:href="#radial-gradient"/><radialGradient id="radial-gradient-8" cx="241.65" cy="441.82" r="204.08" xlink:href="#radial-gradient"/><radialGradient id="radial-gradient-9" cx="271.22" cy="453.61" r="195.12" xlink:href="#radial-gradient"/><radialGradient id="radial-gradient-10" cx="328.6" cy="459.02" r="124.76" xlink:href="#radial-gradient"/><radialGradient id="radial-gradient-11" cx="2.61" cy="458.42" r="124.76" gradientTransform="matrix(-0.36, -0.08, 0.14, -0.63, 616.09, 796.17)" xlink:href="#radial-gradient"/><radialGradient id="radial-gradient-12" cx="-119.56" cy="531.02" r="139.77" gradientTransform="matrix(-1, 0, 0, 1, 615.92, 0)" xlink:href="#radial-gradient"/><radialGradient id="radial-gradient-13" cx="-197.31" cy="514.77" r="148.37" gradientTransform="matrix(-1, 0, 0, 1, 575.06, 0)" xlink:href="#radial-gradient"/><linearGradient id="linear-gradient" x1="493.87" y1="987.74" x2="493.87" y2="0" xlink:href="#radial-gradient"/><radialGradient id="radial-gradient-14" cx="484.74" cy="716.03" r="246.39" xlink:href="#radial-gradient"/><radialGradient id="radial-gradient-15" cx="492.96" cy="625.58" r="103.45" xlink:href="#radial-gradient"/><radialGradient id="radial-gradient-16" cx="491.8" cy="673.53" r="40" xlink:href="#radial-gradient"/><radialGradient id="radial-gradient-17" cx="493.88" cy="508.34" r="105.71" xlink:href="#radial-gradient"/><radialGradient id="radial-gradient-18" cx="563.5" cy="285.12" r="208.99" xlink:href="#radial-gradient"/><radialGradient id="radial-gradient-19" cx="433.37" cy="813.97" r="27.51" xlink:href="#radial-gradient"/><radialGradient id="radial-gradient-20" cx="483.54" cy="813.97" r="26.04" xlink:href="#radial-gradient"/><radialGradient id="radial-gradient-21" cx="517.3" cy="813.97" r="22.38" xlink:href="#radial-gradient"/><radialGradient id="radial-gradient-22" cx="550.95" cy="813.97" r="26" xlink:href="#radial-gradient"/></defs><title>Ex quit it</title><g id="xquizit"><polygon class="cls-1" points="386.63 412.3 404.43 395.53 395.12 420.78 386.63 412.3"/><polygon class="cls-2" points="424.1 441.69 442.93 426.99 437.55 446.86 424.1 441.69"/><polygon class="cls-3" points="469.83 459.28 481.43 440.03 484.53 463.63 469.83 459.28"/><polygon class="cls-4" points="517.54 467.66 525.61 446.76 534.41 468.39 517.54 467.66"/><polygon class="cls-5" points="572.6 463 578.18 442.83 585.84 459.28 572.6 463"/><path class="cls-6" d="M379.1,723.37s-22.59,33-23.43,79.77c-.79,44.16,21.57,85.4,58.23,110.05l1.33.89a130.47,130.47,0,0,0,138.17,4.14,224,224,0,0,0,25.75-17.58,129.84,129.84,0,0,0,48.66-109.09c-1.29-23.11-6.06-48.44-18.76-66.51C609.05,725,379.1,722.05,379.1,723.37Z" transform="translate(-6.13 -6.13)"/><path class="cls-7" d="M630.47,378.17s-62.3,33.53-164.13-4.34c0,0,81.65,51.22,150.57,36.32C616.91,410.15,624,394.32,630.47,378.17Z" transform="translate(-6.13 -6.13)"/><path class="cls-8" d="M327.88,172.34S173.27,256.16,157.44,436.85c0,0-26.08,157.09,109.28,274.44" transform="translate(-6.13 -6.13)"/><path class="cls-9" d="M350.85,195.31a94.76,94.76,0,0,0-22.34,11c-164.94,113.26-183.93,349.57-40.25,488.8,5.8,5.61,16.76,11.21,23.16,16.76" transform="translate(-6.13 -6.13)"/><path class="cls-10" d="M377.24,295.28c-117.18,75.88-130.68,234.2-28.59,327.48" transform="translate(-6.13 -6.13)"/><path class="cls-11" d="M637.82,605.53C690.7,566.66,717.26,467.45,693,400.38" transform="translate(-6.13 -6.13)"/><path class="cls-12" d="M774,350.13s18.33,52.54,18.76,54.36c9.39,40,8.56,82.24.5,118.44-11.25,50.45-44.93,122.3-121.85,189" transform="translate(-6.13 -6.13)"/><path class="cls-13" d="M793,318.25s23.6,31.88,33,118.6c0,0,26.08,157.09-109.28,274.44" transform="translate(-6.13 -6.13)"/><circle class="cls-14" cx="493.87" cy="493.87" r="483.87"/><polygon class="cls-15" points="197.05 707.02 770.98 707.02 833.07 725.03 136.41 725.03 197.05 707.02"/><path class="cls-16" d="M463,564.71a4.71,4.71,0,0,1,4.56,3.35c2.27,7.54,9.13,25.39,23.33,25.88,0,0,20,3.32,26.08-24.24a4.67,4.67,0,0,1,4.09-3.63c7.5-.79,24.92-2.3,29.77.14a6.39,6.39,0,0,0,.89.4c4,1.32,34.2,11.58,47.36,27.64,14.13,17.23,21.89,37.87,22.82,43.31.86,5,3.59,9.93-4,45.15a4.73,4.73,0,0,1-8,2.28c-13-13.59-46.4-43.3-92.86-47.59,0,0-11-1.08-21.52-11.89a4.74,4.74,0,0,0-7.06.22c-3,3.59-9.19,8.35-21.87,12a4.42,4.42,0,0,1-.61.13c-3.74.6-41.49,6.91-60.56,21.57a2,2,0,0,1-.3.21c-1.79,1.13-19.27,12.22-28.52,22.89a4.73,4.73,0,0,1-8-1.66c-5.18-15.67-12.55-49.87,8.31-79.38C400.76,567.62,449.29,564.81,463,564.71Z" transform="translate(-6.13 -6.13)"/><path class="cls-17" d="M444.3,657.48s16.14,26.7,45.53,31.87c0,0,39.53,5,49.47-31.87" transform="translate(-6.13 -6.13)"/><path class="cls-18" d="M354.89,472.24s-12.42,68.92,54,80.72c0,0,54.64,7.45,67.68-43.47h31S518,554.2,563.72,553.17c0,0,52.57-.42,61.68-43.68,0,0,4.86-37.87,6.72-43.46,0,0-95.31,60.44-210.79,6.21Z" transform="translate(-6.13 -6.13)"/><path class="cls-19" d="M358.61,397.11s42.23,72.65,111.77,83.82,144.67-4.34,164.54-24.21c0,0-.42-49.88,31-92.1,0,0,87.55,26.28,107.84-53,0,0,36-116.11-88.59-127.08,0,0-13-74.92-80.92-89,0,0-60.85-13-91.9,18.42,0,0-41.39-40.78-91.48-24.63,0,0-75.75,16.55-72.44,97.69s52.16,89.41,52.16,89.41,69.13,22.35,99.76-26.5c0,0,40.56-76.57-31.46-95.2,0,0-63.54-10.76-56.92,53.6,0,0,16.35-42,46.36-37.66,0,0,42,10.55,29.6,55.26,0,0-10.76,42-55.47,34.77,0,0-55.67-9.11-59.19-60.85,0,0-9.32-64.37,56.92-89.83,0,0,55.88-5.17,81.23,44.71,0,0,21.84-44.71,84.34-35.6,0,0,73.48,12,57.54,100.17,0,0,72.54-22.14,95.2,13.56L733,252.13l24.84,6.52s11.8,68-48.12,85.37c0,0-59.92,15.21-98.42-39.74s7,41.29,32.71,48.33c0,0-38.5,67.89-36.85,104.73,0,0-43,33.94-137.84,6.62,0,0-63.74-17.8-85.27-58.78l16.14-26.49s42.64,65.4,156.06,57.54c0,0-129.15-27.32-146.95-76.58,0,0,17-60,14.9-74.1,0,0-18.26-8.28-24.63-5.79C399.59,279.76,390,372.89,358.61,397.11Z" transform="translate(-6.13 -6.13)"/><path class="cls-20" d="M421.06,783.19h21.13l4.11,1.43q7.38,4.92,7.38,14.16v28.73l-.2,4.1q3.69,3.57,3.69,4.52v2q0,1.73-2.46,4.14c-1.64,1.62-2.81,2.42-3.49,2.42h-2.87c-.41,0-1.3-.54-2.67-1.64l-3.08,1.64H421.26a16.06,16.06,0,0,1-8.62-5.54q-3.08-3.6-3.07-11.49V799.4q0-10.18,6.56-14a12.75,12.75,0,0,1,3.9-1.85C420,783.35,420.37,783.21,421.06,783.19Zm4.1,43.91c.14,3,1.5,4.58,4.1,4.72H433q4.92,0,4.92-5.75V800.42q0-4.51-6.56-4.51-5.34.33-5.54,2.21c-.22,0-.43.62-.62,1.85Z" transform="translate(-6.13 -6.13)"/><path class="cls-21" d="M464.76,783.19h12.73c.54.19.82.8.82,1.84l-.21,44.53c.71,2.19,1.88,3.28,3.49,3.28h4.1c1,0,2-.82,3.08-2.46V785c0-1,.28-1.65.82-1.84h12.73c.95,0,1.43.54,1.43,1.64v46q0,7.63-7.18,12.31l-4.72,1.64H475q-6.81-1.92-9.44-6.15c-.65,0-1.34-2.46-2.05-7.39l-.2-46.58C463.49,783.66,464,783.19,464.76,783.19Z" transform="translate(-6.13 -6.13)"/><path class="cls-22" d="M510.73,783.19h13.13c.55.19.82.8.82,1.84v59.1l-.61.61H510.73c-.55-.19-.82-.8-.82-1.84V785C509.91,784,510.18,783.38,510.73,783.19Z" transform="translate(-6.13 -6.13)"/><path class="cls-23" d="M531.45,783.19h39l.62.61v18.06c0,.76-2.26,3.23-6.77,7.38L543.77,830v.41h26.67l.62.62v13.13l-.62.61h-39l-.61-.61V823.4q0-1.18,9-9.64L555.46,798v-.41h-24l-.61-.62V783.8Z" transform="translate(-6.13 -6.13)"/></g></svg>