<svg xmlns="http://www.w3.org/2000/svg" xmlns:xlink="http://www.w3.org/1999/xlink" viewBox="0 0 959.48 959.48"><defs><style>.cls-1,.cls-10,.cls-11,.cls-12,.cls-13,.cls-14,.cls-15,.cls-16,.cls-2,.cls-3,.cls-4,.cls-5,.cls-6,.cls-7,.cls-8,.cls-9{fill:none;stroke-linejoin:round;}.cls-1,.cls-14,.cls-15,.cls-16,.cls-2{stroke-linecap:round;}.cls-1,.cls-2,.cls-3{stroke-width:6px;}.cls-1{stroke:url(#linear-gradient);}.cls-2{stroke:url(#linear-gradient-2);}.cls-3{stroke:url(#linear-gradient-3);}.cls-10,.cls-11,.cls-12,.cls-13,.cls-4,.cls-5,.cls-6,.cls-7,.cls-8,.cls-9{stroke-width:8px;}.cls-4{stroke:url(#linear-gradient-4);}.cls-5{stroke:url(#linear-gradient-5);}.cls-6{stroke:url(#linear-gradient-6);}.cls-7{stroke:url(#linear-gradient-7);}.cls-8{stroke:url(#linear-gradient-8);}.cls-9{stroke:url(#linear-gradient-9);}.cls-10{stroke:url(#linear-gradient-10);}.cls-11{stroke:url(#linear-gradient-11);}.cls-12{stroke:url(#linear-gradient-12);}.cls-13{stroke:url(#linear-gradient-13);}.cls-14,.cls-15{stroke-width:10px;}.cls-14{stroke:url(#linear-gradient-14);}.cls-15{stroke:url(#linear-gradient-15);}.cls-16{stroke-width:20px;stroke:url(#linear-gradient-16);}</style><linearGradient id="linear-gradient" x1="449.63" y1="597.39" x2="455.63" y2="597.39" gradientUnits="userSpaceOnUse"><stop offset="0" stop-color="#ed2024"/><stop offset="0.12" stop-color="#f26164"/><stop offset="0.25" stop-color="#f8a4a6"/><stop offset="0.36" stop-color="#fcd5d6"/><stop offset="0.45" stop-color="#fef4f4"/><stop offset="0.49" stop-color="#fff"/><stop offset="0.56" stop-color="#fffbfb"/><stop offset="0.63" stop-color="#feefef"/><stop offset="0.69" stop-color="#fcdbdb"/><stop offset="0.76" stop-color="#fabebf"/><stop offset="0.82" stop-color="#f79a9b"/><stop offset="0.89" stop-color="#f36d6f"/><stop offset="0.96" stop-color="#ef393c"/><stop offset="0.98" stop-color="#ed2024"/></linearGradient><linearGradient id="linear-gradient-2" x1="448.07" y1="572.74" x2="497.71" y2="572.74" xlink:href="#linear-gradient"/><linearGradient id="linear-gradient-3" x1="431.43" y1="502.25" x2="473.04" y2="502.25" xlink:href="#linear-gradient"/><linearGradient id="linear-gradient-4" x1="145.77" y1="496.14" x2="241.79" y2="496.14" gradientTransform="matrix(-1, 0, 0, 1, 777.4, 0)" xlink:href="#linear-gradient"/><linearGradient id="linear-gradient-5" x1="313.55" y1="496.14" x2="409.58" y2="496.14" xlink:href="#linear-gradient"/><linearGradient id="linear-gradient-6" x1="289.55" y1="475.4" x2="297.55" y2="475.4" xlink:href="#linear-gradient"/><linearGradient id="linear-gradient-7" x1="274.23" y1="475.4" x2="282.23" y2="475.4" xlink:href="#linear-gradient"/><linearGradient id="linear-gradient-8" x1="258.91" y1="475.4" x2="266.91" y2="475.4" xlink:href="#linear-gradient"/><linearGradient id="linear-gradient-9" x1="243.59" y1="475.4" x2="251.59" y2="475.4" xlink:href="#linear-gradient"/><linearGradient id="linear-gradient-10" x1="652.55" y1="475.4" x2="660.55" y2="475.4" xlink:href="#linear-gradient"/><linearGradient id="linear-gradient-11" x1="637.23" y1="475.4" x2="645.23" y2="475.4" xlink:href="#linear-gradient"/><linearGradient id="linear-gradient-12" x1="621.91" y1="475.4" x2="629.91" y2="475.4" xlink:href="#linear-gradient"/><linearGradient id="linear-gradient-13" x1="606.59" y1="475.4" x2="614.59" y2="475.4" xlink:href="#linear-gradient"/><linearGradient id="linear-gradient-14" x1="229.33" y1="663.98" x2="675.94" y2="663.98" xlink:href="#linear-gradient"/><linearGradient id="linear-gradient-15" x1="229.33" y1="294.41" x2="675.94" y2="294.41" xlink:href="#linear-gradient"/><linearGradient id="linear-gradient-16" x1="0" y1="479.74" x2="959.48" y2="479.74" xlink:href="#linear-gradient"/></defs><title>edge talks</title><g id="EDGE_talks" data-name="EDGE talks"><line class="cls-1" x1="452.63" y1="567.42" x2="452.63" y2="627.36"/><path class="cls-2" d="M451.07,568s22.16,21.48,43.64,0" transform="translate(-20.26 -20.26)"/><rect class="cls-3" x="434.43" y="464.61" width="35.61" height="75.3" rx="17.81"/><path class="cls-4" d="M539.55,346.19s22.22,125.62,88.09,140.17c0,0-86.55,106.47-71.24,159.32" transform="translate(-20.26 -20.26)"/><path class="cls-5" d="M405.64,346.19s-22.21,125.62-88.09,140.17c0,0,86.56,106.47,71.24,159.32" transform="translate(-20.26 -20.26)"/><line class="cls-6" x1="293.55" y1="322.83" x2="293.55" y2="627.97"/><line class="cls-7" x1="278.23" y1="322.83" x2="278.23" y2="627.97"/><line class="cls-8" x1="262.91" y1="322.83" x2="262.91" y2="627.97"/><line class="cls-9" x1="247.59" y1="322.83" x2="247.59" y2="627.97"/><line class="cls-10" x1="656.55" y1="322.83" x2="656.55" y2="627.97"/><line class="cls-11" x1="641.23" y1="322.83" x2="641.23" y2="627.97"/><line class="cls-12" x1="625.91" y1="322.83" x2="625.91" y2="627.97"/><line class="cls-13" x1="610.59" y1="322.83" x2="610.59" y2="627.97"/><rect class="cls-14" x="234.33" y="627.74" width="436.61" height="72.48"/><rect class="cls-15" x="234.33" y="261.43" width="436.61" height="65.96"/><circle class="cls-16" cx="479.74" cy="479.74" r="469.74"/></g></svg>