<svg xmlns="http://www.w3.org/2000/svg" xmlns:xlink="http://www.w3.org/1999/xlink" viewBox="0 0 941.78 941.78"><defs><style>.cls-1,.cls-10,.cls-11,.cls-12,.cls-13,.cls-14,.cls-15,.cls-16,.cls-17,.cls-18,.cls-19,.cls-2,.cls-20,.cls-21,.cls-22,.cls-23,.cls-24,.cls-25,.cls-26,.cls-27,.cls-28,.cls-29,.cls-3,.cls-30,.cls-31,.cls-32,.cls-33,.cls-34,.cls-35,.cls-36,.cls-37,.cls-38,.cls-39,.cls-4,.cls-40,.cls-41,.cls-42,.cls-43,.cls-44,.cls-45,.cls-46,.cls-47,.cls-48,.cls-49,.cls-5,.cls-50,.cls-6,.cls-7,.cls-8,.cls-9{fill:none;stroke-miterlimit:10;}.cls-1,.cls-10,.cls-11,.cls-12,.cls-13,.cls-14,.cls-15,.cls-16,.cls-17,.cls-18,.cls-19,.cls-2,.cls-20,.cls-21,.cls-22,.cls-23,.cls-24,.cls-25,.cls-26,.cls-27,.cls-28,.cls-29,.cls-3,.cls-31,.cls-32,.cls-33,.cls-34,.cls-35,.cls-36,.cls-37,.cls-38,.cls-39,.cls-4,.cls-40,.cls-41,.cls-42,.cls-43,.cls-44,.cls-45,.cls-46,.cls-47,.cls-48,.cls-49,.cls-5,.cls-50,.cls-6,.cls-7,.cls-8,.cls-9{stroke-width:5px;}.cls-1{stroke:url(#linear-gradient);}.cls-2{stroke:url(#linear-gradient-2);}.cls-3{stroke:url(#linear-gradient-3);}.cls-4{stroke:url(#linear-gradient-5);}.cls-5{stroke:url(#linear-gradient-6);}.cls-6{stroke:url(#linear-gradient-7);}.cls-7{stroke:url(#linear-gradient-8);}.cls-8{stroke:url(#linear-gradient-9);}.cls-9{stroke:url(#linear-gradient-10);}.cls-10{stroke:url(#linear-gradient-11);}.cls-11{stroke:url(#linear-gradient-12);}.cls-12{stroke:url(#linear-gradient-13);}.cls-13{stroke:url(#linear-gradient-14);}.cls-14{stroke:url(#linear-gradient-15);}.cls-15{stroke:url(#linear-gradient-16);}.cls-16{stroke:url(#linear-gradient-17);}.cls-17{stroke:url(#linear-gradient-18);}.cls-18{stroke:url(#linear-gradient-19);}.cls-19{stroke:url(#linear-gradient-20);}.cls-20{stroke:url(#linear-gradient-21);}.cls-21{stroke:url(#linear-gradient-22);}.cls-22{stroke:url(#linear-gradient-23);}.cls-23{stroke:url(#linear-gradient-24);}.cls-24{stroke:url(#linear-gradient-25);}.cls-25{stroke:url(#linear-gradient-26);}.cls-26{stroke:url(#linear-gradient-27);}.cls-27{stroke:url(#linear-gradient-28);}.cls-28{stroke:url(#linear-gradient-29);}.cls-29{stroke:url(#linear-gradient-30);}.cls-30{stroke-width:18px;stroke:url(#linear-gradient-31);}.cls-31{stroke:url(#linear-gradient-32);}.cls-32{stroke:url(#linear-gradient-33);}.cls-33{stroke:url(#linear-gradient-34);}.cls-34{stroke:url(#linear-gradient-35);}.cls-35{stroke:url(#linear-gradient-36);}.cls-36{stroke:url(#linear-gradient-37);}.cls-37{stroke:url(#linear-gradient-38);}.cls-38{stroke:url(#linear-gradient-39);}.cls-39{stroke:url(#linear-gradient-40);}.cls-40{stroke:url(#linear-gradient-41);}.cls-41{stroke:url(#linear-gradient-42);}.cls-42{stroke:url(#linear-gradient-43);}.cls-43{stroke:url(#linear-gradient-44);}.cls-44{stroke:url(#linear-gradient-45);}.cls-45{stroke:url(#linear-gradient-46);}.cls-46{stroke:url(#linear-gradient-47);}.cls-47{stroke:url(#linear-gradient-48);}.cls-48{stroke:url(#linear-gradient-49);}.cls-49{stroke:url(#linear-gradient-50);}.cls-50{stroke:url(#linear-gradient-51);}</style><linearGradient id="linear-gradient" x1="429.55" y1="520.54" x2="438.57" y2="610.77" gradientTransform="translate(455.8 -382.26) rotate(45)" gradientUnits="userSpaceOnUse"><stop offset="0" stop-color="#ed2024"/><stop offset="0.12" stop-color="#f26164"/><stop offset="0.25" stop-color="#f8a4a6"/><stop offset="0.36" stop-color="#fcd5d6"/><stop offset="0.45" stop-color="#fef4f4"/><stop offset="0.49" stop-color="#fff"/><stop offset="0.56" stop-color="#fffbfb"/><stop offset="0.63" stop-color="#feefef"/><stop offset="0.69" stop-color="#fcdbdb"/><stop offset="0.76" stop-color="#fabebf"/><stop offset="0.82" stop-color="#f79a9b"/><stop offset="0.89" stop-color="#f36d6f"/><stop offset="0.96" stop-color="#ef393c"/><stop offset="0.98" stop-color="#ed2024"/></linearGradient><linearGradient id="linear-gradient-2" x1="478.19" y1="663.98" x2="487.21" y2="754.2" xlink:href="#linear-gradient"/><linearGradient id="linear-gradient-3" x1="528.19" y1="582.66" x2="537.22" y2="672.89" gradientTransform="translate(-524.87 325.32) rotate(-45)" xlink:href="#linear-gradient"/><linearGradient id="linear-gradient-5" x1="430.06" y1="680.8" x2="439.09" y2="771.02" gradientTransform="translate(-524.87 325.32) rotate(-45)" xlink:href="#linear-gradient"/><linearGradient id="linear-gradient-6" x1="578.13" y1="763.92" x2="587.15" y2="854.14" xlink:href="#linear-gradient"/><linearGradient id="linear-gradient-7" x1="457.82" y1="685.06" x2="466.85" y2="775.29" gradientTransform="matrix(-0.71, 0.71, 0.71, 0.71, 453.41, -382.26)" xlink:href="#linear-gradient"/><linearGradient id="linear-gradient-8" x1="507.1" y1="562.3" x2="516.13" y2="652.52" gradientTransform="matrix(-0.71, -0.71, -0.71, 0.71, 1434.07, 325.32)" xlink:href="#linear-gradient"/><linearGradient id="linear-gradient-9" x1="408.97" y1="660.43" x2="418" y2="750.66" gradientTransform="matrix(-0.71, -0.71, -0.71, 0.71, 1434.07, 325.32)" xlink:href="#linear-gradient"/><linearGradient id="linear-gradient-10" x1="557.76" y1="785" x2="566.79" y2="875.23" gradientTransform="matrix(-0.71, 0.71, 0.71, 0.71, 453.41, -382.26)" xlink:href="#linear-gradient"/><linearGradient id="linear-gradient-11" x1="527.57" y1="422.52" x2="536.6" y2="512.75" xlink:href="#linear-gradient"/><linearGradient id="linear-gradient-12" x1="627.23" y1="322.86" x2="636.25" y2="413.09" xlink:href="#linear-gradient"/><linearGradient id="linear-gradient-13" x1="382.17" y1="567.92" x2="391.19" y2="658.15" xlink:href="#linear-gradient"/><linearGradient id="linear-gradient-14" x1="409.96" y1="534.64" x2="418.98" y2="624.87" gradientTransform="translate(-407.28 207.77) rotate(-45)" xlink:href="#linear-gradient"/><linearGradient id="linear-gradient-15" x1="508.8" y1="633.48" x2="517.82" y2="723.71" gradientTransform="translate(-407.28 207.77) rotate(-45)" xlink:href="#linear-gradient"/><linearGradient id="linear-gradient-16" x1="607.64" y1="732.32" x2="616.66" y2="822.55" gradientTransform="translate(-407.28 207.77) rotate(-45)" xlink:href="#linear-gradient"/><linearGradient id="linear-gradient-17" x1="657.47" y1="782.15" x2="666.49" y2="872.37" gradientTransform="translate(-407.28 207.77) rotate(-45)" xlink:href="#linear-gradient"/><linearGradient id="linear-gradient-18" x1="532.22" y1="317.01" x2="539.26" y2="387.38" gradientTransform="translate(995 -108.41) rotate(90)" xlink:href="#linear-gradient"/><linearGradient id="linear-gradient-19" x1="601.55" y1="317.01" x2="608.59" y2="387.38" gradientTransform="translate(995 -108.41) rotate(90)" xlink:href="#linear-gradient"/><linearGradient id="linear-gradient-20" x1="670.87" y1="317.01" x2="677.91" y2="387.38" gradientTransform="translate(995 -108.41) rotate(90)" xlink:href="#linear-gradient"/><linearGradient id="linear-gradient-21" x1="532.22" y1="664.09" x2="539.26" y2="734.47" gradientTransform="translate(995 -108.41) rotate(90)" xlink:href="#linear-gradient"/><linearGradient id="linear-gradient-22" x1="601.55" y1="664.09" x2="608.59" y2="734.47" gradientTransform="translate(995 -108.41) rotate(90)" xlink:href="#linear-gradient"/><linearGradient id="linear-gradient-23" x1="670.87" y1="664.09" x2="677.91" y2="734.47" gradientTransform="translate(995 -108.41) rotate(90)" xlink:href="#linear-gradient"/><linearGradient id="linear-gradient-24" x1="325.35" y1="293.64" x2="331.56" y2="355.65" gradientTransform="matrix(1, 0, 0, 1, 0, 0)" xlink:href="#linear-gradient"/><linearGradient id="linear-gradient-25" x1="395.82" y1="293.64" x2="402.02" y2="355.65" gradientTransform="matrix(1, 0, 0, 1, 0, 0)" xlink:href="#linear-gradient"/><linearGradient id="linear-gradient-26" x1="466.29" y1="293.64" x2="472.49" y2="355.65" gradientTransform="matrix(1, 0, 0, 1, 0, 0)" xlink:href="#linear-gradient"/><linearGradient id="linear-gradient-27" x1="535.6" y1="293.64" x2="541.81" y2="355.65" gradientTransform="matrix(1, 0, 0, 1, 0, 0)" xlink:href="#linear-gradient"/><linearGradient id="linear-gradient-28" x1="604.91" y1="293.64" x2="611.12" y2="355.65" gradientTransform="matrix(1, 0, 0, 1, 0, 0)" xlink:href="#linear-gradient"/><linearGradient id="linear-gradient-29" x1="293.53" y1="693.93" x2="295.91" y2="717.8" gradientTransform="matrix(1, 0, 0, 1, 0, 0)" xlink:href="#linear-gradient"/><linearGradient id="linear-gradient-30" x1="643.26" y1="693.93" x2="645.65" y2="717.8" gradientTransform="matrix(1, 0, 0, 1, 0, 0)" xlink:href="#linear-gradient"/><linearGradient id="linear-gradient-31" x1="424.01" y1="2.3" x2="517.77" y2="939.48" gradientTransform="matrix(1, 0, 0, 1, 0, 0)" xlink:href="#linear-gradient"/><linearGradient id="linear-gradient-32" x1="464.17" y1="614.48" x2="475.01" y2="722.87" gradientTransform="matrix(1, 0, 0, 1, 0, 0)" xlink:href="#linear-gradient"/><linearGradient id="linear-gradient-33" x1="464.17" y1="270.45" x2="475.01" y2="378.84" gradientTransform="matrix(1, 0, 0, 1, 0, 0)" xlink:href="#linear-gradient"/><linearGradient id="linear-gradient-34" x1="646.08" y1="495.87" x2="656.4" y2="599.03" gradientTransform="translate(-326.41 -21.68)" xlink:href="#linear-gradient"/><linearGradient id="linear-gradient-35" x1="716.87" y1="608.33" x2="728.86" y2="728.14" gradientTransform="translate(-518.82 -70.84)" xlink:href="#linear-gradient"/><linearGradient id="linear-gradient-36" x1="716.87" y1="19.17" x2="728.86" y2="138.98" gradientTransform="translate(70.34 518.32)" xlink:href="#linear-gradient"/><linearGradient id="linear-gradient-37" x1="646.08" y1="149.31" x2="656.4" y2="252.47" gradientTransform="translate(20.15 324.88)" xlink:href="#linear-gradient"/><linearGradient id="linear-gradient-38" x1="171.75" y1="469.39" x2="178.76" y2="539.47" gradientTransform="matrix(1, 0, 0, 1, 0, 0)" xlink:href="#linear-gradient"/><linearGradient id="linear-gradient-39" x1="173.87" y1="435.3" x2="176.64" y2="462.89" gradientTransform="matrix(1, 0, 0, 1, 0, 0)" xlink:href="#linear-gradient"/><linearGradient id="linear-gradient-40" x1="173.87" y1="490.64" x2="176.64" y2="518.23" gradientTransform="matrix(1, 0, 0, 1, 0, 0)" xlink:href="#linear-gradient"/><linearGradient id="linear-gradient-41" x1="173.87" y1="574.4" x2="176.64" y2="602" gradientTransform="matrix(1, 0, 0, 1, 0, 0)" xlink:href="#linear-gradient"/><linearGradient id="linear-gradient-42" x1="173.87" y1="654.88" x2="176.64" y2="682.48" gradientTransform="matrix(1, 0, 0, 1, 0, 0)" xlink:href="#linear-gradient"/><linearGradient id="linear-gradient-43" x1="171.75" y1="552" x2="178.76" y2="622.08" gradientTransform="matrix(1, 0, 0, 1, 0, 0)" xlink:href="#linear-gradient"/><linearGradient id="linear-gradient-44" x1="171.75" y1="633.64" x2="178.76" y2="703.72" gradientTransform="matrix(1, 0, 0, 1, 0, 0)" xlink:href="#linear-gradient"/><linearGradient id="linear-gradient-45" x1="759.75" y1="469.39" x2="766.77" y2="539.47" gradientTransform="matrix(1, 0, 0, 1, 0, 0)" xlink:href="#linear-gradient"/><linearGradient id="linear-gradient-46" x1="761.88" y1="435.3" x2="764.64" y2="462.89" gradientTransform="matrix(1, 0, 0, 1, 0, 0)" xlink:href="#linear-gradient"/><linearGradient id="linear-gradient-47" x1="761.88" y1="490.64" x2="764.64" y2="518.23" gradientTransform="matrix(1, 0, 0, 1, 0, 0)" xlink:href="#linear-gradient"/><linearGradient id="linear-gradient-48" x1="761.88" y1="574.4" x2="764.64" y2="602" gradientTransform="matrix(1, 0, 0, 1, 0, 0)" xlink:href="#linear-gradient"/><linearGradient id="linear-gradient-49" x1="761.88" y1="654.88" x2="764.64" y2="682.48" gradientTransform="matrix(1, 0, 0, 1, 0, 0)" xlink:href="#linear-gradient"/><linearGradient id="linear-gradient-50" x1="759.75" y1="552" x2="766.77" y2="622.08" gradientTransform="matrix(1, 0, 0, 1, 0, 0)" xlink:href="#linear-gradient"/><linearGradient id="linear-gradient-51" x1="759.75" y1="633.64" x2="766.77" y2="703.72" gradientTransform="matrix(1, 0, 0, 1, 0, 0)" xlink:href="#linear-gradient"/></defs><title>edge night</title><g id="edge_night" data-name="edge night"><line class="cls-1" x1="395.85" y1="293.58" x2="329.63" y2="355.71"/><line class="cls-2" x1="328.82" y1="429.39" x2="262.61" y2="491.53"/><line class="cls-3" x1="264.65" y1="359.44" x2="326.78" y2="425.65"/><line class="cls-3" x1="264.65" y1="359.44" x2="326.78" y2="425.65"/><line class="cls-4" x1="264.65" y1="498.22" x2="326.78" y2="564.43"/><line class="cls-5" x1="328.82" y1="570.73" x2="262.61" y2="632.87"/><line class="cls-6" x1="609.69" y1="429.9" x2="675.91" y2="492.04"/><line class="cls-7" x1="673.87" y1="359.95" x2="611.73" y2="426.16"/><line class="cls-8" x1="673.87" y1="498.73" x2="611.73" y2="564.94"/><line class="cls-9" x1="609.69" y1="571.24" x2="675.91" y2="633.38"/><line class="cls-10" x1="534.48" y1="293.58" x2="468.26" y2="355.71"/><line class="cls-11" x1="675.41" y1="293.58" x2="609.2" y2="355.71"/><line class="cls-12" x1="328.85" y1="293.58" x2="262.63" y2="355.71"/><line class="cls-13" x1="264.67" y1="291.54" x2="326.81" y2="357.75"/><line class="cls-14" x1="404.45" y1="291.54" x2="466.59" y2="357.75"/><line class="cls-15" x1="544.23" y1="291.54" x2="606.37" y2="357.75"/><line class="cls-16" x1="614.7" y1="291.54" x2="676.84" y2="357.75"/><line class="cls-17" x1="678.09" y1="427.34" x2="607.51" y2="427.34"/><line class="cls-18" x1="678.09" y1="496.66" x2="607.51" y2="496.66"/><line class="cls-19" x1="678.09" y1="565.99" x2="607.51" y2="565.99"/><line class="cls-20" x1="331" y1="427.34" x2="260.43" y2="427.34"/><line class="cls-21" x1="331" y1="496.66" x2="260.43" y2="496.66"/><line class="cls-22" x1="331" y1="565.99" x2="260.43" y2="565.99"/><line class="cls-23" x1="328.45" y1="293.58" x2="328.45" y2="355.71"/><line class="cls-24" x1="398.92" y1="293.58" x2="398.92" y2="355.71"/><line class="cls-25" x1="469.39" y1="293.58" x2="469.39" y2="355.71"/><line class="cls-26" x1="538.7" y1="293.58" x2="538.7" y2="355.71"/><line class="cls-27" x1="608.02" y1="293.58" x2="608.02" y2="355.71"/><rect class="cls-28" x="260.47" y="699.99" width="68.5" height="11.75"/><rect class="cls-29" x="610.2" y="699.99" width="68.5" height="11.75"/><circle class="cls-30" cx="470.89" cy="470.89" r="461.89"/><rect class="cls-31" x="260.47" y="637.61" width="418.24" height="62.14"/><rect class="cls-32" x="260.47" y="293.58" width="418.24" height="62.14"/><rect class="cls-33" x="183.88" y="490.52" width="281.9" height="70.49" transform="translate(821.49 171.84) rotate(90)"/><rect class="cls-34" x="63.09" y="553.74" width="281.9" height="87.3" transform="translate(772.33 364.24) rotate(90)"/><rect class="cls-35" x="652.26" y="553.74" width="281.9" height="87.3" transform="translate(1361.49 -224.92) rotate(90)"/><rect class="cls-36" x="530.44" y="490.52" width="281.9" height="70.49" transform="translate(1168.05 -174.73) rotate(90)"/><circle class="cls-37" cx="175.26" cy="504.43" r="32.71"/><circle class="cls-38" cx="175.26" cy="449.1" r="11.37"/><circle class="cls-39" cx="175.26" cy="504.43" r="11.37"/><circle class="cls-40" cx="175.26" cy="588.2" r="11.37"/><circle class="cls-41" cx="175.26" cy="668.68" r="11.37"/><circle class="cls-42" cx="175.26" cy="587.04" r="32.71"/><circle class="cls-43" cx="175.26" cy="668.68" r="32.71"/><circle class="cls-44" cx="763.26" cy="504.43" r="32.71"/><circle class="cls-45" cx="763.26" cy="449.1" r="11.37"/><circle class="cls-46" cx="763.26" cy="504.43" r="11.37"/><circle class="cls-47" cx="763.26" cy="588.2" r="11.37"/><circle class="cls-48" cx="763.26" cy="668.68" r="11.37"/><circle class="cls-49" cx="763.26" cy="587.04" r="32.71"/><circle class="cls-50" cx="763.26" cy="668.68" r="32.71"/></g></svg>