<svg xmlns="http://www.w3.org/2000/svg" xmlns:xlink="http://www.w3.org/1999/xlink" viewBox="0 0 959.48 959.48"><defs><style>.cls-1,.cls-13,.cls-14,.cls-15,.cls-2,.cls-3,.cls-4,.cls-5,.cls-6{fill:none;}.cls-1,.cls-2,.cls-3,.cls-4,.cls-5,.cls-6{stroke-miterlimit:10;}.cls-1,.cls-2,.cls-3,.cls-4{stroke-width:5px;}.cls-1{stroke:url(#linear-gradient);}.cls-2{stroke:url(#linear-gradient-2);}.cls-3{stroke:url(#linear-gradient-3);}.cls-4{stroke:url(#linear-gradient-4);}.cls-5,.cls-6{stroke-width:8px;}.cls-5{stroke:url(#linear-gradient-5);}.cls-6{stroke:url(#linear-gradient-6);}.cls-7{fill:url(#linear-gradient-7);}.cls-8{fill:url(#linear-gradient-8);}.cls-9{fill:url(#linear-gradient-9);}.cls-10{fill:url(#linear-gradient-10);}.cls-11{fill:url(#linear-gradient-11);}.cls-12{fill:url(#linear-gradient-12);}.cls-13,.cls-14,.cls-15{stroke-linecap:round;stroke-linejoin:round;}.cls-13,.cls-14{stroke-width:10px;}.cls-13{stroke:url(#linear-gradient-13);}.cls-14{stroke:url(#linear-gradient-14);}.cls-15{stroke-width:20px;stroke:url(#linear-gradient-15);}</style><linearGradient id="linear-gradient" x1="308.39" y1="590.74" x2="410.03" y2="590.74" gradientTransform="translate(183.1 -183.1)" gradientUnits="userSpaceOnUse"><stop offset="0" stop-color="#ed2024"/><stop offset="0.12" stop-color="#f26164"/><stop offset="0.25" stop-color="#f8a4a6"/><stop offset="0.36" stop-color="#fcd5d6"/><stop offset="0.45" stop-color="#fef4f4"/><stop offset="0.49" stop-color="#fff"/><stop offset="0.56" stop-color="#fffbfb"/><stop offset="0.63" stop-color="#feefef"/><stop offset="0.69" stop-color="#fcdbdb"/><stop offset="0.76" stop-color="#fabebf"/><stop offset="0.82" stop-color="#f79a9b"/><stop offset="0.89" stop-color="#f36d6f"/><stop offset="0.96" stop-color="#ef393c"/><stop offset="0.98" stop-color="#ed2024"/></linearGradient><linearGradient id="linear-gradient-2" x1="178.39" y1="557.27" x2="280.03" y2="557.27" gradientTransform="matrix(0, 1, 1, 0, -218.06, 218.06)" xlink:href="#linear-gradient"/><linearGradient id="linear-gradient-3" x1="416.53" y1="586.57" x2="439.54" y2="586.57" gradientTransform="matrix(1, 0, 0, 1, 0, 0)" xlink:href="#linear-gradient"/><linearGradient id="linear-gradient-4" x1="362.06" y1="586.57" x2="385.07" y2="586.57" gradientTransform="matrix(1, 0, 0, 1, 0, 0)" xlink:href="#linear-gradient"/><linearGradient id="linear-gradient-5" x1="334.56" y1="430.57" x2="467.39" y2="430.57" gradientTransform="matrix(1, 0, 0, 1, 0, 0)" xlink:href="#linear-gradient"/><linearGradient id="linear-gradient-6" x1="293.29" y1="296.64" x2="371.93" y2="296.64" gradientTransform="translate(375.54 -139) rotate(45)" xlink:href="#linear-gradient"/><linearGradient id="linear-gradient-7" x1="545.66" y1="546.69" x2="583.09" y2="546.69" gradientTransform="matrix(1, 0, 0, 1, 0, 0)" xlink:href="#linear-gradient"/><linearGradient id="linear-gradient-8" x1="588.04" y1="546.65" x2="629.73" y2="546.65" gradientTransform="matrix(1, 0, 0, 1, 0, 0)" xlink:href="#linear-gradient"/><linearGradient id="linear-gradient-9" x1="637.39" y1="546.65" x2="671.64" y2="546.65" gradientTransform="matrix(1, 0, 0, 1, 0, 0)" xlink:href="#linear-gradient"/><linearGradient id="linear-gradient-10" x1="678.48" y1="546.65" x2="716.65" y2="546.65" gradientTransform="matrix(1, 0, 0, 1, 0, 0)" xlink:href="#linear-gradient"/><linearGradient id="linear-gradient-11" x1="712.93" y1="546.65" x2="746.71" y2="546.65" gradientTransform="matrix(1, 0, 0, 1, 0, 0)" xlink:href="#linear-gradient"/><linearGradient id="linear-gradient-12" x1="751.79" y1="546.65" x2="777.44" y2="546.65" gradientTransform="matrix(1, 0, 0, 1, 0, 0)" xlink:href="#linear-gradient"/><linearGradient id="linear-gradient-13" x1="542.22" y1="627.08" x2="737.72" y2="431.59" gradientTransform="matrix(1, 0, 0, 1, 0, 0)" xlink:href="#linear-gradient"/><linearGradient id="linear-gradient-14" x1="490.14" y1="722.4" x2="789.81" y2="422.74" gradientTransform="matrix(1, 0, 0, 1, 0, 0)" xlink:href="#linear-gradient"/><linearGradient id="linear-gradient-15" x1="20.26" y1="500" x2="979.74" y2="500" gradientTransform="translate(479.74 -227.37) rotate(45)" xlink:href="#linear-gradient"/></defs><title>edge deeds</title><g id="edge_deeds" data-name="edge deeds"><path class="cls-1" d="M494,397.52h49s44.86,9.11,47.49,17.44c2.42,7.68-35.92-2.41-45.63-5.87-9.49-3.39-50.9-.89-50.9-.89Z" transform="translate(-20.26 -20.26)"/><path class="cls-2" d="M329.08,399v49s9.12,44.86,17.45,47.49c7.67,2.43-2.41-35.91-5.88-45.62-3.39-9.5-.89-50.91-.89-50.91Z" transform="translate(-20.26 -20.26)"/><rect class="cls-3" x="419.03" y="515.23" width="18.01" height="142.67" rx="4.2"/><rect class="cls-4" x="364.56" y="515.23" width="18.01" height="142.67" rx="4.2"/><rect class="cls-5" x="338.56" y="359.23" width="124.83" height="142.67" rx="22.42"/><circle class="cls-6" cx="400.98" cy="305.94" r="35.32"/><path class="cls-7" d="M545.66,524.45a84.56,84.56,0,0,1,12.53-1c8.46,0,14.48,2,18.47,5.69s6.43,9,6.43,16.38-2.3,13.54-6.56,17.73-11.31,6.57-20.17,6.57a94.8,94.8,0,0,1-10.7-.54Zm5.89,40.34a37.31,37.31,0,0,0,6,.34c12.59,0,19.42-7,19.42-19.36.07-10.76-6-17.6-18.47-17.6a34.12,34.12,0,0,0-6.91.61Z" transform="translate(-20.26 -20.26)"/><path class="cls-8" d="M629.73,546.18c0,15.7-9.54,24-21.18,24-12,0-20.51-9.34-20.51-23.15,0-14.49,9-24,21.18-24C621.68,523.1,629.73,532.64,629.73,546.18Zm-35.4.74c0,9.75,5.28,18.48,14.56,18.48s14.62-8.59,14.62-18.95c0-9.07-4.74-18.55-14.56-18.55S594.33,536.91,594.33,546.92Z" transform="translate(-20.26 -20.26)"/><path class="cls-9" d="M637.39,569.46V523.84h6.43l14.62,23.08a130.75,130.75,0,0,1,8.19,14.83l.13-.07c-.54-6.09-.67-11.64-.67-18.75V523.84h5.55v45.62h-6L651.2,546.31a142.4,142.4,0,0,1-8.53-15.22l-.21.06c.34,5.76.48,11.24.48,18.82v19.49Z" transform="translate(-20.26 -20.26)"/><path class="cls-10" d="M689.31,555.11l-4.74,14.35h-6.09L694,523.84h7.1l15.57,45.62h-6.29l-4.88-14.35Zm15-4.6-4.47-13.13c-1-3-1.69-5.69-2.37-8.33h-.14c-.67,2.71-1.42,5.49-2.3,8.26l-4.47,13.2Z" transform="translate(-20.26 -20.26)"/><path class="cls-11" d="M726.81,528.85H712.93v-5h33.78v5h-14v40.61h-6Z" transform="translate(-20.26 -20.26)"/><path class="cls-12" d="M775.41,548.07H757.68v16.45h19.76v4.94H751.79V523.84h24.64v4.94H757.68V543.2h17.73Z" transform="translate(-20.26 -20.26)"/><rect class="cls-13" x="493.68" y="487.21" width="292.6" height="84.26"/><rect class="cls-14" x="493.68" y="426.27" width="292.6" height="292.6"/><circle class="cls-15" cx="479.74" cy="479.74" r="469.74"/></g></svg>