<svg xmlns="http://www.w3.org/2000/svg" xmlns:xlink="http://www.w3.org/1999/xlink" viewBox="0 0 985.4 985.4"><defs><style>.cls-1,.cls-2,.cls-3,.cls-4,.cls-5,.cls-6{fill:none;stroke-miterlimit:10;}.cls-1{stroke-width:10px;stroke:url(#linear-gradient);}.cls-2{stroke-width:20px;stroke:url(#linear-gradient-2);}.cls-3,.cls-4,.cls-6{stroke-width:26px;}.cls-3{stroke:url(#linear-gradient-3);}.cls-4{stroke:url(#linear-gradient-4);}.cls-5{stroke-width:17px;stroke:url(#linear-gradient-5);}.cls-6{stroke:url(#linear-gradient-6);}</style><linearGradient id="linear-gradient" x1="553.91" y1="534.38" x2="342.07" y2="458.23" gradientTransform="matrix(-1, 0, 0, 1, 953.48, 0)" gradientUnits="userSpaceOnUse"><stop offset="0" stop-color="#ed2024"/><stop offset="0.12" stop-color="#f26164"/><stop offset="0.25" stop-color="#f8a4a6"/><stop offset="0.36" stop-color="#fcd5d6"/><stop offset="0.45" stop-color="#fef4f4"/><stop offset="0.49" stop-color="#fff"/><stop offset="0.56" stop-color="#fffbfb"/><stop offset="0.63" stop-color="#feefef"/><stop offset="0.69" stop-color="#fcdbdb"/><stop offset="0.76" stop-color="#fabebf"/><stop offset="0.82" stop-color="#f79a9b"/><stop offset="0.89" stop-color="#f36d6f"/><stop offset="0.96" stop-color="#ef393c"/><stop offset="0.98" stop-color="#ed2024"/></linearGradient><linearGradient id="linear-gradient-2" x1="963.7" y1="666.69" x2="36.3" y2="333.31" gradientTransform="matrix(0.98, 0.18, -0.18, 0.98, 89.43, -88.14)" xlink:href="#linear-gradient"/><linearGradient id="linear-gradient-3" x1="635.83" y1="549.07" x2="333.44" y2="440.37" gradientTransform="matrix(1, 0, 0, 1, 0, 0)" xlink:href="#linear-gradient"/><linearGradient id="linear-gradient-4" x1="594.57" y1="536.61" x2="369" y2="455.52" gradientTransform="matrix(1, 0, 0, 1, 0, 0)" xlink:href="#linear-gradient"/><linearGradient id="linear-gradient-5" x1="521.53" y1="511.93" x2="448.01" y2="485.5" gradientTransform="matrix(1, 0, 0, 1, 0, 0)" xlink:href="#linear-gradient"/><linearGradient id="linear-gradient-6" x1="509.27" y1="523.45" x2="364.74" y2="471.5" xlink:href="#linear-gradient"/></defs><title>ciic</title><g id="ciic"><path class="cls-1" d="M426.18,596.2a118.44,118.44,0,0,0,69.13,22.27c65,0,118.46-53.48,118.46-118.47S560.3,381.53,495.31,381.53a118.49,118.49,0,0,0-83.85,34.78" transform="translate(-7.3 -7.3)"/><circle class="cls-2" cx="492.7" cy="492.7" r="482.62"/><path class="cls-3" d="M594.44,632.57a163.29,163.29,0,0,1-95.26,30.67c-89.55,0-163.24-73.69-163.24-163.24s73.69-163.24,163.24-163.24a163.3,163.3,0,0,1,115.54,47.92" transform="translate(-7.3 -7.3)"/><path class="cls-4" d="M561.77,596.2a118.44,118.44,0,0,1-69.13,22.27c-65,0-118.47-53.48-118.47-118.47s53.48-118.47,118.47-118.47a118.52,118.52,0,0,1,83.85,34.78" transform="translate(-7.3 -7.3)"/><path class="cls-5" d="M508.35,527.89a34.34,34.34,0,1,1,4.27-52.16" transform="translate(-7.3 -7.3)"/><path class="cls-6" d="M468,557.85a71.24,71.24,0,0,0,41.56,13.38c39.08,0,71.23-32.15,71.23-71.23s-32.15-71.23-71.23-71.23a71.24,71.24,0,0,0-50.41,20.91" transform="translate(-7.3 -7.3)"/></g></svg>