<svg xmlns="http://www.w3.org/2000/svg" xmlns:xlink="http://www.w3.org/1999/xlink" viewBox="0 0 935.28 935.28"><defs><style>.cls-1,.cls-17,.cls-18,.cls-19,.cls-2,.cls-3,.cls-4,.cls-6,.cls-7{fill:none;stroke-miterlimit:10;}.cls-1,.cls-2,.cls-3,.cls-6,.cls-7{stroke-width:6px;}.cls-1{stroke:url(#linear-gradient);}.cls-2{stroke:url(#linear-gradient-2);}.cls-3{stroke:url(#linear-gradient-3);}.cls-4{stroke-width:18px;stroke:url(#linear-gradient-4);}.cls-5{fill:url(#linear-gradient-5);}.cls-6{stroke:url(#linear-gradient-6);}.cls-7{stroke:url(#linear-gradient-7);}.cls-8{fill:url(#linear-gradient-8);}.cls-9{fill:url(#linear-gradient-9);}.cls-10{fill:url(#linear-gradient-10);}.cls-11{fill:url(#linear-gradient-11);}.cls-12{fill:url(#linear-gradient-12);}.cls-13{fill:url(#linear-gradient-13);}.cls-14{fill:url(#linear-gradient-14);}.cls-15{fill:url(#linear-gradient-15);}.cls-16{fill:url(#linear-gradient-16);}.cls-17,.cls-18,.cls-19{stroke-linecap:round;stroke-width:9px;}.cls-17{stroke:url(#linear-gradient-17);}.cls-18{stroke:url(#linear-gradient-18);}.cls-19{stroke:url(#linear-gradient-19);}</style><linearGradient id="linear-gradient" x1="296.2" y1="319.7" x2="303.16" y2="389.21" gradientUnits="userSpaceOnUse"><stop offset="0" stop-color="#ed2024"/><stop offset="0.12" stop-color="#f26164"/><stop offset="0.25" stop-color="#f8a4a6"/><stop offset="0.36" stop-color="#fcd5d6"/><stop offset="0.45" stop-color="#fef4f4"/><stop offset="0.49" stop-color="#fff"/><stop offset="0.56" stop-color="#fffbfb"/><stop offset="0.63" stop-color="#feefef"/><stop offset="0.69" stop-color="#fcdbdb"/><stop offset="0.76" stop-color="#fabebf"/><stop offset="0.82" stop-color="#f79a9b"/><stop offset="0.89" stop-color="#f36d6f"/><stop offset="0.96" stop-color="#ef393c"/><stop offset="0.98" stop-color="#ed2024"/></linearGradient><linearGradient id="linear-gradient-2" x1="663.98" y1="319.7" x2="670.93" y2="389.21" xlink:href="#linear-gradient"/><linearGradient id="linear-gradient-3" x1="455.5" y1="369.45" x2="492.46" y2="738.81" xlink:href="#linear-gradient"/><linearGradient id="linear-gradient-4" x1="62.59" y1="701.5" x2="872.7" y2="233.78" xlink:href="#linear-gradient"/><linearGradient id="linear-gradient-5" x1="329.77" y1="549.28" x2="395.92" y2="511.09" xlink:href="#linear-gradient"/><linearGradient id="linear-gradient-6" x1="183.98" y1="477.44" x2="354.78" y2="378.83" xlink:href="#linear-gradient"/><linearGradient id="linear-gradient-7" x1="552.08" y1="477.44" x2="722.89" y2="378.83" xlink:href="#linear-gradient"/><linearGradient id="linear-gradient-8" x1="541.77" y1="563.56" x2="607.91" y2="525.36" gradientTransform="translate(522.87 -261.28) rotate(45)" xlink:href="#linear-gradient"/><linearGradient id="linear-gradient-9" x1="561.48" y1="444.37" x2="520.31" y2="425.8" gradientTransform="matrix(0.81, 0.58, -0.58, 0.81, 411.76, -243.2)" xlink:href="#linear-gradient"/><linearGradient id="linear-gradient-10" x1="558.87" y1="372.27" x2="563.37" y2="417.21" gradientTransform="translate(1369.3 427.96) rotate(145.05)" xlink:href="#linear-gradient"/><linearGradient id="linear-gradient-11" x1="612.43" y1="465.18" x2="586.07" y2="428.52" gradientTransform="matrix(0.81, 0.58, -0.58, 0.81, 411.76, -243.2)" xlink:href="#linear-gradient"/><linearGradient id="linear-gradient-12" x1="562.07" y1="395.13" x2="535.7" y2="358.46" gradientTransform="matrix(0.81, 0.58, -0.58, 0.81, 411.76, -243.2)" xlink:href="#linear-gradient"/><linearGradient id="linear-gradient-13" x1="247.59" y1="397.95" x2="291.99" y2="372.31" xlink:href="#linear-gradient"/><linearGradient id="linear-gradient-14" x1="328.88" y1="424.65" x2="373.29" y2="399.01" gradientTransform="translate(722.75 78.39) rotate(90)" xlink:href="#linear-gradient"/><linearGradient id="linear-gradient-15" x1="328.88" y1="308.51" x2="373.29" y2="282.88" gradientTransform="matrix(0, 1, 1, 0, -67.18, 78.39)" xlink:href="#linear-gradient"/><linearGradient id="linear-gradient-16" x1="394.29" y1="371.72" x2="438.69" y2="346.09" gradientTransform="translate(683.13 828.7) rotate(180)" xlink:href="#linear-gradient"/><linearGradient id="linear-gradient-17" x1="415.38" y1="402.55" x2="416.57" y2="414.47" xlink:href="#linear-gradient"/><linearGradient id="linear-gradient-18" x1="458.95" y1="402.55" x2="460.14" y2="414.47" xlink:href="#linear-gradient"/><linearGradient id="linear-gradient-19" x1="502.52" y1="402.55" x2="503.72" y2="414.47" xlink:href="#linear-gradient"/></defs><title>cyber crusade</title><g id="gaming"><path class="cls-1" d="M248.05,369.56s2.68-40.14,34.82-45.5h39.86s36.7,11.71,31.74,53.36C354.47,377.42,312.4,335.92,248.05,369.56Z" transform="translate(-27.11 -23.86)"/><path class="cls-2" d="M615.82,369.56s2.69-40.14,34.82-45.5h39.87s36.69,11.71,31.73,53.36C722.24,377.42,680.18,335.92,615.82,369.56Z" transform="translate(-27.11 -23.86)"/><path class="cls-3" d="M199.66,473.61,179.07,628.73a84.08,84.08,0,0,0,13,57.81c5.6,8.39,12.62,15.41,21,17.15,22.81,4.75,58.37-18.37,67.93-44,1-2.62,2-5.23,3.19-7.75l38.06-79.36a5,5,0,0,1,8.67-.71c7.13,10,23.26,26.07,53.32,26.34,0,0,36.34,3.45,58.92-40.55a18.56,18.56,0,0,1,16.53-10H502a18.69,18.69,0,0,1,16.29,9.58c7,12.53,21.85,33.14,44.07,35.06,0,0,40.31,5.19,64.57-28.18a3.93,3.93,0,0,1,6.7.59l53.79,108.6a70,70,0,0,0,46.69,37l.92.21a19.23,19.23,0,0,0,9-.07c10.9-2.74,37.08-12.19,43.54-40.53a54.77,54.77,0,0,0,.51-20.81L760.19,474.8s-16.93,54-71.4,69.7c0,0-101.75,24.13-119.61-86.6,0,0-8-33.08,28.88-75.33H362.21s36.3,32.1,28.92,82.95c0,0-6.07,59.72-68.27,78.39,0,0-51.87,14.15-86.94-18C235.92,526,206.5,500.18,199.66,473.61Z" transform="translate(-27.11 -23.86)"/><circle class="cls-4" cx="467.64" cy="467.64" r="458.64"/><circle class="cls-5" cx="362.85" cy="530.18" r="38.18"/><circle class="cls-6" cx="269.38" cy="428.13" r="95.6"/><circle class="cls-7" cx="637.49" cy="428.13" r="95.6"/><circle class="cls-8" cx="544.35" cy="530.18" r="38.18"/><circle class="cls-9" cx="596.97" cy="425.8" r="22.58"/><circle class="cls-10" cx="683.25" cy="425.8" r="22.58"/><circle class="cls-11" cx="637.49" cy="469.42" r="22.58"/><circle class="cls-12" cx="637.49" cy="383.14" r="22.58"/><polygon class="cls-13" points="287.42 400.09 287.42 364.39 249.49 364.39 249.49 400.09 248.83 400.09 268.45 418.37 288.07 400.09 287.42 400.09"/><polygon class="cls-14" points="295.96 447.1 331.66 447.1 331.66 409.17 295.96 409.17 295.96 408.51 277.69 428.13 295.96 447.76 295.96 447.1"/><polygon class="cls-15" points="243.47 447.1 207.77 447.1 207.77 409.17 243.47 409.17 243.47 408.51 261.75 428.13 243.47 447.76 243.47 447.1"/><polygon class="cls-16" points="249.01 454.84 249.01 490.54 286.95 490.54 286.95 454.84 287.6 454.84 267.98 436.56 248.36 454.84 249.01 454.84"/><line class="cls-17" x1="401.03" y1="408.51" x2="430.91" y2="408.51"/><line class="cls-18" x1="444.6" y1="408.51" x2="474.49" y2="408.51"/><line class="cls-19" x1="488.18" y1="408.51" x2="518.06" y2="408.51"/></g></svg>