<svg xmlns="http://www.w3.org/2000/svg" xmlns:xlink="http://www.w3.org/1999/xlink" viewBox="0 0 988.17 988.17"><defs><style>.cls-1,.cls-10,.cls-11,.cls-12,.cls-13,.cls-14,.cls-15,.cls-16,.cls-17,.cls-2,.cls-3,.cls-4,.cls-5{fill:none;stroke-miterlimit:10;}.cls-1,.cls-10,.cls-11,.cls-12,.cls-13,.cls-16,.cls-17,.cls-2,.cls-3,.cls-4,.cls-5{stroke-width:10px;}.cls-1{stroke:url(#linear-gradient);}.cls-2{stroke:url(#linear-gradient-2);}.cls-3{stroke:url(#linear-gradient-3);}.cls-4{stroke:url(#linear-gradient-4);}.cls-5{stroke:url(#linear-gradient-5);}.cls-6{fill:url(#linear-gradient-6);}.cls-7{fill:url(#linear-gradient-7);}.cls-8{fill:url(#linear-gradient-8);}.cls-9{fill:url(#linear-gradient-9);}.cls-10,.cls-11,.cls-12,.cls-13,.cls-14,.cls-17{stroke-linecap:round;}.cls-10{stroke:url(#radial-gradient);}.cls-11{stroke:url(#linear-gradient-10);}.cls-12{stroke:url(#linear-gradient-11);}.cls-13{stroke:url(#linear-gradient-12);}.cls-14{stroke-width:14px;stroke:url(#radial-gradient-2);}.cls-15{stroke-width:20px;stroke:url(#linear-gradient-13);}.cls-16{stroke:url(#linear-gradient-14);}.cls-17{stroke:url(#radial-gradient-3);}.cls-18{fill:url(#radial-gradient-4);}.cls-19{fill:url(#radial-gradient-5);}</style><linearGradient id="linear-gradient" x1="451.22" y1="648.42" x2="537.27" y2="648.42" gradientUnits="userSpaceOnUse"><stop offset="0" stop-color="#ed2024"/><stop offset="0.12" stop-color="#f26164"/><stop offset="0.25" stop-color="#f8a4a6"/><stop offset="0.36" stop-color="#fcd5d6"/><stop offset="0.45" stop-color="#fef4f4"/><stop offset="0.49" stop-color="#fff"/><stop offset="0.56" stop-color="#fffbfb"/><stop offset="0.63" stop-color="#feefef"/><stop offset="0.69" stop-color="#fcdbdb"/><stop offset="0.76" stop-color="#fabebf"/><stop offset="0.82" stop-color="#f79a9b"/><stop offset="0.89" stop-color="#f36d6f"/><stop offset="0.96" stop-color="#ef393c"/><stop offset="0.98" stop-color="#ed2024"/></linearGradient><linearGradient id="linear-gradient-2" x1="399.25" y1="694.28" x2="586.16" y2="694.28" xlink:href="#linear-gradient"/><linearGradient id="linear-gradient-3" x1="466.38" y1="511.2" x2="521.51" y2="511.2" xlink:href="#linear-gradient"/><linearGradient id="linear-gradient-4" x1="466.98" y1="497.41" x2="487.35" y2="497.41" xlink:href="#linear-gradient"/><linearGradient id="linear-gradient-5" x1="424.5" y1="497.41" x2="444.87" y2="497.41" gradientTransform="matrix(-1, 0, 0, 1, 957.21, 0)" xlink:href="#linear-gradient"/><linearGradient id="linear-gradient-6" x1="628.96" y1="369.44" x2="653.68" y2="369.44" xlink:href="#linear-gradient"/><linearGradient id="linear-gradient-7" x1="628.96" y1="413.17" x2="653.68" y2="413.17" xlink:href="#linear-gradient"/><linearGradient id="linear-gradient-8" x1="628.96" y1="456.9" x2="653.68" y2="456.9" xlink:href="#linear-gradient"/><linearGradient id="linear-gradient-9" x1="628.96" y1="511.49" x2="653.68" y2="511.49" xlink:href="#linear-gradient"/><radialGradient id="radial-gradient" cx="369.13" cy="476.79" r="54.43" xlink:href="#linear-gradient"/><linearGradient id="linear-gradient-10" x1="335.05" y1="377.2" x2="415.03" y2="377.2" xlink:href="#linear-gradient"/><linearGradient id="linear-gradient-11" x1="310.65" y1="418.32" x2="427.6" y2="535.27" gradientUnits="userSpaceOnUse"><stop offset="0" stop-color="#ed2024"/><stop offset="0.14" stop-color="#f26164"/><stop offset="0.31" stop-color="#f8a4a6"/><stop offset="0.44" stop-color="#fcd5d6"/><stop offset="0.55" stop-color="#fef4f4"/><stop offset="0.61" stop-color="#fff"/><stop offset="0.66" stop-color="#fffbfb"/><stop offset="0.71" stop-color="#feefef"/><stop offset="0.76" stop-color="#fcdbdb"/><stop offset="0.81" stop-color="#fabebf"/><stop offset="0.86" stop-color="#f79a9b"/><stop offset="0.91" stop-color="#f36d6f"/><stop offset="0.96" stop-color="#ef393c"/><stop offset="0.98" stop-color="#ed2024"/></linearGradient><linearGradient id="linear-gradient-12" x1="680.84" y1="544.84" x2="570.26" y2="417.54" gradientTransform="translate(-5.91 -283.77) scale(1 1.5)" xlink:href="#linear-gradient"/><radialGradient id="radial-gradient-2" cx="494.09" cy="548.61" r="158.14" xlink:href="#linear-gradient"/><linearGradient id="linear-gradient-13" x1="965" y1="667.15" x2="35" y2="332.85" gradientTransform="matrix(0.98, 0.18, -0.18, 0.98, 90.82, -86.75)" xlink:href="#linear-gradient"/><linearGradient id="linear-gradient-14" x1="622.81" y1="669.47" x2="365.36" y2="223.55" xlink:href="#linear-gradient"/><radialGradient id="radial-gradient-3" cx="484.38" cy="583.33" r="29.04" xlink:href="#linear-gradient"/><radialGradient id="radial-gradient-4" cx="547.48" cy="583.33" r="8.24" gradientUnits="userSpaceOnUse"><stop offset="0" stop-color="#ed2024"/><stop offset="0.07" stop-color="#f15053"/><stop offset="0.16" stop-color="#f58587"/><stop offset="0.25" stop-color="#f9b1b2"/><stop offset="0.34" stop-color="#fbd3d4"/><stop offset="0.42" stop-color="#fdebec"/><stop offset="0.49" stop-color="snow"/><stop offset="0.55" stop-color="#fff"/><stop offset="0.63" stop-color="#fffcfc"/><stop offset="0.69" stop-color="#fef1f1"/><stop offset="0.74" stop-color="#fce0e0"/><stop offset="0.8" stop-color="#fac7c8"/><stop offset="0.85" stop-color="#f8a7a9"/><stop offset="0.9" stop-color="#f58082"/><stop offset="0.95" stop-color="#f15356"/><stop offset="1" stop-color="#ed2024"/></radialGradient><radialGradient id="radial-gradient-5" cx="500" cy="394.53" r="50.35" gradientTransform="translate(0 -394.53) scale(1 2)" xlink:href="#linear-gradient"/></defs><title>design-event</title><g id="Layer_61" data-name="Layer 61"><rect class="cls-1" x="456.22" y="620.34" width="76.05" height="56.15"/><path class="cls-2" d="M437.7,676.49h110a33.45,33.45,0,0,1,33.45,33.45v2.13a0,0,0,0,1,0,0H404.25a0,0,0,0,1,0,0v-2.13A33.45,33.45,0,0,1,437.7,676.49Z"/><line class="cls-3" x1="466.38" y1="511.2" x2="521.51" y2="511.2"/><path class="cls-4" d="M482.5,442.85s-13.85,54.32-9.77,110" transform="translate(-5.91 -5.91)"/><path class="cls-5" d="M517.18,442.85s13.85,54.32,9.78,110" transform="translate(-5.91 -5.91)"/><path class="cls-6" d="M635.92,362h17.76a0,0,0,0,1,0,0v14.8a0,0,0,0,1,0,0H635.92a7,7,0,0,1-7-7V369A7,7,0,0,1,635.92,362Z"/><path class="cls-7" d="M635.92,405.77h17.76a0,0,0,0,1,0,0v14.8a0,0,0,0,1,0,0H635.92a7,7,0,0,1-7-7v-.89A7,7,0,0,1,635.92,405.77Z"/><path class="cls-8" d="M635.92,449.5h17.76a0,0,0,0,1,0,0v14.8a0,0,0,0,1,0,0H635.92a7,7,0,0,1-7-7v-.89A7,7,0,0,1,635.92,449.5Z"/><path class="cls-9" d="M635.92,504.09h17.76a0,0,0,0,1,0,0v14.8a0,0,0,0,1,0,0H635.92a7,7,0,0,1-7-7V511A7,7,0,0,1,635.92,504.09Z"/><line class="cls-10" x1="369.13" y1="404.98" x2="369.13" y2="548.61"/><path class="cls-11" d="M371.6,345.38l-31.12,60.08a3.88,3.88,0,0,0,3.45,5.66h62.22a3.87,3.87,0,0,0,3.44-5.66l-31.11-60.08A3.87,3.87,0,0,0,371.6,345.38Z" transform="translate(-5.91 -5.91)"/><rect class="cls-12" x="334" y="404.98" width="70.26" height="143.63"/><rect class="cls-13" x="584.51" y="332.1" width="70.26" height="216.09"/><line class="cls-14" x1="277.55" y1="548.61" x2="710.63" y2="548.61"/><circle class="cls-15" cx="494.09" cy="494.09" r="484"/><rect class="cls-16" x="273.17" y="272.68" width="441.84" height="347.66" rx="23.36"/><line class="cls-17" x1="448.62" y1="583.33" x2="520.14" y2="583.33"/><circle class="cls-18" cx="547.48" cy="583.33" r="8.24"/><path class="cls-19" d="M541.39,404.23c-.54-8.73-31.25-54.51-39.41-66.55a2.39,2.39,0,0,0-4,0c-8.16,12-38.87,57.82-39.41,66.55-.63,10.08,4,47.56,41.39,48.19C537.35,451.79,542,414.31,541.39,404.23Z" transform="translate(-5.91 -5.91)"/></g></svg>