<svg xmlns="http://www.w3.org/2000/svg" xmlns:xlink="http://www.w3.org/1999/xlink" viewBox="0 0 950.68 950.68"><defs><style>.cls-1,.cls-10,.cls-11,.cls-12,.cls-13,.cls-14,.cls-15,.cls-16,.cls-17,.cls-18,.cls-19,.cls-2,.cls-20,.cls-21,.cls-22,.cls-23,.cls-24,.cls-25,.cls-26,.cls-27,.cls-28,.cls-29,.cls-3,.cls-30,.cls-31,.cls-32,.cls-33,.cls-34,.cls-35,.cls-36,.cls-37,.cls-38,.cls-39,.cls-4,.cls-40,.cls-41,.cls-42,.cls-43,.cls-44,.cls-45,.cls-46,.cls-47,.cls-48,.cls-5,.cls-6,.cls-7,.cls-8,.cls-9{fill:none;stroke-miterlimit:10;}.cls-1,.cls-10,.cls-11,.cls-12,.cls-13,.cls-14,.cls-15,.cls-16,.cls-2,.cls-21,.cls-22,.cls-3,.cls-4,.cls-45,.cls-46,.cls-47,.cls-48,.cls-5,.cls-6,.cls-7,.cls-8,.cls-9{stroke-width:5px;}.cls-1{stroke:url(#linear-gradient);}.cls-2{stroke:url(#linear-gradient-2);}.cls-3{stroke:url(#linear-gradient-3);}.cls-4{stroke:url(#linear-gradient-4);}.cls-5{stroke:url(#linear-gradient-5);}.cls-6{stroke:url(#linear-gradient-6);}.cls-7{stroke:url(#linear-gradient-7);}.cls-8{stroke:url(#linear-gradient-8);}.cls-9{stroke:url(#linear-gradient-9);}.cls-10{stroke:url(#linear-gradient-10);}.cls-11{stroke:url(#linear-gradient-11);}.cls-12{stroke:url(#linear-gradient-12);}.cls-13{stroke:url(#linear-gradient-13);}.cls-14{stroke:url(#linear-gradient-14);}.cls-15{stroke:url(#linear-gradient-15);}.cls-16{stroke:url(#linear-gradient-16);}.cls-17,.cls-18,.cls-23,.cls-24,.cls-25,.cls-26,.cls-27,.cls-28,.cls-29,.cls-30,.cls-31,.cls-32,.cls-33,.cls-34,.cls-35,.cls-36,.cls-37,.cls-38,.cls-39,.cls-40,.cls-41,.cls-42,.cls-43,.cls-44{stroke-width:3px;}.cls-17{stroke:url(#linear-gradient-17);}.cls-18{stroke:url(#linear-gradient-18);}.cls-19{stroke-width:20px;stroke:url(#linear-gradient-19);}.cls-20{stroke-width:6px;stroke:url(#linear-gradient-20);}.cls-21{stroke:url(#linear-gradient-21);}.cls-22{stroke:url(#linear-gradient-22);}.cls-23{stroke:url(#linear-gradient-23);}.cls-24{stroke:url(#linear-gradient-24);}.cls-25{stroke:url(#linear-gradient-25);}.cls-26{stroke:url(#linear-gradient-26);}.cls-27{stroke:url(#linear-gradient-27);}.cls-28{stroke:url(#linear-gradient-28);}.cls-29{stroke:url(#linear-gradient-29);}.cls-30{stroke:url(#linear-gradient-30);}.cls-31{stroke:url(#linear-gradient-31);}.cls-32{stroke:url(#linear-gradient-32);}.cls-33{stroke:url(#linear-gradient-33);}.cls-34{stroke:url(#linear-gradient-34);}.cls-35{stroke:url(#linear-gradient-35);}.cls-36{stroke:url(#linear-gradient-36);}.cls-37{stroke:url(#linear-gradient-37);}.cls-38{stroke:url(#linear-gradient-38);}.cls-39{stroke:url(#linear-gradient-39);}.cls-40{stroke:url(#linear-gradient-40);}.cls-41{stroke:url(#linear-gradient-41);}.cls-42{stroke:url(#linear-gradient-42);}.cls-43{stroke:url(#linear-gradient-43);}.cls-44{stroke:url(#linear-gradient-44);}.cls-45{stroke:url(#linear-gradient-45);}.cls-46{stroke:url(#linear-gradient-46);}.cls-47{stroke:url(#linear-gradient-47);}.cls-48{stroke:url(#linear-gradient-48);}</style><linearGradient id="linear-gradient" x1="412.52" y1="273.1" x2="425.04" y2="294.79" gradientUnits="userSpaceOnUse"><stop offset="0" stop-color="#ed2024"/><stop offset="0.12" stop-color="#f26164"/><stop offset="0.25" stop-color="#f8a4a6"/><stop offset="0.36" stop-color="#fcd5d6"/><stop offset="0.45" stop-color="#fef4f4"/><stop offset="0.49" stop-color="#fff"/><stop offset="0.56" stop-color="#fffbfb"/><stop offset="0.63" stop-color="#feefef"/><stop offset="0.69" stop-color="#fcdbdb"/><stop offset="0.76" stop-color="#fabebf"/><stop offset="0.82" stop-color="#f79a9b"/><stop offset="0.89" stop-color="#f36d6f"/><stop offset="0.96" stop-color="#ef393c"/><stop offset="0.98" stop-color="#ed2024"/></linearGradient><linearGradient id="linear-gradient-2" x1="430.71" y1="273.1" x2="443.24" y2="294.79" xlink:href="#linear-gradient"/><linearGradient id="linear-gradient-3" x1="448.9" y1="273.1" x2="461.43" y2="294.79" xlink:href="#linear-gradient"/><linearGradient id="linear-gradient-4" x1="466.02" y1="273.1" x2="478.55" y2="294.79" xlink:href="#linear-gradient"/><linearGradient id="linear-gradient-5" x1="412.52" y1="360.71" x2="425.04" y2="382.41" xlink:href="#linear-gradient"/><linearGradient id="linear-gradient-6" x1="430.71" y1="360.71" x2="443.24" y2="382.41" xlink:href="#linear-gradient"/><linearGradient id="linear-gradient-7" x1="448.9" y1="360.71" x2="461.43" y2="382.41" xlink:href="#linear-gradient"/><linearGradient id="linear-gradient-8" x1="466.02" y1="360.71" x2="478.55" y2="382.41" xlink:href="#linear-gradient"/><linearGradient id="linear-gradient-9" x1="409.68" y1="449.96" x2="427.88" y2="481.49" xlink:href="#linear-gradient"/><linearGradient id="linear-gradient-10" x1="427.87" y1="449.96" x2="446.07" y2="481.49" xlink:href="#linear-gradient"/><linearGradient id="linear-gradient-11" x1="446.06" y1="449.96" x2="464.27" y2="481.49" xlink:href="#linear-gradient"/><linearGradient id="linear-gradient-12" x1="463.18" y1="449.96" x2="481.39" y2="481.49" xlink:href="#linear-gradient"/><linearGradient id="linear-gradient-13" x1="409.68" y1="552.9" x2="427.88" y2="584.43" xlink:href="#linear-gradient"/><linearGradient id="linear-gradient-14" x1="427.87" y1="552.9" x2="446.07" y2="584.43" xlink:href="#linear-gradient"/><linearGradient id="linear-gradient-15" x1="446.06" y1="552.9" x2="464.27" y2="584.43" xlink:href="#linear-gradient"/><linearGradient id="linear-gradient-16" x1="463.18" y1="552.9" x2="481.39" y2="584.43" xlink:href="#linear-gradient"/><linearGradient id="linear-gradient-17" x1="312.37" y1="592.39" x2="352.68" y2="662.22" xlink:href="#linear-gradient"/><linearGradient id="linear-gradient-18" x1="614.57" y1="539.52" x2="727.49" y2="735.11" xlink:href="#linear-gradient"/><linearGradient id="linear-gradient-19" x1="237.63" y1="63.62" x2="713.05" y2="887.06" xlink:href="#linear-gradient"/><linearGradient id="linear-gradient-20" x1="280.74" y1="195.41" x2="597.58" y2="744.19" xlink:href="#linear-gradient"/><linearGradient id="linear-gradient-21" x1="336.54" y1="250.82" x2="597.67" y2="703.11" xlink:href="#linear-gradient"/><linearGradient id="linear-gradient-22" x1="444.35" y1="217.39" x2="493.06" y2="301.77" xlink:href="#linear-gradient"/><linearGradient id="linear-gradient-23" x1="427.64" y1="221.33" x2="601.11" y2="521.79" xlink:href="#linear-gradient"/><linearGradient id="linear-gradient-24" x1="459.83" y1="255.91" x2="616.19" y2="526.73" xlink:href="#linear-gradient"/><linearGradient id="linear-gradient-25" x1="496.78" y1="293.14" x2="633.19" y2="529.42" xlink:href="#linear-gradient"/><linearGradient id="linear-gradient-26" x1="542.15" y1="338.41" x2="656.52" y2="536.51" xlink:href="#linear-gradient"/><linearGradient id="linear-gradient-27" x1="590.47" y1="383.32" x2="683.78" y2="544.93" xlink:href="#linear-gradient"/><linearGradient id="linear-gradient-28" x1="643.16" y1="430.85" x2="713.94" y2="553.45" xlink:href="#linear-gradient"/><linearGradient id="linear-gradient-29" x1="685.61" y1="465.24" x2="740.87" y2="560.96" xlink:href="#linear-gradient"/><linearGradient id="linear-gradient-30" x1="745.04" y1="506.64" x2="782" y2="570.66" xlink:href="#linear-gradient"/><linearGradient id="linear-gradient-31" x1="438.49" y1="143.85" x2="710.26" y2="614.57" xlink:href="#linear-gradient"/><linearGradient id="linear-gradient-32" x1="544.17" y1="145.44" x2="776.55" y2="547.94" xlink:href="#linear-gradient"/><linearGradient id="linear-gradient-33" x1="313.66" y1="322.73" x2="439.12" y2="540.03" xlink:href="#linear-gradient"/><linearGradient id="linear-gradient-34" x1="316.77" y1="379.58" x2="414.69" y2="549.19" xlink:href="#linear-gradient"/><linearGradient id="linear-gradient-35" x1="317.29" y1="422.16" x2="394.72" y2="556.27" xlink:href="#linear-gradient"/><linearGradient id="linear-gradient-36" x1="316.65" y1="451.12" x2="379.75" y2="560.41" xlink:href="#linear-gradient"/><linearGradient id="linear-gradient-37" x1="314.48" y1="479.51" x2="364.19" y2="565.63" xlink:href="#linear-gradient"/><linearGradient id="linear-gradient-38" x1="310.59" y1="507.91" x2="346.72" y2="570.48" xlink:href="#linear-gradient"/><linearGradient id="linear-gradient-39" x1="305.75" y1="529.25" x2="331.87" y2="574.49" xlink:href="#linear-gradient"/><linearGradient id="linear-gradient-40" x1="298.39" y1="550.09" x2="314.6" y2="578.17" xlink:href="#linear-gradient"/><linearGradient id="linear-gradient-41" x1="288.73" y1="566.05" x2="298.39" y2="582.78" xlink:href="#linear-gradient"/><linearGradient id="linear-gradient-42" x1="272.71" y1="258.74" x2="428.85" y2="529.18" xlink:href="#linear-gradient"/><linearGradient id="linear-gradient-43" x1="328.65" y1="484.12" x2="384.03" y2="580.04" xlink:href="#linear-gradient"/><linearGradient id="linear-gradient-44" x1="225.78" y1="509.26" x2="297.88" y2="634.15" xlink:href="#linear-gradient"/><linearGradient id="linear-gradient-45" x1="423.08" y1="290.54" x2="467.98" y2="368.31" xlink:href="#linear-gradient"/><linearGradient id="linear-gradient-46" x1="423.08" y1="376.15" x2="467.98" y2="453.92" xlink:href="#linear-gradient"/><linearGradient id="linear-gradient-47" x1="423.08" y1="478.88" x2="467.98" y2="556.65" xlink:href="#linear-gradient"/><linearGradient id="linear-gradient-48" x1="410.19" y1="591.55" x2="480.88" y2="714" xlink:href="#linear-gradient"/></defs><title>elevation</title><g id="elevation"><line class="cls-1" x1="418.78" y1="270.93" x2="418.78" y2="296.97"/><line class="cls-2" x1="436.97" y1="270.93" x2="436.97" y2="296.97"/><line class="cls-3" x1="455.16" y1="270.93" x2="455.16" y2="296.97"/><line class="cls-4" x1="472.29" y1="270.93" x2="472.29" y2="296.97"/><line class="cls-5" x1="418.78" y1="358.54" x2="418.78" y2="384.58"/><line class="cls-6" x1="436.97" y1="358.54" x2="436.97" y2="384.58"/><line class="cls-7" x1="455.16" y1="358.54" x2="455.16" y2="384.58"/><line class="cls-8" x1="472.29" y1="358.54" x2="472.29" y2="384.58"/><line class="cls-9" x1="418.78" y1="446.15" x2="418.78" y2="485.31"/><line class="cls-10" x1="436.97" y1="446.15" x2="436.97" y2="485.31"/><line class="cls-11" x1="455.16" y1="446.15" x2="455.16" y2="485.31"/><line class="cls-12" x1="472.29" y1="446.15" x2="472.29" y2="485.31"/><line class="cls-13" x1="418.78" y1="549.09" x2="418.78" y2="588.24"/><line class="cls-14" x1="436.97" y1="549.09" x2="436.97" y2="588.24"/><line class="cls-15" x1="455.16" y1="549.09" x2="455.16" y2="588.24"/><line class="cls-16" x1="472.29" y1="549.09" x2="472.29" y2="588.24"/><path class="cls-17" d="M417,600s-166.67,5.4-175.23,41.31H274.9s13.91-24,142.06-18.67V600" transform="translate(-24.66 -24.66)"/><path class="cls-18" d="M802.46,606.65s-194.56-22-281.35-11v40.4s247.64,33.17,278.14,54Z" transform="translate(-24.66 -24.66)"/><circle class="cls-19" cx="475.34" cy="475.34" r="465.34"/><polygon class="cls-20" points="409.77 135.74 496.45 135.74 496.45 746.77 515.72 767.81 515.72 786.72 480.4 786.72 480.4 756.76 468.81 745.16 425.47 745.16 416.91 754.97 416.91 786.72 371.96 786.72 371.96 760.68 392.3 744.27 392.3 135.74 409.77 135.74"/><path class="cls-21" d="M469.64,182.33h0A35.31,35.31,0,0,1,505,217.65V752.7H434.32V217.65A35.32,35.32,0,0,1,469.64,182.33Z" transform="translate(-24.66 -24.66)"/><path class="cls-22" d="M470.19,208.91h0C485,208.91,497,225,497,227.49v68.1H443.44v-68.1C443.44,225,455.42,208.91,470.19,208.91Z" transform="translate(-24.66 -24.66)"/><line class="cls-23" x1="514.37" y1="172.12" x2="514.37" y2="571"/><line class="cls-24" x1="538.01" y1="211.63" x2="538.01" y2="571"/><line class="cls-25" x1="564.99" y1="254.62" x2="564.99" y2="567.93"/><line class="cls-26" x1="599.33" y1="306.25" x2="599.33" y2="568.66"/><line class="cls-27" x1="637.13" y1="357.25" x2="637.13" y2="571"/><line class="cls-28" x1="678.55" y1="411.28" x2="678.55" y2="573.01"/><line class="cls-29" x1="713.24" y1="450.15" x2="713.24" y2="576.05"/><line class="cls-30" x1="763.52" y1="496.83" x2="763.52" y2="580.47"/><path class="cls-31" d="M417,160.4C397.57,126.33,672,580.65,733.41,600" transform="translate(-24.66 -24.66)"/><path class="cls-32" d="M518.35,160.4S669,437.55,802.46,532.26" transform="translate(-24.66 -24.66)"/><line class="cls-33" x1="376.39" y1="287.38" x2="376.39" y2="575.38"/><line class="cls-34" x1="365.73" y1="352.18" x2="365.73" y2="576.59"/><line class="cls-35" x1="356.01" y1="400.67" x2="356.01" y2="577.76"/><line class="cls-36" x1="348.2" y1="433.77" x2="348.2" y2="577.76"/><line class="cls-37" x1="339.34" y1="466.03" x2="339.34" y2="579.11"/><line class="cls-38" x1="328.65" y1="498.35" x2="328.65" y2="580.04"/><line class="cls-39" x1="318.81" y1="522.57" x2="318.81" y2="581.16"/><line class="cls-40" x1="306.49" y1="546.27" x2="306.49" y2="581.99"/><line class="cls-41" x1="293.56" y1="564.13" x2="293.56" y2="584.7"/><path class="cls-42" d="M417,176.45s-37.19,433.41-135.64,430.2" transform="translate(-24.66 -24.66)"/><path class="cls-43" d="M417,502.83s-84.81,214-135.64,9.1" transform="translate(-24.66 -24.66)"/><path class="cls-44" d="M281.32,507.06V641.35H244.05V507a11.25,11.25,0,0,1,7.24-10.59,31.94,31.94,0,0,1,23.08.13A11.2,11.2,0,0,1,281.32,507.06Z" transform="translate(-24.66 -24.66)"/><rect class="cls-45" x="418.78" y="296.97" width="53.51" height="64.92"/><rect class="cls-46" x="418.78" y="382.58" width="53.51" height="64.92"/><rect class="cls-47" x="418.78" y="485.31" width="53.51" height="64.92"/><rect class="cls-48" x="418.78" y="590.53" width="53.51" height="124.49"/></g></svg>