<svg xmlns="http://www.w3.org/2000/svg" xmlns:xlink="http://www.w3.org/1999/xlink" viewBox="0 0 929.41 929.41"><defs><style>.cls-1,.cls-2,.cls-3,.cls-4,.cls-5,.cls-6,.cls-7,.cls-8{fill:none;stroke-miterlimit:10;}.cls-1,.cls-8{stroke-width:10px;}.cls-1{stroke:url(#linear-gradient);}.cls-2{stroke-width:20px;stroke:url(#linear-gradient-2);}.cls-3,.cls-4,.cls-5,.cls-6,.cls-7{stroke-width:5px;}.cls-3{stroke:url(#linear-gradient-3);}.cls-4{stroke:url(#linear-gradient-4);}.cls-5{stroke:url(#linear-gradient-5);}.cls-6{stroke:url(#linear-gradient-6);}.cls-7{stroke:url(#linear-gradient-7);}.cls-8{stroke-linecap:round;stroke:url(#linear-gradient-8);}</style><linearGradient id="linear-gradient" x1="411.97" y1="244.74" x2="421.42" y2="339.22" gradientUnits="userSpaceOnUse"><stop offset="0" stop-color="#ed2024"/><stop offset="0.12" stop-color="#f26164"/><stop offset="0.25" stop-color="#f8a4a6"/><stop offset="0.36" stop-color="#fcd5d6"/><stop offset="0.45" stop-color="#fef4f4"/><stop offset="0.49" stop-color="#fff"/><stop offset="0.56" stop-color="#fffbfb"/><stop offset="0.63" stop-color="#feefef"/><stop offset="0.69" stop-color="#fcdbdb"/><stop offset="0.76" stop-color="#fabebf"/><stop offset="0.82" stop-color="#f79a9b"/><stop offset="0.89" stop-color="#f36d6f"/><stop offset="0.96" stop-color="#ef393c"/><stop offset="0.98" stop-color="#ed2024"/></linearGradient><linearGradient id="linear-gradient-2" x1="418.44" y1="2.27" x2="510.97" y2="927.14" xlink:href="#linear-gradient"/><linearGradient id="linear-gradient-3" x1="367.7" y1="362.51" x2="405.93" y2="744.65" xlink:href="#linear-gradient"/><linearGradient id="linear-gradient-4" x1="338.92" y1="298.34" x2="345.19" y2="361" xlink:href="#linear-gradient"/><linearGradient id="linear-gradient-5" x1="564.27" y1="572.12" x2="575.73" y2="686.63" xlink:href="#linear-gradient"/><linearGradient id="linear-gradient-6" x1="564.6" y1="518.82" x2="572.03" y2="593.05" xlink:href="#linear-gradient"/><linearGradient id="linear-gradient-7" x1="564.6" y1="327.85" x2="572.03" y2="402.07" gradientTransform="matrix(1, 0, 0, -1, 0, 1073.83)" xlink:href="#linear-gradient"/><linearGradient id="linear-gradient-8" x1="562.49" y1="598.22" x2="568.49" y2="658.18" xlink:href="#linear-gradient"/></defs><title>food for fun</title><g id="food_for_fun" data-name="food for fun"><path class="cls-1" d="M367.88,343.86s4.59-104.63,102.34-98.21" transform="translate(-31.12 -30.25)"/><circle class="cls-2" cx="464.71" cy="464.71" r="454.71"/><path class="cls-3" d="M260.72,376l27.54,363.46h138s-34.08-29.6-35.8-55.41c0,0-45.77-13.42-43.37-59.89,0,0,1.38-42,47.16-49.22,0,0,4.84-35.09,27.28-46.85a68.1,68.1,0,0,0,8.88-5.41c7.32-5.38,23.79-15,45.41-12.79l10-133.89Z" transform="translate(-31.12 -30.25)"/><rect class="cls-4" x="213.77" y="313.61" width="256.56" height="32.12"/><path class="cls-5" d="M754.29,593.56v-1H387.15v.54a.22.22,0,0,0-.37-.16c-3.92,4.06-36.79,40-1.32,71.59a1,1,0,0,0,1.69-.75V666H754.29v-1.21a1,1,0,0,0,.76-.25C789.19,634.16,760,599.71,754.29,593.56Z" transform="translate(-31.12 -30.25)"/><path class="cls-6" d="M729.16,574.24H411.82l20.64-20.19A88.64,88.64,0,0,1,494.4,528.8H647.46a88.61,88.61,0,0,1,63.37,26.68Z" transform="translate(-31.12 -30.25)"/><path class="cls-7" d="M729.16,690.57H411.82l20.64,20.18A88.6,88.6,0,0,0,494.4,736H647.46a88.6,88.6,0,0,0,63.37-26.67Z" transform="translate(-31.12 -30.25)"/><path class="cls-8" d="M389,647.66s33.44-57.66,81-17.13a23.92,23.92,0,0,0,28,2c15.38-9.36,42.42-17.26,77.78,6.44a22.12,22.12,0,0,0,26.54-1.58c17.64-14.95,53.17-34.27,98.85-3.55a25.58,25.58,0,0,0,29-.11c6.78-4.75,13.17-9.86,13.17-12.24" transform="translate(-31.12 -30.25)"/></g></svg>