<svg xmlns="http://www.w3.org/2000/svg" xmlns:xlink="http://www.w3.org/1999/xlink" viewBox="0 0 942.51 942.51"><defs><style>.cls-1,.cls-2{fill:none;stroke-miterlimit:10;}.cls-1{stroke-width:20px;stroke:url(#linear-gradient);}.cls-2{stroke-width:9px;stroke:url(#linear-gradient-2);}.cls-3{fill:#f47859;}</style><linearGradient id="linear-gradient" y1="471.26" x2="942.51" y2="471.26" gradientUnits="userSpaceOnUse"><stop offset="0" stop-color="#ed2024"/><stop offset="0.12" stop-color="#f26164"/><stop offset="0.25" stop-color="#f8a4a6"/><stop offset="0.36" stop-color="#fcd5d6"/><stop offset="0.45" stop-color="#fef4f4"/><stop offset="0.49" stop-color="#fff"/><stop offset="0.56" stop-color="#fffbfb"/><stop offset="0.63" stop-color="#feefef"/><stop offset="0.69" stop-color="#fcdbdb"/><stop offset="0.76" stop-color="#fabebf"/><stop offset="0.82" stop-color="#f79a9b"/><stop offset="0.89" stop-color="#f36d6f"/><stop offset="0.96" stop-color="#ef393c"/><stop offset="0.98" stop-color="#ed2024"/></linearGradient><linearGradient id="linear-gradient-2" x1="129.8" y1="497.15" x2="850.29" y2="497.15" xlink:href="#linear-gradient"/></defs><title>fun events</title><g id="fun_events" data-name="fun events"><circle class="cls-1" cx="471.26" cy="471.26" r="461.26"/><path class="cls-2" d="M701.21,705S549,633.24,502.1,656.22,407,766.3,407,766.3s1.27-87.43-33.51-103.7S251.3,725.46,251.3,725.46,283.53,647.6,266.94,624s-117.42-8.3-117.42-8.3,75-61.26,75.94-71.79-31.91-4.47-31.91-4.47,30.63-23,36.7-18.18c0,0-66.69-62.23-96.37-58.4,0,0,114.55-19.78,109.77-26.48s-39.57-23.61-39.57-23.61l33.5-1.6s-58.71-48.82-71.15-54.88c0,0,135,30.31,134.33,23.61L257.05,336.5s46.48,9.25,63.18,21.27c0,0-23.94-101.36-38.93-111.15,0,0,121,107.85,121.67,76.58l-14.46-50,35.95,36.17s27.86-42.33,24.89-77.22c0,0,58.49,105.08,69.34,79.77l80.84-86.79s-20.21,93.38,6,117,130.4-30,130.4-30-58.29,47-38.93,76.58,80.41,6.81,80.41,6.81L746.73,416.8l70.41-.64S761.19,444,768,467.64s79.77,20.21,79.77,20.21-105.08,15.53-80.83,56.37,83,35.74,83,35.74-140.4.63-162.1,26.16,109.77,79.77,109.77,79.77S720.46,676.42,701.21,705Z" transform="translate(-28.74 -28.74)"/><path class="cls-3" d="M464.31,433.88h11A140.55,140.55,0,0,0,489.92,416q5-7.64,5-10,0-3.33-7.16-3.33-4.17.3-14.76,1.43t-20.54,2.71a139.58,139.58,0,0,0-14.28,2.77,65.37,65.37,0,0,0-7.56,2.36,15.11,15.11,0,0,0-2.71,1.35c3.61-.16,6.65-.24,9.14-.24q5.83,0,5.84,1.05c0,.31-1.36.71-4.09,1.2s-5.31,1-7.74,1.54-4.72,1.19-7,1.93a21.09,21.09,0,0,1-4.13,1.1,3.92,3.92,0,0,1-2.78-1,3.24,3.24,0,0,1-1.09-2.47q0-1,2-5.16a38.16,38.16,0,0,1,5.66-8.4,22,22,0,0,1,9.06-6.27c1.31-.5,5.52-1.42,12.6-2.74s15.09-2.52,24-3.61a202.79,202.79,0,0,1,24.47-1.63A32.1,32.1,0,0,1,504.68,390c2.7,1,4.06,3.12,4.06,6.39a13.82,13.82,0,0,1-1.46,4.86,75.7,75.7,0,0,1-4.64,8.43q-3.18,5.13-7.75,11.25t-10.41,12.95h11.25L486,445c-1.31.08-3,.14-4.93.18s-4.13.09-6.47.17a188.07,188.07,0,0,1-19.47,17.55,171.22,171.22,0,0,1-19,13.18q-8.5,4.95-11.94,5a4.06,4.06,0,0,1-2.41-.72,2.23,2.23,0,0,1-1-1.9c0-.66,1.09-2.35,3.25-5.07a34.59,34.59,0,0,1,9-7.64,27.53,27.53,0,0,1,13.15-4c2-1.68,3.71-3.16,5.15-4.46s3.47-3.19,6.1-5.66l6.07-5.68-22,.87a19,19,0,0,1-4.93-.26,1.76,1.76,0,0,1-1.35-1.9,30.66,30.66,0,0,1,2.27-4.08,6.43,6.43,0,0,1,1.86-2,21.13,21.13,0,0,1,4-.93L456.78,435A45.41,45.41,0,0,1,464.31,433.88Z" transform="translate(-28.74 -28.74)"/><path class="cls-3" d="M535.63,440.58Q525,451.77,519.51,456.5t-9,4.72a8,8,0,0,1-5.11-1.84,11.79,11.79,0,0,1-3.62-4.95,17.31,17.31,0,0,1-1.28-6.68,14.79,14.79,0,0,1,.55-4.2,15,15,0,0,1,2.08-4.11,37.63,37.63,0,0,1,4.06-4.86q2.52-2.62,6.17-5.95l3.69-3.44a8.54,8.54,0,0,1,2.92-1.9,15.56,15.56,0,0,1,4.64-.49,19.54,19.54,0,0,1,4.46.49c1.41.33,2.12.67,2.12,1,0,.7-.72,2-2.16,3.79a46.66,46.66,0,0,1-6.94,6.68A94,94,0,0,1,511,442.51a15.68,15.68,0,0,0-1.39,5.24c0,1.67.81,2.51,2.41,2.51a7.17,7.17,0,0,0,2.93-1.2c1.36-.79,3.66-2.33,6.9-4.6s6.15-4.29,8.73-6a46.11,46.11,0,0,0,6.62-5.91,82.79,82.79,0,0,1,6.1-5.92q5.4-4.54,7.38-5.92a6.71,6.71,0,0,1,3.8-1.37,2.73,2.73,0,0,1,2.37.87,6.78,6.78,0,0,1,.62,3.56,5.67,5.67,0,0,1-.29,2,8.83,8.83,0,0,1-1.21,2c-.6.79-1.84,2.26-3.69,4.4l-6.57,7.58a28.29,28.29,0,0,0-3.58,5.1,10,10,0,0,0-1.54,4.17q0,3,3,3a13.28,13.28,0,0,0,5.77-1.63q3.28-1.63,10.08-5.89v3.91q-8.54,6.29-12.64,9.15a54.74,54.74,0,0,1-7.08,4.31,13,13,0,0,1-5.7,1.46q-6.13,0-6.14-5.83a14.85,14.85,0,0,1,1.83-6Q531.52,447.7,535.63,440.58Z" transform="translate(-28.74 -28.74)"/><path class="cls-3" d="M608,434q-12.87,11.43-12.86,15.92a2.24,2.24,0,0,0,2.55,2.51,12.88,12.88,0,0,0,5.52-1.78q3.4-1.78,10.63-6.33v4Q603.5,456.5,598,460.11t-9.06,3.62q-6,0-6-6.3a9.65,9.65,0,0,1,.73-3.67,22,22,0,0,1,2-3.76c.85-1.3,2.16-3.17,3.91-5.6s3.77-5.18,6.06-8.25a46,46,0,0,0-10.44,6.7,74.58,74.58,0,0,0-6.95,6q-2.85,2.84-6.1,6.3a51.72,51.72,0,0,1-4.75,4.66,4.84,4.84,0,0,1-3,1.2c-1.56,0-3-1.3-4.31-3.91a20,20,0,0,1-2-9.09,11.31,11.31,0,0,1,.91-5,33.15,33.15,0,0,1,3.62-5.13,61.41,61.41,0,0,1,8.69-9.07,11.52,11.52,0,0,1,7-2.88,9.22,9.22,0,0,1,3.76.64,2.1,2.1,0,0,1,1.43,2,2.23,2.23,0,0,1-.44,1.23,7.87,7.87,0,0,1-1,1.16c-.37.35-1.13,1-2.3,2q-11.55,10.21-11.55,13.24c0,1.13.47,1.69,1.39,1.69.59,0,1.72-.75,3.4-2.25s3.85-3.45,6.5-5.88a109.56,109.56,0,0,1,9.43-7.61,102.2,102.2,0,0,1,12.38-7.64,14.06,14.06,0,0,1,6.43-2.16c.78,0,1.55.86,2.31,2.57a12.82,12.82,0,0,1,1.13,5.19Q611.18,431.37,608,434Z" transform="translate(-28.74 -28.74)"/><path class="cls-3" d="M450,504.33v4c0,1.64-.4,2.67-1.21,3.09s-3.75,1.58-8.84,3.44a113.17,113.17,0,0,0-14.65,6.59,26.6,26.6,0,0,1,4.93-4.66c1.49-1,3.5-2.28,6-3.79a31.23,31.23,0,0,0-9.13-1.05,74.43,74.43,0,0,0-19.55,2.86,83.54,83.54,0,0,0-17.82,6.82q-7.35,4-7.35,6.64c0,.94.74,1.7,2.23,2.31a28.28,28.28,0,0,0,7.16,1.4q4.93.49,12.31.67t18.2.17a65.93,65.93,0,0,1,10.15.47c1.51.31,2.27,1,2.27,2.16,0,1.43-.89,3.08-2.67,4.92a11.3,11.3,0,0,1-7.05,3.3q-6.79.87-10.81,1.48a94.15,94.15,0,0,0-9.54,2.07,100.54,100.54,0,0,0-12.24,4.2,71.88,71.88,0,0,0-15.63,8.51q-5.64,4.32-5.63,7.64c0,1.91,1.34,3.39,4,4.46s6.53,1.6,11.54,1.6q25.94,0,52.83-18.59a25.41,25.41,0,0,1-1.57,10q-1.73,4.35-7,8.31-4.38,3.33-12.82,6.36a116.21,116.21,0,0,1-18.41,4.84,105.85,105.85,0,0,1-18.75,1.8q-10.15,0-16.8-3.87t-6.65-10.29a16.1,16.1,0,0,1,3.21-9.27,34.21,34.21,0,0,1,9.87-8.84,77.74,77.74,0,0,1,16.84-7.66A136.41,136.41,0,0,1,411,541c1.27-.19,1.9-.5,1.9-.93s-.74-.75-2.23-.85-4.21-.16-8.18-.2-7.47-.17-10.49-.41a63.84,63.84,0,0,1-9.57-1.51,15.21,15.21,0,0,1-8-4.49,10.52,10.52,0,0,1-2.81-7.12q0-5,4.53-10.08a41.72,41.72,0,0,1,12.78-9.16,85.36,85.36,0,0,1,20-6.56,124.5,124.5,0,0,1,25.68-2.47,58.72,58.72,0,0,1,11.22.72c2.12.49,3.35,1.13,3.69,1.93A13,13,0,0,1,450,504.33Z" transform="translate(-28.74 -28.74)"/><path class="cls-3" d="M455.4,559.54l-1.32,4.9a7.15,7.15,0,0,0-.29,2.1c0,2.1,1.09,3.15,3.29,3.15s7.18-3.27,15.27-9.8q.07-3.78,3.54-8.74a49.36,49.36,0,0,1,7.67-8.69c2.8-2.49,4.89-3.73,6.25-3.73,2.14,0,3.22,1.13,3.22,3.38a13.37,13.37,0,0,1-1.25,5,34.22,34.22,0,0,1-3.65,6.35,59.28,59.28,0,0,1-5.92,7q1.83,2.63,3.73,2.62a8.49,8.49,0,0,0,3.54-.9,46.68,46.68,0,0,0,4.86-2.77v3.9a42.37,42.37,0,0,1-6.47,3.5,13.32,13.32,0,0,1-11.36-.64,143.14,143.14,0,0,1-12.13,9.42c-3.11,2.08-5.65,3.12-7.6,3.12q-5,0-8.58-4.81a17.48,17.48,0,0,1-3.54-10.59q0-7.76,11-18.6a31.16,31.16,0,0,1,5.29-4.46,8.82,8.82,0,0,1,4.57-1.19,13.27,13.27,0,0,1,4.16.64c1.32.43,2,.93,2,1.52q0,2.91-4.9,8.54A52.86,52.86,0,0,1,455.4,559.54Z" transform="translate(-28.74 -28.74)"/><path class="cls-3" d="M505.89,561.53V563a6.88,6.88,0,0,0,2.11,5.37,8,8,0,0,0,5.56,1.92,22.49,22.49,0,0,0,7.41-1.34,43.34,43.34,0,0,0,7.64-3.56q3.79-2.21,9.28-5.94V563a85,85,0,0,1-15.49,12.16,28.8,28.8,0,0,1-14.69,4.23q-6.49,0-10.3-4t-3.8-11a18.55,18.55,0,0,1,3.58-11.1q3.58-5,11.69-10.53a47.69,47.69,0,0,1,11-5.71,30,30,0,0,1,9.79-1.92,10.19,10.19,0,0,1,5.44,1.25,4.15,4.15,0,0,1,2,3.76c0,2.45-1.15,4.89-3.43,7.32a38.54,38.54,0,0,1-10.49,7.23A120.9,120.9,0,0,1,505.89,561.53Zm.73-3.79a45.07,45.07,0,0,0,11.25-5.08,29.08,29.08,0,0,0,6.9-5.8q2.24-2.76,2.23-4.05c0-.89-.51-1.34-1.53-1.34a12.36,12.36,0,0,0-4.28,1.34,36.42,36.42,0,0,0-6,3.5,28.68,28.68,0,0,0-5.44,5.07A14.57,14.57,0,0,0,506.62,557.74Z" transform="translate(-28.74 -28.74)"/><path class="cls-3" d="M587.14,548.87q-12.87,11.43-12.86,15.92a2.24,2.24,0,0,0,2.55,2.51,12.7,12.7,0,0,0,5.52-1.78q3.4-1.77,10.63-6.33v4q-10.37,8.16-15.93,11.77T568,578.61q-6,0-6-6.3a9.65,9.65,0,0,1,.73-3.67,22.42,22.42,0,0,1,2-3.76c.85-1.3,2.16-3.17,3.91-5.6s3.78-5.18,6.07-8.25a45.72,45.72,0,0,0-10.45,6.71,74.37,74.37,0,0,0-6.94,6q-2.85,2.84-6.11,6.3a53.34,53.34,0,0,1-4.74,4.66,4.84,4.84,0,0,1-3,1.2c-1.56,0-3-1.3-4.31-3.91a20,20,0,0,1-2-9.09,11.31,11.31,0,0,1,.91-5,33.15,33.15,0,0,1,3.62-5.13,60.75,60.75,0,0,1,8.69-9.06,11.48,11.48,0,0,1,7-2.89,9.22,9.22,0,0,1,3.76.64,2.1,2.1,0,0,1,1.43,2,2.23,2.23,0,0,1-.44,1.23,6.89,6.89,0,0,1-1,1.16c-.36.35-1.13,1-2.3,2Q547.31,558,547.32,561.06c0,1.13.46,1.69,1.38,1.69.59,0,1.72-.75,3.4-2.24s3.85-3.46,6.5-5.89A109.56,109.56,0,0,1,568,547a103.47,103.47,0,0,1,12.38-7.64,14.1,14.1,0,0,1,6.43-2.16c.78,0,1.55.86,2.31,2.57a12.82,12.82,0,0,1,1.13,5.19Q590.28,546.25,587.14,548.87Z" transform="translate(-28.74 -28.74)"/><path class="cls-3" d="M618.19,529.17h3.14a33.73,33.73,0,0,1,7-7.85,11.82,11.82,0,0,1,7.16-2.3c2.68,0,4,.49,4,1.46q0,.71-3.15,3.79a54.3,54.3,0,0,0-4.75,5.19l4.43.41c1.29.11,2.3.21,3,.29a92.87,92.87,0,0,1-10.45,12.65l-3.43-.2-2.82-.18-3.47-.2q-3.95,5.07-6.61,9.06a46.71,46.71,0,0,0-4.09,7.32,16.05,16.05,0,0,0-1.43,6.3q0,4,4,4c1.85,0,4.28-.79,7.27-2.36s7-4,12-7.26v3.91Q610.38,580.31,601,580.3a6.95,6.95,0,0,1-7.31-7.29,14.9,14.9,0,0,1,1.13-5.13q1.14-3,4.06-9c-.69.47-1.33.93-1.94,1.37l-1.68,1.23-1.64,1.16c-.59.41-1.17.83-1.76,1.26v-4q7.68-5.13,18.56-18l-2-.09c-.64,0-1.39,0-2.27,0a32.49,32.49,0,0,0-6.43.47c-.58.11-1.13.24-1.64.38a5.37,5.37,0,0,1-1.06.2c-.2,0-.29-.12-.29-.35,0-1.28,1-3.21,3-5.77a22.52,22.52,0,0,1,4.57-4.84,12.47,12.47,0,0,1,5.26-2.13A52.72,52.72,0,0,1,618.19,529.17Z" transform="translate(-28.74 -28.74)"/><path class="cls-3" d="M629.66,561.06v-1.4q18.86-15.85,25.94-22.21c1.07-4.79,3.66-7.17,7.75-7.17a9,9,0,0,1,3.29.69l.43,1.11a5.45,5.45,0,0,0-.29,2,15.33,15.33,0,0,0,1.06,4.12q1.06,3,1.65,5a17.07,17.07,0,0,1,.58,4.6,13.78,13.78,0,0,1-2.19,7.38,26.25,26.25,0,0,1-6.36,6.76,69.2,69.2,0,0,1-10.74,6.62,34,34,0,0,0,4.16.35,20.09,20.09,0,0,0,6.47-1.19,44.84,44.84,0,0,0,7.09-3.21q3.62-2,8.44-5.22v3.91a108.48,108.48,0,0,1-16.73,11c-4.93,2.5-9.16,3.76-12.72,3.76a19.94,19.94,0,0,1-12.71-4.67q-3.43-2.79-4.28-5.36A23,23,0,0,1,629.66,561.06Zm27.26-8.92-1.32-8.51q-4.53,4.08-19.36,15.68,4.38.77,6,2a34.3,34.3,0,0,1,4.53,5,18.11,18.11,0,0,0,7.64-4.46,10.85,10.85,0,0,0,2.66-7.73q0-.58,0-1C657,552.76,657,552.45,656.92,552.14Z" transform="translate(-28.74 -28.74)"/></g></svg>