<svg xmlns="http://www.w3.org/2000/svg" xmlns:xlink="http://www.w3.org/1999/xlink" viewBox="0 0 951.11 951.11"><defs><style>.cls-1,.cls-2,.cls-4,.cls-5,.cls-6,.cls-7{fill:none;stroke-miterlimit:10;}.cls-1{stroke-width:6px;stroke:url(#linear-gradient);}.cls-2{stroke-width:20px;stroke:url(#linear-gradient-2);}.cls-3{fill:url(#linear-gradient-3);}.cls-4,.cls-5{stroke-width:10px;}.cls-4{stroke:url(#linear-gradient-4);}.cls-5{stroke:url(#linear-gradient-5);}.cls-6,.cls-7{stroke-width:4px;}.cls-6{stroke:url(#linear-gradient-6);}.cls-7{stroke:url(#linear-gradient-7);}</style><linearGradient id="linear-gradient" x1="485.7" y1="222.26" x2="493.55" y2="300.8" gradientUnits="userSpaceOnUse"><stop offset="0" stop-color="#ed2024"/><stop offset="0.12" stop-color="#f26164"/><stop offset="0.25" stop-color="#f8a4a6"/><stop offset="0.36" stop-color="#fcd5d6"/><stop offset="0.45" stop-color="#fef4f4"/><stop offset="0.49" stop-color="#fff"/><stop offset="0.56" stop-color="#fffbfb"/><stop offset="0.63" stop-color="#feefef"/><stop offset="0.69" stop-color="#fcdbdb"/><stop offset="0.76" stop-color="#fabebf"/><stop offset="0.82" stop-color="#f79a9b"/><stop offset="0.89" stop-color="#f36d6f"/><stop offset="0.96" stop-color="#ef393c"/><stop offset="0.98" stop-color="#ed2024"/></linearGradient><linearGradient id="linear-gradient-2" x1="428.21" y1="2.33" x2="522.9" y2="948.78" xlink:href="#linear-gradient"/><linearGradient id="linear-gradient-3" x1="528.01" y1="388.29" x2="546.83" y2="576.44" xlink:href="#linear-gradient"/><linearGradient id="linear-gradient-4" x1="480.09" y1="254.27" x2="501.33" y2="466.62" xlink:href="#linear-gradient"/><linearGradient id="linear-gradient-5" x1="478.49" y1="408.64" x2="514.06" y2="764.21" xlink:href="#linear-gradient"/><linearGradient id="linear-gradient-6" x1="233.05" y1="231.02" x2="235.71" y2="257.6" xlink:href="#linear-gradient"/><linearGradient id="linear-gradient-7" x1="702.13" y1="226.14" x2="705.39" y2="258.72" xlink:href="#linear-gradient"/></defs><title>infocus</title><g id="infocus"><path class="cls-1" d="M574.94,233.28H407.18l-33.12,52.27H610.39Zm-51.36,38H460.06V245.13h63.52Z" transform="translate(-24.45 -24.45)"/><circle class="cls-2" cx="475.55" cy="475.55" r="465.55"/><circle class="cls-3" cx="537.42" cy="482.37" r="94.54"/><path class="cls-4" d="M428.6,426.63a155.3,155.3,0,0,1,264.94,0H846v-78.4a60.78,60.78,0,0,0-60.78-60.78H201.75A60.78,60.78,0,0,0,141,348.23v78.4Z" transform="translate(-24.45 -24.45)"/><path class="cls-5" d="M704.42,447.91a155.27,155.27,0,1,1-286.7,0H141V671a60.78,60.78,0,0,0,60.78,60.78H785.24A60.78,60.78,0,0,0,846,671V447.91Z" transform="translate(-24.45 -24.45)"/><polygon class="cls-6" points="256.92 234.97 214.78 234.97 205.06 252.26 265.84 252.26 256.92 234.97"/><polygon class="cls-7" points="734.34 230.79 676.82 230.79 663.54 252.26 746.51 252.26 734.34 230.79"/></g></svg>