<svg xmlns="http://www.w3.org/2000/svg" xmlns:xlink="http://www.w3.org/1999/xlink" viewBox="0 0 930.11 930.11"><defs><style>.cls-1,.cls-2,.cls-3,.cls-4,.cls-5,.cls-6{fill:none;stroke-miterlimit:10;}.cls-1,.cls-3,.cls-4,.cls-5,.cls-6{stroke-width:10px;}.cls-1{stroke:url(#radial-gradient);}.cls-2{stroke-width:20px;stroke:url(#linear-gradient);}.cls-3{stroke:url(#linear-gradient-2);}.cls-4,.cls-5,.cls-6{stroke-linecap:round;}.cls-4{stroke:url(#radial-gradient-2);}.cls-5{stroke:url(#radial-gradient-3);}.cls-6{stroke:url(#radial-gradient-4);}</style><radialGradient id="radial-gradient" cx="501.8" cy="539.81" r="77.39" gradientUnits="userSpaceOnUse"><stop offset="0" stop-color="#ed2024"/><stop offset="0.12" stop-color="#f26164"/><stop offset="0.25" stop-color="#f8a4a6"/><stop offset="0.36" stop-color="#fcd5d6"/><stop offset="0.45" stop-color="#fef4f4"/><stop offset="0.49" stop-color="#fff"/><stop offset="0.56" stop-color="#fffbfb"/><stop offset="0.63" stop-color="#feefef"/><stop offset="0.69" stop-color="#fcdbdb"/><stop offset="0.76" stop-color="#fabebf"/><stop offset="0.82" stop-color="#f79a9b"/><stop offset="0.89" stop-color="#f36d6f"/><stop offset="0.96" stop-color="#ef393c"/><stop offset="0.98" stop-color="#ed2024"/></radialGradient><linearGradient id="linear-gradient" x1="500" y1="35.02" x2="500" y2="964.98" gradientTransform="translate(61.79 -115.78) rotate(10.23)" xlink:href="#radial-gradient"/><linearGradient id="linear-gradient-2" x1="602.08" y1="569.4" x2="386.6" y2="444.99" xlink:href="#radial-gradient"/><radialGradient id="radial-gradient-2" cx="465.06" cy="634.57" r="34.89" xlink:href="#radial-gradient"/><radialGradient id="radial-gradient-3" cx="465.06" cy="656.7" r="29.01" xlink:href="#radial-gradient"/><radialGradient id="radial-gradient-4" cx="465.06" cy="678.08" r="19.25" xlink:href="#radial-gradient"/></defs><title>innovati</title><g id="Layer_59" data-name="Layer 59"><path class="cls-1" d="M475.64,638.8s33.19-117.71,9.7-173.37c-14.62-34.66-13.79-2.41-11.08,26.86,2.74,29.68,45.62,32.6,51.55,3.39,2.08-10.24.25-23.87-8.3-42C483.3,381.17,529.94,638.8,529.94,638.8Z" transform="translate(-34.94 -34.94)"/><circle class="cls-2" cx="465.06" cy="465.06" r="454.98"/><path class="cls-3" d="M603.83,465c0-57.34-46.49-98.83-103.83-98.83S396.17,407.69,396.17,465a103.36,103.36,0,0,0,16.49,56.16h0a103.34,103.34,0,0,0,6.75,9.29c9.15,13.29,24.58,38.35,26.46,58.78V638.8H554.13V593.5a13.54,13.54,0,0,0,.91-4.24c2.7-29.27,33.22-68.07,33.22-68.07l-.94,0A103.35,103.35,0,0,0,603.83,465Z" transform="translate(-34.94 -34.94)"/><line class="cls-4" x1="420.97" y1="634.57" x2="509.14" y2="634.57"/><line class="cls-5" x1="429.33" y1="656.7" x2="500.78" y2="656.7"/><line class="cls-6" x1="443.29" y1="678.08" x2="486.82" y2="678.08"/></g></svg>