<svg xmlns="http://www.w3.org/2000/svg" xmlns:xlink="http://www.w3.org/1999/xlink" viewBox="0 0 954.97 954.97"><defs><style>.cls-1,.cls-2,.cls-3{fill:none;stroke-linecap:round;stroke-miterlimit:10;}.cls-1{stroke-width:18px;stroke:url(#linear-gradient);}.cls-2{stroke-width:12px;stroke:url(#linear-gradient-2);}.cls-3{stroke-width:10px;stroke:url(#linear-gradient-3);}</style><linearGradient id="linear-gradient" x1="429.95" y1="2.34" x2="525.02" y2="952.63" gradientUnits="userSpaceOnUse"><stop offset="0" stop-color="#ed2024"/><stop offset="0.12" stop-color="#f26164"/><stop offset="0.25" stop-color="#f8a4a6"/><stop offset="0.36" stop-color="#fcd5d6"/><stop offset="0.45" stop-color="#fef4f4"/><stop offset="0.49" stop-color="#fff"/><stop offset="0.56" stop-color="#fffbfb"/><stop offset="0.63" stop-color="#feefef"/><stop offset="0.69" stop-color="#fcdbdb"/><stop offset="0.76" stop-color="#fabebf"/><stop offset="0.82" stop-color="#f79a9b"/><stop offset="0.89" stop-color="#f36d6f"/><stop offset="0.96" stop-color="#ef393c"/><stop offset="0.98" stop-color="#ed2024"/></linearGradient><linearGradient id="linear-gradient-2" x1="429.66" y1="156.88" x2="498.84" y2="848.39" xlink:href="#linear-gradient"/><linearGradient id="linear-gradient-3" x1="475.71" y1="194.86" x2="509.94" y2="537.08" xlink:href="#linear-gradient"/></defs><title>newron</title><g id="flawless_newron"><circle class="cls-1" cx="477.48" cy="477.48" r="468.48"/><path class="cls-2" d="M445.55,816.72l-86.91-168-109.53,6.46L211.23,508.1h-37l51.09-83.69S195.45,261.78,357.55,186.6a300,300,0,0,1,179.33-22.71C612.67,177.54,713,221.37,745.07,354.82c0,0,22,111-100.43,200.85l102,261.05Z" transform="translate(-22.52 -22.52)"/><path class="cls-3" d="M408.76,394.82s-104.91-.89-84.82-40.48c0,0-36.05-4.73-25.11-52,0,0,4.13-24.83,32.8-31.33,0,0-2.37-25.12,27.48-24.52,0,0,19.5-33.69,55-22.76,0,0,18.62-31.32,60.29-18.32,0,0,28.66-16.55,54.37.89,0,0,31.62-8.87,49.79,19.5,0,0,23.5-12.56,42.11,17.58,0,0,32.36,8.87,23.94,32.8,0,0,31,8.43,17.73,39,0,0,23.05,17.73,22.16,58.51,0,0-.44,42.11-25.26,46.54a59.67,59.67,0,0,1-11.53,43s-23,7.09-38.12,2.22c0,0,.45,30.14-29.7,43.88,0,0-38.56,6.65-47.87-18.62l-7.09,39.45h-18S493,472.35,479.68,456.71C479.68,456.71,378.61,441.66,408.76,394.82Z" transform="translate(-22.52 -22.52)"/></g></svg>