<svg xmlns="http://www.w3.org/2000/svg" xmlns:xlink="http://www.w3.org/1999/xlink" viewBox="0 0 930.11 930.11"><defs><style>.cls-1,.cls-10,.cls-11,.cls-12,.cls-13,.cls-14,.cls-15,.cls-16,.cls-17,.cls-18,.cls-19,.cls-2,.cls-20,.cls-21,.cls-22,.cls-25,.cls-26,.cls-27,.cls-28,.cls-29,.cls-3,.cls-30,.cls-31,.cls-32,.cls-4,.cls-5,.cls-6,.cls-7,.cls-8,.cls-9{fill:none;stroke-miterlimit:10;}.cls-1{stroke-width:20px;stroke:url(#linear-gradient);}.cls-2,.cls-22,.cls-25,.cls-26,.cls-3,.cls-4,.cls-5,.cls-6,.cls-7{stroke-width:5px;}.cls-2{stroke:url(#linear-gradient-2);}.cls-3{stroke:url(#linear-gradient-3);}.cls-4{stroke:url(#linear-gradient-4);}.cls-5{stroke:url(#linear-gradient-5);}.cls-6{stroke:url(#linear-gradient-6);}.cls-7{stroke:url(#linear-gradient-7);}.cls-10,.cls-11,.cls-12,.cls-13,.cls-14,.cls-15,.cls-16,.cls-17,.cls-27,.cls-28,.cls-29,.cls-30,.cls-31,.cls-32,.cls-8,.cls-9{stroke-width:3px;}.cls-8{stroke:url(#linear-gradient-8);}.cls-9{stroke:url(#linear-gradient-9);}.cls-10{stroke:url(#linear-gradient-10);}.cls-11{stroke:url(#linear-gradient-11);}.cls-12{stroke:url(#linear-gradient-12);}.cls-13{stroke:url(#linear-gradient-13);}.cls-14{stroke:url(#linear-gradient-14);}.cls-15{stroke:url(#linear-gradient-15);}.cls-16{stroke:url(#linear-gradient-16);}.cls-17{stroke:url(#linear-gradient-17);}.cls-18,.cls-19,.cls-20,.cls-21{stroke-width:10px;}.cls-18{stroke:url(#linear-gradient-18);}.cls-19{stroke:url(#linear-gradient-19);}.cls-20{stroke:url(#linear-gradient-20);}.cls-21{stroke:url(#linear-gradient-21);}.cls-22{stroke:url(#linear-gradient-22);}.cls-23{fill:url(#linear-gradient-23);}.cls-24{fill:url(#linear-gradient-24);}.cls-25{stroke:url(#linear-gradient-25);}.cls-26{stroke-linecap:round;stroke:url(#linear-gradient-26);}.cls-27{stroke:url(#linear-gradient-27);}.cls-28{stroke:url(#linear-gradient-28);}.cls-29{stroke:url(#linear-gradient-29);}.cls-30{stroke:url(#linear-gradient-30);}.cls-31{stroke:url(#linear-gradient-31);}.cls-32{stroke:url(#linear-gradient-32);}</style><linearGradient id="linear-gradient" x1="500" y1="35.02" x2="500" y2="964.98" gradientTransform="translate(61.79 -115.78) rotate(10.23)" gradientUnits="userSpaceOnUse"><stop offset="0" stop-color="#ed2024"/><stop offset="0.12" stop-color="#f26164"/><stop offset="0.25" stop-color="#f8a4a6"/><stop offset="0.36" stop-color="#fcd5d6"/><stop offset="0.45" stop-color="#fef4f4"/><stop offset="0.49" stop-color="#fff"/><stop offset="0.56" stop-color="#fffbfb"/><stop offset="0.63" stop-color="#feefef"/><stop offset="0.69" stop-color="#fcdbdb"/><stop offset="0.76" stop-color="#fabebf"/><stop offset="0.82" stop-color="#f79a9b"/><stop offset="0.89" stop-color="#f36d6f"/><stop offset="0.96" stop-color="#ef393c"/><stop offset="0.98" stop-color="#ed2024"/></linearGradient><linearGradient id="linear-gradient-2" x1="247.34" y1="535.5" x2="306.39" y2="535.5" gradientTransform="matrix(0.71, -0.71, 0.68, 0.68, -277.03, 260.26)" xlink:href="#linear-gradient"/><linearGradient id="linear-gradient-3" x1="32.81" y1="364.12" x2="137.76" y2="364.12" gradientTransform="matrix(0.65, 0.65, -0.56, 0.56, 437.71, 172.02)" xlink:href="#linear-gradient"/><linearGradient id="linear-gradient-4" x1="353.26" y1="593.58" x2="473.1" y2="593.58" gradientTransform="matrix(0.55, -0.55, 0.58, 0.58, -217.18, 332)" xlink:href="#linear-gradient"/><linearGradient id="linear-gradient-5" x1="-120.71" y1="151.76" x2="-61.65" y2="151.76" gradientTransform="matrix(-0.71, -0.71, -0.68, 0.68, 756.53, 260.26)" xlink:href="#linear-gradient"/><linearGradient id="linear-gradient-6" x1="-367.41" y1="824.84" x2="-262.46" y2="824.84" gradientTransform="matrix(-0.65, 0.65, 0.56, 0.56, -28.1, 172.02)" xlink:href="#linear-gradient"/><linearGradient id="linear-gradient-7" x1="-123.46" y1="143.08" x2="-3.62" y2="143.08" gradientTransform="matrix(-0.55, -0.55, -0.58, 0.58, 626.8, 332)" xlink:href="#linear-gradient"/><linearGradient id="linear-gradient-8" x1="408.19" y1="566.58" x2="439.82" y2="566.58" gradientTransform="matrix(1, 0, 0, 1, 0, 0)" xlink:href="#linear-gradient"/><linearGradient id="linear-gradient-9" x1="408.19" y1="598.09" x2="439.82" y2="598.09" gradientTransform="matrix(1, 0, 0, 1, 0, 0)" xlink:href="#linear-gradient"/><linearGradient id="linear-gradient-10" x1="491.68" y1="598.09" x2="523.3" y2="598.09" gradientTransform="matrix(1, 0, 0, 1, 0, 0)" xlink:href="#linear-gradient"/><linearGradient id="linear-gradient-11" x1="408.19" y1="617.63" x2="439.82" y2="617.63" gradientTransform="matrix(1, 0, 0, 1, 0, 0)" xlink:href="#linear-gradient"/><linearGradient id="linear-gradient-12" x1="491.68" y1="617.63" x2="523.3" y2="617.63" gradientTransform="matrix(1, 0, 0, 1, 0, 0)" xlink:href="#linear-gradient"/><linearGradient id="linear-gradient-13" x1="408.19" y1="637.17" x2="439.82" y2="637.17" gradientTransform="matrix(1, 0, 0, 1, 0, 0)" xlink:href="#linear-gradient"/><linearGradient id="linear-gradient-14" x1="491.68" y1="637.17" x2="523.3" y2="637.17" gradientTransform="matrix(1, 0, 0, 1, 0, 0)" xlink:href="#linear-gradient"/><linearGradient id="linear-gradient-15" x1="398.74" y1="668.81" x2="449.27" y2="668.81" gradientTransform="matrix(1, 0, 0, 1, 0, 0)" xlink:href="#linear-gradient"/><linearGradient id="linear-gradient-16" x1="482.22" y1="668.81" x2="532.76" y2="668.81" gradientTransform="matrix(1, 0, 0, 1, 0, 0)" xlink:href="#linear-gradient"/><linearGradient id="linear-gradient-17" x1="491.68" y1="566.58" x2="523.3" y2="566.58" gradientTransform="matrix(1, 0, 0, 1, 0, 0)" xlink:href="#linear-gradient"/><linearGradient id="linear-gradient-18" x1="427.15" y1="389.71" x2="501.62" y2="389.71" gradientTransform="matrix(1, 0, 0, 1, 0, 0)" xlink:href="#linear-gradient"/><linearGradient id="linear-gradient-19" x1="437.89" y1="253.57" x2="490.89" y2="253.57" gradientTransform="matrix(1, 0, 0, 1, 0, 0)" xlink:href="#linear-gradient"/><linearGradient id="linear-gradient-20" x1="391.26" y1="315.69" x2="537.51" y2="315.69" gradientTransform="matrix(1, 0, 0, 1, 0, 0)" xlink:href="#linear-gradient"/><linearGradient id="linear-gradient-21" x1="368.17" y1="480.3" x2="560.6" y2="480.3" gradientTransform="matrix(1, 0, 0, 1, 0, 0)" xlink:href="#linear-gradient"/><linearGradient id="linear-gradient-22" x1="407.45" y1="294.26" x2="441.01" y2="294.26" gradientTransform="matrix(1, 0, 0, 1, 0, 0)" xlink:href="#linear-gradient"/><linearGradient id="linear-gradient-23" x1="418.47" y1="294.26" x2="429.99" y2="294.26" gradientTransform="matrix(1, 0, 0, 1, 0, 0)" xlink:href="#linear-gradient"/><linearGradient id="linear-gradient-24" x1="499.08" y1="294.26" x2="510.59" y2="294.26" gradientTransform="matrix(1, 0, 0, 1, 0, 0)" xlink:href="#linear-gradient"/><linearGradient id="linear-gradient-25" x1="488.06" y1="294.26" x2="521.62" y2="294.26" gradientTransform="matrix(1, 0, 0, 1, 0, 0)" xlink:href="#linear-gradient"/><linearGradient id="linear-gradient-26" x1="440.98" y1="338.67" x2="488.16" y2="338.67" gradientTransform="matrix(1, 0, 0, 1, 0, 0)" xlink:href="#linear-gradient"/><linearGradient id="linear-gradient-27" x1="400.37" y1="449.47" x2="487.33" y2="449.47" gradientTransform="matrix(1, 0, 0, 1, 0, 0)" xlink:href="#linear-gradient"/><linearGradient id="linear-gradient-28" x1="497.76" y1="449.47" x2="529.39" y2="449.47" gradientTransform="matrix(1, 0, 0, 1, 0, 0)" xlink:href="#linear-gradient"/><linearGradient id="linear-gradient-29" x1="400.37" y1="478.85" x2="487.33" y2="478.85" gradientTransform="matrix(1, 0, 0, 1, 0, 0)" xlink:href="#linear-gradient"/><linearGradient id="linear-gradient-30" x1="497.76" y1="478.85" x2="529.39" y2="478.85" gradientTransform="matrix(1, 0, 0, 1, 0, 0)" xlink:href="#linear-gradient"/><linearGradient id="linear-gradient-31" x1="400.37" y1="508.24" x2="487.33" y2="508.24" gradientTransform="matrix(1, 0, 0, 1, 0, 0)" xlink:href="#linear-gradient"/><linearGradient id="linear-gradient-32" x1="497.76" y1="508.24" x2="529.39" y2="508.24" gradientTransform="matrix(1, 0, 0, 1, 0, 0)" xlink:href="#linear-gradient"/></defs><title>robotics</title><g id="robotics"><circle class="cls-1" cx="465.06" cy="465.06" r="454.98"/><path class="cls-2" d="M291,398.53c10.12,10.12,9.77,26.89-.79,37.44s-27.31,10.91-37.44.78" transform="translate(-34.94 -34.94)"/><polygon class="cls-3" points="312.5 473.25 247.59 408.26 262.53 394.31 327.69 458.07 312.5 473.25"/><polygon class="cls-4" points="373 442.52 327.38 488.13 312.5 473.25 373.11 412.65 373 442.52"/><path class="cls-5" d="M709,398.53c-10.12,10.12-9.77,26.89.79,37.44s27.31,10.91,37.44.78" transform="translate(-34.94 -34.94)"/><polygon class="cls-6" points="617.61 473.25 682.52 408.26 667.59 394.31 602.43 458.07 617.61 473.25"/><polygon class="cls-7" points="557.12 442.52 602.73 488.13 617.61 473.25 557 412.65 557.12 442.52"/><rect class="cls-8" x="409.69" y="548.82" width="28.62" height="35.53"/><rect class="cls-9" x="409.69" y="592.3" width="28.62" height="11.58"/><rect class="cls-10" x="493.18" y="592.3" width="28.62" height="11.58"/><rect class="cls-11" x="409.69" y="611.84" width="28.62" height="11.58"/><rect class="cls-12" x="493.18" y="611.84" width="28.62" height="11.58"/><rect class="cls-13" x="409.69" y="631.38" width="28.62" height="11.58"/><rect class="cls-14" x="493.18" y="631.38" width="28.62" height="11.58"/><polygon class="cls-15" points="447.36 686.7 400.64 686.7 409.34 650.92 438.67 650.92 447.36 686.7"/><polygon class="cls-16" points="530.85 686.7 484.13 686.7 492.82 650.92 522.15 650.92 530.85 686.7"/><rect class="cls-17" x="493.18" y="548.82" width="28.62" height="35.53"/><rect class="cls-18" x="432.15" y="367.64" width="64.46" height="44.14"/><rect class="cls-19" x="442.89" y="243.41" width="43" height="20.32"/><rect class="cls-20" x="396.26" y="263.73" width="136.25" height="103.91"/><rect class="cls-21" x="373.17" y="411.78" width="182.44" height="137.04"/><circle class="cls-22" cx="424.23" cy="294.26" r="14.28"/><circle class="cls-23" cx="424.23" cy="294.26" r="5.76"/><circle class="cls-24" cx="504.84" cy="294.26" r="5.76"/><circle class="cls-25" cx="504.84" cy="294.26" r="14.28"/><line class="cls-26" x1="443.48" y1="338.67" x2="485.66" y2="338.67"/><rect class="cls-27" x="401.87" y="441.43" width="83.97" height="16.08"/><rect class="cls-28" x="499.26" y="441.43" width="28.62" height="16.08"/><rect class="cls-29" x="401.87" y="470.81" width="83.97" height="16.08"/><rect class="cls-30" x="499.26" y="470.81" width="28.62" height="16.08"/><rect class="cls-31" x="401.87" y="500.2" width="83.97" height="16.08"/><rect class="cls-32" x="499.26" y="500.2" width="28.62" height="16.08"/></g></svg>