<svg xmlns="http://www.w3.org/2000/svg" xmlns:xlink="http://www.w3.org/1999/xlink" viewBox="0 0 965.09 965.09"><defs><style>.cls-1,.cls-2,.cls-3{fill:none;stroke-miterlimit:10;}.cls-1{stroke-width:15px;stroke:url(#linear-gradient);}.cls-2{stroke-width:10px;stroke:url(#linear-gradient-2);}.cls-3{stroke-width:6px;stroke:url(#linear-gradient-3);}.cls-4{fill:url(#linear-gradient-4);}.cls-5{fill:url(#linear-gradient-5);}.cls-6{fill:url(#linear-gradient-6);}.cls-7{fill:url(#linear-gradient-7);}.cls-8{fill:url(#linear-gradient-8);}.cls-9{fill:url(#linear-gradient-9);}.cls-10{fill:url(#linear-gradient-10);}.cls-11{fill:url(#linear-gradient-11);}</style><linearGradient id="linear-gradient" y1="482.54" x2="965.09" y2="482.54" gradientUnits="userSpaceOnUse"><stop offset="0.08" stop-color="#ed2024"/><stop offset="0.12" stop-color="#f04a4d"/><stop offset="0.19" stop-color="#f58083"/><stop offset="0.26" stop-color="#f8aeaf"/><stop offset="0.32" stop-color="#fbd1d2"/><stop offset="0.38" stop-color="#fdeaeb"/><stop offset="0.43" stop-color="snow"/><stop offset="0.47" stop-color="#fff"/><stop offset="0.51" stop-color="#fef7f7"/><stop offset="0.56" stop-color="#fde1e2"/><stop offset="0.62" stop-color="#fabebf"/><stop offset="0.69" stop-color="#f68c8f"/><stop offset="0.77" stop-color="#f14e51"/><stop offset="0.83" stop-color="#ed2024"/></linearGradient><linearGradient id="linear-gradient-2" x1="280.22" y1="475.77" x2="693.66" y2="475.77" xlink:href="#linear-gradient"/><linearGradient id="linear-gradient-3" x1="312.2" y1="477.18" x2="662.77" y2="477.18" xlink:href="#linear-gradient"/><linearGradient id="linear-gradient-4" x1="476.01" y1="746.88" x2="498.97" y2="746.88" xlink:href="#linear-gradient"/><linearGradient id="linear-gradient-5" x1="621.8" y1="305.7" x2="597.82" y2="264.17" gradientUnits="userSpaceOnUse"><stop offset="0" stop-color="#ed2024"/><stop offset="0.07" stop-color="#ef3d41"/><stop offset="0.24" stop-color="#f5888a"/><stop offset="0.47" stop-color="#fff"/><stop offset="0.51" stop-color="#fef7f7"/><stop offset="0.56" stop-color="#fde1e2"/><stop offset="0.62" stop-color="#fabebf"/><stop offset="0.69" stop-color="#f68c8f"/><stop offset="0.77" stop-color="#f14e51"/><stop offset="0.83" stop-color="#ed2024"/></linearGradient><linearGradient id="linear-gradient-6" x1="554.05" y1="415.79" x2="629.2" y2="372.4" xlink:href="#linear-gradient"/><linearGradient id="linear-gradient-7" x1="576.36" y1="454.62" x2="606.75" y2="401.99" xlink:href="#linear-gradient"/><linearGradient id="linear-gradient-8" x1="564.72" y1="490.43" x2="618.51" y2="436.64" xlink:href="#linear-gradient"/><linearGradient id="linear-gradient-9" x1="515.51" y1="478.27" x2="415.6" y2="378.36" xlink:href="#linear-gradient"/><linearGradient id="linear-gradient-10" x1="504.13" y1="642.89" x2="433.68" y2="572.44" gradientUnits="userSpaceOnUse"><stop offset="0" stop-color="#ed2024"/><stop offset="0.05" stop-color="#f04a4d"/><stop offset="0.14" stop-color="#f58083"/><stop offset="0.21" stop-color="#f8aeaf"/><stop offset="0.29" stop-color="#fbd1d2"/><stop offset="0.36" stop-color="#fdeaeb"/><stop offset="0.42" stop-color="snow"/><stop offset="0.47" stop-color="#fff"/><stop offset="0.51" stop-color="#fef7f7"/><stop offset="0.57" stop-color="#fde1e2"/><stop offset="0.64" stop-color="#fabebf"/><stop offset="0.73" stop-color="#f68c8f"/><stop offset="0.82" stop-color="#f14e51"/><stop offset="0.88" stop-color="#ed2024"/></linearGradient><linearGradient id="linear-gradient-11" x1="590.61" y1="625.72" x2="534.79" y2="569.9" xlink:href="#linear-gradient-10"/></defs><title>adodemia</title><g id="addomedia"><circle class="cls-1" cx="482.54" cy="482.54" r="475.04"/><path class="cls-2" d="M306.41,176.66H670a18.64,18.64,0,0,1,18.64,18.64V753.68a21.19,21.19,0,0,1-21.19,21.19h-361a21.19,21.19,0,0,1-21.19-21.19V197.86A21.19,21.19,0,0,1,306.41,176.66Z"/><path class="cls-3" d="M317.25,232.16h341.5a1,1,0,0,1,1,1v487a2,2,0,0,1-2,2H317.25a2,2,0,0,1-2-2v-486A2,2,0,0,1,317.25,232.16Z"/><circle class="cls-4" cx="487.49" cy="746.88" r="11.48"/><path class="cls-5" d="M596.32,265.78H624a3.84,3.84,0,0,1,3.84,3.84v29.78a4.86,4.86,0,0,1-4.86,4.86H596.32a4.86,4.86,0,0,1-4.86-4.86V270.65A4.86,4.86,0,0,1,596.32,265.78Z"/><path class="cls-6" d="M550.39,383.78h83.16a3.84,3.84,0,0,1,3.84,3.84v12.12a4.86,4.86,0,0,1-4.86,4.86H550.39a4.86,4.86,0,0,1-4.86-4.86V388.64A4.86,4.86,0,0,1,550.39,383.78Z"/><path class="cls-7" d="M550.39,418.06h83.16a3.84,3.84,0,0,1,3.84,3.84V434a4.86,4.86,0,0,1-4.86,4.86H550.39a4.86,4.86,0,0,1-4.86-4.86V422.92A4.86,4.86,0,0,1,550.39,418.06Z"/><path class="cls-8" d="M550.39,453.27h83.16a3.84,3.84,0,0,1,3.84,3.84v12.12a4.86,4.86,0,0,1-4.86,4.86H550.39a4.86,4.86,0,0,1-4.86-4.86V458.13A4.86,4.86,0,0,1,550.39,453.27Z"/><path class="cls-9" d="M402.25,393.72H529.58a3.84,3.84,0,0,1,3.84,3.84v60.79a4.86,4.86,0,0,1-4.86,4.86H402.25a4.86,4.86,0,0,1-4.86-4.86V398.58A4.86,4.86,0,0,1,402.25,393.72Z"/><path class="cls-10" d="M483,619.76H454.09l-4,13.58h-26L455,551.07h27.73l30.91,82.27H487.06ZM477.67,602l-9.08-29.57-9,29.57Z" transform="translate(-17.46 -17.46)"/><path class="cls-11" d="M583,551.07v82.27H561.61v-8.81q-4.49,5.61-8.19,7.58a23.39,23.39,0,0,1-11,2.58q-12.18,0-18.61-9.26t-6.42-22.51q0-14.8,7.1-22.67a23.25,23.25,0,0,1,18-7.85,25.29,25.29,0,0,1,9.68,1.79,22.17,22.17,0,0,1,7.72,5.39V551.07Zm-22.89,52.3q0-7-3-10.46a9.5,9.5,0,0,0-7.52-3.45,8.28,8.28,0,0,0-6.68,3.31q-2.68,3.3-2.69,11.11,0,7.29,2.78,10.69a8.55,8.55,0,0,0,6.87,3.39,9.21,9.21,0,0,0,7.3-3.42Q560.09,611.12,560.1,603.37Z" transform="translate(-17.46 -17.46)"/></g></svg>