<svg xmlns="http://www.w3.org/2000/svg" xmlns:xlink="http://www.w3.org/1999/xlink" viewBox="0 0 970.19 970.19"><defs><style>.cls-1,.cls-2,.cls-3,.cls-4,.cls-5,.cls-6{fill:none;stroke-miterlimit:10;}.cls-1{stroke-width:20px;stroke:url(#linear-gradient);}.cls-2,.cls-3,.cls-4,.cls-5,.cls-6{stroke-width:10px;}.cls-2{stroke:url(#radial-gradient);}.cls-3{stroke:url(#radial-gradient-2);}.cls-4,.cls-5,.cls-6{stroke-linecap:round;}.cls-4{stroke:url(#radial-gradient-3);}.cls-5{stroke:url(#radial-gradient-4);}.cls-6{stroke:url(#radial-gradient-5);}</style><linearGradient id="linear-gradient" x1="500" y1="14.99" x2="500" y2="985.01" gradientTransform="matrix(0.98, 0.18, -0.18, 0.98, 81.82, -95.74)" gradientUnits="userSpaceOnUse"><stop offset="0" stop-color="#ed2024"/><stop offset="0.12" stop-color="#f26164"/><stop offset="0.25" stop-color="#f8a4a6"/><stop offset="0.36" stop-color="#fcd5d6"/><stop offset="0.45" stop-color="#fef4f4"/><stop offset="0.49" stop-color="#fff"/><stop offset="0.56" stop-color="#fffbfb"/><stop offset="0.63" stop-color="#feefef"/><stop offset="0.69" stop-color="#fcdbdb"/><stop offset="0.76" stop-color="#fabebf"/><stop offset="0.82" stop-color="#f79a9b"/><stop offset="0.89" stop-color="#f36d6f"/><stop offset="0.96" stop-color="#ef393c"/><stop offset="0.98" stop-color="#ed2024"/></linearGradient><radialGradient id="radial-gradient" cx="502.58" cy="541.66" r="120.97" gradientTransform="matrix(1, 0, 0, 1, 0, 0)" xlink:href="#linear-gradient"/><radialGradient id="radial-gradient-2" cx="500" cy="482.04" r="198.6" gradientTransform="matrix(1, 0, 0, 1, 0, 0)" xlink:href="#linear-gradient"/><radialGradient id="radial-gradient-3" cx="485.1" cy="734.08" r="53.48" gradientTransform="matrix(1, 0, 0, 1, 0, 0)" xlink:href="#linear-gradient"/><radialGradient id="radial-gradient-4" cx="485.1" cy="769.44" r="44.05" gradientTransform="matrix(1, 0, 0, 1, 0, 0)" xlink:href="#linear-gradient"/><radialGradient id="radial-gradient-5" cx="485.1" cy="803.62" r="28.36" gradientTransform="matrix(1, 0, 0, 1, 0, 0)" xlink:href="#linear-gradient"/></defs><title>B-Plan</title><g id="B-plan"><circle class="cls-1" cx="485.1" cy="485.1" r="475.01"/><path class="cls-2" d="M461.06,699.89s53.05-188.15,15.51-277.11c-23.37-55.39-22.05-3.85-17.72,42.94,4.39,47.44,72.93,52.11,82.4,5.42,3.32-16.38.41-38.16-13.26-67.13-54.69-115.9,19.86,295.88,19.86,295.88Z" transform="translate(-14.9 -14.9)"/><path class="cls-3" d="M666,422.15c0-91.66-74.3-158-166-158s-165.95,66.3-165.95,158a165.21,165.21,0,0,0,26.35,89.76h0a167.46,167.46,0,0,0,10.77,14.84c14.63,21.24,39.29,61.3,42.3,94v79.17h173v-72.4a21.83,21.83,0,0,0,1.46-6.77c4.32-46.8,53.08-108.81,53.08-108.81l-1.5.06A165.16,165.16,0,0,0,666,422.15Z" transform="translate(-14.9 -14.9)"/><line class="cls-4" x1="414.63" y1="734.08" x2="555.56" y2="734.08"/><line class="cls-5" x1="428" y1="769.44" x2="542.19" y2="769.44"/><line class="cls-6" x1="450.31" y1="803.62" x2="519.89" y2="803.62"/></g></svg>