<svg xmlns="http://www.w3.org/2000/svg" xmlns:xlink="http://www.w3.org/1999/xlink" viewBox="0 0 964.94 964.94"><defs><style>.cls-1,.cls-2,.cls-3,.cls-4,.cls-6{fill:none;stroke-miterlimit:10;}.cls-1{stroke-width:9px;stroke-dasharray:15 15;stroke:url(#linear-gradient);}.cls-2,.cls-3,.cls-4,.cls-6{stroke-width:22px;}.cls-2{stroke:url(#linear-gradient-2);}.cls-3{stroke:url(#linear-gradient-3);}.cls-4{stroke:url(#linear-gradient-4);}.cls-5{fill:url(#linear-gradient-5);}.cls-6{stroke:url(#linear-gradient-6);}.cls-7{fill:url(#linear-gradient-7);}.cls-8{fill:url(#linear-gradient-8);}.cls-9{fill:url(#linear-gradient-9);}</style><linearGradient id="linear-gradient" x1="201.24" y1="490.23" x2="610.56" y2="80.92" gradientUnits="userSpaceOnUse"><stop offset="0" stop-color="#ed2024"/><stop offset="0.12" stop-color="#f26164"/><stop offset="0.25" stop-color="#f8a4a6"/><stop offset="0.36" stop-color="#fcd5d6"/><stop offset="0.45" stop-color="#fef4f4"/><stop offset="0.49" stop-color="#fff"/><stop offset="0.56" stop-color="#fffbfb"/><stop offset="0.63" stop-color="#feefef"/><stop offset="0.69" stop-color="#fcdbdb"/><stop offset="0.76" stop-color="#fabebf"/><stop offset="0.82" stop-color="#f79a9b"/><stop offset="0.89" stop-color="#f36d6f"/><stop offset="0.96" stop-color="#ef393c"/><stop offset="0.98" stop-color="#ed2024"/></linearGradient><linearGradient id="linear-gradient-2" x1="141.31" y1="823.62" x2="823.62" y2="141.31" xlink:href="#linear-gradient"/><linearGradient id="linear-gradient-3" x1="539.48" y1="659.46" x2="848.54" y2="350.41" xlink:href="#linear-gradient"/><linearGradient id="linear-gradient-4" x1="380.23" y1="920.15" x2="556.61" y2="743.78" xlink:href="#linear-gradient"/><linearGradient id="linear-gradient-5" x1="541.53" y1="729.34" x2="575.27" y2="695.59" xlink:href="#linear-gradient"/><linearGradient id="linear-gradient-6" x1="248.15" y1="223.87" x2="248.15" y2="223.87" xlink:href="#linear-gradient"/><linearGradient id="linear-gradient-7" x1="164.37" y1="503.35" x2="361.15" y2="306.57" xlink:href="#linear-gradient"/><linearGradient id="linear-gradient-8" x1="677" y1="643.16" x2="718.08" y2="602.08" xlink:href="#linear-gradient"/><linearGradient id="linear-gradient-9" x1="650.96" y1="539.04" x2="772.16" y2="417.84" xlink:href="#linear-gradient"/></defs><title>bquiz</title><g id="bquiz"><polyline class="cls-1" points="60.49 344.98 499 344.98 499 110.83 631.47 110.83 631.47 241.25 736.22 241.25"/><circle class="cls-2" cx="482.47" cy="482.47" r="471.47"/><circle class="cls-3" cx="694.01" cy="504.94" r="207.54"/><path class="cls-4" d="M518.16,727.1l40.3,34.13A10.23,10.23,0,0,1,560,775.18L445.33,927.67s-19.86,18.49-36.29,3.42l-21.45-19.17s-17.8-15.29,0-41.53c14.63-21.56,86.27-110.47,111.35-141.48A13.49,13.49,0,0,1,518.16,727.1Z" transform="translate(-17.53 -17.53)"/><path class="cls-5" d="M552.75,684.16l-23.32,29.07a3.19,3.19,0,0,0,.44,4.44L558.78,742a3.18,3.18,0,0,0,4.32-.2l26.76-27.08a3.19,3.19,0,0,0-.25-4.72l-32.36-26.27A3.19,3.19,0,0,0,552.75,684.16Z" transform="translate(-17.53 -17.53)"/><path class="cls-6" d="M248.15,223.87" transform="translate(-17.53 -17.53)"/><path class="cls-7" d="M326.52,333.42l18.75-7a17.12,17.12,0,0,0,8.05-25.88c-10.91-15.44-32.82-35.6-74.81-42.2V234.6a10.73,10.73,0,0,0-10.73-10.73h-9a12.66,12.66,0,0,0-12.66,12.67v20.65s-29.21.95-58.63,28.14a57,57,0,0,0-18,40.05l-.74,22.67a66.31,66.31,0,0,0,28.85,57c11.2,7.62,26,15.11,45.35,20.3,0,0,29.19,7.67,49.92,14.46a24.79,24.79,0,0,1,17.19,21c1.14,11.95-6.35,26.7-45.36,33a49.62,49.62,0,0,1-31-4.75,51.19,51.19,0,0,1-21-20.24,16.84,16.84,0,0,0-18.44-8.1l-24.91,5.8a15.81,15.81,0,0,0-10.64,22.28c10.43,21.79,34.75,55.27,85.61,54.8V576a12.32,12.32,0,0,0,12.33,12.32h9.18a12.72,12.72,0,0,0,12.73-12.72V545.42S357.69,538.8,369.1,474c9.18-52.09-18.36-77.06-29.53-84.85a27.24,27.24,0,0,0-8-3.81c-12.77-3.68-56.93-16.65-87.09-28.25A26.69,26.69,0,0,1,227.24,332c.09-8.52,3.07-17.73,13.66-22.95a17.39,17.39,0,0,1,7.47-1.72c7.42-.1,25.05-.19,33.62.91a16.43,16.43,0,0,1,5.93,2c3.81,2.15,10.71,7,17.63,16.71A18,18,0,0,0,326.52,333.42Z" transform="translate(-17.53 -17.53)"/><rect class="cls-8" x="677.68" y="601.4" width="39.71" height="42.45"/><path class="cls-9" d="M695.22,583.3v-37S740,504.8,748.16,492.47c0,0,14.15-38.34-24.19-59.33,0,0-38.34-9.13-50.2,16,0,0-13.24,17.35-8.68,36.06l-40.62-.91s-2-47.46,35.6-71.2c32.52-20.54,59.59-17.19,72.58-15.93a37.45,37.45,0,0,1,12,3.25c10.92,5.05,34.76,18.11,44.12,39.61,12.33,28.29,8.32,58.94-5.47,73S756.12,536.24,749,543.25c0,0-14,11.3-19.85,16.77-3.39,3.2-2.91,13.7-3.08,23.28Z" transform="translate(-17.53 -17.53)"/></g></svg>