<svg xmlns="http://www.w3.org/2000/svg" xmlns:xlink="http://www.w3.org/1999/xlink" viewBox="0 0 959.57 959.57"><defs><style>.cls-1,.cls-2,.cls-3{fill:none;stroke-miterlimit:10;}.cls-1{stroke-width:16px;stroke:url(#linear-gradient);}.cls-2{stroke-width:18px;stroke:url(#linear-gradient-2);}.cls-3{stroke-width:44px;stroke:url(#linear-gradient-3);}.cls-4{fill:url(#linear-gradient-4);}.cls-5{fill:url(#linear-gradient-5);}</style><linearGradient id="linear-gradient" x1="263.92" y1="324.88" x2="629.03" y2="324.88" gradientUnits="userSpaceOnUse"><stop offset="0" stop-color="#ed2024"/><stop offset="0.12" stop-color="#f26164"/><stop offset="0.25" stop-color="#f8a4a6"/><stop offset="0.36" stop-color="#fcd5d6"/><stop offset="0.45" stop-color="#fef4f4"/><stop offset="0.49" stop-color="#fff"/><stop offset="0.56" stop-color="#fffbfb"/><stop offset="0.63" stop-color="#feefef"/><stop offset="0.69" stop-color="#fcdbdb"/><stop offset="0.76" stop-color="#fabebf"/><stop offset="0.82" stop-color="#f79a9b"/><stop offset="0.89" stop-color="#f36d6f"/><stop offset="0.96" stop-color="#ef393c"/><stop offset="0.98" stop-color="#ed2024"/></linearGradient><linearGradient id="linear-gradient-2" x1="20.34" y1="500" x2="979.66" y2="500" gradientTransform="translate(193.76 -166.89) rotate(21.14)" xlink:href="#linear-gradient"/><linearGradient id="linear-gradient-3" x1="647.69" y1="770.82" x2="400.62" y2="523.74" xlink:href="#linear-gradient"/><linearGradient id="linear-gradient-4" x1="890.89" y1="356.78" x2="795.33" y2="522.3" xlink:href="#linear-gradient"/><linearGradient id="linear-gradient-5" x1="403.41" y1="346.09" x2="516.08" y2="346.09" xlink:href="#linear-gradient"/></defs><title>stock it</title><g id="stock_it" data-name="stock it"><circle class="cls-1" cx="446.48" cy="324.88" r="174.56"/><circle class="cls-2" cx="479.78" cy="479.78" r="470.66"/><polyline class="cls-3" points="163.5 791.91 328.8 646.2 412.89 774.89 550.5 595.23 651.15 729.02 837.76 459.23"/><polygon class="cls-4" points="737.8 457.63 911.08 368.44 866.49 563.38 833.36 465.91 737.8 457.63"/><path class="cls-5" d="M449.5,444.22V420.08c-17.47-.24-35.54-4.55-46.09-10.52l7.23-16c10.85,5.74,26.51,10.28,43.38,10.28,21.39,0,35.85-9.8,35.85-23.43,0-13.15-11.75-21.27-34-28.45-30.73-9.56-49.71-20.56-49.71-41.35,0-19.85,17.78-34.91,45.49-38.49V248h18.68v23.19c18.07.48,30.42,4.3,39.16,8.37l-7.53,15.78c-6.33-2.87-18.68-8.13-38-8.13-23.19,0-31.93,11-31.93,20.56,0,12.43,11.15,18.64,37.35,27.25,31,10,46.7,22.47,46.7,43.75,0,18.88-16.57,36.58-47.6,40.64v24.86Z" transform="translate(-20.22 -20.22)"/></g></svg>