<svg xmlns="http://www.w3.org/2000/svg" xmlns:xlink="http://www.w3.org/1999/xlink" viewBox="0 0 970.26 945.02"><defs><style>.cls-1,.cls-10,.cls-11,.cls-12,.cls-13,.cls-14,.cls-15,.cls-16,.cls-17,.cls-18,.cls-19,.cls-2,.cls-20,.cls-21,.cls-22,.cls-23,.cls-24,.cls-25,.cls-26,.cls-27,.cls-28,.cls-3,.cls-4,.cls-6,.cls-7,.cls-8,.cls-9{fill:none;stroke-miterlimit:10;}.cls-1{stroke:#e6e7e8;stroke-dasharray:20 20;}.cls-1,.cls-14,.cls-20,.cls-21,.cls-22,.cls-23,.cls-24,.cls-25,.cls-26,.cls-27,.cls-3{stroke-width:4px;}.cls-2,.cls-28{stroke-width:11px;}.cls-2{stroke:url(#linear-gradient);}.cls-10,.cls-11,.cls-12,.cls-18,.cls-26,.cls-3,.cls-6,.cls-7,.cls-8,.cls-9{stroke-linecap:round;}.cls-3{stroke:url(#linear-gradient-2);}.cls-4{stroke-width:16px;stroke:url(#linear-gradient-3);}.cls-5{fill:url(#linear-gradient-4);}.cls-10,.cls-11,.cls-12,.cls-16,.cls-17,.cls-18,.cls-19,.cls-6,.cls-7,.cls-8,.cls-9{stroke-width:6px;}.cls-6{stroke:url(#linear-gradient-5);}.cls-7{stroke:url(#linear-gradient-6);}.cls-8{stroke:url(#linear-gradient-7);}.cls-9{stroke:url(#linear-gradient-8);}.cls-10{stroke:url(#linear-gradient-9);}.cls-11{stroke:url(#linear-gradient-10);}.cls-12{stroke:url(#linear-gradient-11);}.cls-13{stroke-width:34px;stroke:url(#linear-gradient-12);}.cls-14{stroke:url(#linear-gradient-13);}.cls-15{stroke-width:24px;stroke:url(#linear-gradient-14);}.cls-16{stroke:url(#linear-gradient-15);}.cls-17{stroke:url(#linear-gradient-16);}.cls-18{stroke:url(#linear-gradient-17);}.cls-19{stroke:url(#linear-gradient-18);}.cls-20{stroke:url(#linear-gradient-19);}.cls-21{stroke:url(#linear-gradient-20);}.cls-22{stroke:url(#linear-gradient-21);}.cls-23{stroke:url(#linear-gradient-22);}.cls-24{stroke:url(#linear-gradient-23);}.cls-25{stroke:url(#linear-gradient-24);}.cls-26{stroke:url(#linear-gradient-25);}.cls-27{stroke:url(#linear-gradient-26);}.cls-28{stroke:url(#linear-gradient-27);}</style><linearGradient id="linear-gradient" x1="596.22" y1="500.79" x2="640.25" y2="456.76" gradientUnits="userSpaceOnUse"><stop offset="0" stop-color="#ed2024"/><stop offset="0.12" stop-color="#f26164"/><stop offset="0.25" stop-color="#f8a4a6"/><stop offset="0.36" stop-color="#fcd5d6"/><stop offset="0.45" stop-color="#fef4f4"/><stop offset="0.49" stop-color="#fff"/><stop offset="0.56" stop-color="#fffbfb"/><stop offset="0.63" stop-color="#feefef"/><stop offset="0.69" stop-color="#fcdbdb"/><stop offset="0.76" stop-color="#fabebf"/><stop offset="0.82" stop-color="#f79a9b"/><stop offset="0.89" stop-color="#f36d6f"/><stop offset="0.96" stop-color="#ef393c"/><stop offset="0.98" stop-color="#ed2024"/></linearGradient><linearGradient id="linear-gradient-2" x1="737.73" y1="337.13" x2="741.8" y2="333.05" xlink:href="#linear-gradient"/><linearGradient id="linear-gradient-3" x1="187.33" y1="685.19" x2="693.86" y2="178.65" xlink:href="#linear-gradient"/><linearGradient id="linear-gradient-4" x1="817.24" y1="794.94" x2="860.34" y2="751.84" xlink:href="#linear-gradient"/><linearGradient id="linear-gradient-5" x1="684.06" y1="608.48" x2="689.71" y2="602.83" gradientTransform="translate(637.98 -337.27) rotate(46.63)" xlink:href="#linear-gradient"/><linearGradient id="linear-gradient-6" x1="613.91" y1="527" x2="618.92" y2="521.99" xlink:href="#linear-gradient"/><linearGradient id="linear-gradient-7" x1="705.73" y1="541.38" x2="739.5" y2="507.61" xlink:href="#linear-gradient"/><linearGradient id="linear-gradient-8" x1="717.09" y1="586.09" x2="745.01" y2="558.17" xlink:href="#linear-gradient"/><linearGradient id="linear-gradient-9" x1="713.96" y1="623.41" x2="718.88" y2="618.49" xlink:href="#linear-gradient"/><linearGradient id="linear-gradient-10" x1="604.24" y1="637.33" x2="641.09" y2="600.48" xlink:href="#linear-gradient"/><linearGradient id="linear-gradient-11" x1="599.54" y1="583.93" x2="623.14" y2="560.33" xlink:href="#linear-gradient"/><linearGradient id="linear-gradient-12" x1="556.36" y1="679.72" x2="787.99" y2="448.09" xlink:href="#linear-gradient"/><linearGradient id="linear-gradient-13" x1="714.64" y1="328.51" x2="736.94" y2="306.2" xlink:href="#linear-gradient"/><linearGradient id="linear-gradient-14" x1="146.52" y1="811.12" x2="823.74" y2="133.9" xlink:href="#linear-gradient"/><linearGradient id="linear-gradient-15" x1="650.11" y1="630.81" x2="719.11" y2="561.81" xlink:href="#linear-gradient"/><linearGradient id="linear-gradient-16" x1="666.13" y1="561" x2="702.79" y2="524.34" xlink:href="#linear-gradient"/><linearGradient id="linear-gradient-17" x1="792.05" y1="753.69" x2="821.03" y2="724.71" xlink:href="#linear-gradient"/><linearGradient id="linear-gradient-18" x1="316.43" y1="482.79" x2="630.59" y2="168.63" xlink:href="#linear-gradient"/><linearGradient id="linear-gradient-19" x1="238.74" y1="418.15" x2="264.32" y2="392.57" xlink:href="#linear-gradient"/><linearGradient id="linear-gradient-20" x1="364.11" y1="460.13" x2="409.24" y2="415" xlink:href="#linear-gradient"/><linearGradient id="linear-gradient-21" x1="304.15" y1="503.12" x2="349" y2="458.27" xlink:href="#linear-gradient"/><linearGradient id="linear-gradient-22" x1="284.02" y1="535.42" x2="305.87" y2="513.58" xlink:href="#linear-gradient"/><linearGradient id="linear-gradient-23" x1="412.27" y1="534.27" x2="431.81" y2="514.73" xlink:href="#linear-gradient"/><linearGradient id="linear-gradient-24" x1="236.15" y1="567.38" x2="263.45" y2="540.08" xlink:href="#linear-gradient"/><linearGradient id="linear-gradient-25" x1="456.93" y1="579.09" x2="470.84" y2="565.18" xlink:href="#linear-gradient"/><linearGradient id="linear-gradient-26" x1="284.02" y1="610.08" x2="305.87" y2="588.24" xlink:href="#linear-gradient"/><linearGradient id="linear-gradient-27" x1="622.58" y1="680.32" x2="666.42" y2="636.48" xlink:href="#linear-gradient"/></defs><title>bug hunt</title><g id="bughunt"><line class="cls-1" x1="192.29" y1="405.36" x2="611.34" y2="405.36"/><line class="cls-1" x1="192.29" y1="437.56" x2="611.34" y2="437.56"/><line class="cls-1" x1="192.29" y1="481.03" x2="611.34" y2="481.03"/><line class="cls-1" x1="192.29" y1="524.5" x2="611.34" y2="524.5"/><line class="cls-1" x1="192.29" y1="553.73" x2="611.34" y2="553.73"/><line class="cls-1" x1="192.29" y1="572.13" x2="611.34" y2="572.13"/><line class="cls-1" x1="192.29" y1="599.2" x2="611.34" y2="599.2"/><line class="cls-2" x1="656.77" y1="478.78" x2="579.71" y2="478.78"/><line class="cls-3" x1="734.15" y1="328.22" x2="745.38" y2="341.96"/><path class="cls-4" d="M191.65,287.93H788a9.18,9.18,0,0,1,9.18,9.18V468.24A9.18,9.18,0,0,1,783,476c-33.09-21.35-119.13-62.59-203.67,15.6a9.27,9.27,0,0,0-1.18,1.32C571.86,501.53,513,585.46,557,662a9.17,9.17,0,0,1-8,13.68H193a9.17,9.17,0,0,1-9.18-9.15l-1.3-369.4A9.17,9.17,0,0,1,191.65,287.93Z" transform="translate(-14.87 -27.49)"/><path class="cls-5" d="M798.33,775.48s31.07-22.6,43-38.25l35.58,31.15-40.45,45.75Z" transform="translate(-14.87 -27.49)"/><line class="cls-6" x1="669.43" y1="539.92" x2="669.25" y2="615.99"/><line class="cls-7" x1="601.37" y1="510.22" x2="631.47" y2="538.78"/><line class="cls-8" x1="737.86" y1="510.22" x2="707.38" y2="538.78"/><line class="cls-9" x1="754.73" y1="572.13" x2="707.38" y2="572.13"/><line class="cls-10" x1="732.87" y1="638.08" x2="699.97" y2="603.82"/><line class="cls-11" x1="606.16" y1="635.01" x2="639.17" y2="602.8"/><line class="cls-12" x1="591.98" y1="572.13" x2="630.7" y2="572.13"/><ellipse class="cls-13" cx="672.18" cy="563.9" rx="148.76" ry="144.79"/><ellipse class="cls-14" cx="725.79" cy="317.35" rx="13.96" ry="13.59"/><ellipse class="cls-15" cx="485.13" cy="472.51" rx="473.13" ry="460.51"/><path class="cls-16" d="M651.32,566.27h65.94a5,5,0,0,1,5,5V610.8a31.39,31.39,0,0,1-8.84,22.1,38.87,38.87,0,0,1-3.09,2.8A40.35,40.35,0,0,1,656.57,633a43.36,43.36,0,0,1-6.76-8.64,25.5,25.5,0,0,1-3.47-13v-40.1A5,5,0,0,1,651.32,566.27Z" transform="translate(-14.87 -27.49)"/><path class="cls-17" d="M657.31,545.78h55.35a36.62,36.62,0,0,0-14.47-21.06,24.59,24.59,0,0,0-29.15.11C663.65,528.91,658.59,535.44,657.31,545.78Z" transform="translate(-14.87 -27.49)"/><path class="cls-18" d="M810.77,718.69l17.48,19a4.17,4.17,0,0,1-.31,6l-19.23,17a4.17,4.17,0,0,1-5.92-.41l-17.35-20.26a4.17,4.17,0,0,1,.88-6.2,129.37,129.37,0,0,0,18.47-15.17A4.17,4.17,0,0,1,810.77,718.69Z" transform="translate(-14.87 -27.49)"/><rect class="cls-19" x="192.29" y="292.07" width="562.43" height="67.28" rx="8.43"/><line class="cls-20" x1="227.95" y1="405.36" x2="275.1" y2="405.36"/><line class="cls-21" x1="343.54" y1="437.56" x2="429.8" y2="437.56"/><line class="cls-22" x1="283.73" y1="480.69" x2="369.42" y2="480.69"/><line class="cls-23" x1="275.1" y1="524.5" x2="314.79" y2="524.5"/><line class="cls-24" x1="404.5" y1="524.5" x2="439.58" y2="524.5"/><line class="cls-25" x1="224.5" y1="553.73" x2="275.1" y2="553.73"/><line class="cls-26" x1="452.81" y1="572.13" x2="474.96" y2="572.13"/><line class="cls-27" x1="275.1" y1="599.16" x2="314.79" y2="599.16"/><line class="cls-28" x1="606.16" y1="658.4" x2="682.84" y2="658.4"/></g></svg>