<svg xmlns="http://www.w3.org/2000/svg" xmlns:xlink="http://www.w3.org/1999/xlink" viewBox="0 0 929.96 929.96"><defs><style>.cls-1,.cls-2,.cls-3,.cls-4,.cls-5,.cls-6,.cls-7,.cls-8{fill:none;stroke-miterlimit:10;}.cls-1{stroke-width:20px;stroke:url(#linear-gradient);}.cls-2{stroke-width:15px;stroke:url(#linear-gradient-2);}.cls-3{stroke-linecap:round;stroke-width:18px;stroke:url(#linear-gradient-3);}.cls-4,.cls-5,.cls-6,.cls-7,.cls-8{stroke-width:8px;}.cls-4{stroke:url(#linear-gradient-4);}.cls-5{stroke:url(#linear-gradient-5);}.cls-6{stroke:url(#linear-gradient-6);}.cls-7{stroke:url(#linear-gradient-7);}.cls-8{stroke:url(#linear-gradient-8);}.cls-9{font-size:52.51px;fill:#ed1c24;font-family:MyriadPro-Regular, Myriad Pro;}.cls-10{fill:url(#linear-gradient-9);}.cls-11{fill:url(#linear-gradient-10);}.cls-12{fill:url(#linear-gradient-11);}.cls-13{fill:url(#linear-gradient-12);}.cls-14{fill:url(#linear-gradient-13);}.cls-15{fill:url(#linear-gradient-14);}.cls-16{fill:url(#linear-gradient-15);}.cls-17{fill:url(#linear-gradient-16);}.cls-18{fill:url(#linear-gradient-17);}.cls-19{fill:url(#linear-gradient-18);}.cls-20{fill:url(#linear-gradient-19);}.cls-21{fill:url(#linear-gradient-20);}.cls-22{fill:url(#linear-gradient-21);}.cls-23{fill:url(#linear-gradient-22);}.cls-24{fill:url(#linear-gradient-23);}.cls-25{fill:url(#linear-gradient-24);}.cls-26{fill:url(#linear-gradient-25);}.cls-27{fill:url(#linear-gradient-26);}.cls-28{fill:url(#linear-gradient-27);}.cls-29{fill:url(#linear-gradient-28);}.cls-30{fill:url(#linear-gradient-29);}.cls-31{fill:url(#linear-gradient-30);}.cls-32{fill:url(#linear-gradient-31);}.cls-33{fill:url(#linear-gradient-32);}.cls-34{fill:url(#linear-gradient-33);}.cls-35{fill:url(#linear-gradient-34);}.cls-36{fill:url(#linear-gradient-35);}.cls-37{fill:url(#linear-gradient-36);}.cls-38{fill:url(#linear-gradient-37);}.cls-39{fill:url(#linear-gradient-38);}.cls-40{fill:url(#linear-gradient-39);}.cls-41{fill:url(#linear-gradient-40);}.cls-42{fill:url(#linear-gradient-41);}.cls-43{fill:url(#linear-gradient-42);}.cls-44{fill:url(#linear-gradient-43);}.cls-45{fill:url(#linear-gradient-44);}.cls-46{fill:url(#linear-gradient-45);}.cls-47{fill:url(#linear-gradient-46);}.cls-48{fill:url(#linear-gradient-47);}.cls-49{fill:url(#linear-gradient-48);}.cls-50{fill:url(#linear-gradient-49);}.cls-51{fill:url(#linear-gradient-50);}.cls-52{fill:url(#linear-gradient-51);}.cls-53{fill:url(#linear-gradient-52);}.cls-54{fill:url(#linear-gradient-53);}.cls-55{fill:url(#linear-gradient-54);}</style><linearGradient id="linear-gradient" x1="232.45" y1="867.73" x2="697.51" y2="62.23" gradientUnits="userSpaceOnUse"><stop offset="0" stop-color="#ed2024"/><stop offset="0.12" stop-color="#f26164"/><stop offset="0.25" stop-color="#f8a4a6"/><stop offset="0.36" stop-color="#fcd5d6"/><stop offset="0.45" stop-color="#fef4f4"/><stop offset="0.49" stop-color="#fff"/><stop offset="0.56" stop-color="#fffbfb"/><stop offset="0.63" stop-color="#feefef"/><stop offset="0.69" stop-color="#fcdbdb"/><stop offset="0.76" stop-color="#fabebf"/><stop offset="0.82" stop-color="#f79a9b"/><stop offset="0.89" stop-color="#f36d6f"/><stop offset="0.96" stop-color="#ef393c"/><stop offset="0.98" stop-color="#ed2024"/></linearGradient><linearGradient id="linear-gradient-2" x1="319.35" y1="695.41" x2="610.61" y2="190.93" xlink:href="#linear-gradient"/><linearGradient id="linear-gradient-3" x1="427.95" y1="736.16" x2="503.33" y2="605.59" xlink:href="#linear-gradient"/><linearGradient id="linear-gradient-4" x1="446.1" y1="439.02" x2="543.9" y2="269.62" xlink:href="#linear-gradient"/><linearGradient id="linear-gradient-5" x1="446.1" y1="496.21" x2="543.9" y2="326.81" xlink:href="#linear-gradient"/><linearGradient id="linear-gradient-6" x1="446.1" y1="549.68" x2="543.9" y2="380.28" xlink:href="#linear-gradient"/><linearGradient id="linear-gradient-7" x1="446.1" y1="603.15" x2="543.9" y2="433.75" xlink:href="#linear-gradient"/><linearGradient id="linear-gradient-8" x1="446.1" y1="656.62" x2="543.9" y2="487.21" xlink:href="#linear-gradient"/><linearGradient id="linear-gradient-9" x1="357.32" y1="374.29" x2="347.88" y2="357.93" xlink:href="#linear-gradient"/><linearGradient id="linear-gradient-10" x1="367.91" y1="373.49" x2="358.98" y2="358.02" xlink:href="#linear-gradient"/><linearGradient id="linear-gradient-11" x1="378.65" y1="376.35" x2="369.93" y2="361.24" xlink:href="#linear-gradient"/><linearGradient id="linear-gradient-12" x1="393.16" y1="374.71" x2="386.1" y2="362.49" xlink:href="#linear-gradient"/><linearGradient id="linear-gradient-13" x1="402.98" y1="373.42" x2="393.79" y2="357.5" xlink:href="#linear-gradient"/><linearGradient id="linear-gradient-14" x1="414.65" y1="375.71" x2="405.92" y2="360.6" xlink:href="#linear-gradient"/><linearGradient id="linear-gradient-15" x1="431.5" y1="375.01" x2="422.31" y2="359.1" xlink:href="#linear-gradient"/><linearGradient id="linear-gradient-16" x1="444.53" y1="375.36" x2="437.01" y2="362.33" xlink:href="#linear-gradient"/><linearGradient id="linear-gradient-17" x1="467.11" y1="374.18" x2="460.53" y2="362.79" xlink:href="#linear-gradient"/><linearGradient id="linear-gradient-18" x1="478.03" y1="374.58" x2="471.1" y2="362.58" xlink:href="#linear-gradient"/><linearGradient id="linear-gradient-19" x1="490.07" y1="374.52" x2="481.3" y2="359.32" xlink:href="#linear-gradient"/><linearGradient id="linear-gradient-20" x1="503.89" y1="375.01" x2="494.7" y2="359.1" xlink:href="#linear-gradient"/><linearGradient id="linear-gradient-21" x1="513.62" y1="373.49" x2="504.69" y2="358.02" xlink:href="#linear-gradient"/><linearGradient id="linear-gradient-22" x1="524.17" y1="374.75" x2="516.92" y2="362.2" xlink:href="#linear-gradient"/><linearGradient id="linear-gradient-23" x1="533.44" y1="375.33" x2="531.07" y2="371.23" xlink:href="#linear-gradient"/><linearGradient id="linear-gradient-24" x1="547.77" y1="376.35" x2="536.45" y2="356.73" xlink:href="#linear-gradient"/><linearGradient id="linear-gradient-25" x1="560.09" y1="371.41" x2="553.51" y2="360.02" xlink:href="#linear-gradient"/><linearGradient id="linear-gradient-26" x1="353.6" y1="428.24" x2="343.59" y2="410.92" xlink:href="#linear-gradient"/><linearGradient id="linear-gradient-27" x1="365.62" y1="431.44" x2="355.85" y2="414.52" xlink:href="#linear-gradient"/><linearGradient id="linear-gradient-28" x1="380.83" y1="429.4" x2="371" y2="412.37" xlink:href="#linear-gradient"/><linearGradient id="linear-gradient-29" x1="407.12" y1="433.38" x2="395.1" y2="412.56" xlink:href="#linear-gradient"/><linearGradient id="linear-gradient-30" x1="427.33" y1="431.02" x2="418.35" y2="415.47" xlink:href="#linear-gradient"/><linearGradient id="linear-gradient-31" x1="440.04" y1="428.24" x2="430.04" y2="410.92" xlink:href="#linear-gradient"/><linearGradient id="linear-gradient-32" x1="452.07" y1="431.44" x2="442.3" y2="414.52" xlink:href="#linear-gradient"/><linearGradient id="linear-gradient-33" x1="469.76" y1="432.84" x2="456.92" y2="410.6" xlink:href="#linear-gradient"/><linearGradient id="linear-gradient-34" x1="476.41" y1="432.82" x2="463.59" y2="410.63" xlink:href="#linear-gradient"/><linearGradient id="linear-gradient-35" x1="364.93" y1="490.49" x2="348.87" y2="462.67" xlink:href="#linear-gradient"/><linearGradient id="linear-gradient-36" x1="364.93" y1="596.49" x2="348.87" y2="568.67" gradientTransform="matrix(-1, 0, 0, 1, 708.35, 0)" xlink:href="#linear-gradient"/><linearGradient id="linear-gradient-37" x1="395.9" y1="539.96" x2="387.63" y2="525.63" xlink:href="#linear-gradient"/><linearGradient id="linear-gradient-38" x1="408.64" y1="536.34" x2="402.43" y2="525.58" xlink:href="#linear-gradient"/><linearGradient id="linear-gradient-39" x1="417.89" y1="536.63" x2="409.47" y2="522.05" xlink:href="#linear-gradient"/><linearGradient id="linear-gradient-40" x1="428.01" y1="539.32" x2="419.79" y2="525.08" xlink:href="#linear-gradient"/><linearGradient id="linear-gradient-41" x1="446.8" y1="537.57" x2="437.04" y2="520.68" xlink:href="#linear-gradient"/><linearGradient id="linear-gradient-42" x1="466.2" y1="540.5" x2="455.4" y2="521.79" xlink:href="#linear-gradient"/><linearGradient id="linear-gradient-43" x1="471.1" y1="527.17" x2="466.64" y2="519.45" xlink:href="#linear-gradient"/><linearGradient id="linear-gradient-44" x1="487.51" y1="538.19" x2="477.72" y2="521.24" xlink:href="#linear-gradient"/><linearGradient id="linear-gradient-45" x1="501.08" y1="537.42" x2="491.58" y2="520.96" xlink:href="#linear-gradient"/><linearGradient id="linear-gradient-46" x1="520.57" y1="538.08" x2="511.24" y2="521.92" xlink:href="#linear-gradient"/><linearGradient id="linear-gradient-47" x1="535.65" y1="538.19" x2="525.86" y2="521.24" xlink:href="#linear-gradient"/><linearGradient id="linear-gradient-48" x1="554.6" y1="538.92" x2="544.95" y2="522.21" xlink:href="#linear-gradient"/><linearGradient id="linear-gradient-49" x1="568.44" y1="537.14" x2="559.81" y2="522.19" xlink:href="#linear-gradient"/><linearGradient id="linear-gradient-50" x1="582.18" y1="538.96" x2="573.19" y2="523.39" xlink:href="#linear-gradient"/><linearGradient id="linear-gradient-51" x1="595.47" y1="536.95" x2="587.04" y2="522.35" xlink:href="#linear-gradient"/><linearGradient id="linear-gradient-52" x1="606.35" y1="527.17" x2="601.9" y2="519.45" xlink:href="#linear-gradient"/><linearGradient id="linear-gradient-53" x1="618.98" y1="540.49" x2="608.2" y2="521.81" xlink:href="#linear-gradient"/><linearGradient id="linear-gradient-54" x1="625.85" y1="539.9" x2="618.88" y2="527.82" xlink:href="#linear-gradient"/></defs><title>code out</title><g id="webd"><circle class="cls-1" cx="464.98" cy="464.98" r="454.98"/><rect class="cls-2" x="199.81" y="249.13" width="530.34" height="388.09" rx="46.11"/><line class="cls-3" x1="332.87" y1="670.87" x2="598.4" y2="670.87"/><line class="cls-4" x1="306.32" y1="354.32" x2="683.68" y2="354.32"/><line class="cls-5" x1="306.32" y1="411.51" x2="683.68" y2="411.51"/><line class="cls-6" x1="306.32" y1="464.98" x2="683.68" y2="464.98"/><line class="cls-7" x1="306.32" y1="518.45" x2="683.68" y2="518.45"/><line class="cls-8" x1="306.32" y1="571.91" x2="683.68" y2="571.91"/><text class="cls-9" transform="translate(248.36 348.87)">01</text><text class="cls-9" transform="translate(248.36 401.33)">02</text><text class="cls-9" transform="translate(248.36 456.99)">03</text><text class="cls-9" transform="translate(248.36 510.35)">04</text><text class="cls-9" transform="translate(248.36 563.59)">05</text><path class="cls-10" d="M359.45,362.7a3.22,3.22,0,0,1,0,.58,2,2,0,0,1-.11.38.51.51,0,0,1-.18.2.44.44,0,0,1-.22.07h-1.62L356.8,368h1.39a.44.44,0,0,1,.39.27,2.12,2.12,0,0,1,.15.93,4.83,4.83,0,0,1,0,.59,1.42,1.42,0,0,1-.12.38.51.51,0,0,1-.17.21.49.49,0,0,1-.23.06h-1.69l-.52,4.45a.53.53,0,0,1-.08.22.54.54,0,0,1-.23.16,1.43,1.43,0,0,1-.44.1,6.67,6.67,0,0,1-.7,0,6.91,6.91,0,0,1-.73,0,1.17,1.17,0,0,1-.42-.1.39.39,0,0,1-.19-.16.33.33,0,0,1,0-.22l.54-4.45h-3.18l-.53,4.45a.46.46,0,0,1-.08.21.44.44,0,0,1-.22.17,1.36,1.36,0,0,1-.43.1,7.18,7.18,0,0,1-.73,0,6.62,6.62,0,0,1-.71,0,1.29,1.29,0,0,1-.42-.1.43.43,0,0,1-.2-.16.32.32,0,0,1,0-.22l.51-4.45h-1.35a.44.44,0,0,1-.39-.27,2.08,2.08,0,0,1-.15-.94,3.22,3.22,0,0,1,0-.58,1.31,1.31,0,0,1,.12-.38.41.41,0,0,1,.17-.21.4.4,0,0,1,.22-.06H348l.49-4.05H347a.44.44,0,0,1-.39-.27,2.11,2.11,0,0,1-.15-.94,2,2,0,0,1,.16-1,.44.44,0,0,1,.39-.27h1.71l.51-4.15a.32.32,0,0,1,.07-.22.57.57,0,0,1,.24-.17,2.13,2.13,0,0,1,.46-.1,4.84,4.84,0,0,1,.72,0,4.53,4.53,0,0,1,.71,0,1.62,1.62,0,0,1,.42.1.31.31,0,0,1,.17.17.45.45,0,0,1,0,.2l-.53,4.17h3.19l.48-4.15a.58.58,0,0,1,.08-.22.67.67,0,0,1,.24-.17,1.9,1.9,0,0,1,.45-.1,5,5,0,0,1,.74,0,4.61,4.61,0,0,1,.71,0,1.53,1.53,0,0,1,.41.1.37.37,0,0,1,.18.17.44.44,0,0,1,0,.2l-.5,4.17h1.36a.44.44,0,0,1,.39.27A2.12,2.12,0,0,1,359.45,362.7Zm-8.18,1.23-.48,4.05H354l.5-4.05Z" transform="translate(-35.02 -35.02)"/><path class="cls-11" d="M365.51,357.84a2.05,2.05,0,0,1-.44,1.5,2.48,2.48,0,0,1-1.64.41,2.42,2.42,0,0,1-1.63-.4,2,2,0,0,1-.41-1.44,2,2,0,0,1,.43-1.49,3.45,3.45,0,0,1,3.26,0A2,2,0,0,1,365.51,357.84Zm-.27,17a.38.38,0,0,1-.09.25.66.66,0,0,1-.29.18,2.88,2.88,0,0,1-.55.1,6.78,6.78,0,0,1-.86,0,7.06,7.06,0,0,1-.87,0,2.88,2.88,0,0,1-.55-.1.66.66,0,0,1-.29-.18.38.38,0,0,1-.08-.25V362.16a.39.39,0,0,1,.08-.25.66.66,0,0,1,.29-.18,2.7,2.7,0,0,1,.55-.12,7.06,7.06,0,0,1,.87,0,6.78,6.78,0,0,1,.86,0,2.7,2.7,0,0,1,.55.12.66.66,0,0,1,.29.18.4.4,0,0,1,.09.25Z" transform="translate(-35.02 -35.02)"/><path class="cls-12" d="M380.91,374.81a.44.44,0,0,1-.08.25.72.72,0,0,1-.29.18,2.6,2.6,0,0,1-.55.1,6.88,6.88,0,0,1-.86,0,7.06,7.06,0,0,1-.87,0,2.88,2.88,0,0,1-.55-.1.68.68,0,0,1-.28-.18.38.38,0,0,1-.09-.25v-7.23a6.12,6.12,0,0,0-.13-1.45,2.85,2.85,0,0,0-.39-.9,1.7,1.7,0,0,0-.66-.59,2.18,2.18,0,0,0-1-.2,2.4,2.4,0,0,0-1.38.49,8.23,8.23,0,0,0-1.45,1.45v8.43a.38.38,0,0,1-.08.25.72.72,0,0,1-.29.18,2.88,2.88,0,0,1-.55.1,7.06,7.06,0,0,1-.87,0,6.78,6.78,0,0,1-.86,0,2.88,2.88,0,0,1-.55-.1.66.66,0,0,1-.29-.18.38.38,0,0,1-.09-.25V362.14a.49.49,0,0,1,.07-.25.52.52,0,0,1,.26-.18,2.14,2.14,0,0,1,.48-.11,7.18,7.18,0,0,1,.73,0q.45,0,.75,0a1.82,1.82,0,0,1,.46.11.51.51,0,0,1,.24.18.49.49,0,0,1,.07.25v1.46a8,8,0,0,1,2.14-1.71,4.8,4.8,0,0,1,2.26-.57,5,5,0,0,1,2.18.43,3.78,3.78,0,0,1,1.44,1.16,4.8,4.8,0,0,1,.79,1.71,10.09,10.09,0,0,1,.24,2.36Z" transform="translate(-35.02 -35.02)"/><path class="cls-13" d="M394,372.79a5.54,5.54,0,0,1,0,.62,2.11,2.11,0,0,1-.06.42,1.36,1.36,0,0,1-.08.28,1.07,1.07,0,0,1-.22.27,2.83,2.83,0,0,1-.58.39,5.44,5.44,0,0,1-.94.42,6.22,6.22,0,0,1-1.15.3,6.59,6.59,0,0,1-1.27.12,7,7,0,0,1-2.59-.46,4.87,4.87,0,0,1-1.9-1.34,5.94,5.94,0,0,1-1.16-2.17,11.37,11.37,0,0,1,.09-6.22,6.35,6.35,0,0,1,1.33-2.29,5.21,5.21,0,0,1,2-1.35,7.18,7.18,0,0,1,2.55-.44,6,6,0,0,1,1.12.1,6.34,6.34,0,0,1,1,.27,5.17,5.17,0,0,1,.85.38,2.69,2.69,0,0,1,.54.37,1.9,1.9,0,0,1,.22.26,1.51,1.51,0,0,1,.1.28,4.05,4.05,0,0,1,.05.42,5.21,5.21,0,0,1,0,.6,3.12,3.12,0,0,1-.15,1.16c-.09.23-.21.34-.37.34a.89.89,0,0,1-.51-.2c-.18-.13-.39-.28-.64-.44a4.51,4.51,0,0,0-.88-.44,3.22,3.22,0,0,0-1.22-.2,2.43,2.43,0,0,0-2.13,1.07,5.6,5.6,0,0,0-.74,3.15,8.06,8.06,0,0,0,.18,1.8,4,4,0,0,0,.55,1.31,2.38,2.38,0,0,0,.91.79,3,3,0,0,0,1.27.26,3.24,3.24,0,0,0,1.27-.22,5,5,0,0,0,.93-.49,7.9,7.9,0,0,0,.67-.49.76.76,0,0,1,.46-.22.31.31,0,0,1,.21.07.57.57,0,0,1,.14.26,4.41,4.41,0,0,1,.07.49C394,372.22,394,372.48,394,372.79Z" transform="translate(-35.02 -35.02)"/><path class="cls-14" d="M400.18,374.81a.38.38,0,0,1-.09.25.6.6,0,0,1-.29.18,2.76,2.76,0,0,1-.54.1,9.48,9.48,0,0,1-1.74,0,2.88,2.88,0,0,1-.55-.1.72.72,0,0,1-.29-.18.44.44,0,0,1-.08-.25V356.12a.44.44,0,0,1,.08-.25.64.64,0,0,1,.29-.19,1.8,1.8,0,0,1,.55-.12,7.59,7.59,0,0,1,1.74,0,1.73,1.73,0,0,1,.54.12.54.54,0,0,1,.29.19.38.38,0,0,1,.09.25Z" transform="translate(-35.02 -35.02)"/><path class="cls-15" d="M415.77,374.81a.52.52,0,0,1-.07.25.56.56,0,0,1-.25.18,2.24,2.24,0,0,1-.47.1,5.07,5.07,0,0,1-.73,0,5.17,5.17,0,0,1-.76,0,2.1,2.1,0,0,1-.47-.1.58.58,0,0,1-.24-.18.52.52,0,0,1-.07-.25v-1.46a8.11,8.11,0,0,1-2.14,1.7,4.76,4.76,0,0,1-2.25.57,4.94,4.94,0,0,1-2.19-.43,3.76,3.76,0,0,1-1.44-1.16,4.78,4.78,0,0,1-.78-1.71,10.43,10.43,0,0,1-.23-2.43v-7.75a.41.41,0,0,1,.07-.25.58.58,0,0,1,.29-.18,2.64,2.64,0,0,1,.55-.11c.23,0,.52,0,.86,0s.64,0,.87,0a2.52,2.52,0,0,1,.54.11.61.61,0,0,1,.3.18.41.41,0,0,1,.08.25v7.16a6.56,6.56,0,0,0,.13,1.52,2.46,2.46,0,0,0,.39.9,1.87,1.87,0,0,0,.67.58,2,2,0,0,0,.94.21,2.34,2.34,0,0,0,1.37-.5,8.25,8.25,0,0,0,1.48-1.45v-8.42a.41.41,0,0,1,.07-.25.58.58,0,0,1,.29-.18,2.67,2.67,0,0,1,.54-.11q.35,0,.87,0t.87,0a2.52,2.52,0,0,1,.54.11.55.55,0,0,1,.28.18.37.37,0,0,1,.09.25Z" transform="translate(-35.02 -35.02)"/><path class="cls-16" d="M431.38,374.81a.44.44,0,0,1-.07.26.52.52,0,0,1-.24.18,1.58,1.58,0,0,1-.46.1,7.1,7.1,0,0,1-.72,0,7.39,7.39,0,0,1-.74,0,1.66,1.66,0,0,1-.46-.1.56.56,0,0,1-.25-.18.38.38,0,0,1-.08-.26V373.4A8.3,8.3,0,0,1,426.3,375a4.85,4.85,0,0,1-2.38.58,5,5,0,0,1-2.45-.56,4.72,4.72,0,0,1-1.63-1.51,6.67,6.67,0,0,1-.92-2.23,12.24,12.24,0,0,1-.28-2.68,11.85,11.85,0,0,1,.36-3,6.69,6.69,0,0,1,1.06-2.3,4.69,4.69,0,0,1,1.73-1.46,5.35,5.35,0,0,1,2.39-.52,4.25,4.25,0,0,1,1.93.44,6.85,6.85,0,0,1,1.72,1.27v-6.86a.47.47,0,0,1,.08-.26.55.55,0,0,1,.28-.19,2.7,2.7,0,0,1,.55-.12,7.06,7.06,0,0,1,.87,0,6.78,6.78,0,0,1,.86,0,2.44,2.44,0,0,1,.54.12.59.59,0,0,1,.29.19.4.4,0,0,1,.08.26Zm-3.55-8.47a7.9,7.9,0,0,0-1.47-1.48,2.47,2.47,0,0,0-1.47-.51,2.09,2.09,0,0,0-1.2.35,2.45,2.45,0,0,0-.81.93,5.12,5.12,0,0,0-.46,1.3,8,8,0,0,0-.14,1.47,9.83,9.83,0,0,0,.12,1.55,5.14,5.14,0,0,0,.42,1.34,2.53,2.53,0,0,0,.78.95,2,2,0,0,0,1.22.35,2.5,2.5,0,0,0,.72-.1,2.75,2.75,0,0,0,.71-.35,4.52,4.52,0,0,0,.74-.63,11,11,0,0,0,.84-1Z" transform="translate(-35.02 -35.02)"/><path class="cls-17" d="M446.69,368.1a1.41,1.41,0,0,1-.29,1,1,1,0,0,1-.81.31h-7.71a5.18,5.18,0,0,0,.19,1.47,2.76,2.76,0,0,0,.61,1.12,2.65,2.65,0,0,0,1.08.71,4.67,4.67,0,0,0,1.59.24,8.86,8.86,0,0,0,1.64-.13,10.11,10.11,0,0,0,1.23-.3c.35-.11.64-.21.86-.3a1.62,1.62,0,0,1,.56-.14.46.46,0,0,1,.21.05.44.44,0,0,1,.14.18,1.07,1.07,0,0,1,.08.36c0,.16,0,.36,0,.59s0,.39,0,.54a3,3,0,0,1-.05.37.61.61,0,0,1-.08.26.8.8,0,0,1-.15.21,1.56,1.56,0,0,1-.5.27,8.94,8.94,0,0,1-1.06.34c-.42.1-.91.2-1.46.28a12.27,12.27,0,0,1-1.76.12,9.1,9.1,0,0,1-3-.43,5.22,5.22,0,0,1-2.13-1.29,5.39,5.39,0,0,1-1.27-2.19,10.24,10.24,0,0,1-.42-3.1,9.92,9.92,0,0,1,.44-3,6.31,6.31,0,0,1,1.28-2.31,5.49,5.49,0,0,1,2-1.44,7,7,0,0,1,2.71-.5,7.16,7.16,0,0,1,2.72.47,5,5,0,0,1,1.85,1.3,5.37,5.37,0,0,1,1.07,2,8.83,8.83,0,0,1,.34,2.47Zm-3.47-1a3.7,3.7,0,0,0-.6-2.37,2.35,2.35,0,0,0-2-.86,2.64,2.64,0,0,0-1.19.26,2.42,2.42,0,0,0-.83.69,3.07,3.07,0,0,0-.52,1,5.62,5.62,0,0,0-.2,1.26Z" transform="translate(-35.02 -35.02)"/><path class="cls-18" d="M467.42,372.82a5.83,5.83,0,0,1,0,.82,1,1,0,0,1-.14.43.21.21,0,0,1-.22.11.86.86,0,0,1-.35-.11l-10.9-5.43a.7.7,0,0,1-.29-.47,4.78,4.78,0,0,1-.1-1.09,6.18,6.18,0,0,1,0-.65c0-.18,0-.33.07-.45a1,1,0,0,1,.12-.29.86.86,0,0,1,.18-.16l10.89-5.4c.27-.13.47-.11.58.08a2.49,2.49,0,0,1,.17,1.13c0,.39,0,.7,0,.92a2.84,2.84,0,0,1-.08.54.57.57,0,0,1-.16.29,1.42,1.42,0,0,1-.27.17l-8.18,3.83,8,3.73a1.62,1.62,0,0,1,.35.2.52.52,0,0,1,.2.3,2.26,2.26,0,0,1,.1.56C467.41,372.11,467.42,372.42,467.42,372.82Z" transform="translate(-35.02 -35.02)"/><path class="cls-19" d="M479.63,371.23a4.25,4.25,0,0,1-.41,1.9,3.81,3.81,0,0,1-1.14,1.38,5.07,5.07,0,0,1-1.75.83,8,8,0,0,1-2.19.28,8.39,8.39,0,0,1-1.35-.11,7.66,7.66,0,0,1-1.16-.27,7.13,7.13,0,0,1-.86-.33,2,2,0,0,1-.49-.32.91.91,0,0,1-.24-.47,3.7,3.7,0,0,1-.09-.94,5.62,5.62,0,0,1,0-.66,2.33,2.33,0,0,1,.08-.4.36.36,0,0,1,.15-.2.41.41,0,0,1,.21-.05,1,1,0,0,1,.46.18c.2.11.46.25.76.39a9.55,9.55,0,0,0,1.06.4,4.79,4.79,0,0,0,1.37.18,3.22,3.22,0,0,0,.86-.1,2.28,2.28,0,0,0,.65-.28,1.18,1.18,0,0,0,.42-.47,1.4,1.4,0,0,0,.15-.66,1.08,1.08,0,0,0-.27-.73,2.25,2.25,0,0,0-.69-.53,10.23,10.23,0,0,0-1-.43c-.37-.13-.74-.28-1.13-.44a10.54,10.54,0,0,1-1.12-.55,4.56,4.56,0,0,1-1-.77,3.58,3.58,0,0,1-.7-1.09,4.17,4.17,0,0,1-.26-1.54,3.88,3.88,0,0,1,.36-1.67,3.56,3.56,0,0,1,1-1.3,4.83,4.83,0,0,1,1.63-.84,7.16,7.16,0,0,1,2.15-.3,7.36,7.36,0,0,1,1.16.09c.37.06.71.13,1,.21a5.11,5.11,0,0,1,.77.28,2.57,2.57,0,0,1,.45.26.72.72,0,0,1,.19.21.88.88,0,0,1,.09.26c0,.09,0,.22,0,.36s0,.33,0,.55,0,.47,0,.63a1.46,1.46,0,0,1-.08.38.28.28,0,0,1-.13.19.33.33,0,0,1-.2.05,1,1,0,0,1-.4-.15c-.18-.1-.4-.2-.67-.32a9.3,9.3,0,0,0-.94-.32,4.53,4.53,0,0,0-1.22-.15,3.31,3.31,0,0,0-.83.1,1.55,1.55,0,0,0-.59.29,1.27,1.27,0,0,0-.34.43,1.4,1.4,0,0,0-.11.53,1.05,1.05,0,0,0,.27.74,2.49,2.49,0,0,0,.71.53,9.67,9.67,0,0,0,1,.43c.38.13.75.27,1.14.43a10.68,10.68,0,0,1,1.13.55,4.18,4.18,0,0,1,1,.76,3.73,3.73,0,0,1,.71,1.09A3.79,3.79,0,0,1,479.63,371.23Z" transform="translate(-35.02 -35.02)"/><path class="cls-20" d="M489.49,373.56a4.56,4.56,0,0,1-.08,1,1,1,0,0,1-.21.47,1.08,1.08,0,0,1-.37.24,3.46,3.46,0,0,1-.59.18,3.86,3.86,0,0,1-.72.12,6.84,6.84,0,0,1-.79.05,5.73,5.73,0,0,1-1.85-.27,3.1,3.1,0,0,1-1.29-.83,3.51,3.51,0,0,1-.75-1.42,7.51,7.51,0,0,1-.24-2v-6.49h-1.52a.47.47,0,0,1-.42-.33,3.3,3.3,0,0,1-.14-1.12,4.72,4.72,0,0,1,0-.7,1.92,1.92,0,0,1,.1-.44.58.58,0,0,1,.18-.24.52.52,0,0,1,.25-.07h1.51v-2.83a.43.43,0,0,1,.07-.25.59.59,0,0,1,.29-.19,2.16,2.16,0,0,1,.55-.12c.24,0,.52,0,.86,0s.64,0,.88,0a2,2,0,0,1,.54.12.59.59,0,0,1,.29.19.38.38,0,0,1,.08.25v2.83h2.76a.52.52,0,0,1,.25.07.58.58,0,0,1,.18.24,1.92,1.92,0,0,1,.1.44,4.72,4.72,0,0,1,0,.7,3.3,3.3,0,0,1-.14,1.12.47.47,0,0,1-.42.33h-2.77v5.95a2.94,2.94,0,0,0,.33,1.56,1.27,1.27,0,0,0,1.17.52,2.59,2.59,0,0,0,.51-.05,3.26,3.26,0,0,0,.4-.11l.3-.12a.63.63,0,0,1,.22-.05.3.3,0,0,1,.16.05.29.29,0,0,1,.12.2,2.47,2.47,0,0,1,.08.41A3.87,3.87,0,0,1,489.49,373.56Z" transform="translate(-35.02 -35.02)"/><path class="cls-21" d="M503.77,374.81a.44.44,0,0,1-.07.26.58.58,0,0,1-.24.18,1.66,1.66,0,0,1-.47.1,7,7,0,0,1-.71,0,7.26,7.26,0,0,1-.74,0,1.66,1.66,0,0,1-.46-.1.6.6,0,0,1-.26-.18.45.45,0,0,1-.08-.26V373.4a8.26,8.26,0,0,1-2.05,1.64,4.9,4.9,0,0,1-2.38.58,5,5,0,0,1-2.45-.56,4.76,4.76,0,0,1-1.64-1.51,6.66,6.66,0,0,1-.91-2.23,12.23,12.23,0,0,1-.29-2.68,11.41,11.41,0,0,1,.37-3,6.87,6.87,0,0,1,1.05-2.3,4.8,4.8,0,0,1,1.74-1.46,5.31,5.31,0,0,1,2.38-.52,4.26,4.26,0,0,1,1.94.44,6.85,6.85,0,0,1,1.72,1.27v-6.86a.46.46,0,0,1,.07-.26.59.59,0,0,1,.29-.19,2.7,2.7,0,0,1,.55-.12,6.78,6.78,0,0,1,.86,0,7.06,7.06,0,0,1,.87,0,2.44,2.44,0,0,1,.54.12.55.55,0,0,1,.28.19.41.41,0,0,1,.09.26Zm-3.55-8.47a8.55,8.55,0,0,0-1.47-1.48,2.47,2.47,0,0,0-1.47-.51,2.1,2.1,0,0,0-1.21.35,2.63,2.63,0,0,0-.81.93,5.11,5.11,0,0,0-.45,1.3,7.19,7.19,0,0,0-.15,1.47,8.76,8.76,0,0,0,.13,1.55,4.48,4.48,0,0,0,.42,1.34,2.51,2.51,0,0,0,.77.95,2,2,0,0,0,1.22.35,2.46,2.46,0,0,0,.72-.1,2.75,2.75,0,0,0,.71-.35,5,5,0,0,0,.75-.63q.38-.39.84-1Z" transform="translate(-35.02 -35.02)"/><path class="cls-22" d="M511.22,357.84a2,2,0,0,1-.45,1.5,3.48,3.48,0,0,1-3.26,0,2,2,0,0,1-.42-1.44,2,2,0,0,1,.44-1.49,3.45,3.45,0,0,1,3.26,0A2,2,0,0,1,511.22,357.84Zm-.27,17a.38.38,0,0,1-.09.25.66.66,0,0,1-.29.18,2.88,2.88,0,0,1-.55.1,7,7,0,0,1-.87,0,6.88,6.88,0,0,1-.86,0,2.88,2.88,0,0,1-.55-.1.66.66,0,0,1-.29-.18.38.38,0,0,1-.09-.25V362.16a.4.4,0,0,1,.09-.25.66.66,0,0,1,.29-.18,2.7,2.7,0,0,1,.55-.12,6.88,6.88,0,0,1,.86,0,7,7,0,0,1,.87,0,2.7,2.7,0,0,1,.55.12.66.66,0,0,1,.29.18.4.4,0,0,1,.09.25Z" transform="translate(-35.02 -35.02)"/><path class="cls-23" d="M527.33,368.34a9.53,9.53,0,0,1-.43,3,6.11,6.11,0,0,1-1.29,2.3,5.69,5.69,0,0,1-2.17,1.49,8.2,8.2,0,0,1-3.06.53,8.39,8.39,0,0,1-2.94-.47,5.38,5.38,0,0,1-2.08-1.36,5.78,5.78,0,0,1-1.22-2.21,10.38,10.38,0,0,1-.4-3,9.53,9.53,0,0,1,.44-3,6.18,6.18,0,0,1,1.3-2.3,5.8,5.8,0,0,1,2.17-1.49,8.06,8.06,0,0,1,3-.53,8.47,8.47,0,0,1,3,.47,5.21,5.21,0,0,1,2.07,1.35,5.63,5.63,0,0,1,1.21,2.21A10.11,10.11,0,0,1,527.33,368.34Zm-3.68.15a9.29,9.29,0,0,0-.15-1.73,4.19,4.19,0,0,0-.5-1.37,2.59,2.59,0,0,0-1-.91,3,3,0,0,0-1.48-.33,3.24,3.24,0,0,0-1.4.29,2.6,2.6,0,0,0-1,.86,4.16,4.16,0,0,0-.57,1.35,7.45,7.45,0,0,0-.19,1.79,9.29,9.29,0,0,0,.15,1.73,4.2,4.2,0,0,0,.51,1.37,2.33,2.33,0,0,0,.94.9,3,3,0,0,0,1.48.32,3.12,3.12,0,0,0,1.41-.29,2.55,2.55,0,0,0,1-.84,4,4,0,0,0,.56-1.35A7.45,7.45,0,0,0,523.65,368.49Z" transform="translate(-35.02 -35.02)"/><path class="cls-24" d="M534.36,373.25a2.49,2.49,0,0,1-.46,1.77,3.22,3.22,0,0,1-3.3,0,2.35,2.35,0,0,1-.46-1.7,2.59,2.59,0,0,1,.46-1.79,2.4,2.4,0,0,1,1.67-.45,2.37,2.37,0,0,1,1.64.44A2.45,2.45,0,0,1,534.36,373.25Z" transform="translate(-35.02 -35.02)"/><path class="cls-25" d="M550,374.81a.38.38,0,0,1-.09.25.68.68,0,0,1-.28.18,2.88,2.88,0,0,1-.55.1,7,7,0,0,1-.86,0,7.06,7.06,0,0,1-.87,0,2.6,2.6,0,0,1-.55-.1.62.62,0,0,1-.28-.18.38.38,0,0,1-.09-.25v-7.23a6.7,6.7,0,0,0-.13-1.45,3.1,3.1,0,0,0-.4-.9,1.7,1.7,0,0,0-.66-.59,2.13,2.13,0,0,0-.94-.2,2.35,2.35,0,0,0-1.38.49,7.9,7.9,0,0,0-1.45,1.45v8.43a.44.44,0,0,1-.08.25.7.7,0,0,1-.3.18,2.62,2.62,0,0,1-.54.1,9.48,9.48,0,0,1-1.74,0,2.76,2.76,0,0,1-.54-.1.6.6,0,0,1-.29-.18.38.38,0,0,1-.09-.25V356.12a.38.38,0,0,1,.09-.25.54.54,0,0,1,.29-.19,1.73,1.73,0,0,1,.54-.12,7.59,7.59,0,0,1,1.74,0,1.67,1.67,0,0,1,.54.12.62.62,0,0,1,.3.19.44.44,0,0,1,.08.25v7a6.86,6.86,0,0,1,1.88-1.36,4.67,4.67,0,0,1,2-.45,5.07,5.07,0,0,1,2.18.43,3.86,3.86,0,0,1,1.44,1.17,4.75,4.75,0,0,1,.78,1.72A9.77,9.77,0,0,1,550,367Z" transform="translate(-35.02 -35.02)"/><path class="cls-26" d="M565.26,367.12a5.85,5.85,0,0,1,0,.64,3.93,3.93,0,0,1-.08.46.87.87,0,0,1-.13.29.43.43,0,0,1-.18.15l-10.9,5.4a.67.67,0,0,1-.34.08.32.32,0,0,1-.23-.15,1,1,0,0,1-.13-.42,6.88,6.88,0,0,1,0-.71c0-.39,0-.69,0-.92a2.21,2.21,0,0,1,.08-.54.53.53,0,0,1,.15-.29.88.88,0,0,1,.27-.16l8.19-3.84-8-3.72a3.91,3.91,0,0,1-.37-.2.72.72,0,0,1-.2-.31,1.9,1.9,0,0,1-.09-.55c0-.24,0-.55,0-.95s0-.62,0-.82a1,1,0,0,1,.13-.43.25.25,0,0,1,.23-.11,1.11,1.11,0,0,1,.34.11l10.92,5.44a.69.69,0,0,1,.29.46A4.18,4.18,0,0,1,565.26,367.12Z" transform="translate(-35.02 -35.02)"/><path class="cls-27" d="M350.9,410.72a2.25,2.25,0,0,1-.49,1.67,3.89,3.89,0,0,1-3.65,0,2.13,2.13,0,0,1-.47-1.6,2.31,2.31,0,0,1,.48-1.68,2.72,2.72,0,0,1,1.84-.47,2.67,2.67,0,0,1,1.81.45A2.19,2.19,0,0,1,350.9,410.72Zm-.3,19a.38.38,0,0,1-.1.27.65.65,0,0,1-.32.2,2.27,2.27,0,0,1-.62.12,8.58,8.58,0,0,1-1,0,8.81,8.81,0,0,1-1,0,2.19,2.19,0,0,1-.61-.12.74.74,0,0,1-.33-.2.42.42,0,0,1-.09-.27V415.55a.44.44,0,0,1,.09-.27.85.85,0,0,1,.33-.21,3.09,3.09,0,0,1,.61-.14,8.81,8.81,0,0,1,1,0,8.58,8.58,0,0,1,1,0,3.21,3.21,0,0,1,.62.14.74.74,0,0,1,.32.21.39.39,0,0,1,.1.27Z" transform="translate(-35.02 -35.02)"/><path class="cls-28" d="M368.15,429.72a.38.38,0,0,1-.1.27.67.67,0,0,1-.31.2,2.19,2.19,0,0,1-.62.12,8.73,8.73,0,0,1-1,0,9,9,0,0,1-1,0,2.11,2.11,0,0,1-.61-.12.65.65,0,0,1-.32-.2.42.42,0,0,1-.09-.27v-8.1A6.9,6.9,0,0,0,364,420a3.21,3.21,0,0,0-.43-1,2,2,0,0,0-.74-.65,2.39,2.39,0,0,0-1.06-.23,2.63,2.63,0,0,0-1.54.56,8.24,8.24,0,0,0-1.63,1.62v9.44a.42.42,0,0,1-.09.27.74.74,0,0,1-.33.2,2.19,2.19,0,0,1-.61.12,8.81,8.81,0,0,1-1,0,8.58,8.58,0,0,1-1,0,2.27,2.27,0,0,1-.62-.12.65.65,0,0,1-.32-.2.38.38,0,0,1-.1-.27v-14.2a.54.54,0,0,1,.08-.28.66.66,0,0,1,.29-.19,1.73,1.73,0,0,1,.53-.12,6.3,6.3,0,0,1,.82,0,6.54,6.54,0,0,1,.84,0,1.47,1.47,0,0,1,.52.12.61.61,0,0,1,.26.19.46.46,0,0,1,.08.28v1.64a9.23,9.23,0,0,1,2.4-1.91,5.46,5.46,0,0,1,2.54-.63,5.74,5.74,0,0,1,2.44.47,4.31,4.31,0,0,1,1.61,1.3,5.46,5.46,0,0,1,.88,1.92,11.17,11.17,0,0,1,.27,2.64Z" transform="translate(-35.02 -35.02)"/><path class="cls-29" d="M380.18,428.32a4.88,4.88,0,0,1-.09,1.07,1.2,1.2,0,0,1-.23.53,1.38,1.38,0,0,1-.42.27,4.19,4.19,0,0,1-.65.2,6.07,6.07,0,0,1-.82.14,8.49,8.49,0,0,1-.88.05,6.44,6.44,0,0,1-2.07-.31,3.49,3.49,0,0,1-1.45-.93,3.86,3.86,0,0,1-.84-1.58,8.38,8.38,0,0,1-.27-2.26v-7.27h-1.7a.51.51,0,0,1-.46-.38,3.35,3.35,0,0,1-.16-1.24,5.75,5.75,0,0,1,0-.78,1.53,1.53,0,0,1,.12-.51.55.55,0,0,1,.2-.26.5.5,0,0,1,.27-.08h1.69v-3.16a.48.48,0,0,1,.09-.29.62.62,0,0,1,.32-.22,2.61,2.61,0,0,1,.62-.12,8.73,8.73,0,0,1,1,0,9,9,0,0,1,1,0,2.51,2.51,0,0,1,.61.12.67.67,0,0,1,.32.22.48.48,0,0,1,.09.29V415h3.09a.51.51,0,0,1,.28.08.55.55,0,0,1,.2.26,2.26,2.26,0,0,1,.12.51c0,.21,0,.47,0,.78a3.35,3.35,0,0,1-.16,1.24c-.11.25-.26.38-.46.38h-3.11v6.66a3.38,3.38,0,0,0,.37,1.75,1.44,1.44,0,0,0,1.31.58,2.49,2.49,0,0,0,.57-.06,3.61,3.61,0,0,0,.45-.12l.34-.13a.6.6,0,0,1,.24-.06.33.33,0,0,1,.19.06.38.38,0,0,1,.13.22,4.4,4.4,0,0,1,.09.45A7,7,0,0,1,380.18,428.32Z" transform="translate(-35.02 -35.02)"/><path class="cls-30" d="M413,429.72a.38.38,0,0,1-.1.27.67.67,0,0,1-.31.2,2.11,2.11,0,0,1-.61.12,8.7,8.7,0,0,1-1,0,9.09,9.09,0,0,1-1,0,2.26,2.26,0,0,1-.61-.12.65.65,0,0,1-.32-.2.41.41,0,0,1-.08-.27V421.3a5.91,5.91,0,0,0-.14-1.31,3.19,3.19,0,0,0-.41-1,2.07,2.07,0,0,0-.7-.65,2.12,2.12,0,0,0-1-.23,2.41,2.41,0,0,0-1.45.56,9.43,9.43,0,0,0-1.59,1.62v9.44a.38.38,0,0,1-.1.27.65.65,0,0,1-.32.2,2.27,2.27,0,0,1-.62.12,8.42,8.42,0,0,1-.95,0,8.7,8.7,0,0,1-1,0,2.11,2.11,0,0,1-.61-.12.64.64,0,0,1-.33-.2.43.43,0,0,1-.1-.27V421.3a5.94,5.94,0,0,0-.13-1.31,3.19,3.19,0,0,0-.41-1,1.9,1.9,0,0,0-.7-.65,2.11,2.11,0,0,0-1-.23,2.39,2.39,0,0,0-1.46.56,9.06,9.06,0,0,0-1.58,1.62v9.44a.42.42,0,0,1-.09.27.74.74,0,0,1-.33.2,2.19,2.19,0,0,1-.61.12,8.81,8.81,0,0,1-1,0,8.58,8.58,0,0,1-1,0,2.27,2.27,0,0,1-.62-.12.65.65,0,0,1-.32-.2.38.38,0,0,1-.1-.27v-14.2a.54.54,0,0,1,.08-.28.61.61,0,0,1,.29-.19,1.66,1.66,0,0,1,.53-.12,6.3,6.3,0,0,1,.82,0,6.54,6.54,0,0,1,.84,0,1.47,1.47,0,0,1,.52.12.61.61,0,0,1,.26.19.46.46,0,0,1,.08.28v1.64a9.58,9.58,0,0,1,2.35-1.91,5.07,5.07,0,0,1,2.44-.63,6.41,6.41,0,0,1,1.58.18,4.84,4.84,0,0,1,1.25.52,4.14,4.14,0,0,1,.94.82,4.7,4.7,0,0,1,.67,1.07,12.18,12.18,0,0,1,1.25-1.18,7.42,7.42,0,0,1,1.21-.8,5.3,5.3,0,0,1,1.19-.46,5,5,0,0,1,1.22-.15,5.53,5.53,0,0,1,2.39.47,4.14,4.14,0,0,1,1.56,1.3,5.25,5.25,0,0,1,.86,1.92,10.78,10.78,0,0,1,.25,2.32Z" transform="translate(-35.02 -35.02)"/><path class="cls-31" d="M429,429.76a.41.41,0,0,1-.16.35,1,1,0,0,1-.5.19,8.14,8.14,0,0,1-1,.05,8.23,8.23,0,0,1-1-.05.86.86,0,0,1-.46-.19.45.45,0,0,1-.14-.35v-1.13a6.43,6.43,0,0,1-2,1.47,5.81,5.81,0,0,1-2.49.52,6.84,6.84,0,0,1-2.08-.29,4.7,4.7,0,0,1-1.64-.88,3.78,3.78,0,0,1-1.07-1.44,4.79,4.79,0,0,1-.39-2,4.59,4.59,0,0,1,.49-2.16,4,4,0,0,1,1.45-1.51,7.14,7.14,0,0,1,2.39-.88,17.27,17.27,0,0,1,3.33-.29h1.38v-.86a4.6,4.6,0,0,0-.13-1.17,1.91,1.91,0,0,0-.45-.83,1.82,1.82,0,0,0-.83-.5,4.63,4.63,0,0,0-1.28-.15,6.6,6.6,0,0,0-1.79.22,10.6,10.6,0,0,0-1.39.49c-.4.18-.74.35-1,.49a1.48,1.48,0,0,1-.66.23.49.49,0,0,1-.31-.11.86.86,0,0,1-.22-.32,2.08,2.08,0,0,1-.14-.51,4.57,4.57,0,0,1,0-.67,3.16,3.16,0,0,1,.08-.78,1.33,1.33,0,0,1,.31-.52,2.88,2.88,0,0,1,.78-.51,9.81,9.81,0,0,1,1.3-.51,11.81,11.81,0,0,1,1.63-.39,10.9,10.9,0,0,1,1.82-.15,10.79,10.79,0,0,1,2.86.32,4.87,4.87,0,0,1,1.95,1,3.93,3.93,0,0,1,1.11,1.75,7.93,7.93,0,0,1,.35,2.53Zm-3.93-6.07h-1.53a7.93,7.93,0,0,0-1.65.14,3,3,0,0,0-1.11.43,1.72,1.72,0,0,0-.63.69,2.12,2.12,0,0,0-.2.93,1.8,1.8,0,0,0,.56,1.4,2.26,2.26,0,0,0,1.57.51,2.9,2.9,0,0,0,1.55-.43,6.42,6.42,0,0,0,1.44-1.26Z" transform="translate(-35.02 -35.02)"/><path class="cls-32" d="M437.35,410.72a2.3,2.3,0,0,1-.49,1.67,3.91,3.91,0,0,1-3.66,0,2.17,2.17,0,0,1-.47-1.6,2.31,2.31,0,0,1,.49-1.68,3.85,3.85,0,0,1,3.65,0A2.19,2.19,0,0,1,437.35,410.72Zm-.3,19a.43.43,0,0,1-.1.27.64.64,0,0,1-.33.2,2.11,2.11,0,0,1-.61.12,8.7,8.7,0,0,1-1,0,8.81,8.81,0,0,1-1,0,2.19,2.19,0,0,1-.61-.12.69.69,0,0,1-.33-.2.42.42,0,0,1-.09-.27V415.55a.44.44,0,0,1,.09-.27.78.78,0,0,1,.33-.21,3.09,3.09,0,0,1,.61-.14,8.81,8.81,0,0,1,1,0,8.7,8.7,0,0,1,1,0,2.92,2.92,0,0,1,.61.14.72.72,0,0,1,.33.21.45.45,0,0,1,.1.27Z" transform="translate(-35.02 -35.02)"/><path class="cls-33" d="M454.6,429.72a.43.43,0,0,1-.1.27.65.65,0,0,1-.32.2,2.11,2.11,0,0,1-.61.12,8.73,8.73,0,0,1-1,0,8.89,8.89,0,0,1-1,0,2,2,0,0,1-.61-.12.65.65,0,0,1-.32-.2.38.38,0,0,1-.1-.27v-8.1a7,7,0,0,0-.15-1.63,3.22,3.22,0,0,0-.44-1,1.94,1.94,0,0,0-.74-.65,2.32,2.32,0,0,0-1-.23,2.68,2.68,0,0,0-1.55.56,8.22,8.22,0,0,0-1.62,1.62v9.44a.38.38,0,0,1-.1.27.65.65,0,0,1-.32.2,2.26,2.26,0,0,1-.61.12,11.9,11.9,0,0,1-1.95,0,2.26,2.26,0,0,1-.61-.12.65.65,0,0,1-.32-.2.38.38,0,0,1-.1-.27v-14.2a.54.54,0,0,1,.08-.28.61.61,0,0,1,.29-.19,1.66,1.66,0,0,1,.53-.12,6.3,6.3,0,0,1,.82,0,6.54,6.54,0,0,1,.84,0,1.53,1.53,0,0,1,.52.12.61.61,0,0,1,.26.19.54.54,0,0,1,.08.28v1.64a9.06,9.06,0,0,1,2.4-1.91,5.42,5.42,0,0,1,2.53-.63,5.79,5.79,0,0,1,2.45.47,4.28,4.28,0,0,1,1.6,1.3,5.3,5.3,0,0,1,.89,1.92,11.17,11.17,0,0,1,.27,2.64Z" transform="translate(-35.02 -35.02)"/><path class="cls-34" d="M465,408.49a32.92,32.92,0,0,0-2.7,13.17,33,33,0,0,0,.69,6.78,36.22,36.22,0,0,0,2,6.43,1.37,1.37,0,0,1,.09.44.37.37,0,0,1-.17.31,1.41,1.41,0,0,1-.53.19,6.4,6.4,0,0,1-1,.06c-.3,0-.55,0-.76,0a3.36,3.36,0,0,1-.54-.09.84.84,0,0,1-.33-.14.54.54,0,0,1-.17-.2,30.6,30.6,0,0,1-1.49-3.33,28.22,28.22,0,0,1-1.06-3.39,29,29,0,0,1-.63-3.45,29.17,29.17,0,0,1,0-7.07,29.07,29.07,0,0,1,.64-3.45,33.29,33.29,0,0,1,1.06-3.4,33.76,33.76,0,0,1,1.47-3.35.31.31,0,0,1,.13-.15,1.2,1.2,0,0,1,.29-.12,3.67,3.67,0,0,1,.51-.08l.84,0a7.94,7.94,0,0,1,.94,0,1.87,1.87,0,0,1,.56.17.43.43,0,0,1,.21.29A.67.67,0,0,1,465,408.49Z" transform="translate(-35.02 -35.02)"/><path class="cls-35" d="M475.11,421.7a29.52,29.52,0,0,1-.21,3.54,29,29,0,0,1-.63,3.45,30.09,30.09,0,0,1-1,3.39,28.79,28.79,0,0,1-1.49,3.33.43.43,0,0,1-.16.2.83.83,0,0,1-.34.14,3,3,0,0,1-.53.09c-.21,0-.47,0-.76,0a6.6,6.6,0,0,1-1-.06,1.41,1.41,0,0,1-.53-.19.4.4,0,0,1-.17-.31,1.37,1.37,0,0,1,.09-.44,34.63,34.63,0,0,0,2-6.42,32.39,32.39,0,0,0,.7-6.79,33.09,33.09,0,0,0-.69-6.77,32.18,32.18,0,0,0-2-6.4.67.67,0,0,1-.06-.38.41.41,0,0,1,.22-.29,2,2,0,0,1,.56-.17,7.75,7.75,0,0,1,1,0l.81,0a4.14,4.14,0,0,1,.52.08,1.14,1.14,0,0,1,.3.12.37.37,0,0,1,.13.15,33.53,33.53,0,0,1,2.52,6.75A28.57,28.57,0,0,1,475.11,421.7Z" transform="translate(-35.02 -35.02)"/><path class="cls-36" d="M359.9,492a6.3,6.3,0,0,1,0,.84,1.68,1.68,0,0,1-.15.53.71.71,0,0,1-.24.29.86.86,0,0,1-.29.14,6.09,6.09,0,0,1-.88.16,8.62,8.62,0,0,1-.93,0,6,6,0,0,1-2.59-.5,3.93,3.93,0,0,1-1.64-1.43,6.37,6.37,0,0,1-.87-2.37A23,23,0,0,1,352,486v-3.41a10.22,10.22,0,0,0-.16-2,4.29,4.29,0,0,0-.5-1.3,3.09,3.09,0,0,0-.86-.94,2.93,2.93,0,0,0-1.28-.49.84.84,0,0,1-.33-.15.82.82,0,0,1-.24-.32,1.73,1.73,0,0,1-.15-.56,7,7,0,0,1-.05-.87,7.6,7.6,0,0,1,0-.9,2.37,2.37,0,0,1,.13-.59.69.69,0,0,1,.22-.31.86.86,0,0,1,.32-.12,2.9,2.9,0,0,0,2.12-1.35,6.34,6.34,0,0,0,.74-3.39v-2.55a22.87,22.87,0,0,1,.24-3.68,6.33,6.33,0,0,1,.88-2.37,3.93,3.93,0,0,1,1.65-1.45,6.08,6.08,0,0,1,2.57-.48,6.52,6.52,0,0,1,.93,0c.28,0,.57.08.86.14a.84.84,0,0,1,.31.12.82.82,0,0,1,.24.3,1.59,1.59,0,0,1,.15.55,6.53,6.53,0,0,1,0,.84,5,5,0,0,1-.06.85,2.13,2.13,0,0,1-.16.55.63.63,0,0,1-.26.31.61.61,0,0,1-.31.09l-.74,0a1.94,1.94,0,0,0-.82.19,1.24,1.24,0,0,0-.53.59,3.74,3.74,0,0,0-.3,1.15,20.08,20.08,0,0,0-.09,2.25v2.45a12.31,12.31,0,0,1-.22,2.56,6.18,6.18,0,0,1-.7,1.86,5.07,5.07,0,0,1-1.26,1.44,4.75,4.75,0,0,1-1.9.86,4.74,4.74,0,0,1,1.9.85,4.66,4.66,0,0,1,1.26,1.43,6.41,6.41,0,0,1,.7,1.88,12.07,12.07,0,0,1,.22,2.53V486a20,20,0,0,0,.09,2.23,3.94,3.94,0,0,0,.28,1.14,1.26,1.26,0,0,0,.47.61,1.57,1.57,0,0,0,.73.2h.73a1.3,1.3,0,0,1,.47.11.62.62,0,0,1,.31.29,1.73,1.73,0,0,1,.15.55A6.85,6.85,0,0,1,359.9,492Z" transform="translate(-35.02 -35.02)"/><path class="cls-37" d="M348.49,597.11a1.73,1.73,0,0,1,.15-.55.62.62,0,0,1,.31-.29,1.3,1.3,0,0,1,.47-.11h.74a1.53,1.53,0,0,0,.72-.2,1.26,1.26,0,0,0,.47-.61,3.94,3.94,0,0,0,.28-1.14,20,20,0,0,0,.09-2.23v-3.33a12.07,12.07,0,0,1,.22-2.53,6.41,6.41,0,0,1,.7-1.88,4.66,4.66,0,0,1,1.26-1.43,4.74,4.74,0,0,1,1.9-.85,4.75,4.75,0,0,1-1.9-.86,5.07,5.07,0,0,1-1.26-1.44,6.18,6.18,0,0,1-.7-1.86,12.31,12.31,0,0,1-.22-2.56v-2.45a20.08,20.08,0,0,0-.09-2.25,3.74,3.74,0,0,0-.3-1.15,1.24,1.24,0,0,0-.53-.59,1.94,1.94,0,0,0-.82-.19l-.74,0a.61.61,0,0,1-.31-.09.63.63,0,0,1-.26-.31,2.13,2.13,0,0,1-.16-.55,5,5,0,0,1-.06-.85,6.53,6.53,0,0,1,.05-.84,1.59,1.59,0,0,1,.15-.55.93.93,0,0,1,.24-.3.84.84,0,0,1,.31-.12c.3-.06.58-.11.86-.14a6.52,6.52,0,0,1,.93-.05,6,6,0,0,1,2.57.48,4,4,0,0,1,1.66,1.45,6.5,6.5,0,0,1,.87,2.37,22.87,22.87,0,0,1,.24,3.68v2.55a6.34,6.34,0,0,0,.74,3.39,2.92,2.92,0,0,0,2.12,1.35.86.86,0,0,1,.32.12.69.69,0,0,1,.22.31,2.37,2.37,0,0,1,.13.59,7.6,7.6,0,0,1,0,.9,7,7,0,0,1,0,.87,1.73,1.73,0,0,1-.15.56.73.73,0,0,1-.24.32.84.84,0,0,1-.33.15,2.93,2.93,0,0,0-1.28.49,3.09,3.09,0,0,0-.86.94,4.29,4.29,0,0,0-.5,1.3,10.22,10.22,0,0,0-.16,2V592a23,23,0,0,1-.24,3.68,6.55,6.55,0,0,1-.86,2.37,4,4,0,0,1-1.65,1.43,6,6,0,0,1-2.59.5,8.62,8.62,0,0,1-.93,0,5.73,5.73,0,0,1-.87-.16.83.83,0,0,1-.3-.14.79.79,0,0,1-.24-.29,1.68,1.68,0,0,1-.15-.53,6.3,6.3,0,0,1-.05-.84C348.45,597.62,348.47,597.33,348.49,597.11Z" transform="translate(-35.02 -35.02)"/><path class="cls-38" d="M399.55,531.73a11,11,0,0,1-.34,2.87,6.54,6.54,0,0,1-1,2.18,4.49,4.49,0,0,1-1.63,1.37,4.89,4.89,0,0,1-2.24.49,4.72,4.72,0,0,1-1-.1,3.69,3.69,0,0,1-.84-.31,5.25,5.25,0,0,1-.81-.52,8.49,8.49,0,0,1-.83-.72v5.62a.46.46,0,0,1-.08.25.64.64,0,0,1-.27.18,3.54,3.54,0,0,1-.52.11,6.21,6.21,0,0,1-.82,0,6,6,0,0,1-.81,0,3.27,3.27,0,0,1-.52-.11.58.58,0,0,1-.27-.18.39.39,0,0,1-.08-.25V525.93a.48.48,0,0,1,.06-.24.56.56,0,0,1,.24-.16,1.51,1.51,0,0,1,.44-.1,4.41,4.41,0,0,1,.69,0,4.22,4.22,0,0,1,.67,0,1.59,1.59,0,0,1,.45.1.47.47,0,0,1,.23.16.4.4,0,0,1,.07.24v1.4c.35-.35.69-.67,1-.94a6.31,6.31,0,0,1,1-.68,4.22,4.22,0,0,1,1.07-.41,5.1,5.1,0,0,1,1.19-.14,4.61,4.61,0,0,1,2.24.52,4.22,4.22,0,0,1,1.5,1.41,6.42,6.42,0,0,1,.85,2.09A11.53,11.53,0,0,1,399.55,531.73ZM396,532a10,10,0,0,0-.11-1.47,4.58,4.58,0,0,0-.39-1.25,2.33,2.33,0,0,0-.72-.88,1.84,1.84,0,0,0-1.12-.33,2.45,2.45,0,0,0-.66.1,2.6,2.6,0,0,0-.67.33,4.52,4.52,0,0,0-.71.59,8.45,8.45,0,0,0-.76.9v3.94a7.73,7.73,0,0,0,1.35,1.38,2.18,2.18,0,0,0,1.34.49,1.88,1.88,0,0,0,1.12-.33,2.71,2.71,0,0,0,.76-.88,4.46,4.46,0,0,0,.43-1.23A6.28,6.28,0,0,0,396,532Z" transform="translate(-35.02 -35.02)"/><path class="cls-39" d="M409.92,527c0,.32,0,.58,0,.79a3.15,3.15,0,0,1-.08.48.45.45,0,0,1-.14.24.32.32,0,0,1-.22.07.79.79,0,0,1-.24,0l-.3-.1-.37-.1a2,2,0,0,0-.44,0,1.46,1.46,0,0,0-.57.12,2.29,2.29,0,0,0-.58.35,4.38,4.38,0,0,0-.63.65,8.65,8.65,0,0,0-.7,1v7.44a.41.41,0,0,1-.08.24.79.79,0,0,1-.28.17,3.53,3.53,0,0,1-.51.1c-.22,0-.49,0-.82,0s-.6,0-.82,0a3.53,3.53,0,0,1-.51-.1.79.79,0,0,1-.28-.17.41.41,0,0,1-.08-.24V525.93a.48.48,0,0,1,.07-.24.46.46,0,0,1,.24-.16,1.67,1.67,0,0,1,.45-.1,4.41,4.41,0,0,1,.69,0,4.78,4.78,0,0,1,.71,0,1.29,1.29,0,0,1,.43.1.52.52,0,0,1,.23.16.48.48,0,0,1,.06.24v1.48a9.36,9.36,0,0,1,.89-1.1,4.74,4.74,0,0,1,.79-.69,2.57,2.57,0,0,1,.75-.36,3.22,3.22,0,0,1,.75-.1l.37,0,.42.07a2.74,2.74,0,0,1,.37.11.66.66,0,0,1,.24.13.45.45,0,0,1,.1.14,2.18,2.18,0,0,1,.06.22,3.32,3.32,0,0,1,0,.43C409.91,526.46,409.92,526.72,409.92,527Z" transform="translate(-35.02 -35.02)"/><path class="cls-40" d="M415.62,521.88a1.93,1.93,0,0,1-.41,1.41,2.28,2.28,0,0,1-1.54.39,2.31,2.31,0,0,1-1.54-.38,1.85,1.85,0,0,1-.39-1.35,1.89,1.89,0,0,1,.41-1.41,2.19,2.19,0,0,1,1.54-.4,2.3,2.3,0,0,1,1.53.38A1.84,1.84,0,0,1,415.62,521.88Zm-.25,16a.41.41,0,0,1-.08.24.79.79,0,0,1-.28.17,3.53,3.53,0,0,1-.51.1c-.22,0-.49,0-.82,0s-.6,0-.82,0a3.53,3.53,0,0,1-.51-.1.79.79,0,0,1-.28-.17.41.41,0,0,1-.08-.24V526a.4.4,0,0,1,.08-.23.67.67,0,0,1,.28-.17,2.4,2.4,0,0,1,.51-.12c.22,0,.49,0,.82,0s.6,0,.82,0a2.4,2.4,0,0,1,.51.12.67.67,0,0,1,.28.17.4.4,0,0,1,.08.23Z" transform="translate(-35.02 -35.02)"/><path class="cls-41" d="M430.14,537.87a.41.41,0,0,1-.08.24.84.84,0,0,1-.27.17,3.44,3.44,0,0,1-.52.1q-.31,0-.81,0c-.33,0-.6,0-.82,0a3.44,3.44,0,0,1-.52-.1.69.69,0,0,1-.26-.17.35.35,0,0,1-.08-.24v-6.81a6,6,0,0,0-.13-1.37,2.87,2.87,0,0,0-.37-.85,1.64,1.64,0,0,0-.62-.55,1.94,1.94,0,0,0-.89-.19,2.19,2.19,0,0,0-1.3.47,7,7,0,0,0-1.37,1.36v7.94a.35.35,0,0,1-.08.24.66.66,0,0,1-.27.17,3.44,3.44,0,0,1-.52.1q-.32,0-.81,0c-.33,0-.61,0-.82,0a3.44,3.44,0,0,1-.52-.1.66.66,0,0,1-.27-.17.35.35,0,0,1-.08-.24V525.93a.4.4,0,0,1,.07-.24.46.46,0,0,1,.24-.16,1.51,1.51,0,0,1,.44-.1,6.14,6.14,0,0,1,1.4,0,1.36,1.36,0,0,1,.44.1.48.48,0,0,1,.22.16.4.4,0,0,1,.07.24v1.38a7.56,7.56,0,0,1,2-1.61,4.56,4.56,0,0,1,2.14-.54,4.65,4.65,0,0,1,2.05.41,3.58,3.58,0,0,1,1.36,1.09,4.49,4.49,0,0,1,.74,1.61,9.53,9.53,0,0,1,.23,2.22Z" transform="translate(-35.02 -35.02)"/><path class="cls-42" d="M442.53,525.47v-1a8.53,8.53,0,0,1,.24-2.14,3.83,3.83,0,0,1,.77-1.52,3.12,3.12,0,0,1,1.3-.92,5.72,5.72,0,0,1,2.87-.22,5.35,5.35,0,0,1,.74.18,1.13,1.13,0,0,1,.36.19.61.61,0,0,1,.16.26,2.78,2.78,0,0,1,.08.43c0,.17,0,.39,0,.64s0,.47,0,.63a2,2,0,0,1-.08.36.5.5,0,0,1-.12.17.22.22,0,0,1-.14.05,1.17,1.17,0,0,1-.33-.09,3.29,3.29,0,0,0-.5-.14,2.76,2.76,0,0,0-.57-.06,1.61,1.61,0,0,0-.65.11,1,1,0,0,0-.43.36,2,2,0,0,0-.26.64,5.34,5.34,0,0,0-.08,1v1.1h2.18a.36.36,0,0,1,.22.07.44.44,0,0,1,.17.22,1.27,1.27,0,0,1,.11.42,5.83,5.83,0,0,1,0,.66,2.64,2.64,0,0,1-.15,1c-.09.21-.22.31-.38.31h-2.19v9.67a.41.41,0,0,1-.08.24.84.84,0,0,1-.27.17,3.44,3.44,0,0,1-.52.1c-.22,0-.49,0-.82,0s-.59,0-.81,0a3.44,3.44,0,0,1-.52-.1.66.66,0,0,1-.27-.17.4.4,0,0,1-.07-.24V528.2h-5.4v5.62a2.71,2.71,0,0,0,.31,1.46,1.17,1.17,0,0,0,1.09.49,1.89,1.89,0,0,0,.49,0,3,3,0,0,0,.38-.1l.28-.11a.58.58,0,0,1,.21,0,.3.3,0,0,1,.15,0,.27.27,0,0,1,.11.19,2,2,0,0,1,.08.38,5,5,0,0,1,0,.61,4.22,4.22,0,0,1-.07.91,1,1,0,0,1-.2.44,1,1,0,0,1-.35.23,3.26,3.26,0,0,1-.55.17,6.38,6.38,0,0,1-.68.12c-.25,0-.5,0-.75,0a5.31,5.31,0,0,1-1.74-.26,3,3,0,0,1-1.22-.78,3.39,3.39,0,0,1-.71-1.33,7.16,7.16,0,0,1-.22-1.91V528.2h-1.44c-.17,0-.29-.1-.38-.31a2.88,2.88,0,0,1-.14-1,4.16,4.16,0,0,1,0-.66,1.29,1.29,0,0,1,.1-.42.48.48,0,0,1,.16-.22.4.4,0,0,1,.24-.07h1.42v-2.66a.4.4,0,0,1,.07-.24.51.51,0,0,1,.27-.18,2,2,0,0,1,.52-.11q.33,0,.81,0c.33,0,.61,0,.82,0a1.86,1.86,0,0,1,.52.11.56.56,0,0,1,.27.18.41.41,0,0,1,.08.24v2.66Z" transform="translate(-35.02 -35.02)"/><path class="cls-43" d="M462.22,520A27.69,27.69,0,0,0,460,531.1a27.56,27.56,0,0,0,.58,5.7,31,31,0,0,0,1.68,5.41,1.24,1.24,0,0,1,.08.37.31.31,0,0,1-.15.26,1,1,0,0,1-.44.16,4.6,4.6,0,0,1-.84.06,5.72,5.72,0,0,1-.64,0,3.59,3.59,0,0,1-.45-.07.92.92,0,0,1-.28-.13.31.31,0,0,1-.14-.16,24,24,0,0,1-1.26-2.81,22.87,22.87,0,0,1-.89-2.85,22.21,22.21,0,0,1-.53-2.91,24.59,24.59,0,0,1,0-5.94,22.26,22.26,0,0,1,.55-2.91,25.46,25.46,0,0,1,.89-2.86,25.73,25.73,0,0,1,1.24-2.82.19.19,0,0,1,.1-.12.91.91,0,0,1,.24-.1,1.62,1.62,0,0,1,.44-.07l.7,0a4.35,4.35,0,0,1,.79,0,1.19,1.19,0,0,1,.47.14.31.31,0,0,1,.18.24A.63.63,0,0,1,462.22,520Z" transform="translate(-35.02 -35.02)"/><path class="cls-44" d="M469,521a9,9,0,0,1-.05.94,5.18,5.18,0,0,1-.15.82,4.85,4.85,0,0,1-.29.75,6.43,6.43,0,0,1-.44.73l-1.72,2.56a1.11,1.11,0,0,1-.19.23.93.93,0,0,1-.26.15,1.9,1.9,0,0,1-.36.09,3.74,3.74,0,0,1-.52,0,4.45,4.45,0,0,1-.57,0,.71.71,0,0,1-.32-.1A.25.25,0,0,1,464,527a.83.83,0,0,1,.06-.27l1.58-3.64V521a2.14,2.14,0,0,1,.1-.73.82.82,0,0,1,.3-.42,1.15,1.15,0,0,1,.53-.19,5.74,5.74,0,0,1,.77,0,5.11,5.11,0,0,1,.75,0,1.07,1.07,0,0,1,.51.19.92.92,0,0,1,.28.42A2.14,2.14,0,0,1,469,521Zm5.25,0a9,9,0,0,1-.05.94,5.18,5.18,0,0,1-.15.82,4.85,4.85,0,0,1-.29.75,4.42,4.42,0,0,1-.44.73l-1.71,2.56a1.14,1.14,0,0,1-.2.23.76.76,0,0,1-.25.15,1.67,1.67,0,0,1-.37.09,3.84,3.84,0,0,1-.52,0,4.17,4.17,0,0,1-.56,0,.71.71,0,0,1-.32-.1.24.24,0,0,1-.1-.18.73.73,0,0,1,0-.27l1.58-3.64V521a2.42,2.42,0,0,1,.1-.73,1,1,0,0,1,.3-.42,1.15,1.15,0,0,1,.53-.19,5.74,5.74,0,0,1,.77,0,5.11,5.11,0,0,1,.75,0,1.07,1.07,0,0,1,.51.19.92.92,0,0,1,.28.42A2.14,2.14,0,0,1,474.2,521Z" transform="translate(-35.02 -35.02)"/><path class="cls-45" d="M487.7,537a5.64,5.64,0,0,1,0,.65,1.44,1.44,0,0,1-.1.42.42.42,0,0,1-.17.23.35.35,0,0,1-.22.08h-8.7a1.09,1.09,0,0,1-.74-.26,1.05,1.05,0,0,1-.31-.85V522.11a1,1,0,0,1,.31-.85,1.09,1.09,0,0,1,.74-.26h8.65a.31.31,0,0,1,.21.07.41.41,0,0,1,.16.23,1.91,1.91,0,0,1,.11.43,7.06,7.06,0,0,1,0,1.3,1.81,1.81,0,0,1-.11.42.41.41,0,0,1-.16.23.32.32,0,0,1-.21.08h-6.19V528h5.24a.36.36,0,0,1,.22.07.6.6,0,0,1,.17.23,1.62,1.62,0,0,1,.1.42,5.53,5.53,0,0,1,0,.63,5.79,5.79,0,0,1,0,.65,1.54,1.54,0,0,1-.1.4.44.44,0,0,1-.17.22.36.36,0,0,1-.22.07h-5.24v4.89h6.24a.34.34,0,0,1,.22.07.5.5,0,0,1,.17.24,1.44,1.44,0,0,1,.1.42A5.49,5.49,0,0,1,487.7,537Z" transform="translate(-35.02 -35.02)"/><path class="cls-46" d="M505.2,529.41a12,12,0,0,1-.62,4.08,7,7,0,0,1-1.79,2.76,7.2,7.2,0,0,1-2.83,1.58,14.1,14.1,0,0,1-4,.5h-4.14a1.12,1.12,0,0,1-.75-.26,1.08,1.08,0,0,1-.3-.85V522.11a1.07,1.07,0,0,1,.3-.85,1.12,1.12,0,0,1,.75-.26h4.44a12.43,12.43,0,0,1,3.93.54,7,7,0,0,1,2.72,1.61,6.84,6.84,0,0,1,1.68,2.63A10.36,10.36,0,0,1,505.2,529.41Zm-3.64.12a8.81,8.81,0,0,0-.29-2.29,4.67,4.67,0,0,0-.93-1.83,4.2,4.2,0,0,0-1.63-1.22,6.63,6.63,0,0,0-2.62-.43h-1.78v11.78h1.84a6.9,6.9,0,0,0,2.43-.37,4.2,4.2,0,0,0,1.66-1.13,5,5,0,0,0,1-1.88A9.4,9.4,0,0,0,501.56,529.53Z" transform="translate(-35.02 -35.02)"/><path class="cls-47" d="M522,523.69a6.45,6.45,0,0,1,0,.67,1.9,1.9,0,0,1-.1.45.45.45,0,0,1-.14.23.31.31,0,0,1-.21.07,1.29,1.29,0,0,1-.56-.24,9.7,9.7,0,0,0-1-.52,10.6,10.6,0,0,0-1.54-.52,7.52,7.52,0,0,0-2.07-.25A5.71,5.71,0,0,0,514,524a4.92,4.92,0,0,0-1.74,1.23,5.38,5.38,0,0,0-1.12,1.92,7.71,7.71,0,0,0-.38,2.47,8.07,8.07,0,0,0,.39,2.62,5.2,5.2,0,0,0,1.11,1.89,4.54,4.54,0,0,0,1.7,1.15,6,6,0,0,0,2.21.39,5,5,0,0,0,1.16-.13,4.17,4.17,0,0,0,1.07-.41v-4h-3.28c-.16,0-.28-.1-.37-.3a2.76,2.76,0,0,1-.14-1,3.77,3.77,0,0,1,0-.63,1.37,1.37,0,0,1,.1-.41.55.55,0,0,1,.16-.22.32.32,0,0,1,.21-.08H521a1,1,0,0,1,.39.08.77.77,0,0,1,.29.22.85.85,0,0,1,.19.35,1.43,1.43,0,0,1,.07.48v6.89a1.73,1.73,0,0,1-.14.71,1,1,0,0,1-.57.47,10.45,10.45,0,0,1-1.08.36c-.43.13-.88.24-1.34.33s-.92.15-1.39.2-.94.06-1.41.06a11.08,11.08,0,0,1-3.72-.59,7.66,7.66,0,0,1-2.78-1.73,7.52,7.52,0,0,1-1.74-2.76,11.68,11.68,0,0,1,0-7.51,8.19,8.19,0,0,1,1.82-2.88,8,8,0,0,1,2.85-1.82,10.44,10.44,0,0,1,3.72-.62,12.89,12.89,0,0,1,2,.15,12.5,12.5,0,0,1,1.61.37,6.3,6.3,0,0,1,1.14.48,2.94,2.94,0,0,1,.64.44,1.1,1.1,0,0,1,.26.53A5,5,0,0,1,522,523.69Z" transform="translate(-35.02 -35.02)"/><path class="cls-48" d="M535.84,537a5.92,5.92,0,0,1,0,.65,1.81,1.81,0,0,1-.11.42.47.47,0,0,1-.16.23.37.37,0,0,1-.22.08h-8.71a1.11,1.11,0,0,1-.74-.26,1.08,1.08,0,0,1-.3-.85V522.11a1.07,1.07,0,0,1,.3-.85,1.11,1.11,0,0,1,.74-.26h8.65a.36.36,0,0,1,.22.07.54.54,0,0,1,.16.23,2,2,0,0,1,.1.43,7.06,7.06,0,0,1,0,1.3,1.85,1.85,0,0,1-.1.42.54.54,0,0,1-.16.23.37.37,0,0,1-.22.08h-6.18V528h5.23a.34.34,0,0,1,.22.07.51.51,0,0,1,.17.23,1.29,1.29,0,0,1,.1.42,5.53,5.53,0,0,1,0,.63,5.79,5.79,0,0,1,0,.65,1.22,1.22,0,0,1-.1.4.4.4,0,0,1-.17.22.34.34,0,0,1-.22.07h-5.23v4.89h6.24a.36.36,0,0,1,.22.07.56.56,0,0,1,.16.24,1.81,1.81,0,0,1,.11.42A5.79,5.79,0,0,1,535.84,537Z" transform="translate(-35.02 -35.02)"/><path class="cls-49" d="M556.06,536.9a6.25,6.25,0,0,1,0,.66,3.09,3.09,0,0,1-.1.45.52.52,0,0,1-.18.24.41.41,0,0,1-.24.08h-10a2.44,2.44,0,0,1-.51-.05.73.73,0,0,1-.35-.21,1,1,0,0,1-.19-.45,4,4,0,0,1-.06-.76,5.53,5.53,0,0,1,0-.76,1.84,1.84,0,0,1,.14-.56,3.43,3.43,0,0,1,.28-.49,5.32,5.32,0,0,1,.43-.51l3-3.22a16,16,0,0,0,1.45-1.7,10.1,10.1,0,0,0,.86-1.41,5.56,5.56,0,0,0,.42-1.17,5.38,5.38,0,0,0,.11-1,2.39,2.39,0,0,0-.14-.84,2,2,0,0,0-.41-.69,2.09,2.09,0,0,0-.69-.46,2.69,2.69,0,0,0-1-.16,4.3,4.3,0,0,0-1.4.2,5.94,5.94,0,0,0-1.07.45,6.89,6.89,0,0,0-.77.45,1,1,0,0,1-.48.21.32.32,0,0,1-.21-.08.57.57,0,0,1-.14-.27,2.52,2.52,0,0,1-.09-.5c0-.21,0-.47,0-.77a4,4,0,0,1,0-.52,1.68,1.68,0,0,1,.06-.36.81.81,0,0,1,.11-.27,1.5,1.5,0,0,1,.23-.27,2.83,2.83,0,0,1,.62-.41,6.1,6.1,0,0,1,1.1-.48,10.45,10.45,0,0,1,1.45-.4,8.69,8.69,0,0,1,1.64-.16,7.65,7.65,0,0,1,2.37.34,4.88,4.88,0,0,1,1.68,1,3.93,3.93,0,0,1,1,1.45,5.09,5.09,0,0,1,.32,1.8,8.34,8.34,0,0,1-.16,1.66,6,6,0,0,1-.67,1.76,13.5,13.5,0,0,1-1.43,2.09,32.86,32.86,0,0,1-2.45,2.66l-2,2.08h6.83a.39.39,0,0,1,.25.08.6.6,0,0,1,.19.24,1.92,1.92,0,0,1,.12.45A4.11,4.11,0,0,1,556.06,536.9Z" transform="translate(-35.02 -35.02)"/><path class="cls-50" d="M570.31,529.6a18.72,18.72,0,0,1-.34,3.75,8.11,8.11,0,0,1-1.09,2.85,5.11,5.11,0,0,1-2,1.81,6.32,6.32,0,0,1-3,.63,6.42,6.42,0,0,1-3-.61,4.67,4.67,0,0,1-1.85-1.76,8,8,0,0,1-.95-2.8,22.18,22.18,0,0,1-.28-3.74,19.45,19.45,0,0,1,.34-3.74,8.41,8.41,0,0,1,1.1-2.86,5.11,5.11,0,0,1,2-1.81,7.35,7.35,0,0,1,5.91,0,4.54,4.54,0,0,1,1.85,1.76,7.77,7.77,0,0,1,.95,2.79A23.48,23.48,0,0,1,570.31,529.6Zm-3.55.17c0-.82,0-1.55-.07-2.17a13.32,13.32,0,0,0-.2-1.65,6.32,6.32,0,0,0-.35-1.17,2.39,2.39,0,0,0-.5-.77,1.62,1.62,0,0,0-.67-.41,2.73,2.73,0,0,0-.83-.12,2.1,2.1,0,0,0-1.31.38A2.51,2.51,0,0,0,562,525a7.44,7.44,0,0,0-.42,1.91,25.47,25.47,0,0,0-.12,2.65,25.73,25.73,0,0,0,.15,3.06,7.1,7.1,0,0,0,.46,1.93,2.09,2.09,0,0,0,.81,1,2.36,2.36,0,0,0,1.19.29,2.45,2.45,0,0,0,.93-.17,2,2,0,0,0,.7-.5,2.81,2.81,0,0,0,.5-.85,6.31,6.31,0,0,0,.33-1.17,12.35,12.35,0,0,0,.17-1.52C566.74,531.07,566.76,530.45,566.76,529.77Z" transform="translate(-35.02 -35.02)"/><path class="cls-51" d="M583.7,537a4,4,0,0,1,0,.64,1.59,1.59,0,0,1-.11.41.58.58,0,0,1-.17.22.31.31,0,0,1-.21.07H573.6a.32.32,0,0,1-.2-.07.48.48,0,0,1-.16-.22,1.55,1.55,0,0,1-.12-.41,4,4,0,0,1,0-.64,5.79,5.79,0,0,1,0-.65,1.81,1.81,0,0,1,.11-.42.67.67,0,0,1,.17-.24.31.31,0,0,1,.21-.07h3.23V524.33l-2.78,1.54a2.58,2.58,0,0,1-.51.19.31.31,0,0,1-.3-.09.65.65,0,0,1-.16-.39,5.45,5.45,0,0,1,0-.79c0-.21,0-.39,0-.53a1.44,1.44,0,0,1,.07-.35.87.87,0,0,1,.15-.25c.06-.06.15-.12.25-.2l3.73-2.41.16-.08a1.43,1.43,0,0,1,.26-.06l.43,0h.67l.83,0a1.67,1.67,0,0,1,.47.07.41.41,0,0,1,.22.12.42.42,0,0,1,.05.2v14.32h2.83a.36.36,0,0,1,.22.07.67.67,0,0,1,.17.24,1.81,1.81,0,0,1,.11.42A5.79,5.79,0,0,1,583.7,537Z" transform="translate(-35.02 -35.02)"/><path class="cls-52" d="M597.8,528.87c0,.71,0,1.44-.1,2.19a13.58,13.58,0,0,1-.41,2.22,10,10,0,0,1-.83,2.06,6,6,0,0,1-3.41,2.87,8.51,8.51,0,0,1-2.83.43,8.74,8.74,0,0,1-1.14-.08c-.38-.06-.73-.12-1-.2a6.29,6.29,0,0,1-.8-.26,1.62,1.62,0,0,1-.47-.27.89.89,0,0,1-.22-.41,3.64,3.64,0,0,1-.06-.75,7.09,7.09,0,0,1,0-.71,1.36,1.36,0,0,1,.08-.42.37.37,0,0,1,.14-.19.46.46,0,0,1,.21-.05,1.47,1.47,0,0,1,.46.1l.71.21a8.77,8.77,0,0,0,1,.21,6.29,6.29,0,0,0,1.19.1,4.17,4.17,0,0,0,1.9-.4,3.42,3.42,0,0,0,1.26-1.09,4.66,4.66,0,0,0,.71-1.58,8.88,8.88,0,0,0,.26-1.89,6.66,6.66,0,0,1-1.49.68,6.37,6.37,0,0,1-2,.29,6.75,6.75,0,0,1-2.35-.36,3.88,3.88,0,0,1-1.56-1.05,4,4,0,0,1-.88-1.66,7.9,7.9,0,0,1-.28-2.21,7.09,7.09,0,0,1,.39-2.39,5.2,5.2,0,0,1,1.15-1.89,5.31,5.31,0,0,1,1.91-1.24A8.08,8.08,0,0,1,594,521a4.71,4.71,0,0,1,1.56.81,4.54,4.54,0,0,1,1.08,1.26,6.65,6.65,0,0,1,.68,1.66,11.4,11.4,0,0,1,.35,2C597.77,527.37,597.8,528.11,597.8,528.87Zm-3.49-.48a16,16,0,0,0-.16-2.4,4.81,4.81,0,0,0-.49-1.54,1.89,1.89,0,0,0-.8-.81,2.49,2.49,0,0,0-1.12-.24,2.44,2.44,0,0,0-1.09.22,2.17,2.17,0,0,0-.76.62,2.68,2.68,0,0,0-.44,1,4.61,4.61,0,0,0-.15,1.21,5.22,5.22,0,0,0,.13,1.25,2.19,2.19,0,0,0,.4.9,1.63,1.63,0,0,0,.71.52,2.91,2.91,0,0,0,1.08.18,4.72,4.72,0,0,0,2.69-.86Z" transform="translate(-35.02 -35.02)"/><path class="cls-53" d="M604.2,521a9.18,9.18,0,0,1,0,.94,5.18,5.18,0,0,1-.16.82,3.42,3.42,0,0,1-.29.75,6.3,6.3,0,0,1-.43.73l-1.73,2.56a.71.71,0,0,1-.19.23.81.81,0,0,1-.26.15,1.58,1.58,0,0,1-.36.09,3.68,3.68,0,0,1-.51,0,4.24,4.24,0,0,1-.57,0,.67.67,0,0,1-.32-.1.22.22,0,0,1-.11-.18.51.51,0,0,1,.06-.27l1.58-3.64V521a2.46,2.46,0,0,1,.09-.73,1,1,0,0,1,.3-.42,1.19,1.19,0,0,1,.54-.19,5.74,5.74,0,0,1,.77,0,5.32,5.32,0,0,1,.75,0,1,1,0,0,1,.5.19.86.86,0,0,1,.29.42A2.46,2.46,0,0,1,604.2,521Zm5.25,0a9.18,9.18,0,0,1,0,.94,6.62,6.62,0,0,1-.16.82,4,4,0,0,1-.28.75,5.24,5.24,0,0,1-.44.73l-1.72,2.56a1.11,1.11,0,0,1-.19.23.87.87,0,0,1-.25.15,1.82,1.82,0,0,1-.37.09,3.84,3.84,0,0,1-.52,0,4.34,4.34,0,0,1-.57,0,.7.7,0,0,1-.31-.1.25.25,0,0,1-.11-.18.78.78,0,0,1,0-.27l1.58-3.64V521a2.14,2.14,0,0,1,.1-.73,1,1,0,0,1,.3-.42,1.11,1.11,0,0,1,.53-.19,5.63,5.63,0,0,1,.77,0,5.32,5.32,0,0,1,.75,0,1.07,1.07,0,0,1,.5.19.86.86,0,0,1,.29.42A2.46,2.46,0,0,1,609.45,521Z" transform="translate(-35.02 -35.02)"/><path class="cls-54" d="M617.89,531.12a26.51,26.51,0,0,1-.17,3,26.11,26.11,0,0,1-.53,2.91,24.68,24.68,0,0,1-.89,2.85,25.69,25.69,0,0,1-1.25,2.81.36.36,0,0,1-.14.16,1,1,0,0,1-.28.13,3.59,3.59,0,0,1-.45.07,5.85,5.85,0,0,1-.64,0,4.58,4.58,0,0,1-.85-.06,1.06,1.06,0,0,1-.45-.16.31.31,0,0,1-.15-.26,1.24,1.24,0,0,1,.08-.37,29.43,29.43,0,0,0,1.7-5.4,28.36,28.36,0,0,0,.58-5.71,27.56,27.56,0,0,0-.58-5.7,27,27,0,0,0-1.71-5.39.63.63,0,0,1,0-.32.32.32,0,0,1,.19-.24,1.25,1.25,0,0,1,.47-.14,4.29,4.29,0,0,1,.79,0l.69,0a1.69,1.69,0,0,1,.44.07.67.67,0,0,1,.25.1.32.32,0,0,1,.11.12,28.82,28.82,0,0,1,2.12,5.68A24.07,24.07,0,0,1,617.89,531.12Z" transform="translate(-35.02 -35.02)"/><path class="cls-55" d="M625.26,535.86a7.26,7.26,0,0,1-.06,1,4.26,4.26,0,0,1-.17.82,3.75,3.75,0,0,1-.3.76,6.19,6.19,0,0,1-.45.75l-1.74,2.52a1.17,1.17,0,0,1-.21.23,1.06,1.06,0,0,1-.28.15,1.63,1.63,0,0,1-.38.09,4.11,4.11,0,0,1-.55,0,5,5,0,0,1-.61,0,.76.76,0,0,1-.33-.1.22.22,0,0,1-.11-.18.46.46,0,0,1,.06-.26l1.56-3.64v-2.12a2.12,2.12,0,0,1,.11-.73.85.85,0,0,1,.33-.43,1.32,1.32,0,0,1,.57-.19,4.88,4.88,0,0,1,.81,0,4.56,4.56,0,0,1,.79,0,1.19,1.19,0,0,1,.54.19.82.82,0,0,1,.31.43A2.12,2.12,0,0,1,625.26,535.86Zm0-8.11a4.1,4.1,0,0,1-.1.94,1.41,1.41,0,0,1-.31.61,1.16,1.16,0,0,1-.59.34,3.32,3.32,0,0,1-.91.1,3.37,3.37,0,0,1-.91-.1,1.17,1.17,0,0,1-.58-.34,1.21,1.21,0,0,1-.3-.61,4.91,4.91,0,0,1-.08-.94,5.26,5.26,0,0,1,.08-1,1.25,1.25,0,0,1,.3-.62,1.18,1.18,0,0,1,.58-.35,3.33,3.33,0,0,1,.91-.11,3.28,3.28,0,0,1,.91.11,1.17,1.17,0,0,1,.59.35,1.45,1.45,0,0,1,.31.62A4.38,4.38,0,0,1,625.26,527.75Z" transform="translate(-35.02 -35.02)"/></g></svg>