<svg xmlns="http://www.w3.org/2000/svg" xmlns:xlink="http://www.w3.org/1999/xlink" viewBox="0 0 933.92 933.92"><defs><style>.cls-1{fill:none;stroke-miterlimit:10;stroke-width:22px;stroke:url(#linear-gradient);}.cls-2{fill:url(#linear-gradient-2);}.cls-3{fill:url(#radial-gradient);}.cls-4{fill:url(#radial-gradient-2);}</style><linearGradient id="linear-gradient" x1="33.15" y1="500" x2="966.85" y2="500" gradientTransform="translate(225.04 -197.48) rotate(24.99)" gradientUnits="userSpaceOnUse"><stop offset="0" stop-color="#ed2024"/><stop offset="0.12" stop-color="#f26164"/><stop offset="0.25" stop-color="#f8a4a6"/><stop offset="0.36" stop-color="#fcd5d6"/><stop offset="0.45" stop-color="#fef4f4"/><stop offset="0.49" stop-color="#fff"/><stop offset="0.56" stop-color="#fffbfb"/><stop offset="0.63" stop-color="#feefef"/><stop offset="0.69" stop-color="#fcdbdb"/><stop offset="0.76" stop-color="#fabebf"/><stop offset="0.82" stop-color="#f79a9b"/><stop offset="0.89" stop-color="#f36d6f"/><stop offset="0.96" stop-color="#ef393c"/><stop offset="0.98" stop-color="#ed2024"/></linearGradient><linearGradient id="linear-gradient-2" x1="407.88" y1="658.83" x2="591.12" y2="341.44" gradientTransform="matrix(1, 0, 0, 1, 0, 0)" xlink:href="#linear-gradient"/><radialGradient id="radial-gradient" cx="772.18" cy="634.17" r="63.3" gradientTransform="matrix(1, 0, 0, 1, 0, 0)" xlink:href="#linear-gradient"/><radialGradient id="radial-gradient-2" cx="227.82" cy="365.83" r="63.3" gradientTransform="matrix(1, 0, 0, 1, 0, 0)" xlink:href="#linear-gradient"/></defs><title>code relay</title><g id="Layer_85" data-name="Layer 85"><circle class="cls-1" cx="466.96" cy="466.96" r="455.85"/><path class="cls-2" d="M772.18,651.52H417.92a84.8,84.8,0,1,1,0-169.59H578.14a50.09,50.09,0,0,0,0-100.17H227.81a17.36,17.36,0,0,1,0-34.72H578.14a84.8,84.8,0,0,1,0,169.6H417.92a50.09,50.09,0,0,0,0,100.17H772.18a17.36,17.36,0,1,1,0,34.71Z" transform="translate(-33.04 -33.04)"/><path class="cls-3" d="M708.88,634.17a63.3,63.3,0,1,1,63.3,63.3,63.29,63.29,0,0,1-63.3-63.3" transform="translate(-33.04 -33.04)"/><path class="cls-4" d="M291.12,365.83a63.3,63.3,0,1,1-63.3-63.3,63.29,63.29,0,0,1,63.3,63.3" transform="translate(-33.04 -33.04)"/></g></svg>