<svg xmlns="http://www.w3.org/2000/svg" xmlns:xlink="http://www.w3.org/1999/xlink" viewBox="0 0 970.11 970.11"><defs><style>.cls-1,.cls-2,.cls-3,.cls-4,.cls-5,.cls-6,.cls-7,.cls-8{fill:none;stroke-miterlimit:10;}.cls-1{stroke-width:20px;stroke:url(#linear-gradient);}.cls-2,.cls-3,.cls-4{stroke-width:15px;}.cls-2{stroke:url(#linear-gradient-2);}.cls-3{stroke:url(#linear-gradient-3);}.cls-4{stroke:url(#linear-gradient-4);}.cls-5,.cls-6,.cls-7,.cls-8{stroke-width:10px;}.cls-5{stroke:url(#linear-gradient-5);}.cls-6{stroke:url(#linear-gradient-6);}.cls-7{stroke:url(#linear-gradient-7);}.cls-8{stroke:url(#linear-gradient-8);}.cls-9{fill:url(#linear-gradient-9);}.cls-10{fill:url(#linear-gradient-10);}.cls-11{fill:url(#linear-gradient-11);}.cls-12{fill:url(#linear-gradient-12);}.cls-13{fill:url(#linear-gradient-13);}</style><linearGradient id="linear-gradient" x1="500" y1="14.99" x2="500" y2="985.01" gradientTransform="translate(609.38 -211.04) rotate(55.13)" gradientUnits="userSpaceOnUse"><stop offset="0" stop-color="#ed2024"/><stop offset="0.12" stop-color="#f26164"/><stop offset="0.25" stop-color="#f8a4a6"/><stop offset="0.36" stop-color="#fcd5d6"/><stop offset="0.45" stop-color="#fef4f4"/><stop offset="0.49" stop-color="#fff"/><stop offset="0.56" stop-color="#fffbfb"/><stop offset="0.63" stop-color="#feefef"/><stop offset="0.69" stop-color="#fcdbdb"/><stop offset="0.76" stop-color="#fabebf"/><stop offset="0.82" stop-color="#f79a9b"/><stop offset="0.89" stop-color="#f36d6f"/><stop offset="0.96" stop-color="#ef393c"/><stop offset="0.98" stop-color="#ed2024"/></linearGradient><linearGradient id="linear-gradient-2" x1="364.66" y1="521.12" x2="364.66" y2="771.92" gradientTransform="matrix(1, 0, 0, 1, 0, 0)" xlink:href="#linear-gradient"/><linearGradient id="linear-gradient-3" x1="329.94" y1="367.49" x2="329.94" y2="506.19" gradientTransform="matrix(0.92, 0.38, -0.44, 1.07, 311.8, -168.22)" xlink:href="#linear-gradient"/><linearGradient id="linear-gradient-4" x1="744.11" y1="241.47" x2="661.37" y2="441.94" gradientTransform="matrix(1, 0, 0, 1, 0, 0)" xlink:href="#linear-gradient"/><linearGradient id="linear-gradient-5" x1="753.19" y1="656.46" x2="716.71" y2="744.84" gradientTransform="matrix(1, 0, 0, 1, 0, 0)" xlink:href="#linear-gradient"/><linearGradient id="linear-gradient-6" x1="730.03" y1="602.66" x2="706.04" y2="660.77" gradientTransform="matrix(1, 0, 0, 1, 0, 0)" xlink:href="#linear-gradient"/><linearGradient id="linear-gradient-7" x1="757.8" y1="480.49" x2="658.79" y2="720.38" gradientTransform="matrix(1, 0, 0, 1, 0, 0)" xlink:href="#linear-gradient"/><linearGradient id="linear-gradient-8" x1="393.61" y1="581.76" x2="342.56" y2="705.45" gradientTransform="matrix(1, 0, 0, 1, 0, 0)" xlink:href="#linear-gradient"/><linearGradient id="linear-gradient-9" x1="324.66" y1="668.06" x2="343.68" y2="649.04" gradientTransform="matrix(1, 0, 0, 1, 0, 0)" xlink:href="#linear-gradient"/><linearGradient id="linear-gradient-10" x1="349.32" y1="668.06" x2="368.34" y2="649.04" gradientTransform="matrix(1, 0, 0, 1, 0, 0)" xlink:href="#linear-gradient"/><linearGradient id="linear-gradient-11" x1="374.11" y1="670.45" x2="393.27" y2="651.29" gradientTransform="matrix(1, 0, 0, 1, 0, 0)" xlink:href="#linear-gradient"/><linearGradient id="linear-gradient-12" x1="398.63" y1="668.06" x2="417.66" y2="649.04" gradientTransform="matrix(1, 0, 0, 1, 0, 0)" xlink:href="#linear-gradient"/><linearGradient id="linear-gradient-13" x1="423.42" y1="670.45" x2="442.58" y2="651.29" gradientTransform="matrix(1, 0, 0, 1, 0, 0)" xlink:href="#linear-gradient"/></defs><title>cryptoquest</title><g id="cryptoquest"><circle class="cls-1" cx="485.06" cy="485.06" r="475.01"/><rect class="cls-2" x="199.34" y="528.62" width="330.63" height="235.8"/><path class="cls-3" d="M272.77,447.26c31.89-77.25,112-117.46,179-89.82s95.43,112.68,63.55,189.93" transform="translate(-14.94 -14.94)"/><ellipse class="cls-4" cx="702.74" cy="341.71" rx="96.83" ry="101.59"/><rect class="cls-5" x="684.91" y="676.65" width="100.09" height="48"/><rect class="cls-6" x="685.86" y="618.05" width="64.34" height="27.32"/><rect class="cls-7" x="685.28" y="476.63" width="46.03" height="247.62"/><rect class="cls-8" x="253" y="618.21" width="230.16" height="50.79" rx="17.92"/><path class="cls-9" d="M345.15,658.45a24.78,24.78,0,0,1-.6,5.69,11.5,11.5,0,0,1-1.93,4.34,8.69,8.69,0,0,1-3.49,2.74,15,15,0,0,1-10.49,0,7.71,7.71,0,0,1-3.28-2.66,11.09,11.09,0,0,1-1.7-4.25,30.6,30.6,0,0,1-.48-5.69,24.91,24.91,0,0,1,.6-5.69,11.61,11.61,0,0,1,2-4.34,8.65,8.65,0,0,1,3.49-2.75,15,15,0,0,1,10.48,0A7.81,7.81,0,0,1,343,648.5a11,11,0,0,1,1.68,4.26A30.44,30.44,0,0,1,345.15,658.45Zm-6.3.26c0-1.25,0-2.35-.12-3.31a17,17,0,0,0-.36-2.49,8.85,8.85,0,0,0-.62-1.79,3.62,3.62,0,0,0-.89-1.17,3.16,3.16,0,0,0-1.19-.62,5.58,5.58,0,0,0-1.47-.18,4.22,4.22,0,0,0-2.32.58,3.89,3.89,0,0,0-1.45,1.74,10.18,10.18,0,0,0-.75,2.89,33.7,33.7,0,0,0-.21,4,34.66,34.66,0,0,0,.26,4.65,9.58,9.58,0,0,0,.82,2.93,3.26,3.26,0,0,0,1.44,1.53,4.7,4.7,0,0,0,2.11.44,4.82,4.82,0,0,0,1.64-.26,3.47,3.47,0,0,0,1.25-.76,4.17,4.17,0,0,0,.89-1.28,8.75,8.75,0,0,0,.58-1.79,16,16,0,0,0,.31-2.3C338.83,660.68,338.85,659.74,338.85,658.71Z" transform="translate(-14.94 -14.94)"/><path class="cls-10" d="M369.81,658.45a24.78,24.78,0,0,1-.6,5.69,11.5,11.5,0,0,1-1.93,4.34,8.65,8.65,0,0,1-3.5,2.74,15,15,0,0,1-10.48,0,7.71,7.71,0,0,1-3.28-2.66,10.94,10.94,0,0,1-1.7-4.25,30.55,30.55,0,0,1-.49-5.69,24.33,24.33,0,0,1,.61-5.69,11.45,11.45,0,0,1,1.95-4.34,8.58,8.58,0,0,1,3.49-2.75,15,15,0,0,1,10.47,0,7.69,7.69,0,0,1,3.29,2.66,11,11,0,0,1,1.69,4.26A30.44,30.44,0,0,1,369.81,658.45Zm-6.3.26c0-1.25,0-2.35-.12-3.31a16.94,16.94,0,0,0-.37-2.49,8.3,8.3,0,0,0-.61-1.79,3.76,3.76,0,0,0-.89-1.17,3.16,3.16,0,0,0-1.19-.62,5.69,5.69,0,0,0-1.47-.18,4.22,4.22,0,0,0-2.32.58,3.89,3.89,0,0,0-1.45,1.74,9.55,9.55,0,0,0-.75,2.89,33.7,33.7,0,0,0-.21,4,33.06,33.06,0,0,0,.26,4.65,9.3,9.3,0,0,0,.82,2.93,3.26,3.26,0,0,0,1.44,1.53,4.7,4.7,0,0,0,2.11.44,4.87,4.87,0,0,0,1.64-.26,3.56,3.56,0,0,0,1.25-.76,4.35,4.35,0,0,0,.89-1.28,9.41,9.41,0,0,0,.58-1.79,16,16,0,0,0,.31-2.3C363.48,660.68,363.51,659.74,363.51,658.71Z" transform="translate(-14.94 -14.94)"/><path class="cls-11" d="M393.56,669.68a5.24,5.24,0,0,1-.07,1,2.42,2.42,0,0,1-.2.64,1,1,0,0,1-.3.33.7.7,0,0,1-.38.1h-17a.65.65,0,0,1-.36-.1.86.86,0,0,1-.29-.33,2.08,2.08,0,0,1-.21-.64,6.31,6.31,0,0,1-.07-1,6.81,6.81,0,0,1,.06-1,2.22,2.22,0,0,1,.19-.64,1.11,1.11,0,0,1,.3-.36.7.7,0,0,1,.38-.11h5.72V650.45l-4.94,2.34a3.69,3.69,0,0,1-.89.27.6.6,0,0,1-.54-.12,1,1,0,0,1-.28-.6,8.75,8.75,0,0,1-.07-1.2c0-.33,0-.59,0-.8a1.66,1.66,0,0,1,.11-.54,1,1,0,0,1,.27-.37,3.41,3.41,0,0,1,.45-.31l6.6-3.66a1,1,0,0,1,.3-.13,3.29,3.29,0,0,1,.46-.08,7,7,0,0,1,.75,0h1.2c.6,0,1.09,0,1.46,0a4.57,4.57,0,0,1,.84.1.7.7,0,0,1,.38.19.46.46,0,0,1,.1.31v21.75h5a.77.77,0,0,1,.39.11,1,1,0,0,1,.31.36,1.94,1.94,0,0,1,.19.64A6.81,6.81,0,0,1,393.56,669.68Z" transform="translate(-14.94 -14.94)"/><path class="cls-12" d="M419.12,658.45a25.38,25.38,0,0,1-.59,5.69,11.67,11.67,0,0,1-1.94,4.34,8.62,8.62,0,0,1-3.49,2.74,15,15,0,0,1-10.49,0,7.71,7.71,0,0,1-3.28-2.66,11.25,11.25,0,0,1-1.7-4.25,30.6,30.6,0,0,1-.48-5.69,24.91,24.91,0,0,1,.6-5.69,11.77,11.77,0,0,1,1.95-4.34,8.71,8.71,0,0,1,3.49-2.75,15,15,0,0,1,10.48,0A7.81,7.81,0,0,1,417,648.5a10.82,10.82,0,0,1,1.68,4.26A30.44,30.44,0,0,1,419.12,658.45Zm-6.3.26c0-1.25,0-2.35-.11-3.31a18.4,18.4,0,0,0-.37-2.49,8.28,8.28,0,0,0-.62-1.79,3.62,3.62,0,0,0-.89-1.17,3.08,3.08,0,0,0-1.19-.62,5.58,5.58,0,0,0-1.47-.18,4.22,4.22,0,0,0-2.32.58,3.89,3.89,0,0,0-1.45,1.74,9.87,9.87,0,0,0-.74,2.89,31.56,31.56,0,0,0-.22,4,34.66,34.66,0,0,0,.26,4.65,9.58,9.58,0,0,0,.82,2.93,3.31,3.31,0,0,0,1.44,1.53,4.73,4.73,0,0,0,2.11.44,4.82,4.82,0,0,0,1.64-.26,3.47,3.47,0,0,0,1.25-.76,4.17,4.17,0,0,0,.89-1.28,8.75,8.75,0,0,0,.58-1.79,14.72,14.72,0,0,0,.31-2.3C412.8,660.68,412.82,659.74,412.82,658.71Z" transform="translate(-14.94 -14.94)"/><path class="cls-13" d="M442.87,669.68a5.24,5.24,0,0,1-.07,1,1.86,1.86,0,0,1-.2.64.88.88,0,0,1-.3.33.67.67,0,0,1-.38.1H425a.64.64,0,0,1-.35-.1,1,1,0,0,1-.3-.33,2.1,2.1,0,0,1-.2-.64,5.24,5.24,0,0,1-.07-1,6.81,6.81,0,0,1,.06-1,1.94,1.94,0,0,1,.19-.64,1,1,0,0,1,.29-.36.7.7,0,0,1,.38-.11h5.73V650.45l-4.94,2.34a3.83,3.83,0,0,1-.89.27.62.62,0,0,1-.55-.12,1,1,0,0,1-.27-.6,7.39,7.39,0,0,1-.07-1.2c0-.33,0-.59,0-.8a1.65,1.65,0,0,1,.12-.54,1,1,0,0,1,.26-.37,3.41,3.41,0,0,1,.45-.31l6.6-3.66a1,1,0,0,1,.3-.13,3.29,3.29,0,0,1,.46-.08,7.2,7.2,0,0,1,.75,0h1.2c.6,0,1.09,0,1.46,0a4.58,4.58,0,0,1,.85.1.74.74,0,0,1,.38.19.52.52,0,0,1,.09.31v21.75h5a.77.77,0,0,1,.4.11,1,1,0,0,1,.31.36,2.22,2.22,0,0,1,.19.64A8.89,8.89,0,0,1,442.87,669.68Z" transform="translate(-14.94 -14.94)"/></g></svg>