<svg xmlns="http://www.w3.org/2000/svg" xmlns:xlink="http://www.w3.org/1999/xlink" viewBox="0 0 954.97 954.97"><defs><style>.cls-1,.cls-2,.cls-3,.cls-4,.cls-5,.cls-6{fill:none;stroke-linecap:round;stroke-miterlimit:10;}.cls-1{stroke-width:18px;stroke:url(#linear-gradient);}.cls-2{stroke-width:12px;stroke:url(#linear-gradient-2);}.cls-3{stroke-width:10px;stroke:url(#linear-gradient-3);}.cls-4,.cls-5,.cls-6{stroke-width:5px;}.cls-4{stroke:url(#linear-gradient-4);}.cls-5{stroke:url(#linear-gradient-5);}.cls-6{stroke:url(#linear-gradient-6);}</style><linearGradient id="linear-gradient" x1="429.95" y1="2.34" x2="525.02" y2="952.63" gradientUnits="userSpaceOnUse"><stop offset="0" stop-color="#ed2024"/><stop offset="0.12" stop-color="#f26164"/><stop offset="0.25" stop-color="#f8a4a6"/><stop offset="0.36" stop-color="#fcd5d6"/><stop offset="0.45" stop-color="#fef4f4"/><stop offset="0.49" stop-color="#fff"/><stop offset="0.56" stop-color="#fffbfb"/><stop offset="0.63" stop-color="#feefef"/><stop offset="0.69" stop-color="#fcdbdb"/><stop offset="0.76" stop-color="#fabebf"/><stop offset="0.82" stop-color="#f79a9b"/><stop offset="0.89" stop-color="#f36d6f"/><stop offset="0.96" stop-color="#ef393c"/><stop offset="0.98" stop-color="#ed2024"/></linearGradient><linearGradient id="linear-gradient-2" x1="429.66" y1="156.88" x2="498.84" y2="848.39" xlink:href="#linear-gradient"/><linearGradient id="linear-gradient-3" x1="450.82" y1="187.74" x2="515.2" y2="831.29" xlink:href="#linear-gradient"/><linearGradient id="linear-gradient-4" x1="395.38" y1="311.16" x2="400.85" y2="365.85" xlink:href="#linear-gradient"/><linearGradient id="linear-gradient-5" x1="267.23" y1="311.16" x2="272.71" y2="365.85" gradientTransform="matrix(-1, 0, 0, 1, 820.16, 0)" xlink:href="#linear-gradient"/><linearGradient id="linear-gradient-6" x1="446.98" y1="277.77" x2="454.69" y2="354.92" xlink:href="#linear-gradient"/></defs><title>flawless</title><g id="flawless"><circle class="cls-1" cx="477.48" cy="477.48" r="468.48"/><path class="cls-2" d="M445.55,816.72l-86.91-168-109.53,6.46L211.23,508.1h-37l51.09-83.69S195.45,261.78,357.55,186.6a300,300,0,0,1,179.33-22.71C612.67,177.54,713,221.37,745.07,354.82c0,0,22,111-100.43,200.85l102,261.05Z" transform="translate(-22.52 -22.52)"/><path class="cls-3" d="M631.43,808.5h54.62L585.47,513.59a7,7,0,0,1,6.71-9.25c18.19.14,54.45-4.78,52.46-46.45,0,0,47.57-4.11,49.92-47.57,0,0,2.74-28.19-24.66-38.37,0,0,23.88-58.34-41.5-68.52,0,0,8.22-25.06-9-37.59,0,0-15.27-13.7-34.45-10.18,0,0,7.44-27.4-24.28-42.67,0,0-23.49-10.57-42.87,11.74,0,0-3.4-14.21-19.84-25.16-15.31-10.19-35.12-11.53-51.05-2.34-8.21,4.74-15.68,12.35-17.79,24.57,0,0-23.49-19.38-49.92-4.11,0,0-20.55,12.33-20,37,0,0-27.6-.59-36.41,18.2,0,0-7.05,11.75-5.28,32.89,0,0-22.32-8.81-41.7,24.67,0,0-8.81,11.74,0,41.69,0,0-17.77,2.18-23.39,23.91-3.64,14.1-.05,29,8.77,40.59a69.13,69.13,0,0,0,6.7,7.6,31.31,31.31,0,0,0,21.92,8.95H420.65A70.14,70.14,0,0,1,475.79,480c22.26,28.3,56.24,78.47,82.29,147.81.54,1.42,1.14,2.83,1.8,4.2C567.83,648.32,621.38,759.59,631.43,808.5Z" transform="translate(-22.52 -22.52)"/><path class="cls-4" d="M424.41,310.77,369.74,334a1.63,1.63,0,0,0,0,3l54.69,24" transform="translate(-22.52 -22.52)"/><path class="cls-5" d="M523.89,310.77,578.56,334a1.63,1.63,0,0,1,0,3l-54.69,24" transform="translate(-22.52 -22.52)"/><line class="cls-6" x1="460.23" y1="278.96" x2="441.44" y2="353.74"/></g></svg>