<svg xmlns="http://www.w3.org/2000/svg" xmlns:xlink="http://www.w3.org/1999/xlink" viewBox="0 0 958.3 958.3"><defs><style>.cls-1,.cls-2,.cls-3,.cls-4{fill:none;stroke-miterlimit:10;}.cls-1{stroke-width:18px;stroke:url(#linear-gradient);}.cls-2{stroke-width:14px;stroke:url(#linear-gradient-2);}.cls-3,.cls-4{stroke-width:6px;}.cls-3{stroke:url(#linear-gradient-3);}.cls-4{stroke:url(#linear-gradient-4);}.cls-5{fill:url(#linear-gradient-5);}.cls-6{fill:url(#linear-gradient-6);}.cls-7{fill:url(#linear-gradient-7);}.cls-8{fill:url(#linear-gradient-8);}.cls-9{fill:url(#linear-gradient-9);}.cls-10{fill:url(#linear-gradient-10);}.cls-11{fill:url(#linear-gradient-11);}.cls-12{fill:url(#linear-gradient-12);}.cls-13{fill:url(#linear-gradient-13);}.cls-14{fill:url(#linear-gradient-14);}.cls-15{fill:url(#linear-gradient-15);}.cls-16{fill:url(#linear-gradient-16);}.cls-17{fill:url(#linear-gradient-17);}.cls-18{fill:url(#linear-gradient-18);}.cls-19{fill:url(#linear-gradient-19);}.cls-20{fill:url(#linear-gradient-20);}.cls-21{fill:url(#linear-gradient-21);}.cls-22{fill:url(#linear-gradient-22);}.cls-23{fill:url(#linear-gradient-23);}.cls-24{fill:url(#linear-gradient-24);}.cls-25{fill:url(#linear-gradient-25);}.cls-26{fill:url(#linear-gradient-26);}.cls-27{fill:url(#linear-gradient-27);}.cls-28{fill:url(#linear-gradient-28);}.cls-29{fill:url(#linear-gradient-29);}.cls-30{fill:url(#linear-gradient-30);}.cls-31{fill:url(#linear-gradient-31);}.cls-32{fill:url(#linear-gradient-32);}.cls-33{fill:url(#linear-gradient-33);}.cls-34{fill:url(#linear-gradient-34);}.cls-35{fill:url(#linear-gradient-35);}.cls-36{fill:url(#linear-gradient-36);}.cls-37{fill:url(#linear-gradient-37);}.cls-38{fill:url(#linear-gradient-38);}</style><linearGradient id="linear-gradient" x1="817.96" y1="817.96" x2="140.34" y2="140.34" gradientUnits="userSpaceOnUse"><stop offset="0" stop-color="#ed2024"/><stop offset="0.05" stop-color="#f04a4d"/><stop offset="0.14" stop-color="#f58083"/><stop offset="0.21" stop-color="#f8aeaf"/><stop offset="0.29" stop-color="#fbd1d2"/><stop offset="0.36" stop-color="#fdeaeb"/><stop offset="0.42" stop-color="snow"/><stop offset="0.47" stop-color="#fff"/><stop offset="0.51" stop-color="#fef7f7"/><stop offset="0.57" stop-color="#fde1e2"/><stop offset="0.64" stop-color="#fabebf"/><stop offset="0.73" stop-color="#f68c8f"/><stop offset="0.82" stop-color="#f14e51"/><stop offset="0.88" stop-color="#ed2024"/></linearGradient><linearGradient id="linear-gradient-2" x1="736.21" y1="743.57" x2="215.1" y2="222.45" gradientTransform="translate(484.35 -198.73) rotate(45)" xlink:href="#linear-gradient"/><linearGradient id="linear-gradient-3" x1="312.25" y1="425.79" x2="374.34" y2="363.7" gradientUnits="userSpaceOnUse"><stop offset="0" stop-color="#ed2024"/><stop offset="0.12" stop-color="#f26164"/><stop offset="0.25" stop-color="#f8a4a6"/><stop offset="0.36" stop-color="#fcd5d6"/><stop offset="0.45" stop-color="#fef4f4"/><stop offset="0.49" stop-color="#fff"/><stop offset="0.56" stop-color="#fffbfb"/><stop offset="0.63" stop-color="#feefef"/><stop offset="0.69" stop-color="#fcdbdb"/><stop offset="0.76" stop-color="#fabebf"/><stop offset="0.82" stop-color="#f79a9b"/><stop offset="0.89" stop-color="#f36d6f"/><stop offset="0.96" stop-color="#ef393c"/><stop offset="0.98" stop-color="#ed2024"/></linearGradient><linearGradient id="linear-gradient-4" x1="358" y1="688.48" x2="635.97" y2="410.51" xlink:href="#linear-gradient-3"/><linearGradient id="linear-gradient-5" x1="193.47" y1="487.17" x2="209.17" y2="471.46" xlink:href="#linear-gradient-3"/><linearGradient id="linear-gradient-6" x1="206.02" y1="608.51" x2="221.73" y2="592.8" gradientTransform="translate(-175.47 118.59) rotate(-18.39)" xlink:href="#linear-gradient-3"/><linearGradient id="linear-gradient-7" x1="207.77" y1="657.09" x2="223.47" y2="641.38" gradientTransform="translate(-304.02 272.63) rotate(-34.75)" xlink:href="#linear-gradient-3"/><linearGradient id="linear-gradient-8" x1="300.3" y1="641.09" x2="316.01" y2="625.39" gradientTransform="translate(-304.02 272.63) rotate(-34.75)" xlink:href="#linear-gradient-3"/><linearGradient id="linear-gradient-9" x1="276.97" y1="708.2" x2="292.67" y2="692.49" gradientTransform="translate(-304.02 272.63) rotate(-34.75)" xlink:href="#linear-gradient-3"/><linearGradient id="linear-gradient-10" x1="368.12" y1="716.06" x2="383.82" y2="700.36" gradientTransform="translate(-304.02 272.63) rotate(-34.75)" xlink:href="#linear-gradient-3"/><linearGradient id="linear-gradient-11" x1="339.14" y1="779.25" x2="354.84" y2="763.55" gradientTransform="translate(-304.02 272.63) rotate(-34.75)" xlink:href="#linear-gradient-3"/><linearGradient id="linear-gradient-12" x1="261.25" y1="774.13" x2="276.96" y2="758.43" gradientTransform="translate(-304.02 272.63) rotate(-34.75)" xlink:href="#linear-gradient-3"/><linearGradient id="linear-gradient-13" x1="314.79" y1="847.82" x2="330.49" y2="832.12" gradientTransform="translate(-304.02 272.63) rotate(-34.75)" xlink:href="#linear-gradient-3"/><linearGradient id="linear-gradient-14" x1="263.06" y1="847.85" x2="278.76" y2="832.14" gradientTransform="translate(-304.02 272.63) rotate(-34.75)" xlink:href="#linear-gradient-3"/><linearGradient id="linear-gradient-15" x1="413.92" y1="920.94" x2="429.63" y2="905.24" gradientTransform="translate(-304.02 272.63) rotate(-34.75)" xlink:href="#linear-gradient-3"/><linearGradient id="linear-gradient-16" x1="624.98" y1="820.02" x2="640.68" y2="804.32" gradientTransform="translate(114.91 -215.33) rotate(4.46)" xlink:href="#linear-gradient-3"/><linearGradient id="linear-gradient-17" x1="655.55" y1="940.51" x2="671.25" y2="924.8" gradientTransform="translate(114.91 -215.33) rotate(4.46)" xlink:href="#linear-gradient-3"/><linearGradient id="linear-gradient-18" x1="695.72" y1="876.51" x2="711.43" y2="860.81" gradientTransform="translate(114.91 -215.33) rotate(4.46)" xlink:href="#linear-gradient-3"/><linearGradient id="linear-gradient-19" x1="733.16" y1="736.73" x2="748.87" y2="721.03" gradientTransform="matrix(0.92, -0.38, 0.38, 0.92, -160.76, 115.69)" xlink:href="#linear-gradient-3"/><linearGradient id="linear-gradient-20" x1="750.12" y1="689.16" x2="765.82" y2="673.46" gradientTransform="matrix(0.92, -0.38, 0.38, 0.92, -160.76, 115.69)" xlink:href="#linear-gradient-3"/><linearGradient id="linear-gradient-21" x1="657.07" y1="650.21" x2="672.77" y2="634.5" gradientTransform="matrix(0.92, -0.38, 0.38, 0.92, -160.76, 115.69)" xlink:href="#linear-gradient-3"/><linearGradient id="linear-gradient-22" x1="677.47" y1="579.82" x2="693.17" y2="564.12" gradientTransform="matrix(0.94, -0.34, 0.34, 0.94, -147.61, 86.96)" xlink:href="#linear-gradient-3"/><linearGradient id="linear-gradient-23" x1="580.13" y1="568.86" x2="595.84" y2="553.16" gradientTransform="matrix(0.94, -0.34, 0.34, 0.94, -147.61, 86.96)" xlink:href="#linear-gradient-3"/><linearGradient id="linear-gradient-24" x1="598.76" y1="501.17" x2="614.46" y2="485.46" gradientTransform="matrix(0.94, -0.34, 0.34, 0.94, -147.61, 86.96)" xlink:href="#linear-gradient-3"/><linearGradient id="linear-gradient-25" x1="691.48" y1="549.11" x2="707.18" y2="533.41" gradientTransform="translate(-207.39 316.39) rotate(-37.29)" xlink:href="#linear-gradient-3"/><linearGradient id="linear-gradient-26" x1="670.01" y1="382.46" x2="685.71" y2="366.76" gradientTransform="translate(-207.39 316.39) rotate(-37.29)" xlink:href="#linear-gradient-3"/><linearGradient id="linear-gradient-27" x1="714.13" y1="408.71" x2="729.83" y2="393.01" gradientTransform="translate(-207.39 316.39) rotate(-37.29)" xlink:href="#linear-gradient-3"/><linearGradient id="linear-gradient-28" x1="643.7" y1="451.65" x2="659.4" y2="435.94" gradientTransform="translate(-207.39 316.39) rotate(-37.29)" xlink:href="#linear-gradient-3"/><linearGradient id="linear-gradient-29" x1="710.16" y1="481.94" x2="725.87" y2="466.24" gradientTransform="translate(-207.39 316.39) rotate(-37.29)" xlink:href="#linear-gradient-3"/><linearGradient id="linear-gradient-30" x1="769.49" y1="531.28" x2="785.19" y2="515.58" gradientTransform="translate(-207.39 316.39) rotate(-37.29)" xlink:href="#linear-gradient-3"/><linearGradient id="linear-gradient-31" x1="758.16" y1="624.3" x2="773.87" y2="608.6" gradientTransform="translate(-209.51 459.8) rotate(-46.91)" xlink:href="#linear-gradient-3"/><linearGradient id="linear-gradient-32" x1="726.25" y1="687.24" x2="741.95" y2="671.54" gradientTransform="translate(-209.51 459.8) rotate(-46.91)" xlink:href="#linear-gradient-3"/><linearGradient id="linear-gradient-33" x1="402.44" y1="658.13" x2="418.14" y2="642.42" gradientTransform="translate(-304.02 272.63) rotate(-34.75)" xlink:href="#linear-gradient-3"/><linearGradient id="linear-gradient-34" x1="199.57" y1="417.97" x2="215.28" y2="402.27" xlink:href="#linear-gradient-3"/><linearGradient id="linear-gradient-35" x1="220.43" y1="349.28" x2="236.14" y2="333.57" xlink:href="#linear-gradient-3"/><linearGradient id="linear-gradient-36" x1="252.49" y1="288.73" x2="268.19" y2="273.03" xlink:href="#linear-gradient-3"/><linearGradient id="linear-gradient-37" x1="333.39" y1="282.11" x2="349.09" y2="266.41" xlink:href="#linear-gradient-3"/><linearGradient id="linear-gradient-38" x1="370.54" y1="221.56" x2="386.24" y2="205.86" xlink:href="#linear-gradient-3"/></defs><title>body zorbing</title><g id="body_zorbing" data-name="body zorbing"><circle class="cls-1" cx="479.15" cy="479.15" r="470.15"/><circle class="cls-2" cx="479.15" cy="479.15" r="361.48"/><circle class="cls-3" cx="343.29" cy="394.75" r="40.9"/><path class="cls-4" d="M233.31,545.55a11.28,11.28,0,0,1,7.1-7.3c24-8.28,126.7-44,141.51-54.75,0,0,48.47-32,50-67.9,0,0,18.31-127.81,18.74-160.24a7,7,0,0,1,3.55-6c3.51-1.94,9.2-3.8,15.24-.54a10,10,0,0,1,5.17,9.68c-1.88,22.29-9.41,111.59-12.47,148.78a27.47,27.47,0,0,0,11,24.29c28.24,21.1,96.09,71.49,100,71.79,0,0,148.13,44.51,178.26,54a6.18,6.18,0,0,1,3.12,2.22c5.7,7.74,26.78,40.1-23.86,35.07a6.07,6.07,0,0,1-1.32-.27L568.53,543.79s-42-8.4-17.17,28.24c0,0,76,115.8,91.52,137.15a18.45,18.45,0,0,1,2.66,5.23c3.75,11.62,13.53,50.67-34.62,23.77a17.48,17.48,0,0,1-6.54-6.32c-12.4-20.74-71.17-118.12-92-136.17L413.29,516a27,27,0,0,0-26.24-4.28L251.22,561.92S225.66,570.27,233.31,545.55Z" transform="translate(-20.85 -20.85)"/><path class="cls-5" d="M193.15,480.11v4.62a5.13,5.13,0,0,0,5.13,5.13h3.26a5.14,5.14,0,0,0,4.32-2.36l5.08-7.93a5.13,5.13,0,0,0-.4-6.09L207,469.32a5.13,5.13,0,0,0-6.29-1.23l-.41.22A13.34,13.34,0,0,0,193.15,480.11Z" transform="translate(-20.85 -20.85)"/><path class="cls-6" d="M209.49,624.43l1.45,4.38a5.12,5.12,0,0,0,6.48,3.24l3.1-1a5.1,5.1,0,0,0,3.35-3.6l2.33-9.12a5.13,5.13,0,0,0-2.31-5.65l-4.67-2.84a5.14,5.14,0,0,0-6.35.82l-.32.34A13.3,13.3,0,0,0,209.49,624.43Z" transform="translate(-20.85 -20.85)"/><path class="cls-7" d="M237,688.44l2.63,3.79a5.14,5.14,0,0,0,7.14,1.29l2.68-1.87a5.08,5.08,0,0,0,2.2-4.39l-.34-9.42a5.12,5.12,0,0,0-3.8-4.77l-5.29-1.4a5.1,5.1,0,0,0-5.85,2.58l-.22.41A13.35,13.35,0,0,0,237,688.44Z" transform="translate(-20.85 -20.85)"/><path class="cls-8" d="M303.89,622.54l2.63,3.79a5.12,5.12,0,0,0,7.14,1.29l2.68-1.86a5.09,5.09,0,0,0,2.2-4.4L318.2,612a5.13,5.13,0,0,0-3.81-4.77l-5.28-1.4a5.11,5.11,0,0,0-5.85,2.57l-.22.42A13.33,13.33,0,0,0,303.89,622.54Z" transform="translate(-20.85 -20.85)"/><path class="cls-9" d="M323,691l2.63,3.79a5.12,5.12,0,0,0,7.13,1.29l2.68-1.86a5.1,5.1,0,0,0,2.2-4.4l-.34-9.41a5.11,5.11,0,0,0-3.8-4.77l-5.28-1.41a5.14,5.14,0,0,0-5.86,2.58l-.22.41A13.32,13.32,0,0,0,323,691Z" transform="translate(-20.85 -20.85)"/><path class="cls-10" d="M402.35,645.48l2.63,3.79a5.14,5.14,0,0,0,7.14,1.29l2.68-1.86a5.16,5.16,0,0,0,2.2-4.4l-.34-9.42a5.13,5.13,0,0,0-3.81-4.77l-5.28-1.4a5.14,5.14,0,0,0-5.86,2.58l-.21.41A13.3,13.3,0,0,0,402.35,645.48Z" transform="translate(-20.85 -20.85)"/><path class="cls-11" d="M414.56,713.91l2.63,3.79a5.12,5.12,0,0,0,7.14,1.29l2.68-1.86a5.14,5.14,0,0,0,2.2-4.4l-.34-9.41a5.13,5.13,0,0,0-3.81-4.77l-5.28-1.4a5.13,5.13,0,0,0-5.86,2.57l-.21.42A13.33,13.33,0,0,0,414.56,713.91Z" transform="translate(-20.85 -20.85)"/><path class="cls-12" d="M347.65,754.11l2.63,3.79a5.13,5.13,0,0,0,7.14,1.29l2.68-1.86a5.12,5.12,0,0,0,2.2-4.4l-.34-9.41a5.12,5.12,0,0,0-3.81-4.77l-5.28-1.41a5.15,5.15,0,0,0-5.86,2.58l-.21.41A13.35,13.35,0,0,0,347.65,754.11Z" transform="translate(-20.85 -20.85)"/><path class="cls-13" d="M433.64,784.13l2.63,3.79a5.13,5.13,0,0,0,7.14,1.29l2.68-1.86a5.1,5.1,0,0,0,2.2-4.4l-.34-9.41a5.12,5.12,0,0,0-3.81-4.77l-5.28-1.41a5.13,5.13,0,0,0-5.85,2.58l-.22.41A13.35,13.35,0,0,0,433.64,784.13Z" transform="translate(-20.85 -20.85)"/><path class="cls-14" d="M391.16,813.64l2.63,3.79a5.11,5.11,0,0,0,7.13,1.29l2.68-1.86a5.12,5.12,0,0,0,2.21-4.4l-.35-9.41a5.11,5.11,0,0,0-3.8-4.77l-5.28-1.4a5.12,5.12,0,0,0-5.86,2.57l-.22.42A13.31,13.31,0,0,0,391.16,813.64Z" transform="translate(-20.85 -20.85)"/><path class="cls-15" d="M556.78,787.69l2.63,3.79a5.11,5.11,0,0,0,7.13,1.29l2.69-1.86a5.14,5.14,0,0,0,2.2-4.4l-.34-9.41a5.14,5.14,0,0,0-3.81-4.77l-5.28-1.4a5.12,5.12,0,0,0-5.86,2.57l-.22.42A13.31,13.31,0,0,0,556.78,787.69Z" transform="translate(-20.85 -20.85)"/><path class="cls-16" d="M674.43,643.77l-.36,4.6a5.13,5.13,0,0,0,4.71,5.51l3.26.26a5.14,5.14,0,0,0,4.48-2l5.69-7.51a5.13,5.13,0,0,0,.07-6.1l-3.21-4.43a5.13,5.13,0,0,0-6.17-1.71l-.43.19A13.31,13.31,0,0,0,674.43,643.77Z" transform="translate(-20.85 -20.85)"/><path class="cls-17" d="M695.53,766.27l-.36,4.6a5.13,5.13,0,0,0,4.72,5.51l3.25.25a5.13,5.13,0,0,0,4.49-2l5.68-7.51a5.12,5.12,0,0,0,.07-6.1l-3.2-4.43a5.14,5.14,0,0,0-6.17-1.71l-.43.19A13.34,13.34,0,0,0,695.53,766.27Z" transform="translate(-20.85 -20.85)"/><path class="cls-18" d="M740.56,705.59l-.36,4.6a5.12,5.12,0,0,0,4.72,5.51l3.25.26a5.16,5.16,0,0,0,4.49-2l5.68-7.51a5.12,5.12,0,0,0,.07-6.1l-3.2-4.43a5.13,5.13,0,0,0-6.17-1.7l-.43.18A13.34,13.34,0,0,0,740.56,705.59Z" transform="translate(-20.85 -20.85)"/><path class="cls-19" d="M794.55,511.77l1.76,4.27a5.12,5.12,0,0,0,6.69,2.79l3-1.24a5.14,5.14,0,0,0,3.09-3.83l1.69-9.26a5.13,5.13,0,0,0-2.69-5.48l-4.86-2.5a5.11,5.11,0,0,0-6.27,1.26l-.31.35A13.34,13.34,0,0,0,794.55,511.77Z" transform="translate(-20.85 -20.85)"/><path class="cls-20" d="M792.14,461.33l1.75,4.26a5.12,5.12,0,0,0,6.69,2.79l3-1.24a5.12,5.12,0,0,0,3.1-3.82l1.68-9.27a5.11,5.11,0,0,0-2.69-5.47l-4.86-2.51a5.12,5.12,0,0,0-6.27,1.26l-.3.36A13.31,13.31,0,0,0,792.14,461.33Z" transform="translate(-20.85 -20.85)"/><path class="cls-21" d="M691.26,460.69,693,465a5.12,5.12,0,0,0,6.69,2.79l3-1.24a5.13,5.13,0,0,0,3.09-3.82l1.69-9.27a5.15,5.15,0,0,0-2.69-5.48l-4.86-2.5a5.13,5.13,0,0,0-6.28,1.26l-.3.36A13.3,13.3,0,0,0,691.26,460.69Z" transform="translate(-20.85 -20.85)"/><path class="cls-22" d="M685.48,391.18l1.59,4.33a5.14,5.14,0,0,0,6.59,3.05l3.06-1.13a5.12,5.12,0,0,0,3.24-3.7l2-9.2a5.12,5.12,0,0,0-2.48-5.57l-4.76-2.69a5.13,5.13,0,0,0-6.32,1l-.31.35A13.3,13.3,0,0,0,685.48,391.18Z" transform="translate(-20.85 -20.85)"/><path class="cls-23" d="M590.34,414.45l1.59,4.33a5.12,5.12,0,0,0,6.58,3l3.06-1.12a5.13,5.13,0,0,0,3.24-3.7l2-9.2a5.12,5.12,0,0,0-2.48-5.57l-4.76-2.69a5.13,5.13,0,0,0-6.32,1l-.31.35A13.31,13.31,0,0,0,590.34,414.45Z" transform="translate(-20.85 -20.85)"/><path class="cls-24" d="M584.48,344.48l1.59,4.34a5.13,5.13,0,0,0,6.58,3l3.07-1.12A5.15,5.15,0,0,0,599,347l2-9.19a5.14,5.14,0,0,0-2.48-5.58l-4.76-2.69a5.14,5.14,0,0,0-6.32,1l-.31.35A13.3,13.3,0,0,0,584.48,344.48Z" transform="translate(-20.85 -20.85)"/><path class="cls-25" d="M670.89,328.88l2.79,3.67a5.13,5.13,0,0,0,7.19,1l2.59-2a5.12,5.12,0,0,0,2-4.49l-.76-9.39a5.12,5.12,0,0,0-4-4.59l-5.34-1.17a5.13,5.13,0,0,0-5.74,2.83l-.2.43A13.31,13.31,0,0,0,670.89,328.88Z" transform="translate(-20.85 -20.85)"/><path class="cls-26" d="M552.84,209.31l2.8,3.67a5.12,5.12,0,0,0,7.18,1l2.6-2a5.12,5.12,0,0,0,2-4.49l-.75-9.39a5.16,5.16,0,0,0-4-4.6l-5.34-1.16a5.1,5.1,0,0,0-5.73,2.83l-.2.42A13.33,13.33,0,0,0,552.84,209.31Z" transform="translate(-20.85 -20.85)"/><path class="cls-27" d="M603.84,203.46l2.8,3.67a5.13,5.13,0,0,0,7.18,1l2.6-2a5.13,5.13,0,0,0,2-4.49l-.76-9.39a5.13,5.13,0,0,0-4-4.6l-5.33-1.16a5.11,5.11,0,0,0-5.74,2.83l-.2.42A13.33,13.33,0,0,0,603.84,203.46Z" transform="translate(-20.85 -20.85)"/><path class="cls-28" d="M573.82,280.29l2.8,3.67a5.12,5.12,0,0,0,7.18,1l2.6-2a5.13,5.13,0,0,0,2-4.49l-.76-9.39a5.13,5.13,0,0,0-4-4.6l-5.33-1.16a5.11,5.11,0,0,0-5.74,2.83l-.2.42A13.33,13.33,0,0,0,573.82,280.29Z" transform="translate(-20.85 -20.85)"/><path class="cls-29" d="M645.06,264.12l2.79,3.67a5.13,5.13,0,0,0,7.19,1l2.6-2a5.12,5.12,0,0,0,2-4.49l-.76-9.39a5.13,5.13,0,0,0-4-4.6l-5.34-1.17a5.14,5.14,0,0,0-5.74,2.83l-.2.43A13.31,13.31,0,0,0,645.06,264.12Z" transform="translate(-20.85 -20.85)"/><path class="cls-30" d="M722.14,267.43l2.8,3.67a5.12,5.12,0,0,0,7.18,1l2.6-2a5.12,5.12,0,0,0,2-4.49l-.76-9.39a5.11,5.11,0,0,0-4-4.59l-5.33-1.17a5.12,5.12,0,0,0-5.74,2.83l-.2.42A13.35,13.35,0,0,0,722.14,267.43Z" transform="translate(-20.85 -20.85)"/><path class="cls-31" d="M759,328.09l3.36,3.16a5.14,5.14,0,0,0,7.25-.24l2.23-2.39a5.13,5.13,0,0,0,1.23-4.76l-2.32-9.13a5.11,5.11,0,0,0-4.72-3.86l-5.46-.26a5.13,5.13,0,0,0-5.19,3.75l-.12.45A13.28,13.28,0,0,0,759,328.09Z" transform="translate(-20.85 -20.85)"/><path class="cls-32" d="M783.14,394.4l3.37,3.15a5.12,5.12,0,0,0,7.25-.24l2.23-2.38a5.14,5.14,0,0,0,1.22-4.77L794.9,381a5.14,5.14,0,0,0-4.73-3.86l-5.46-.26a5.12,5.12,0,0,0-5.18,3.75l-.13.45A13.34,13.34,0,0,0,783.14,394.4Z" transform="translate(-20.85 -20.85)"/><path class="cls-33" d="M397.52,578.31l2.63,3.79a5.11,5.11,0,0,0,7.13,1.29l2.68-1.86a5.12,5.12,0,0,0,2.21-4.4l-.35-9.41A5.12,5.12,0,0,0,408,563l-5.28-1.4a5.12,5.12,0,0,0-5.86,2.57l-.22.42A13.31,13.31,0,0,0,397.52,578.31Z" transform="translate(-20.85 -20.85)"/><path class="cls-34" d="M199.26,410.92v4.61a5.13,5.13,0,0,0,5.12,5.13h3.27A5.12,5.12,0,0,0,212,418.3l5.09-7.93a5.13,5.13,0,0,0-.41-6.09l-3.54-4.16a5.12,5.12,0,0,0-6.28-1.23l-.41.22A13.32,13.32,0,0,0,199.26,410.92Z" transform="translate(-20.85 -20.85)"/><path class="cls-35" d="M220.12,342.22v4.62a5.13,5.13,0,0,0,5.12,5.13h3.27a5.11,5.11,0,0,0,4.31-2.36l5.09-7.93a5.13,5.13,0,0,0-.41-6.09L234,331.43a5.12,5.12,0,0,0-6.28-1.23l-.41.22A13.32,13.32,0,0,0,220.12,342.22Z" transform="translate(-20.85 -20.85)"/><path class="cls-36" d="M252.17,281.68v4.61a5.13,5.13,0,0,0,5.13,5.13h3.26a5.13,5.13,0,0,0,4.32-2.36l5.09-7.93a5.14,5.14,0,0,0-.41-6.09L266,270.88a5.12,5.12,0,0,0-6.28-1.23l-.42.22A13.34,13.34,0,0,0,252.17,281.68Z" transform="translate(-20.85 -20.85)"/><path class="cls-37" d="M333.08,275.06v4.61a5.12,5.12,0,0,0,5.12,5.13h3.27a5.12,5.12,0,0,0,4.31-2.36l5.09-7.93a5.13,5.13,0,0,0-.41-6.09l-3.54-4.16a5.13,5.13,0,0,0-6.28-1.22l-.41.22A13.29,13.29,0,0,0,333.08,275.06Z" transform="translate(-20.85 -20.85)"/><path class="cls-38" d="M370.22,214.51v4.61a5.12,5.12,0,0,0,5.13,5.13h3.26a5.14,5.14,0,0,0,4.32-2.36L388,214a5.11,5.11,0,0,0-.41-6.09l-3.53-4.16a5.14,5.14,0,0,0-6.29-1.22l-.41.22A13.29,13.29,0,0,0,370.22,214.51Z" transform="translate(-20.85 -20.85)"/></g></svg>