<svg xmlns="http://www.w3.org/2000/svg" xmlns:xlink="http://www.w3.org/1999/xlink" viewBox="0 0 954.97 954.97"><defs><style>.cls-1{fill:none;stroke-linecap:round;stroke-miterlimit:10;stroke-width:18px;stroke:url(#linear-gradient);}.cls-2{fill:url(#linear-gradient-2);}.cls-3{fill:#fff;}.cls-4{fill:url(#linear-gradient-3);}</style><linearGradient id="linear-gradient" x1="238.7" y1="63.9" x2="716.26" y2="891.06" gradientUnits="userSpaceOnUse"><stop offset="0" stop-color="#ed2024"/><stop offset="0.12" stop-color="#f26164"/><stop offset="0.25" stop-color="#f8a4a6"/><stop offset="0.36" stop-color="#fcd5d6"/><stop offset="0.45" stop-color="#fef4f4"/><stop offset="0.49" stop-color="#fff"/><stop offset="0.56" stop-color="#fffbfb"/><stop offset="0.63" stop-color="#feefef"/><stop offset="0.69" stop-color="#fcdbdb"/><stop offset="0.76" stop-color="#fabebf"/><stop offset="0.82" stop-color="#f79a9b"/><stop offset="0.89" stop-color="#f36d6f"/><stop offset="0.96" stop-color="#ef393c"/><stop offset="0.98" stop-color="#ed2024"/></linearGradient><linearGradient id="linear-gradient-2" x1="603.95" y1="406.88" x2="444.39" y2="314.76" xlink:href="#linear-gradient"/><linearGradient id="linear-gradient-3" x1="79.75" y1="487.97" x2="859.08" y2="487.97" xlink:href="#linear-gradient"/></defs><title>electric bull</title><g id="Layer_79" data-name="Layer 79"><circle class="cls-1" cx="477.48" cy="477.48" r="468.48"/><path class="cls-2" d="M539.23,239.51c4.69.29,6.67,4.71,10.32,6.31,4.16,1.82,6.3,5.62,9.19,8.71a12.29,12.29,0,0,1,3.19,9.74c-.42,5.65.37,6.84,6.17,6,3.58-.53,7.31.73,10.76-1.06a1.33,1.33,0,0,1,2,.85c.29,1.19-.39,1.48-1.45,2-2.65,1.35-6.8,2.07-3.2,6.84,2.13,2.82-1.55,3-2.62,2.92-3.48-.2-4.88,1.4-5,4.85,6-1.88,11.42.32,16.81,2.95,1.1.54,2.62.16,3.91.41,2.51.49,5.8,1.71,5.32,4.08-.38,1.89-.47,5.14-4.37,6.13-7.21,1.82-8.28,6.36-2.9,11.18,6.26,5.62,8.53,12.51,8.74,20.6.24,9.58,5.21,17.22,10.24,25,4.94,7.62,11.49,14.84,10.69,25-.35,4.45-3,7.63-6.56,10-2,1.28-3.54,3.12-5.39,4.48-6.91,5.1-11.76.54-17-2.11-3.68-1.86-6.85-4.66-10.42-6.82a8.06,8.06,0,0,0-4.24-1.59c-7.43-.11-14.53-.11-21.87-3.41-4.13-1.85-8.32-3.2-11.68-6.84-2.39,4.81-1.66,9.56-1.72,14-.25,18.17-.33,36.34,0,54.5.14,7.3,1,14.59.89,21.92-.1,6.9-4.24,10.19-11.11,8.69-5.4-1.18-6.57-.42-7.91,5-.55,2.2-1.2,4.38-1.84,6.56a7.79,7.79,0,0,1-.74,1.39q-21.52-58.11-42.85-115.71-11.55-31.17-23.17-62.3a23.18,23.18,0,0,1-1.26-3.71c-.23-1.26-.09-1.93,1.85-1.71,8.86,1,17.88.85,26.64,2,7.54,1,14.15-1.14,21.15-2.24,1.9-.29,3.6-1.1,3.84-2.56.27-1.68-1.56-3.17-3.1-3.56-6.48-1.65-11.47-6.31-17.92-8.26-5.07-1.52-7.2-6.92-8.53-11.92-2.05-7.65,2.81-14,4.28-21.06.21-1,2.26-2.2,3.11-1.24s3.2,1.57,2.45,3.75C481,267.63,489,272.31,496,274.19c8.56,2.29,17.46,2.58,26,5.4,3.31,1.1,7.78,1.92,11.67-1.16a13.92,13.92,0,0,1,7.13-2.84c5.94-.57,9-4.26,10-10,1-5.53,1.19-10.84-2.82-15.39-2-2.24-4.79-3.52-6.69-6C540.17,242.73,538.82,241.72,539.23,239.51Z" transform="translate(-22.52 -22.52)"/><path class="cls-3" d="M151.7,623.66c1.79,1.63,1.22,2.89.83,4.53C150.48,627,150.89,625.61,151.7,623.66Z" transform="translate(-22.52 -22.52)"/><path class="cls-3" d="M571.54,342.5c-8,2.92-15.14-2.48-14.64-10.87a3.44,3.44,0,0,1,2.76-3.47c2.22-.7,2.37,1,2.43,2.57,0,.31.1.77.32.9C566.67,334.24,568.79,338.63,571.54,342.5Z" transform="translate(-22.52 -22.52)"/><polygon class="cls-4" points="79.75 646.65 396.7 332.33 472.04 517.06 677.25 379.44 799.34 299.93 859.08 427.08 746.95 495.35 426.25 676 350.07 465.74 79.75 646.65"/></g></svg>