<svg xmlns="http://www.w3.org/2000/svg" xmlns:xlink="http://www.w3.org/1999/xlink" viewBox="0 0 954.97 954.97"><defs><style>.cls-1,.cls-10,.cls-11,.cls-12,.cls-14,.cls-2,.cls-4,.cls-6,.cls-7,.cls-8{fill:none;stroke-linecap:round;}.cls-1,.cls-10,.cls-11,.cls-12,.cls-14,.cls-2,.cls-4,.cls-7,.cls-8{stroke-linejoin:round;stroke-width:5px;}.cls-1{stroke:url(#linear-gradient);}.cls-2{stroke:url(#linear-gradient-2);}.cls-3{fill:url(#linear-gradient-3);}.cls-4{stroke:url(#linear-gradient-4);}.cls-5{fill:url(#linear-gradient-5);}.cls-6{stroke-miterlimit:10;stroke-width:18px;stroke:url(#linear-gradient-6);}.cls-7{stroke:url(#linear-gradient-7);}.cls-8{stroke:url(#linear-gradient-8);}.cls-9{fill:url(#linear-gradient-9);}.cls-10{stroke:url(#linear-gradient-10);}.cls-11{stroke:url(#linear-gradient-11);}.cls-12{stroke:url(#linear-gradient-12);}.cls-13{fill:url(#linear-gradient-13);}.cls-14{stroke:url(#linear-gradient-14);}</style><linearGradient id="linear-gradient" x1="260.05" y1="393.15" x2="368.58" y2="393.15" gradientUnits="userSpaceOnUse"><stop offset="0" stop-color="#ed2024"/><stop offset="0.12" stop-color="#f26164"/><stop offset="0.25" stop-color="#f8a4a6"/><stop offset="0.36" stop-color="#fcd5d6"/><stop offset="0.45" stop-color="#fef4f4"/><stop offset="0.49" stop-color="#fff"/><stop offset="0.56" stop-color="#fffbfb"/><stop offset="0.63" stop-color="#feefef"/><stop offset="0.69" stop-color="#fcdbdb"/><stop offset="0.76" stop-color="#fabebf"/><stop offset="0.82" stop-color="#f79a9b"/><stop offset="0.89" stop-color="#f36d6f"/><stop offset="0.96" stop-color="#ef393c"/><stop offset="0.98" stop-color="#ed2024"/></linearGradient><linearGradient id="linear-gradient-2" x1="221.71" y1="272.41" x2="322.42" y2="272.41" xlink:href="#linear-gradient"/><linearGradient id="linear-gradient-3" x1="226.36" y1="271.5" x2="367.71" y2="271.5" gradientTransform="translate(-22.52 -191.2) scale(1 1.38)" xlink:href="#linear-gradient"/><linearGradient id="linear-gradient-4" x1="219.89" y1="338.37" x2="368.58" y2="338.37" xlink:href="#linear-gradient"/><linearGradient id="linear-gradient-5" x1="652.81" y1="528.64" x2="854.89" y2="326.55" xlink:href="#linear-gradient"/><linearGradient id="linear-gradient-6" x1="238.7" y1="63.9" x2="716.26" y2="891.06" xlink:href="#linear-gradient"/><linearGradient id="linear-gradient-7" x1="259.78" y1="686.58" x2="397.5" y2="686.58" xlink:href="#linear-gradient"/><linearGradient id="linear-gradient-8" x1="210.64" y1="531.81" x2="338.33" y2="531.81" xlink:href="#linear-gradient"/><linearGradient id="linear-gradient-9" x1="215.9" y1="445.73" x2="397.09" y2="445.73" gradientTransform="translate(-22.52 -191.2) scale(1 1.38)" xlink:href="#linear-gradient"/><linearGradient id="linear-gradient-10" x1="208.3" y1="616.36" x2="397.5" y2="616.36" xlink:href="#linear-gradient"/><linearGradient id="linear-gradient-11" x1="433.05" y1="553.15" x2="541.58" y2="553.15" xlink:href="#linear-gradient"/><linearGradient id="linear-gradient-12" x1="394.71" y1="432.41" x2="495.42" y2="432.41" xlink:href="#linear-gradient"/><linearGradient id="linear-gradient-13" x1="399.36" y1="387.24" x2="540.71" y2="387.24" gradientTransform="translate(-22.52 -191.2) scale(1 1.38)" xlink:href="#linear-gradient"/><linearGradient id="linear-gradient-14" x1="392.89" y1="498.37" x2="541.58" y2="498.37" xlink:href="#linear-gradient"/></defs><title>hit the can</title><g id="Layer_80" data-name="Layer 80"><path class="cls-1" d="M365.82,328.09l-67.81,7L262.55,456.69s57.37,8.12,103.53-13.17C366.08,443.52,365.82,328.87,365.82,328.09Z" transform="translate(-22.52 -22.52)"/><path class="cls-2" d="M319.92,226.9,289.8,327.05H224.21V217.78S274.49,232.38,319.92,226.9Z" transform="translate(-22.52 -22.52)"/><ellipse class="cls-3" cx="274.52" cy="184.11" rx="70.68" ry="9.98"/><path class="cls-4" d="M225.25,217.78s55.55,22.46,140.83,0V443.52S305.32,475,222.39,448.09C222.39,448.09,224.15,216.7,225.25,217.78Z" transform="translate(-22.52 -22.52)"/><path class="cls-5" d="M642.77,464.47c-1.72-1.83-4-1.07-6.54-.2-9.82,3.41-19.69,6.68-29.52,10.05-3.85,1.31-7.43,1.2-10.23-2.05-3.91-4.56-2.1-10.95,3.86-13.24,5.47-2.1,11.09-3.82,16.64-5.7,3.28-1.12,6.52-2.4,9.86-3.29,4.89-1.31,8.82-3.12,10.83-8.56,1.65-4.44,6.4-6.05,10.75-7.53q64.4-21.78,128.8-43.53c2.92-1,4.45-2.32,5.33-5.46,2.4-8.57,5.41-17,8.11-25.45a7.13,7.13,0,0,1,5-4.7q30.5-10.32,61-20.63c2.18-.73,4.49-1.31,6.39.53s2.1,4.35,1.25,7c-4.2,13-8.25,26.11-12.52,39.11-.7,2.14-.14,3,1.58,4.11,11.16,7.46,22.22,15.07,33.32,22.64,2.08,1.42,3.55,3.17,3.21,5.93s-2.34,3.71-4.54,4.45q-30.68,10.43-61.35,20.8a7.51,7.51,0,0,1-7.44-1.23c-7.52-5.48-15.31-10.58-22.86-16-2-1.41-3.49-.57-5.2,0q-64.95,22-129.91,44C653.34,467.27,648.23,467.9,642.77,464.47Z" transform="translate(-22.52 -22.52)"/><circle class="cls-6" cx="477.48" cy="477.48" r="468.48"/><path class="cls-7" d="M394.66,603.18l-86.91,9L262.28,768S335.83,778.44,395,751.15C395,751.15,394.66,604.18,394.66,603.18Z" transform="translate(-22.52 -22.52)"/><path class="cls-8" d="M335.83,473.47,297.22,601.84H213.14V461.78S277.59,480.49,335.83,473.47Z" transform="translate(-22.52 -22.52)"/><ellipse class="cls-9" cx="283.98" cy="424.96" rx="90.6" ry="12.79"/><path class="cls-10" d="M214.48,461.78s71.2,28.79,180.52,0V751.15S317.11,791.49,210.8,757C210.8,757,213.06,460.39,214.48,461.78Z" transform="translate(-22.52 -22.52)"/><path class="cls-11" d="M538.82,488.09l-67.81,7L435.55,616.69s57.37,8.12,103.53-13.17C539.08,603.52,538.82,488.87,538.82,488.09Z" transform="translate(-22.52 -22.52)"/><path class="cls-12" d="M492.92,386.9,462.8,487.05H397.21V377.78S447.49,392.38,492.92,386.9Z" transform="translate(-22.52 -22.52)"/><ellipse class="cls-13" cx="447.52" cy="344.11" rx="70.68" ry="9.98"/><path class="cls-14" d="M398.25,377.78s55.55,22.46,140.83,0V603.52S478.32,635,395.39,608.09C395.39,608.09,397.15,376.7,398.25,377.78Z" transform="translate(-22.52 -22.52)"/></g></svg>