<svg xmlns="http://www.w3.org/2000/svg" xmlns:xlink="http://www.w3.org/1999/xlink" viewBox="0 0 954.97 954.97"><defs><style>.cls-1{fill:none;stroke-linecap:round;stroke-width:18px;stroke:url(#linear-gradient);}.cls-1,.cls-4,.cls-7{stroke-miterlimit:10;}.cls-2{fill:url(#linear-gradient-2);}.cls-3{fill:url(#linear-gradient-3);}.cls-4{fill:url(#linear-gradient-4);stroke:url(#linear-gradient-5);}.cls-5{fill:url(#linear-gradient-6);}.cls-6{fill:url(#linear-gradient-7);}.cls-7{fill:url(#linear-gradient-8);stroke:url(#linear-gradient-9);}</style><linearGradient id="linear-gradient" x1="238.7" y1="63.9" x2="716.26" y2="891.06" gradientUnits="userSpaceOnUse"><stop offset="0" stop-color="#ed2024"/><stop offset="0.12" stop-color="#f26164"/><stop offset="0.25" stop-color="#f8a4a6"/><stop offset="0.36" stop-color="#fcd5d6"/><stop offset="0.45" stop-color="#fef4f4"/><stop offset="0.49" stop-color="#fff"/><stop offset="0.56" stop-color="#fffbfb"/><stop offset="0.63" stop-color="#feefef"/><stop offset="0.69" stop-color="#fcdbdb"/><stop offset="0.76" stop-color="#fabebf"/><stop offset="0.82" stop-color="#f79a9b"/><stop offset="0.89" stop-color="#f36d6f"/><stop offset="0.96" stop-color="#ef393c"/><stop offset="0.98" stop-color="#ed2024"/></linearGradient><linearGradient id="linear-gradient-2" x1="199.93" y1="282.98" x2="653.07" y2="282.98" xlink:href="#linear-gradient"/><linearGradient id="linear-gradient-3" x1="403.7" y1="433.74" x2="800.07" y2="433.74" xlink:href="#linear-gradient"/><linearGradient id="linear-gradient-4" x1="609.06" y1="778.53" x2="701.31" y2="778.53" xlink:href="#linear-gradient"/><linearGradient id="linear-gradient-5" x1="609.06" y1="778.53" x2="701.81" y2="778.53" xlink:href="#linear-gradient"/><linearGradient id="linear-gradient-6" x1="462.06" y1="757.53" x2="541.63" y2="757.53" xlink:href="#linear-gradient"/><linearGradient id="linear-gradient-7" x1="343.8" y1="711.8" x2="421" y2="711.8" xlink:href="#linear-gradient"/><linearGradient id="linear-gradient-8" x1="499.73" y1="625.31" x2="573.05" y2="625.31" xlink:href="#linear-gradient"/><linearGradient id="linear-gradient-9" x1="499.73" y1="625.31" x2="573.54" y2="625.31" xlink:href="#linear-gradient"/></defs><title>paintball</title><g id="paint_ball" data-name="paint ball"><circle class="cls-1" cx="477.48" cy="477.48" r="468.48"/><path class="cls-2" d="M237.33,274.88c17.68-.14,34.52,4.69,51.49,8.71,13.43,3.17,26.84,6.48,40.74,6.87,7,.19,14.1,0,20.43-3.41,12.87-7,14.83-14.78,9.64-26.73-3.34-7.66-9.73-12.45-16.9-16.34-8.79-4.77-18.31-7.8-27.43-11.75a78.87,78.87,0,0,1-13.68-7.1C289.8,217,286,206.79,289.2,191.57A31.68,31.68,0,0,1,314,167.09c16.07-3.12,29.44,3.21,37.65,17.86,5.43,9.7,7.52,20.53,10.39,31.08,2.42,8.87,5.35,17.46,11,24.91,12.88,17.11,34.57,17.72,48.23,1.19,9.86-11.94,11.06-25.61,7.31-40-2.6-10-7.32-19.19-12.06-28.35-6.92-13.39-15-26.27-18.75-41.13-6.08-24.08,8.94-47.07,33.95-51.86,22.94-4.4,46.36,12.8,49.52,36.16,1.87,13.79-2.38,26.28-7.58,38.62-4.83,11.46-10.74,22.48-14,34.58-2.89,10.82-3.49,21.65-.17,32.49,5.76,18.87,22.4,30.69,43.94,31.42,14.66.49,28.18-3.82,41.45-9.36,15.6-6.52,30.47-14.85,47-18.94,14.64-3.62,29.09-3.83,42.66,3.69,23.2,12.87,24.84,39.87,3.59,55.71-13.14,9.8-28.06,11.42-43.69,9.55-18.77-2.24-36.22-9.67-54.45-14-17.93-4.3-36-6.8-54.34-2.57-30.51,7-44.8,38.58-30,66.17,7,13,17.68,22.8,28.72,32.26,11.51,9.85,23.75,18.82,34.81,29.22,2.8,2.64,2.7,4.52.75,7.45-7.78,11.69-19.41,17.43-32.39,20.79-10.11,2.62-20.46,4.33-30.64,6.75-3.07.73-2.83-1.05-3.18-2.82-2.5-12.72-3.57-25.69-6.71-38.29-2.1-8.44-5.06-16.52-9.92-23.79-15.47-23.15-42.27-25.44-61.59-5.35-11.17,11.61-16,26.17-19.54,41.37-3.21,13.73-5,27.81-9.93,41.13-4,10.85-9.92,20.37-19.84,26.77s-20.48,9-31.31,2c-9.38-6.06-13.8-18.72-11.36-31,2.19-11,7.86-20,15.45-28C309.15,412.14,321.44,404,332.16,394c10.18-9.52,17.91-20.47,21-34.34,7.14-32.3-18.22-48.24-42.24-46-14.74,1.35-28.4,6.68-42.36,11-13.43,4.11-27,7.52-41.16,4.59a36.64,36.64,0,0,1-20.14-11.19c-6.72-7.34-9.09-15.82-5.92-25.38,3.12-9.4,10.12-14.47,19.61-16.45A78.38,78.38,0,0,1,237.33,274.88Z" transform="translate(-22.52 -22.52)"/><path class="cls-3" d="M732.25,444.06c10,.05,23.15-.55,36.19,2,20.77,4,31.37,16.17,31.62,36.66.26,20.74-11,35.11-31,39.34-15.66,3.31-30.29,0-44.57-6.56-12.67-5.79-24.88-12.65-38.22-16.93-11.64-3.73-23.38-4.74-35.39-1.68-23.46,6-34.51,23.65-29.47,47.42,2.14,10.07,5.73,19.8,7.15,30a35.94,35.94,0,0,1-3.54,22.29c-.84,1.59-1.7,2.52-3.66,2.73-6,.64-11.87,1.59-17.81,2.34-3.55.45-5-2.37-6.33-4.73-3.38-5.88-4.18-12.54-5.2-19.11-2.36-15.2-1.47-30.61-3-45.85-2-19.55-5.88-38.57-18-54.69-10.35-13.77-23.92-22.17-41.75-21.2-12.69.69-22.47,7.48-30.79,16.62-8.89,9.77-15.58,21.17-23.54,31.63-5.76,7.57-12.56,13.73-21.54,17.21-8.6,3.32-17.4,4.51-26.4,2.06-11.36-3.09-19-10.32-21.84-21.76-3.31-13.22-1.46-25.52,8.68-35.54,8.93-8.83,20.18-13.37,32.08-16.22,13.89-3.33,28-5.82,41.85-9.18,10.91-2.65,21.14-7.07,29.55-14.82,15.86-14.6,19.08-34.8,9.18-56.71-5.88-13-15-23.85-23.61-35.07-6.14-8-10.32-17.46-10.67-27.86s9-17.24,19.1-13.61c13.64,4.9,25.17,12.83,32.67,25.64,3.86,6.59,7.4,13.37,11.07,20.08a69.1,69.1,0,0,0,9.67,13.89c14.39,15.49,34.35,17.1,51.09,4.1,9.77-7.58,16-17.65,20.25-29.09,3.72-10.12,7.1-20.37,11-30.43a59,59,0,0,1,13.67-21.24,34.35,34.35,0,0,1,17.72-9.62c15-2.84,26.7,7.15,27.54,23.21.62,12.14-4.14,22.37-11.35,31.67-5.43,7-12,13-18.49,18.92-6.89,6.3-13.85,12.52-19.64,19.9-19.24,24.48-15.27,52.63,10,70.79A68.83,68.83,0,0,0,706.1,444C713.77,444.18,721.43,444.06,732.25,444.06Z" transform="translate(-22.52 -22.52)"/><path class="cls-4" d="M702.13,774c-.16,52.58-33.32,89.89-79.22,95.18-34.5,4-63.46-7.61-85.35-34.4-25.58-31.3-26.78-66.16-12.06-102.55.94-2.3,2.18-4.49,3-6.82,6.65-18.7,22.12-26.85,39.33-32.76,39.86-13.71,86.77-1.33,113.27,29.85C695.37,739.29,702,758.89,702.13,774Z" transform="translate(-22.52 -22.52)"/><path class="cls-5" d="M481.34,673.65c14.43.12,35.35,7.05,53.4,22,.86.72,4.11,1.17,1,3.57-14.34,11.18-24.79,25.32-30.54,42.57-10,30.08-5.41,58.63,10,85.79,1.35,2.36,2.25,3.62-1.16,5.25-48.84,23.38-108.5-3.06-123.38-54.91-6-20.91-4.15-41.78,1.66-62.34,1.09-3.86,4.85-7.07,7.68-10.32C417.6,685.09,443.92,673.64,481.34,673.65Z" transform="translate(-22.52 -22.52)"/><path class="cls-6" d="M275.8,710c.26-42.2,31.45-77.17,73.62-82.77a84.6,84.6,0,0,1,53.1,9.93c2.25,1.24,3.22,2.53,2.91,5.25-1.52,13.24.77,26,5.78,38.22,1,2.52.85,3.85-1.5,5.41-24.68,16.4-30.93,41.15-30.56,68.66.18,13.33,3.63,26,9.11,38.18.76,1.7,2.28,3.46-1.44,3.78-41.12,3.61-74.62-10-98.56-44.28C279.48,739.8,275.65,725.37,275.8,710Z" transform="translate(-22.52 -22.52)"/><path class="cls-7" d="M417.52,641.25c.5-37.68,29.83-71.78,68.1-78C525.09,556.81,561.9,578.62,576,617a91.67,91.67,0,0,1,1.38,61.15c-.81,2.52-1.91,3.74-4.57,4.36a70.87,70.87,0,0,0-15.46,5.45c-2,1-3.37.68-5.16-.86-35.45-30.54-82.93-36.11-124.68-14.61-2.82,1.46-3.62,1.19-4.73-1.75A82.7,82.7,0,0,1,417.52,641.25Z" transform="translate(-22.52 -22.52)"/></g></svg>