<svg xmlns="http://www.w3.org/2000/svg" xmlns:xlink="http://www.w3.org/1999/xlink" viewBox="0 0 971.11 971.11"><defs><style>.cls-1,.cls-10,.cls-12,.cls-13,.cls-14,.cls-16,.cls-17,.cls-19,.cls-2,.cls-20,.cls-22,.cls-23,.cls-24,.cls-26,.cls-27,.cls-28,.cls-30,.cls-31,.cls-32,.cls-34,.cls-35,.cls-36,.cls-38,.cls-4,.cls-5,.cls-6,.cls-8,.cls-9{fill:none;}.cls-1,.cls-10,.cls-12,.cls-13,.cls-14,.cls-16,.cls-19,.cls-2,.cls-20,.cls-22,.cls-23,.cls-24,.cls-26,.cls-27,.cls-28,.cls-30,.cls-31,.cls-32,.cls-34,.cls-35,.cls-36,.cls-38,.cls-4,.cls-5,.cls-6,.cls-8,.cls-9{stroke-linecap:round;stroke-linejoin:round;stroke-width:5px;}.cls-1{stroke:url(#linear-gradient);}.cls-2{stroke:url(#linear-gradient-2);}.cls-3{fill:url(#linear-gradient-3);}.cls-4{stroke:url(#linear-gradient-4);}.cls-5{stroke:url(#linear-gradient-5);}.cls-6{stroke:url(#linear-gradient-6);}.cls-7{fill:url(#linear-gradient-7);}.cls-8{stroke:url(#linear-gradient-8);}.cls-9{stroke:url(#linear-gradient-9);}.cls-10{stroke:url(#linear-gradient-10);}.cls-11{fill:url(#linear-gradient-11);}.cls-12{stroke:url(#linear-gradient-12);}.cls-13{stroke:url(#linear-gradient-13);}.cls-14{stroke:url(#linear-gradient-14);}.cls-15{fill:url(#linear-gradient-15);}.cls-16{stroke:url(#linear-gradient-16);}.cls-17{stroke-miterlimit:10;stroke-width:20px;stroke:url(#linear-gradient-17);}.cls-18{fill:url(#linear-gradient-19);}.cls-19{stroke:url(#linear-gradient-20);}.cls-20{stroke:url(#linear-gradient-21);}.cls-21{fill:url(#linear-gradient-22);}.cls-22{stroke:url(#linear-gradient-23);}.cls-23{stroke:url(#linear-gradient-24);}.cls-24{stroke:url(#linear-gradient-25);}.cls-25{fill:url(#linear-gradient-26);}.cls-26{stroke:url(#linear-gradient-27);}.cls-27{stroke:url(#linear-gradient-28);}.cls-28{stroke:url(#linear-gradient-29);}.cls-29{fill:url(#linear-gradient-30);}.cls-30{stroke:url(#linear-gradient-31);}.cls-31{stroke:url(#linear-gradient-32);}.cls-32{stroke:url(#linear-gradient-33);}.cls-33{fill:url(#linear-gradient-34);}.cls-34{stroke:url(#linear-gradient-35);}.cls-35{stroke:url(#linear-gradient-36);}.cls-36{stroke:url(#linear-gradient-37);}.cls-37{fill:url(#linear-gradient-38);}.cls-38{stroke:url(#linear-gradient-39);}</style><linearGradient id="linear-gradient" x1="252.89" y1="386.85" x2="338.16" y2="386.85" gradientUnits="userSpaceOnUse"><stop offset="0" stop-color="#ed2024"/><stop offset="0.12" stop-color="#f26164"/><stop offset="0.25" stop-color="#f8a4a6"/><stop offset="0.36" stop-color="#fcd5d6"/><stop offset="0.45" stop-color="#fef4f4"/><stop offset="0.49" stop-color="#fff"/><stop offset="0.56" stop-color="#fffbfb"/><stop offset="0.63" stop-color="#feefef"/><stop offset="0.69" stop-color="#fcdbdb"/><stop offset="0.76" stop-color="#fabebf"/><stop offset="0.82" stop-color="#f79a9b"/><stop offset="0.89" stop-color="#f36d6f"/><stop offset="0.96" stop-color="#ef393c"/><stop offset="0.98" stop-color="#ed2024"/></linearGradient><linearGradient id="linear-gradient-2" x1="223.17" y1="293.25" x2="302.37" y2="293.25" xlink:href="#linear-gradient"/><linearGradient id="linear-gradient-3" x1="227.34" y1="297.27" x2="336.92" y2="297.27" gradientTransform="translate(-14.45 -183.13) scale(1 1.38)" xlink:href="#linear-gradient"/><linearGradient id="linear-gradient-4" x1="221.76" y1="344.39" x2="338.16" y2="344.39" xlink:href="#linear-gradient"/><linearGradient id="linear-gradient-5" x1="394.82" y1="394.13" x2="480.08" y2="394.13" xlink:href="#linear-gradient"/><linearGradient id="linear-gradient-6" x1="365.1" y1="300.53" x2="444.3" y2="300.53" xlink:href="#linear-gradient"/><linearGradient id="linear-gradient-7" x1="369.27" y1="302.54" x2="478.85" y2="302.54" gradientTransform="translate(-14.45 -183.13) scale(1 1.38)" xlink:href="#linear-gradient"/><linearGradient id="linear-gradient-8" x1="363.69" y1="351.67" x2="480.08" y2="351.67" xlink:href="#linear-gradient"/><linearGradient id="linear-gradient-9" x1="542.81" y1="386.85" x2="628.08" y2="386.85" xlink:href="#linear-gradient"/><linearGradient id="linear-gradient-10" x1="513.09" y1="293.25" x2="592.29" y2="293.25" xlink:href="#linear-gradient"/><linearGradient id="linear-gradient-11" x1="517.26" y1="297.27" x2="626.84" y2="297.27" gradientTransform="translate(-14.45 -183.13) scale(1 1.38)" xlink:href="#linear-gradient"/><linearGradient id="linear-gradient-12" x1="511.68" y1="344.39" x2="628.08" y2="344.39" xlink:href="#linear-gradient"/><linearGradient id="linear-gradient-13" x1="684.74" y1="394.13" x2="770" y2="394.13" xlink:href="#linear-gradient"/><linearGradient id="linear-gradient-14" x1="655.02" y1="300.53" x2="734.22" y2="300.53" xlink:href="#linear-gradient"/><linearGradient id="linear-gradient-15" x1="659.19" y1="302.54" x2="768.77" y2="302.54" gradientTransform="translate(-14.45 -183.13) scale(1 1.38)" xlink:href="#linear-gradient"/><linearGradient id="linear-gradient-16" x1="653.6" y1="351.67" x2="770" y2="351.67" xlink:href="#linear-gradient"/><linearGradient id="linear-gradient-17" x1="0" y1="485.55" x2="971.11" y2="485.55" xlink:href="#linear-gradient"/><linearGradient id="linear-gradient-19" x1="428.08" y1="746.76" x2="560.91" y2="746.76" xlink:href="#linear-gradient"/><linearGradient id="linear-gradient-20" x1="444.56" y1="486.32" x2="529.82" y2="486.32" xlink:href="#linear-gradient"/><linearGradient id="linear-gradient-21" x1="414.84" y1="392.72" x2="494.03" y2="392.72" xlink:href="#linear-gradient"/><linearGradient id="linear-gradient-22" x1="419" y1="369.23" x2="528.58" y2="369.23" gradientTransform="translate(-14.45 -183.13) scale(1 1.38)" xlink:href="#linear-gradient"/><linearGradient id="linear-gradient-23" x1="413.42" y1="443.86" x2="529.82" y2="443.86" xlink:href="#linear-gradient"/><linearGradient id="linear-gradient-24" x1="315.57" y1="486.32" x2="400.83" y2="486.32" xlink:href="#linear-gradient"/><linearGradient id="linear-gradient-25" x1="285.85" y1="392.72" x2="365.05" y2="392.72" xlink:href="#linear-gradient"/><linearGradient id="linear-gradient-26" x1="290.02" y1="369.23" x2="399.6" y2="369.23" gradientTransform="translate(-14.45 -183.13) scale(1 1.38)" xlink:href="#linear-gradient"/><linearGradient id="linear-gradient-27" x1="284.43" y1="443.86" x2="400.83" y2="443.86" xlink:href="#linear-gradient"/><linearGradient id="linear-gradient-28" x1="586.48" y1="493.6" x2="671.75" y2="493.6" xlink:href="#linear-gradient"/><linearGradient id="linear-gradient-29" x1="556.76" y1="400" x2="635.96" y2="400" xlink:href="#linear-gradient"/><linearGradient id="linear-gradient-30" x1="560.93" y1="374.49" x2="670.51" y2="374.49" gradientTransform="translate(-14.45 -183.13) scale(1 1.38)" xlink:href="#linear-gradient"/><linearGradient id="linear-gradient-31" x1="555.35" y1="451.14" x2="671.75" y2="451.14" xlink:href="#linear-gradient"/><linearGradient id="linear-gradient-32" x1="528.26" y1="567.6" x2="613.52" y2="567.6" xlink:href="#linear-gradient"/><linearGradient id="linear-gradient-33" x1="498.54" y1="474" x2="577.73" y2="474" xlink:href="#linear-gradient"/><linearGradient id="linear-gradient-34" x1="502.7" y1="428.02" x2="612.28" y2="428.02" gradientTransform="translate(-14.45 -183.13) scale(1 1.38)" xlink:href="#linear-gradient"/><linearGradient id="linear-gradient-35" x1="497.12" y1="525.13" x2="613.52" y2="525.13" xlink:href="#linear-gradient"/><linearGradient id="linear-gradient-36" x1="397.25" y1="567.6" x2="482.51" y2="567.6" xlink:href="#linear-gradient"/><linearGradient id="linear-gradient-37" x1="367.53" y1="474" x2="446.73" y2="474" xlink:href="#linear-gradient"/><linearGradient id="linear-gradient-38" x1="371.69" y1="428.02" x2="481.27" y2="428.02" gradientTransform="translate(-14.45 -183.13) scale(1 1.38)" xlink:href="#linear-gradient"/><linearGradient id="linear-gradient-39" x1="366.11" y1="525.13" x2="482.51" y2="525.13" xlink:href="#linear-gradient"/></defs><title>redbullpong</title><g id="rredbull_pong" data-name="rredbull pong"><path class="cls-1" d="M335.46,336.42l-52.57,5.45-27.5,94.24s44.48,6.3,80.27-10.21C335.66,425.9,335.46,337,335.46,336.42Z" transform="translate(-14.45 -14.45)"/><path class="cls-2" d="M299.87,258l-23.34,77.64H225.67V250.9S264.65,262.22,299.87,258Z" transform="translate(-14.45 -14.45)"/><ellipse class="cls-3" cx="267.69" cy="227.81" rx="54.79" ry="7.73"/><path class="cls-4" d="M226.48,250.9s43.07,17.41,109.18,0v175s-47.11,24.4-111.4,3.55C224.26,429.45,225.62,250.06,226.48,250.9Z" transform="translate(-14.45 -14.45)"/><path class="cls-5" d="M477.38,343.69l-52.56,5.46-27.5,94.24s44.48,6.3,80.26-10.21C477.58,433.18,477.38,344.3,477.38,343.69Z" transform="translate(-14.45 -14.45)"/><path class="cls-6" d="M441.8,265.25l-23.35,77.64H367.6V258.18S406.58,269.5,441.8,265.25Z" transform="translate(-14.45 -14.45)"/><ellipse class="cls-7" cx="409.61" cy="235.08" rx="54.79" ry="7.73"/><path class="cls-8" d="M368.41,258.18s43.06,17.41,109.17,0v175s-47.1,24.4-111.39,3.54C366.19,436.72,367.55,257.34,368.41,258.18Z" transform="translate(-14.45 -14.45)"/><path class="cls-9" d="M625.37,336.42l-52.56,5.45-27.5,94.24s44.48,6.3,80.27-10.21C625.58,425.9,625.37,337,625.37,336.42Z" transform="translate(-14.45 -14.45)"/><path class="cls-10" d="M589.79,258l-23.35,77.64H515.59V250.9S554.57,262.22,589.79,258Z" transform="translate(-14.45 -14.45)"/><ellipse class="cls-11" cx="557.6" cy="227.81" rx="54.79" ry="7.73"/><path class="cls-12" d="M516.4,250.9s43.06,17.41,109.18,0v175s-47.11,24.4-111.4,3.55C514.18,429.45,515.54,250.06,516.4,250.9Z" transform="translate(-14.45 -14.45)"/><path class="cls-13" d="M767.3,343.69l-52.57,5.46-27.49,94.24s44.48,6.3,80.26-10.21C767.5,433.18,767.3,344.3,767.3,343.69Z" transform="translate(-14.45 -14.45)"/><path class="cls-14" d="M731.72,265.25l-23.35,77.64H657.52V258.18S696.5,269.5,731.72,265.25Z" transform="translate(-14.45 -14.45)"/><ellipse class="cls-15" cx="699.53" cy="235.08" rx="54.79" ry="7.73"/><path class="cls-16" d="M658.33,258.18s43.06,17.41,109.17,0v175s-47.1,24.4-111.4,3.54C656.1,436.72,657.47,257.34,658.33,258.18Z" transform="translate(-14.45 -14.45)"/><circle class="cls-17" cx="485.55" cy="485.55" r="475.55"/><circle class="cls-17" cx="485.55" cy="485.55" r="475.55"/><circle class="cls-18" cx="494.49" cy="746.76" r="66.41"/><path class="cls-19" d="M527.12,435.89l-52.57,5.45-27.49,94.24s44.47,6.3,80.26-10.21C527.32,525.37,527.12,436.49,527.12,435.89Z" transform="translate(-14.45 -14.45)"/><path class="cls-20" d="M491.53,357.44l-23.34,77.64H417.34V350.37S456.31,361.69,491.53,357.44Z" transform="translate(-14.45 -14.45)"/><ellipse class="cls-21" cx="459.35" cy="327.28" rx="54.79" ry="7.73"/><path class="cls-22" d="M418.14,350.37s43.07,17.41,109.18,0v175s-47.11,24.4-111.4,3.55C415.92,528.92,417.29,349.53,418.14,350.37Z" transform="translate(-14.45 -14.45)"/><path class="cls-23" d="M398.13,435.89l-52.57,5.45-27.49,94.24s44.48,6.3,80.26-10.21C398.33,525.37,398.13,436.49,398.13,435.89Z" transform="translate(-14.45 -14.45)"/><path class="cls-24" d="M362.55,357.44,339.2,435.08H288.35V350.37S327.33,361.69,362.55,357.44Z" transform="translate(-14.45 -14.45)"/><ellipse class="cls-25" cx="330.36" cy="327.28" rx="54.79" ry="7.73"/><path class="cls-26" d="M289.16,350.37s43.06,17.41,109.17,0v175s-47.1,24.4-111.4,3.55C286.93,528.92,288.3,349.53,289.16,350.37Z" transform="translate(-14.45 -14.45)"/><path class="cls-27" d="M669,443.16l-52.56,5.46L589,542.86s44.48,6.3,80.27-10.21C669.25,532.65,669,443.77,669,443.16Z" transform="translate(-14.45 -14.45)"/><path class="cls-28" d="M633.46,364.72l-23.35,77.64H559.26V357.65S598.24,369,633.46,364.72Z" transform="translate(-14.45 -14.45)"/><ellipse class="cls-29" cx="601.27" cy="334.55" rx="54.79" ry="7.73"/><path class="cls-30" d="M560.07,357.65s43.06,17.41,109.18,0v175s-47.11,24.4-111.4,3.54C557.85,536.19,559.21,356.81,560.07,357.65Z" transform="translate(-14.45 -14.45)"/><path class="cls-31" d="M610.82,517.16l-52.57,5.46-27.49,94.24s44.47,6.29,80.26-10.21C611,606.65,610.82,517.77,610.82,517.16Z" transform="translate(-14.45 -14.45)"/><path class="cls-32" d="M575.23,438.72l-23.34,77.63H501V431.64S540,443,575.23,438.72Z" transform="translate(-14.45 -14.45)"/><ellipse class="cls-33" cx="543.05" cy="408.55" rx="54.79" ry="7.73"/><path class="cls-34" d="M501.84,431.64s43.07,17.41,109.18,0v175s-47.11,24.4-111.4,3.54C499.62,610.19,501,430.81,501.84,431.64Z" transform="translate(-14.45 -14.45)"/><path class="cls-35" d="M479.81,517.16l-52.57,5.46-27.49,94.24s44.48,6.29,80.26-10.21C480,606.65,479.81,517.77,479.81,517.16Z" transform="translate(-14.45 -14.45)"/><path class="cls-36" d="M444.23,438.72l-23.35,77.63H370V431.64S409,443,444.23,438.72Z" transform="translate(-14.45 -14.45)"/><ellipse class="cls-37" cx="412.04" cy="408.55" rx="54.79" ry="7.73"/><path class="cls-38" d="M370.84,431.64s43.06,17.41,109.17,0v175s-47.11,24.4-111.4,3.54C368.61,610.19,370,430.81,370.84,431.64Z" transform="translate(-14.45 -14.45)"/></g></svg>