<svg xmlns="http://www.w3.org/2000/svg" xmlns:xlink="http://www.w3.org/1999/xlink" viewBox="0 0 974 974"><defs><style>.cls-1,.cls-2,.cls-3,.cls-4{fill:none;stroke-miterlimit:10;}.cls-1,.cls-2{stroke-linecap:round;}.cls-1{stroke-width:20px;stroke:url(#linear-gradient);}.cls-2{stroke-width:10px;stroke:url(#linear-gradient-2);}.cls-3,.cls-4{stroke-width:5px;}.cls-3{stroke:url(#linear-gradient-3);}.cls-4{stroke:url(#linear-gradient-4);}</style><linearGradient id="linear-gradient" x1="243.46" y1="65.18" x2="730.54" y2="908.82" gradientUnits="userSpaceOnUse"><stop offset="0" stop-color="#ed2024"/><stop offset="0.12" stop-color="#f26164"/><stop offset="0.25" stop-color="#f8a4a6"/><stop offset="0.36" stop-color="#fcd5d6"/><stop offset="0.45" stop-color="#fef4f4"/><stop offset="0.49" stop-color="#fff"/><stop offset="0.56" stop-color="#fffbfb"/><stop offset="0.63" stop-color="#feefef"/><stop offset="0.69" stop-color="#fcdbdb"/><stop offset="0.76" stop-color="#fabebf"/><stop offset="0.82" stop-color="#f79a9b"/><stop offset="0.89" stop-color="#f36d6f"/><stop offset="0.96" stop-color="#ef393c"/><stop offset="0.98" stop-color="#ed2024"/></linearGradient><linearGradient id="linear-gradient-2" x1="377" y1="414.65" x2="594.36" y2="791.13" xlink:href="#linear-gradient"/><linearGradient id="linear-gradient-3" x1="227.48" y1="485.57" x2="302.11" y2="614.83" xlink:href="#linear-gradient"/><linearGradient id="linear-gradient-4" x1="522.48" y1="318.58" x2="744.98" y2="703.97" xlink:href="#linear-gradient"/></defs><title>nirmaan</title><g id="nirmaan"><circle class="cls-1" cx="487" cy="487" r="477"/><line class="cls-2" x1="60.96" y1="602.89" x2="910.4" y2="602.89"/><path class="cls-3" d="M406.15,433.22s-64.5,78.48-164.63,108.25c0,0-59.46,25.67-154.65,29.92a13.15,13.15,0,0,0-12.13,9.42c0,.13-.07.27-.11.41A13.55,13.55,0,0,0,88,598.13l131-2.48s116.82-1.41,187.18-43.81V526.58s-46.45,29.77-156.51,41.5c0,0,114.11-43.3,156.51-101Z" transform="translate(-13 -13)"/><path class="cls-4" d="M425.1,383.83V594.24h48.71V553.65h52.77v44.48H575.3V548.69s95.17,39.69,154.26,42.17l196.2,4.73v-23s-141.74-9.81-207-46.68c0,0-101.82-53.79-117.72-89.31,0,0-24.36-42.29-29.77-57.85H462.65s6.42,27.4,14.88,35.52h51.08v33.49h-24s15.89,34.17,68,55.82V443.7s58.86,61.57,82.2,74.09,81.19,47,96.42,48.37c0,0-125.34-.46-181.49-42.55a32.85,32.85,0,0,0-2.88-1.93C555,514.73,478.77,471,463.78,418.11l-14.33-39.36H425.1Z" transform="translate(-13 -13)"/></g></svg>