<svg xmlns="http://www.w3.org/2000/svg" xmlns:xlink="http://www.w3.org/1999/xlink" viewBox="0 0 959.51 959.51"><defs><style>.cls-1,.cls-3,.cls-4,.cls-5{fill:none;stroke-linecap:round;stroke-linejoin:round;}.cls-1{stroke-width:20px;stroke:url(#linear-gradient);}.cls-2{fill:url(#linear-gradient-2);}.cls-3{stroke-width:5px;stroke:url(#linear-gradient-3);}.cls-4,.cls-5{stroke-width:10px;}.cls-4{stroke:url(#linear-gradient-4);}.cls-5{stroke:url(#linear-gradient-5);}</style><linearGradient id="linear-gradient" x1="20.26" y1="500" x2="979.74" y2="500" gradientTransform="translate(555.06 -223.33) rotate(51.11)" gradientUnits="userSpaceOnUse"><stop offset="0" stop-color="#ed2024"/><stop offset="0.12" stop-color="#f26164"/><stop offset="0.25" stop-color="#f8a4a6"/><stop offset="0.36" stop-color="#fcd5d6"/><stop offset="0.45" stop-color="#fef4f4"/><stop offset="0.49" stop-color="#fff"/><stop offset="0.56" stop-color="#fffbfb"/><stop offset="0.63" stop-color="#feefef"/><stop offset="0.69" stop-color="#fcdbdb"/><stop offset="0.76" stop-color="#fabebf"/><stop offset="0.82" stop-color="#f79a9b"/><stop offset="0.89" stop-color="#f36d6f"/><stop offset="0.96" stop-color="#ef393c"/><stop offset="0.98" stop-color="#ed2024"/></linearGradient><linearGradient id="linear-gradient-2" x1="562.16" y1="594.13" x2="592.79" y2="594.13" gradientTransform="matrix(1, 0, 0, 1, 0, 0)" xlink:href="#linear-gradient"/><linearGradient id="linear-gradient-3" x1="468.67" y1="578.02" x2="641.18" y2="578.02" gradientTransform="matrix(1, 0, 0, 1, 0, 0)" xlink:href="#linear-gradient"/><linearGradient id="linear-gradient-4" x1="359.87" y1="354.42" x2="483.24" y2="354.42" gradientTransform="matrix(1, 0, 0, 1, 0, 0)" xlink:href="#linear-gradient"/><linearGradient id="linear-gradient-5" x1="336.08" y1="551.85" x2="543.63" y2="551.85" gradientTransform="matrix(1, 0, 0, 1, 0, 0)" xlink:href="#linear-gradient"/></defs><title>about us</title><g id="about_us" data-name="about us"><circle class="cls-1" cx="479.76" cy="479.76" r="469.74"/><path class="cls-2" d="M588.57,583.54l-9.77,38.54q-.06.24-.33,1.5a10.12,10.12,0,0,0-.27,1.81c0,1.17.54,1.75,1.62,1.75q5.07,0,9.71-12l3.26,2.35q-6.09,16-19.18,16-11.45,0-11.45-8.08a26.41,26.41,0,0,1,1-6.15l8.14-31.11h-7.54l.91-3.74H573c2.65,0,5.51-.14,8.56-.42l4-.43ZM574,563.4a8.2,8.2,0,0,1,2.59-6.09,8.57,8.57,0,0,1,6.21-2.53,8.69,8.69,0,0,1,8.62,8.62,8.54,8.54,0,0,1-2.53,6.21,8.21,8.21,0,0,1-6.09,2.6,8.86,8.86,0,0,1-8.8-8.81Z" transform="translate(-20.24 -20.24)"/><circle class="cls-3" cx="554.93" cy="578.02" r="83.75"/><circle class="cls-4" cx="421.56" cy="354.42" r="56.68"/><path class="cls-5" d="M491.45,594.11c4.82-53.43,47.09-70,47.18-70.08a100.78,100.78,0,0,0-96.83-72.9h0A100.72,100.72,0,0,0,341.08,551.85V652.58H510.5C489.7,625,491.45,594.11,491.45,594.11Z" transform="translate(-20.24 -20.24)"/></g></svg>