<svg xmlns="http://www.w3.org/2000/svg" xmlns:xlink="http://www.w3.org/1999/xlink" viewBox="0 0 959.48 959.48"><defs><style>.cls-1,.cls-10,.cls-11,.cls-12,.cls-13,.cls-14,.cls-15,.cls-16,.cls-17,.cls-18,.cls-19,.cls-2,.cls-20,.cls-21,.cls-22,.cls-23,.cls-24,.cls-25,.cls-26,.cls-27,.cls-28,.cls-29,.cls-3,.cls-30,.cls-31,.cls-32,.cls-33,.cls-34,.cls-35,.cls-36,.cls-37,.cls-38,.cls-39,.cls-4,.cls-40,.cls-41,.cls-5,.cls-6,.cls-7,.cls-8,.cls-9{fill:none;stroke-linecap:round;stroke-linejoin:round;}.cls-1,.cls-10,.cls-11,.cls-12,.cls-13,.cls-14,.cls-15,.cls-16,.cls-17,.cls-18,.cls-19,.cls-2,.cls-20,.cls-21,.cls-22,.cls-23,.cls-24,.cls-25,.cls-26,.cls-27,.cls-28,.cls-29,.cls-30,.cls-31,.cls-32,.cls-33,.cls-34,.cls-35,.cls-36,.cls-37,.cls-38,.cls-39,.cls-4,.cls-5,.cls-6,.cls-7,.cls-8,.cls-9{stroke-width:3px;}.cls-1{stroke:url(#linear-gradient);}.cls-2{stroke:url(#linear-gradient-2);}.cls-3,.cls-40{stroke-width:10px;}.cls-3{stroke:url(#linear-gradient-3);}.cls-4{stroke:url(#linear-gradient-4);}.cls-5{stroke:url(#linear-gradient-5);}.cls-6{stroke:url(#linear-gradient-6);}.cls-7{stroke:url(#linear-gradient-7);}.cls-8{stroke:url(#linear-gradient-8);}.cls-9{stroke:url(#linear-gradient-9);}.cls-10{stroke:url(#linear-gradient-10);}.cls-11{stroke:url(#linear-gradient-11);}.cls-12{stroke:url(#linear-gradient-12);}.cls-13{stroke:url(#linear-gradient-13);}.cls-14{stroke:url(#linear-gradient-14);}.cls-15{stroke:url(#linear-gradient-15);}.cls-16{stroke:url(#linear-gradient-16);}.cls-17{stroke:url(#linear-gradient-17);}.cls-18{stroke:url(#linear-gradient-18);}.cls-19{stroke:url(#linear-gradient-19);}.cls-20{stroke:url(#linear-gradient-20);}.cls-21{stroke:url(#linear-gradient-21);}.cls-22{stroke:url(#linear-gradient-22);}.cls-23{stroke:url(#linear-gradient-23);}.cls-24{stroke:url(#linear-gradient-24);}.cls-25{stroke:url(#linear-gradient-25);}.cls-26{stroke:url(#linear-gradient-26);}.cls-27{stroke:url(#linear-gradient-27);}.cls-28{stroke:url(#linear-gradient-28);}.cls-29{stroke:url(#linear-gradient-29);}.cls-30{stroke:url(#linear-gradient-30);}.cls-31{stroke:url(#linear-gradient-31);}.cls-32{stroke:url(#linear-gradient-32);}.cls-33{stroke:url(#linear-gradient-33);}.cls-34{stroke:url(#linear-gradient-34);}.cls-35{stroke:url(#linear-gradient-35);}.cls-36{stroke:url(#linear-gradient-36);}.cls-37{stroke:url(#linear-gradient-37);}.cls-38{stroke:url(#linear-gradient-38);}.cls-39{stroke:url(#linear-gradient-39);}.cls-40{stroke:url(#linear-gradient-40);}.cls-41{stroke-width:20px;stroke:url(#linear-gradient-41);}</style><linearGradient id="linear-gradient" x1="351.84" y1="577.27" x2="385.43" y2="577.27" gradientUnits="userSpaceOnUse"><stop offset="0" stop-color="#ed2024"/><stop offset="0.12" stop-color="#f26164"/><stop offset="0.25" stop-color="#f8a4a6"/><stop offset="0.36" stop-color="#fcd5d6"/><stop offset="0.45" stop-color="#fef4f4"/><stop offset="0.49" stop-color="#fff"/><stop offset="0.56" stop-color="#fffbfb"/><stop offset="0.63" stop-color="#feefef"/><stop offset="0.69" stop-color="#fcdbdb"/><stop offset="0.76" stop-color="#fabebf"/><stop offset="0.82" stop-color="#f79a9b"/><stop offset="0.89" stop-color="#f36d6f"/><stop offset="0.96" stop-color="#ef393c"/><stop offset="0.98" stop-color="#ed2024"/></linearGradient><linearGradient id="linear-gradient-2" x1="572.84" y1="577.27" x2="606.43" y2="577.27" xlink:href="#linear-gradient"/><linearGradient id="linear-gradient-3" x1="264.44" y1="479.74" x2="472.83" y2="479.74" xlink:href="#linear-gradient"/><linearGradient id="linear-gradient-4" x1="412.52" y1="508.99" x2="440.15" y2="508.99" xlink:href="#linear-gradient"/><linearGradient id="linear-gradient-5" x1="374.05" y1="508.99" x2="401.69" y2="508.99" xlink:href="#linear-gradient"/><linearGradient id="linear-gradient-6" x1="649.37" y1="547.8" x2="672.69" y2="547.8" xlink:href="#linear-gradient"/><linearGradient id="linear-gradient-7" x1="614.84" y1="547.8" x2="638.16" y2="547.8" xlink:href="#linear-gradient"/><linearGradient id="linear-gradient-8" x1="649.37" y1="519.1" x2="672.69" y2="519.1" xlink:href="#linear-gradient"/><linearGradient id="linear-gradient-9" x1="620.15" y1="519.1" x2="643.46" y2="519.1" xlink:href="#linear-gradient"/><linearGradient id="linear-gradient-10" x1="590.92" y1="519.1" x2="614.24" y2="519.1" xlink:href="#linear-gradient"/><linearGradient id="linear-gradient-11" x1="561.7" y1="519.1" x2="585.01" y2="519.1" xlink:href="#linear-gradient"/><linearGradient id="linear-gradient-12" x1="503.25" y1="547.8" x2="526.56" y2="547.8" xlink:href="#linear-gradient"/><linearGradient id="linear-gradient-13" x1="542.63" y1="547.8" x2="565.94" y2="547.8" xlink:href="#linear-gradient"/><linearGradient id="linear-gradient-14" x1="503.25" y1="519.1" x2="526.56" y2="519.1" xlink:href="#linear-gradient"/><linearGradient id="linear-gradient-15" x1="532.47" y1="519.1" x2="555.79" y2="519.1" xlink:href="#linear-gradient"/><linearGradient id="linear-gradient-16" x1="649.37" y1="491.74" x2="672.69" y2="491.74" xlink:href="#linear-gradient"/><linearGradient id="linear-gradient-17" x1="620.15" y1="491.74" x2="643.46" y2="491.74" xlink:href="#linear-gradient"/><linearGradient id="linear-gradient-18" x1="590.92" y1="491.74" x2="614.24" y2="491.74" xlink:href="#linear-gradient"/><linearGradient id="linear-gradient-19" x1="561.7" y1="491.74" x2="585.01" y2="491.74" xlink:href="#linear-gradient"/><linearGradient id="linear-gradient-20" x1="503.25" y1="491.74" x2="526.56" y2="491.74" xlink:href="#linear-gradient"/><linearGradient id="linear-gradient-21" x1="532.47" y1="491.74" x2="555.79" y2="491.74" xlink:href="#linear-gradient"/><linearGradient id="linear-gradient-22" x1="427.84" y1="570.78" x2="455.47" y2="570.78" xlink:href="#linear-gradient"/><linearGradient id="linear-gradient-23" x1="389.37" y1="570.78" x2="417" y2="570.78" xlink:href="#linear-gradient"/><linearGradient id="linear-gradient-24" x1="319.24" y1="570.78" x2="346.88" y2="570.78" xlink:href="#linear-gradient"/><linearGradient id="linear-gradient-25" x1="280.78" y1="570.78" x2="308.41" y2="570.78" xlink:href="#linear-gradient"/><linearGradient id="linear-gradient-26" x1="335.58" y1="508.99" x2="363.22" y2="508.99" xlink:href="#linear-gradient"/><linearGradient id="linear-gradient-27" x1="297.12" y1="508.99" x2="324.75" y2="508.99" xlink:href="#linear-gradient"/><linearGradient id="linear-gradient-28" x1="412.52" y1="468.65" x2="440.15" y2="468.65" xlink:href="#linear-gradient"/><linearGradient id="linear-gradient-29" x1="374.05" y1="468.65" x2="401.69" y2="468.65" xlink:href="#linear-gradient"/><linearGradient id="linear-gradient-30" x1="335.58" y1="468.65" x2="363.22" y2="468.65" xlink:href="#linear-gradient"/><linearGradient id="linear-gradient-31" x1="297.12" y1="468.65" x2="324.75" y2="468.65" xlink:href="#linear-gradient"/><linearGradient id="linear-gradient-32" x1="412.52" y1="428.31" x2="440.15" y2="428.31" xlink:href="#linear-gradient"/><linearGradient id="linear-gradient-33" x1="374.05" y1="428.31" x2="401.69" y2="428.31" xlink:href="#linear-gradient"/><linearGradient id="linear-gradient-34" x1="335.58" y1="428.31" x2="363.22" y2="428.31" xlink:href="#linear-gradient"/><linearGradient id="linear-gradient-35" x1="297.12" y1="428.31" x2="324.75" y2="428.31" xlink:href="#linear-gradient"/><linearGradient id="linear-gradient-36" x1="412.52" y1="387.97" x2="440.15" y2="387.97" xlink:href="#linear-gradient"/><linearGradient id="linear-gradient-37" x1="374.05" y1="387.97" x2="401.69" y2="387.97" xlink:href="#linear-gradient"/><linearGradient id="linear-gradient-38" x1="335.58" y1="387.97" x2="363.22" y2="387.97" xlink:href="#linear-gradient"/><linearGradient id="linear-gradient-39" x1="297.12" y1="387.97" x2="324.75" y2="387.97" xlink:href="#linear-gradient"/><linearGradient id="linear-gradient-40" x1="485.54" y1="536.75" x2="693.94" y2="536.75" xlink:href="#linear-gradient"/><linearGradient id="linear-gradient-41" x1="0" y1="479.74" x2="959.48" y2="479.74" xlink:href="#linear-gradient"/></defs><title>accomodation</title><g id="accomodations"><rect class="cls-1" x="353.34" y="547.8" width="30.58" height="58.94"/><rect class="cls-2" x="574.34" y="547.8" width="30.58" height="58.94"/><rect class="cls-3" x="269.44" y="353.97" width="198.4" height="251.55"/><rect class="cls-4" x="414.02" y="496.74" width="24.63" height="24.51"/><rect class="cls-5" x="375.55" y="496.74" width="24.63" height="24.51"/><rect class="cls-6" x="650.87" y="537.7" width="20.31" height="20.21"/><rect class="cls-7" x="616.34" y="537.7" width="20.31" height="20.21"/><rect class="cls-8" x="650.87" y="508.99" width="20.31" height="20.21"/><rect class="cls-9" x="621.65" y="508.99" width="20.31" height="20.21"/><rect class="cls-10" x="592.42" y="508.99" width="20.31" height="20.21"/><rect class="cls-11" x="563.2" y="508.99" width="20.31" height="20.21"/><rect class="cls-12" x="504.75" y="537.7" width="20.31" height="20.21"/><rect class="cls-13" x="544.13" y="537.7" width="20.31" height="20.21"/><rect class="cls-14" x="504.75" y="508.99" width="20.31" height="20.21"/><rect class="cls-15" x="533.97" y="508.99" width="20.31" height="20.21"/><rect class="cls-16" x="650.87" y="481.63" width="20.31" height="20.21"/><rect class="cls-17" x="621.65" y="481.63" width="20.31" height="20.21"/><rect class="cls-18" x="592.42" y="481.63" width="20.31" height="20.21"/><rect class="cls-19" x="563.2" y="481.63" width="20.31" height="20.21"/><rect class="cls-20" x="504.75" y="481.63" width="20.31" height="20.21"/><rect class="cls-21" x="533.97" y="481.63" width="20.31" height="20.21"/><rect class="cls-22" x="429.34" y="558.53" width="24.63" height="24.51"/><rect class="cls-23" x="390.87" y="558.53" width="24.63" height="24.51"/><rect class="cls-24" x="320.74" y="558.53" width="24.63" height="24.51"/><rect class="cls-25" x="282.28" y="558.53" width="24.63" height="24.51"/><rect class="cls-26" x="337.08" y="496.74" width="24.63" height="24.51"/><rect class="cls-27" x="298.62" y="496.74" width="24.63" height="24.51"/><rect class="cls-28" x="414.02" y="456.4" width="24.63" height="24.51"/><rect class="cls-29" x="375.55" y="456.4" width="24.63" height="24.51"/><rect class="cls-30" x="337.08" y="456.4" width="24.63" height="24.51"/><rect class="cls-31" x="298.62" y="456.4" width="24.63" height="24.51"/><rect class="cls-32" x="414.02" y="416.06" width="24.63" height="24.51"/><rect class="cls-33" x="375.55" y="416.06" width="24.63" height="24.51"/><rect class="cls-34" x="337.08" y="416.06" width="24.63" height="24.51"/><rect class="cls-35" x="298.62" y="416.06" width="24.63" height="24.51"/><rect class="cls-36" x="414.02" y="375.72" width="24.63" height="24.51"/><rect class="cls-37" x="375.55" y="375.72" width="24.63" height="24.51"/><rect class="cls-38" x="337.08" y="375.72" width="24.63" height="24.51"/><rect class="cls-39" x="298.62" y="375.72" width="24.63" height="24.51"/><rect class="cls-40" x="490.54" y="467.98" width="198.4" height="137.53"/><circle class="cls-41" cx="479.74" cy="479.74" r="469.74"/></g></svg>