<svg xmlns="http://www.w3.org/2000/svg" xmlns:xlink="http://www.w3.org/1999/xlink" viewBox="0 0 959.51 959.51"><defs><style>.cls-1,.cls-10,.cls-11,.cls-12,.cls-13,.cls-14,.cls-15,.cls-16,.cls-17,.cls-18,.cls-19,.cls-2,.cls-20,.cls-21,.cls-22,.cls-23,.cls-24,.cls-25,.cls-26,.cls-27,.cls-28,.cls-29,.cls-3,.cls-4,.cls-5,.cls-6,.cls-7,.cls-8,.cls-9{fill:none;}.cls-1,.cls-10,.cls-11,.cls-12,.cls-13,.cls-14,.cls-15,.cls-16,.cls-17,.cls-18,.cls-19,.cls-2,.cls-20,.cls-21,.cls-22,.cls-23,.cls-24,.cls-25,.cls-26,.cls-27,.cls-28,.cls-3,.cls-4,.cls-5,.cls-6,.cls-7,.cls-8,.cls-9{stroke-miterlimit:10;stroke-width:6px;}.cls-1{stroke:url(#linear-gradient);}.cls-2{stroke:url(#linear-gradient-2);}.cls-3{stroke:url(#linear-gradient-3);}.cls-4{stroke:url(#linear-gradient-4);}.cls-5{stroke:url(#linear-gradient-5);}.cls-6{stroke:url(#linear-gradient-6);}.cls-7{stroke:url(#linear-gradient-7);}.cls-8{stroke:url(#linear-gradient-8);}.cls-9{stroke:url(#linear-gradient-9);}.cls-10{stroke:url(#linear-gradient-10);}.cls-11{stroke:url(#linear-gradient-11);}.cls-12{stroke:url(#linear-gradient-12);}.cls-13{stroke:url(#linear-gradient-13);}.cls-14{stroke:url(#linear-gradient-14);}.cls-15{stroke:url(#linear-gradient-15);}.cls-16{stroke:url(#linear-gradient-16);}.cls-17{stroke:url(#linear-gradient-17);}.cls-18{stroke:url(#linear-gradient-18);}.cls-19{stroke:url(#linear-gradient-19);}.cls-20{stroke:url(#linear-gradient-20);}.cls-21{stroke:url(#linear-gradient-21);}.cls-22{stroke:url(#linear-gradient-22);}.cls-23{stroke:url(#linear-gradient-23);}.cls-24{stroke:url(#linear-gradient-24);}.cls-25{stroke:url(#linear-gradient-25);}.cls-26{stroke:url(#linear-gradient-26);}.cls-27{stroke:url(#linear-gradient-27);}.cls-28{stroke:url(#linear-gradient-28);}.cls-29{stroke-linecap:round;stroke-linejoin:round;stroke-width:20px;stroke:url(#linear-gradient-29);}</style><linearGradient id="linear-gradient" x1="976.47" y1="450.17" x2="993.78" y2="450.17" gradientTransform="matrix(1, 0, 0, -1, -735.12, 900.33)" gradientUnits="userSpaceOnUse"><stop offset="0" stop-color="#ed2024"/><stop offset="0.12" stop-color="#f26164"/><stop offset="0.25" stop-color="#f8a4a6"/><stop offset="0.36" stop-color="#fcd5d6"/><stop offset="0.45" stop-color="#fef4f4"/><stop offset="0.49" stop-color="#fff"/><stop offset="0.56" stop-color="#fffbfb"/><stop offset="0.63" stop-color="#feefef"/><stop offset="0.69" stop-color="#fcdbdb"/><stop offset="0.76" stop-color="#fabebf"/><stop offset="0.82" stop-color="#f79a9b"/><stop offset="0.89" stop-color="#f36d6f"/><stop offset="0.96" stop-color="#ef393c"/><stop offset="0.98" stop-color="#ed2024"/></linearGradient><linearGradient id="linear-gradient-2" x1="942.27" y1="450.17" x2="959.58" y2="450.17" gradientTransform="matrix(1, 0, 0, -1, -666.72, 900.33)" xlink:href="#linear-gradient"/><linearGradient id="linear-gradient-3" x1="925.95" y1="352.22" x2="1010.33" y2="352.22" gradientTransform="matrix(1, 0, 0, -1, -701.14, 704.44)" xlink:href="#linear-gradient"/><linearGradient id="linear-gradient-4" x1="657.21" y1="-127.02" x2="707.57" y2="-127.02" gradientTransform="matrix(-0.71, 0.71, 0.71, 0.71, 819.09, -138.99)" xlink:href="#linear-gradient"/><linearGradient id="linear-gradient-5" x1="898.09" y1="549.57" x2="915.4" y2="549.57" gradientTransform="matrix(1, 0, 0, -1, -578.36, 1099.14)" xlink:href="#linear-gradient"/><linearGradient id="linear-gradient-6" x1="863.89" y1="549.57" x2="881.2" y2="549.57" gradientTransform="matrix(1, 0, 0, -1, -509.96, 1099.14)" xlink:href="#linear-gradient"/><linearGradient id="linear-gradient-7" x1="847.57" y1="451.62" x2="931.95" y2="451.62" gradientTransform="matrix(1, 0, 0, -1, -544.38, 903.24)" xlink:href="#linear-gradient"/><linearGradient id="linear-gradient-8" x1="672.08" y1="-1.3" x2="722.44" y2="-1.3" gradientTransform="matrix(-0.71, 0.71, 0.71, 0.71, 819.09, -138.99)" xlink:href="#linear-gradient"/><linearGradient id="linear-gradient-9" x1="819.71" y1="648.97" x2="837.02" y2="648.97" gradientTransform="matrix(1, 0, 0, -1, -421.6, 1297.95)" xlink:href="#linear-gradient"/><linearGradient id="linear-gradient-10" x1="785.51" y1="648.97" x2="802.82" y2="648.97" gradientTransform="matrix(1, 0, 0, -1, -353.2, 1297.95)" xlink:href="#linear-gradient"/><linearGradient id="linear-gradient-11" x1="769.19" y1="551.02" x2="853.57" y2="551.02" gradientTransform="matrix(1, 0, 0, -1, -387.62, 1102.05)" xlink:href="#linear-gradient"/><linearGradient id="linear-gradient-12" x1="686.95" y1="124.41" x2="737.31" y2="124.41" gradientTransform="matrix(-0.71, 0.71, 0.71, 0.71, 819.09, -138.99)" xlink:href="#linear-gradient"/><linearGradient id="linear-gradient-13" x1="723.23" y1="429.92" x2="740.54" y2="429.92" gradientTransform="matrix(1, 0, 0, 1, 0, 0)" xlink:href="#linear-gradient"/><linearGradient id="linear-gradient-14" x1="689.03" y1="429.92" x2="706.34" y2="429.92" gradientTransform="matrix(1, 0, 0, 1, 0, 0)" xlink:href="#linear-gradient"/><linearGradient id="linear-gradient-15" x1="672.7" y1="331.97" x2="757.08" y2="331.97" gradientTransform="matrix(1, 0, 0, 1, 0, 0)" xlink:href="#linear-gradient"/><linearGradient id="linear-gradient-16" x1="492.46" y1="37.74" x2="542.82" y2="37.74" gradientTransform="translate(375.56 -138.99) rotate(45)" xlink:href="#linear-gradient"/><linearGradient id="linear-gradient-17" x1="644.85" y1="529.33" x2="662.16" y2="529.33" gradientTransform="matrix(1, 0, 0, 1, 0, 0)" xlink:href="#linear-gradient"/><linearGradient id="linear-gradient-18" x1="610.65" y1="529.33" x2="627.96" y2="529.33" gradientTransform="matrix(1, 0, 0, 1, 0, 0)" xlink:href="#linear-gradient"/><linearGradient id="linear-gradient-19" x1="594.32" y1="431.38" x2="678.7" y2="431.38" gradientTransform="matrix(1, 0, 0, 1, 0, 0)" xlink:href="#linear-gradient"/><linearGradient id="linear-gradient-20" x1="507.32" y1="163.45" x2="557.68" y2="163.45" gradientTransform="translate(375.56 -138.99) rotate(45)" xlink:href="#linear-gradient"/><linearGradient id="linear-gradient-21" x1="566.47" y1="628.73" x2="583.78" y2="628.73" gradientTransform="matrix(1, 0, 0, 1, 0, 0)" xlink:href="#linear-gradient"/><linearGradient id="linear-gradient-22" x1="532.27" y1="628.73" x2="549.58" y2="628.73" gradientTransform="matrix(1, 0, 0, 1, 0, 0)" xlink:href="#linear-gradient"/><linearGradient id="linear-gradient-23" x1="515.95" y1="530.78" x2="600.32" y2="530.78" gradientTransform="matrix(1, 0, 0, 1, 0, 0)" xlink:href="#linear-gradient"/><linearGradient id="linear-gradient-24" x1="522.19" y1="289.16" x2="572.55" y2="289.16" gradientTransform="translate(375.56 -138.99) rotate(45)" xlink:href="#linear-gradient"/><linearGradient id="linear-gradient-25" x1="488.09" y1="728.13" x2="505.4" y2="728.13" gradientTransform="matrix(1, 0, 0, 1, 0, 0)" xlink:href="#linear-gradient"/><linearGradient id="linear-gradient-26" x1="453.89" y1="728.13" x2="471.2" y2="728.13" gradientTransform="matrix(1, 0, 0, 1, 0, 0)" xlink:href="#linear-gradient"/><linearGradient id="linear-gradient-27" x1="437.57" y1="630.18" x2="521.95" y2="630.18" gradientTransform="matrix(1, 0, 0, 1, 0, 0)" xlink:href="#linear-gradient"/><linearGradient id="linear-gradient-28" x1="537.06" y1="414.88" x2="587.42" y2="414.88" gradientTransform="translate(375.56 -138.99) rotate(45)" xlink:href="#linear-gradient"/><linearGradient id="linear-gradient-29" x1="20.26" y1="500" x2="979.74" y2="500" gradientTransform="translate(555.06 -223.33) rotate(51.11)" xlink:href="#linear-gradient"/></defs><title>campus ambassador</title><g id="campus_ambassador" data-name="campus ambassador"><rect class="cls-1" x="244.36" y="405.38" width="11.31" height="89.58" rx="4.2" transform="translate(479.78 880.09) rotate(180)"/><rect class="cls-2" x="278.56" y="405.38" width="11.31" height="89.58" rx="4.2" transform="translate(548.18 880.09) rotate(180)"/><rect class="cls-3" x="227.81" y="307.43" width="78.38" height="89.58" rx="22.42" transform="translate(513.76 684.19) rotate(-180)"/><circle class="cls-4" cx="246.76" cy="253.72" r="22.18"/><rect class="cls-5" x="322.74" y="504.78" width="11.31" height="89.58" rx="4.2" transform="translate(636.54 1078.9) rotate(180)"/><rect class="cls-6" x="356.94" y="504.78" width="11.31" height="89.58" rx="4.2" transform="translate(704.94 1078.9) rotate(180)"/><rect class="cls-7" x="306.19" y="406.83" width="78.38" height="89.58" rx="22.42" transform="translate(670.51 883) rotate(-180)"/><circle class="cls-8" cx="325.13" cy="353.13" r="22.18"/><rect class="cls-9" x="401.12" y="604.19" width="11.31" height="89.58" rx="4.2" transform="translate(793.3 1277.7) rotate(180)"/><rect class="cls-10" x="435.32" y="604.19" width="11.31" height="89.58" rx="4.2" transform="translate(861.7 1277.7) rotate(180)"/><rect class="cls-11" x="384.57" y="506.24" width="78.38" height="89.58" rx="22.42" transform="translate(827.27 1081.8) rotate(-180)"/><circle class="cls-12" cx="403.51" cy="452.53" r="22.18"/><rect class="cls-13" x="726.23" y="385.13" width="11.31" height="89.58" rx="4.2"/><rect class="cls-14" x="692.03" y="385.13" width="11.31" height="89.58" rx="4.2"/><rect class="cls-15" x="675.7" y="287.18" width="78.38" height="89.58" rx="22.42"/><circle class="cls-16" cx="714.89" cy="253.72" r="22.18"/><rect class="cls-17" x="647.85" y="484.54" width="11.31" height="89.58" rx="4.2"/><rect class="cls-18" x="613.65" y="484.54" width="11.31" height="89.58" rx="4.2"/><rect class="cls-19" x="597.32" y="386.59" width="78.38" height="89.58" rx="22.42"/><circle class="cls-20" cx="636.51" cy="353.13" r="22.18"/><rect class="cls-21" x="569.47" y="583.94" width="11.31" height="89.58" rx="4.2"/><rect class="cls-22" x="535.27" y="583.94" width="11.31" height="89.58" rx="4.2"/><rect class="cls-23" x="518.95" y="485.99" width="78.38" height="89.58" rx="22.42"/><circle class="cls-24" cx="558.13" cy="452.53" r="22.18"/><rect class="cls-25" x="491.09" y="683.34" width="11.31" height="89.58" rx="4.2"/><rect class="cls-26" x="456.89" y="683.34" width="11.31" height="89.58" rx="4.2"/><rect class="cls-27" x="440.57" y="585.4" width="78.38" height="89.58" rx="22.42"/><circle class="cls-28" cx="479.76" cy="551.93" r="22.18"/><circle class="cls-29" cx="479.76" cy="479.76" r="469.74"/></g></svg>