<svg xmlns="http://www.w3.org/2000/svg" xmlns:xlink="http://www.w3.org/1999/xlink" viewBox="0 0 959.51 959.51"><defs><style>.cls-1,.cls-12{fill:none;}.cls-1{stroke-linecap:round;stroke-linejoin:round;stroke-width:20px;stroke:url(#linear-gradient);}.cls-2{fill:url(#linear-gradient-2);}.cls-3{fill:url(#linear-gradient-3);}.cls-4{fill:url(#linear-gradient-4);}.cls-5{fill:url(#linear-gradient-5);}.cls-6{fill:url(#linear-gradient-6);}.cls-7{fill:url(#linear-gradient-7);}.cls-8{fill:url(#linear-gradient-8);}.cls-9{fill:url(#linear-gradient-9);}.cls-10{fill:url(#linear-gradient-10);}.cls-11{fill:url(#radial-gradient);}.cls-12{stroke-miterlimit:10;stroke-width:6px;stroke:url(#linear-gradient-11);}</style><linearGradient id="linear-gradient" x1="20.26" y1="500" x2="979.74" y2="500" gradientTransform="translate(555.06 -223.33) rotate(51.11)" gradientUnits="userSpaceOnUse"><stop offset="0" stop-color="#ed2024"/><stop offset="0.12" stop-color="#f26164"/><stop offset="0.25" stop-color="#f8a4a6"/><stop offset="0.36" stop-color="#fcd5d6"/><stop offset="0.45" stop-color="#fef4f4"/><stop offset="0.49" stop-color="#fff"/><stop offset="0.56" stop-color="#fffbfb"/><stop offset="0.63" stop-color="#feefef"/><stop offset="0.69" stop-color="#fcdbdb"/><stop offset="0.76" stop-color="#fabebf"/><stop offset="0.82" stop-color="#f79a9b"/><stop offset="0.89" stop-color="#f36d6f"/><stop offset="0.96" stop-color="#ef393c"/><stop offset="0.98" stop-color="#ed2024"/></linearGradient><linearGradient id="linear-gradient-2" x1="478.96" y1="378.13" x2="523.09" y2="340.01" gradientTransform="translate(418.13 -224.66) rotate(40)" xlink:href="#linear-gradient"/><linearGradient id="linear-gradient-3" x1="479.74" y1="376.78" x2="523.87" y2="338.66" gradientTransform="translate(885.34 -99.47) rotate(80)" xlink:href="#linear-gradient"/><linearGradient id="linear-gradient-4" x1="479.47" y1="375.24" x2="523.6" y2="337.12" gradientTransform="translate(1162.77 296.74) rotate(120)" xlink:href="#linear-gradient"/><linearGradient id="linear-gradient-5" x1="478.28" y1="374.24" x2="522.41" y2="336.12" gradientTransform="translate(1120.61 778.59) rotate(160)" xlink:href="#linear-gradient"/><linearGradient id="linear-gradient-6" x1="476.72" y1="374.24" x2="520.85" y2="336.12" gradientTransform="translate(778.59 1120.61) rotate(-160)" xlink:href="#linear-gradient"/><linearGradient id="linear-gradient-7" x1="475.53" y1="375.24" x2="519.66" y2="337.12" gradientTransform="translate(296.74 1162.77) rotate(-120)" xlink:href="#linear-gradient"/><linearGradient id="linear-gradient-8" x1="475.25" y1="376.78" x2="519.38" y2="338.66" gradientTransform="translate(-99.47 885.34) rotate(-80)" xlink:href="#linear-gradient"/><linearGradient id="linear-gradient-9" x1="476.03" y1="378.13" x2="520.16" y2="340.01" gradientTransform="translate(-224.66 418.13) rotate(-40)" xlink:href="#linear-gradient"/><linearGradient id="linear-gradient-10" x1="457.25" y1="358.42" x2="501.38" y2="320.29" gradientTransform="matrix(1, 0, 0, 1, 0, 0)" xlink:href="#linear-gradient"/><radialGradient id="radial-gradient" cx="479.76" cy="482.03" r="76.58" gradientUnits="userSpaceOnUse"><stop offset="0" stop-color="#ed2024"/><stop offset="0.08" stop-color="#f26164"/><stop offset="0.17" stop-color="#f8a4a6"/><stop offset="0.25" stop-color="#fcd5d6"/><stop offset="0.31" stop-color="#fef4f4"/><stop offset="0.34" stop-color="#fff"/><stop offset="0.39" stop-color="#fef1f1"/><stop offset="0.48" stop-color="#fbcccd"/><stop offset="0.6" stop-color="#f68f91"/><stop offset="0.76" stop-color="#ef3d41"/><stop offset="0.81" stop-color="#ed2024"/></radialGradient><linearGradient id="linear-gradient-11" x1="412.62" y1="578.35" x2="589.12" y2="425.87" gradientTransform="translate(208.51 -173.26) rotate(22.44)" xlink:href="#linear-gradient"/></defs><title>events</title><g id="events"><circle class="cls-1" cx="479.76" cy="479.76" r="469.74"/><polygon class="cls-2" points="576.12 401.86 541.98 373.21 575.23 342.93 600.17 363.86 576.12 401.86"/><polygon class="cls-3" points="605.11 482.56 597.38 438.67 642.3 436.84 647.96 468.91 605.11 482.56"/><polygon class="cls-4" points="575.45 563.01 597.73 524.42 633.33 551.9 617.04 580.1 575.45 563.01"/><polygon class="cls-5" points="501.01 605.58 542.89 590.34 552.49 634.27 521.89 645.4 501.01 605.58"/><polygon class="cls-6" points="416.62 590.34 458.5 605.58 437.62 645.4 407.02 634.27 416.62 590.34"/><polygon class="cls-7" points="361.78 524.42 384.06 563.01 342.47 580.1 326.18 551.9 361.78 524.42"/><polygon class="cls-8" points="362.13 438.67 354.4 482.56 311.55 468.91 317.2 436.84 362.13 438.67"/><polygon class="cls-9" points="417.53 373.21 383.39 401.86 359.34 363.86 384.29 342.93 417.53 373.21"/><polygon class="cls-10" points="502.04 358.67 457.47 358.67 463.47 314.11 496.04 314.11 502.04 358.67"/><circle class="cls-11" cx="479.76" cy="482.03" r="60.38"/><circle class="cls-12" cx="479.76" cy="482.03" r="113.62"/></g></svg>