<svg xmlns="http://www.w3.org/2000/svg" xmlns:xlink="http://www.w3.org/1999/xlink" viewBox="0 0 970.11 970.11"><defs><style>.cls-1,.cls-10,.cls-2,.cls-3,.cls-5,.cls-6,.cls-7,.cls-8,.cls-9{fill:none;stroke-miterlimit:10;}.cls-1{stroke-width:20px;stroke:url(#linear-gradient);}.cls-2,.cls-3{stroke-width:10px;}.cls-2{stroke:url(#linear-gradient-2);}.cls-3{stroke:url(#linear-gradient-3);}.cls-4{fill:url(#radial-gradient);}.cls-10,.cls-5,.cls-6,.cls-7,.cls-8,.cls-9{stroke-width:5px;}.cls-5{stroke:url(#radial-gradient-2);}.cls-6{stroke:url(#radial-gradient-3);}.cls-7{stroke:url(#radial-gradient-4);}.cls-8{stroke:url(#radial-gradient-5);}.cls-9{stroke:url(#radial-gradient-6);}.cls-10{stroke:url(#radial-gradient-7);}</style><linearGradient id="linear-gradient" x1="500" y1="14.99" x2="500" y2="985.01" gradientTransform="translate(609.38 -211.04) rotate(55.13)" gradientUnits="userSpaceOnUse"><stop offset="0" stop-color="#ed2024"/><stop offset="0.12" stop-color="#f26164"/><stop offset="0.25" stop-color="#f8a4a6"/><stop offset="0.36" stop-color="#fcd5d6"/><stop offset="0.45" stop-color="#fef4f4"/><stop offset="0.49" stop-color="#fff"/><stop offset="0.56" stop-color="#fffbfb"/><stop offset="0.63" stop-color="#feefef"/><stop offset="0.69" stop-color="#fcdbdb"/><stop offset="0.76" stop-color="#fabebf"/><stop offset="0.82" stop-color="#f79a9b"/><stop offset="0.89" stop-color="#f36d6f"/><stop offset="0.96" stop-color="#ef393c"/><stop offset="0.98" stop-color="#ed2024"/></linearGradient><linearGradient id="linear-gradient-2" x1="514.65" y1="291.23" x2="514.65" y2="617.82" gradientTransform="translate(-38.24 68.29) scale(0.93 0.79)" xlink:href="#linear-gradient"/><linearGradient id="linear-gradient-3" x1="514.65" y1="314.65" x2="514.65" y2="641.24" gradientTransform="translate(-29.73 -13.55) scale(0.93 0.98)" xlink:href="#linear-gradient"/><radialGradient id="radial-gradient" cx="329.74" cy="383.34" r="24.26" gradientUnits="userSpaceOnUse"><stop offset="0" stop-color="#ed2024"/><stop offset="0.01" stop-color="#ee272b"/><stop offset="0.06" stop-color="#f2595c"/><stop offset="0.11" stop-color="#f58688"/><stop offset="0.17" stop-color="#f8abad"/><stop offset="0.23" stop-color="#fbcacb"/><stop offset="0.29" stop-color="#fde1e2"/><stop offset="0.35" stop-color="#fef2f2"/><stop offset="0.42" stop-color="#fffcfc"/><stop offset="0.51" stop-color="#fff"/><stop offset="0.58" stop-color="#fffbfb"/><stop offset="0.64" stop-color="#feefef"/><stop offset="0.7" stop-color="#fcdbdc"/><stop offset="0.77" stop-color="#fabfc0"/><stop offset="0.83" stop-color="#f79b9d"/><stop offset="0.89" stop-color="#f36f72"/><stop offset="0.95" stop-color="#ef3c3f"/><stop offset="0.98" stop-color="#ed2024"/></radialGradient><radialGradient id="radial-gradient-2" cx="539.46" cy="607.19" r="89.19" xlink:href="#radial-gradient"/><radialGradient id="radial-gradient-3" cx="630.22" cy="439.5" r="91.83" xlink:href="#radial-gradient"/><radialGradient id="radial-gradient-4" cx="702.31" cy="476.51" r="48.88" xlink:href="#radial-gradient"/><radialGradient id="radial-gradient-5" cx="521.86" cy="686.87" r="66.79" xlink:href="#radial-gradient"/><radialGradient id="radial-gradient-6" cx="423.73" cy="477.67" r="83.71" xlink:href="#radial-gradient"/><radialGradient id="radial-gradient-7" cx="547.05" cy="475.63" r="46" xlink:href="#radial-gradient"/></defs><title>hightlights</title><g id="hightlights"><circle class="cls-1" cx="485.06" cy="485.06" r="475.01"/><rect class="cls-2" x="287.25" y="301.64" width="308.43" height="249.39" transform="translate(-115.56 123.63) rotate(-16.04)"/><rect class="cls-3" x="295.76" y="300.44" width="308.43" height="310.99" transform="translate(-123.4 127.13) rotate(-16.04)"/><circle class="cls-4" cx="329.74" cy="383.34" r="24.26"/><polygon class="cls-5" points="434.94 632.58 655.02 566.71 650.42 648.41 434.94 632.58"/><polygon class="cls-6" points="589.66 320.07 671.36 327.73 655.53 547.81 632.04 468.15 642.25 354.28 597.32 352.24 589.66 320.07"/><polygon class="cls-7" points="685.66 417.09 726.25 439.3 678.25 528.66 685.66 417.09"/><polygon class="cls-8" points="446.68 652.49 574.08 721.17 604.47 663.73 446.68 652.49"/><path class="cls-9" d="M341.05,547.35l1.4,5a6.49,6.49,0,0,0,8,4.53l127.39-35.66a9.35,9.35,0,0,0,5.17-3.65c5.38-7.68,20.11-29.94,23.5-47.91a7.1,7.1,0,0,0-2.18-6.51c-12.54-11.63-64.19-59.42-71.81-64.35-8.68-5.62-17.87,26.55-17.87,26.55s-4.5,11.24-25.28,10.1a4.85,4.85,0,0,0-5.07,4C381.48,455.3,370,510.59,342.48,541.3A6.51,6.51,0,0,0,341.05,547.35Z" transform="translate(-14.94 -14.94)"/><path class="cls-10" d="M500.55,514.62l88.5-24.94a7.64,7.64,0,0,0,5.37-9.1l-1.92-8.15a7.56,7.56,0,0,0-2-3.64c-5.23-5.24-22.79-22.48-35.79-31.23a5.57,5.57,0,0,0-8.36,2.69c-2.08,5.88-7.2,13.79-19.77,15.7a8.35,8.35,0,0,0-6.79,6.2c-3.2,12.4-11.33,41.25-20.08,51.09A.85.85,0,0,0,500.55,514.62Z" transform="translate(-14.94 -14.94)"/></g></svg>