<svg xmlns="http://www.w3.org/2000/svg" xmlns:xlink="http://www.w3.org/1999/xlink" viewBox="0 0 970.11 970.11"><defs><style>.cls-1,.cls-12,.cls-13{fill:none;}.cls-1,.cls-12{stroke-miterlimit:10;}.cls-1{stroke-width:20px;stroke:url(#linear-gradient);}.cls-2{fill:url(#radial-gradient);}.cls-3{fill:url(#radial-gradient-2);}.cls-4{fill:url(#radial-gradient-3);}.cls-5{fill:url(#radial-gradient-4);}.cls-6{fill:url(#radial-gradient-5);}.cls-7{fill:url(#radial-gradient-6);}.cls-8{fill:url(#radial-gradient-7);}.cls-9{fill:url(#radial-gradient-8);}.cls-10{fill:url(#radial-gradient-9);}.cls-11{fill:url(#radial-gradient-10);}.cls-12{stroke-width:6px;stroke:url(#radial-gradient-11);}.cls-13{stroke-linecap:round;stroke-linejoin:round;stroke-width:10px;stroke:url(#radial-gradient-12);}</style><linearGradient id="linear-gradient" x1="500" y1="14.99" x2="500" y2="985.01" gradientTransform="translate(609.38 -211.04) rotate(55.13)" gradientUnits="userSpaceOnUse"><stop offset="0" stop-color="#ed2024"/><stop offset="0.12" stop-color="#f26164"/><stop offset="0.25" stop-color="#f8a4a6"/><stop offset="0.36" stop-color="#fcd5d6"/><stop offset="0.45" stop-color="#fef4f4"/><stop offset="0.49" stop-color="#fff"/><stop offset="0.56" stop-color="#fffbfb"/><stop offset="0.63" stop-color="#feefef"/><stop offset="0.69" stop-color="#fcdbdb"/><stop offset="0.76" stop-color="#fabebf"/><stop offset="0.82" stop-color="#f79a9b"/><stop offset="0.89" stop-color="#f36d6f"/><stop offset="0.96" stop-color="#ef393c"/><stop offset="0.98" stop-color="#ed2024"/></linearGradient><radialGradient id="radial-gradient" cx="554.83" cy="466.25" r="15.16" gradientTransform="translate(423.43 -219.36) rotate(40)" xlink:href="#linear-gradient"/><radialGradient id="radial-gradient-2" cx="584" cy="415.72" r="15.16" gradientTransform="translate(890.64 -94.17) rotate(80)" xlink:href="#linear-gradient"/><radialGradient id="radial-gradient-3" cx="573.87" cy="358.26" r="15.16" gradientTransform="matrix(-0.5, 0.87, -0.87, -0.5, 1168.07, 302.04)" xlink:href="#linear-gradient"/><radialGradient id="radial-gradient-4" cx="529.17" cy="320.76" r="15.16" gradientTransform="translate(1125.91 783.89) rotate(160)" xlink:href="#linear-gradient"/><radialGradient id="radial-gradient-5" cx="470.83" cy="320.76" r="15.16" gradientTransform="translate(783.89 1125.91) rotate(-160)" xlink:href="#linear-gradient"/><radialGradient id="radial-gradient-6" cx="426.13" cy="358.26" r="15.16" gradientTransform="translate(302.04 1168.07) rotate(-120)" xlink:href="#linear-gradient"/><radialGradient id="radial-gradient-7" cx="416" cy="415.72" r="15.16" gradientTransform="translate(-94.17 890.64) rotate(-80)" xlink:href="#linear-gradient"/><radialGradient id="radial-gradient-8" cx="445.17" cy="466.25" r="15.16" gradientTransform="translate(-219.36 423.43) rotate(-40)" xlink:href="#linear-gradient"/><radialGradient id="radial-gradient-9" cx="485.06" cy="471.26" r="15.16" gradientTransform="matrix(1, 0, 0, 1, 0, 0)" xlink:href="#linear-gradient"/><radialGradient id="radial-gradient-10" cx="485.06" cy="570.35" r="52.1" gradientUnits="userSpaceOnUse"><stop offset="0" stop-color="#ed2024"/><stop offset="0.08" stop-color="#f26164"/><stop offset="0.17" stop-color="#f8a4a6"/><stop offset="0.25" stop-color="#fcd5d6"/><stop offset="0.31" stop-color="#fef4f4"/><stop offset="0.34" stop-color="#fff"/><stop offset="0.39" stop-color="#fef1f1"/><stop offset="0.48" stop-color="#fbcccd"/><stop offset="0.6" stop-color="#f68f91"/><stop offset="0.76" stop-color="#ef3d41"/><stop offset="0.81" stop-color="#ed2024"/></radialGradient><radialGradient id="radial-gradient-11" cx="532.56" cy="578.84" r="80.31" gradientTransform="translate(213.81 -167.96) rotate(22.44)" xlink:href="#linear-gradient"/><radialGradient id="radial-gradient-12" cx="485.06" cy="485.06" r="259.67" gradientTransform="matrix(1, 0, 0, 1, 0, 0)" xlink:href="#linear-gradient"/></defs><title>Intra</title><g id="Intra"><circle class="cls-1" cx="485.06" cy="485.06" r="475.01"/><polygon class="cls-2" points="550.62 515.8 527.39 496.31 550.01 475.71 566.98 489.95 550.62 515.8"/><polygon class="cls-3" points="570.35 570.71 565.08 540.85 595.65 539.6 599.5 561.42 570.35 570.71"/><polygon class="cls-4" points="550.16 625.45 565.32 599.19 589.54 617.88 578.46 637.07 550.16 625.45"/><polygon class="cls-5" points="499.52 654.41 528.01 644.04 534.54 673.92 513.72 681.5 499.52 654.41"/><polygon class="cls-6" points="442.1 644.04 470.6 654.41 456.39 681.5 435.57 673.92 442.1 644.04"/><polygon class="cls-7" points="404.79 599.19 419.95 625.45 391.65 637.07 380.57 617.88 404.79 599.19"/><polygon class="cls-8" points="405.03 540.85 399.77 570.71 370.62 561.42 374.46 539.6 405.03 540.85"/><polygon class="cls-9" points="442.72 496.31 419.49 515.8 403.13 489.95 420.1 475.71 442.72 496.31"/><polygon class="cls-10" points="500.22 486.42 469.89 486.42 473.98 456.1 496.13 456.1 500.22 486.42"/><circle class="cls-11" cx="485.06" cy="570.35" r="41.08"/><circle class="cls-12" cx="485.06" cy="570.35" r="77.3"/><polygon class="cls-13" points="485.06 233.46 227.34 423.35 308.61 423.35 308.61 736.65 661.5 736.65 661.5 423.35 742.77 423.35 485.06 233.46"/></g></svg>