<svg xmlns="http://www.w3.org/2000/svg" xmlns:xlink="http://www.w3.org/1999/xlink" viewBox="0 0 941.24 941.24"><defs><style>.cls-1,.cls-10,.cls-11,.cls-12,.cls-13,.cls-14,.cls-15,.cls-16,.cls-17,.cls-18,.cls-19,.cls-2,.cls-20,.cls-21,.cls-22,.cls-23,.cls-24,.cls-25,.cls-26,.cls-27,.cls-28,.cls-29,.cls-3,.cls-30,.cls-31,.cls-32,.cls-33,.cls-34,.cls-35,.cls-36,.cls-37,.cls-38,.cls-39,.cls-4,.cls-40,.cls-41,.cls-42,.cls-43,.cls-44,.cls-45,.cls-46,.cls-47,.cls-48,.cls-49,.cls-5,.cls-50,.cls-51,.cls-52,.cls-53,.cls-54,.cls-55,.cls-56,.cls-6,.cls-63,.cls-64,.cls-65,.cls-66,.cls-67,.cls-68,.cls-69,.cls-7,.cls-70,.cls-71,.cls-72,.cls-73,.cls-74,.cls-75,.cls-76,.cls-77,.cls-78,.cls-79,.cls-8,.cls-9{fill:none;}.cls-1,.cls-10,.cls-11,.cls-12,.cls-13,.cls-14,.cls-15,.cls-16,.cls-17,.cls-18,.cls-19,.cls-2,.cls-20,.cls-21,.cls-22,.cls-23,.cls-24,.cls-25,.cls-26,.cls-27,.cls-28,.cls-29,.cls-3,.cls-30,.cls-31,.cls-32,.cls-33,.cls-34,.cls-35,.cls-36,.cls-37,.cls-38,.cls-39,.cls-4,.cls-40,.cls-41,.cls-42,.cls-43,.cls-44,.cls-45,.cls-46,.cls-47,.cls-48,.cls-49,.cls-5,.cls-50,.cls-51,.cls-52,.cls-53,.cls-54,.cls-55,.cls-56,.cls-6,.cls-7,.cls-8,.cls-9{stroke-miterlimit:10;}.cls-1{stroke-width:20px;stroke:url(#linear-gradient);}.cls-10,.cls-11,.cls-12,.cls-13,.cls-14,.cls-15,.cls-16,.cls-17,.cls-18,.cls-19,.cls-2,.cls-20,.cls-21,.cls-22,.cls-23,.cls-24,.cls-25,.cls-26,.cls-27,.cls-28,.cls-29,.cls-3,.cls-30,.cls-31,.cls-32,.cls-33,.cls-34,.cls-35,.cls-36,.cls-37,.cls-38,.cls-39,.cls-4,.cls-40,.cls-41,.cls-42,.cls-43,.cls-44,.cls-45,.cls-46,.cls-47,.cls-48,.cls-49,.cls-5,.cls-50,.cls-6,.cls-68,.cls-69,.cls-7,.cls-70,.cls-71,.cls-72,.cls-73,.cls-74,.cls-75,.cls-76,.cls-77,.cls-78,.cls-79,.cls-8,.cls-9{stroke-width:3px;}.cls-2{stroke:url(#radial-gradient);}.cls-3{stroke:url(#radial-gradient-2);}.cls-4{stroke:url(#radial-gradient-3);}.cls-5{stroke:url(#radial-gradient-5);}.cls-6{stroke:url(#radial-gradient-6);}.cls-7{stroke:url(#radial-gradient-7);}.cls-8{stroke:url(#radial-gradient-8);}.cls-9{stroke:url(#radial-gradient-9);}.cls-10{stroke:url(#radial-gradient-10);}.cls-11{stroke:url(#radial-gradient-11);}.cls-12{stroke:url(#radial-gradient-12);}.cls-13{stroke:url(#radial-gradient-13);}.cls-14{stroke:url(#radial-gradient-14);}.cls-15{stroke:url(#radial-gradient-15);}.cls-16{stroke:url(#radial-gradient-16);}.cls-17{stroke:url(#radial-gradient-17);}.cls-18{stroke:url(#radial-gradient-18);}.cls-19{stroke:url(#radial-gradient-19);}.cls-20{stroke:url(#radial-gradient-20);}.cls-21{stroke:url(#radial-gradient-21);}.cls-22{stroke:url(#radial-gradient-22);}.cls-23{stroke:url(#radial-gradient-23);}.cls-24{stroke:url(#radial-gradient-24);}.cls-25{stroke:url(#radial-gradient-25);}.cls-26{stroke:url(#radial-gradient-26);}.cls-27{stroke:url(#radial-gradient-27);}.cls-28{stroke:url(#radial-gradient-28);}.cls-29{stroke:url(#radial-gradient-29);}.cls-30{stroke:url(#radial-gradient-30);}.cls-31{stroke:url(#radial-gradient-31);}.cls-32{stroke:url(#radial-gradient-32);}.cls-33{stroke:url(#radial-gradient-33);}.cls-34{stroke:url(#radial-gradient-34);}.cls-35{stroke:url(#radial-gradient-35);}.cls-36{stroke:url(#radial-gradient-36);}.cls-37{stroke:url(#radial-gradient-37);}.cls-38{stroke:url(#radial-gradient-38);}.cls-39{stroke:url(#radial-gradient-39);}.cls-40{stroke:url(#radial-gradient-40);}.cls-41{stroke:url(#radial-gradient-41);}.cls-42{stroke:url(#radial-gradient-42);}.cls-43{stroke:url(#radial-gradient-43);}.cls-44{stroke:url(#radial-gradient-44);}.cls-45{stroke:url(#radial-gradient-45);}.cls-46{stroke:url(#radial-gradient-46);}.cls-47{stroke:url(#radial-gradient-47);}.cls-48{stroke:url(#radial-gradient-48);}.cls-49{stroke:url(#radial-gradient-49);}.cls-50{stroke:url(#radial-gradient-50);}.cls-51,.cls-52,.cls-53,.cls-54{stroke-width:5px;}.cls-51{stroke:url(#radial-gradient-51);}.cls-52{stroke:url(#radial-gradient-52);}.cls-53{stroke:url(#radial-gradient-53);}.cls-54{stroke:url(#radial-gradient-54);}.cls-55,.cls-56{stroke-width:8px;}.cls-55{stroke:url(#radial-gradient-55);}.cls-56{stroke:url(#radial-gradient-56);}.cls-57{fill:url(#radial-gradient-57);}.cls-58{fill:url(#radial-gradient-58);}.cls-59{fill:url(#radial-gradient-59);}.cls-60{fill:url(#radial-gradient-60);}.cls-61{fill:url(#radial-gradient-61);}.cls-62{fill:url(#radial-gradient-62);}.cls-63,.cls-64,.cls-65,.cls-66,.cls-78,.cls-79{stroke-linecap:round;}.cls-63,.cls-64,.cls-65,.cls-66,.cls-67,.cls-68,.cls-69,.cls-70,.cls-71,.cls-72,.cls-73,.cls-74,.cls-75,.cls-76,.cls-77,.cls-78,.cls-79{stroke-linejoin:round;}.cls-63,.cls-64{stroke-width:10px;}.cls-63{stroke:url(#radial-gradient-63);}.cls-64{stroke:url(#linear-gradient-2);}.cls-65,.cls-66,.cls-67{stroke-width:4px;}.cls-65{stroke:url(#radial-gradient-64);}.cls-66{stroke:url(#radial-gradient-65);}.cls-67{stroke:url(#radial-gradient-66);}.cls-68{stroke:url(#radial-gradient-67);}.cls-69{stroke:url(#radial-gradient-68);}.cls-70{stroke:url(#radial-gradient-69);}.cls-71{stroke:url(#radial-gradient-70);}.cls-72{stroke:url(#radial-gradient-71);}.cls-73{stroke:url(#radial-gradient-72);}.cls-74{stroke:url(#radial-gradient-73);}.cls-75{stroke:url(#radial-gradient-74);}.cls-76{stroke:url(#radial-gradient-75);}.cls-77{stroke:url(#radial-gradient-76);}.cls-78{stroke:url(#linear-gradient-3);}.cls-79{stroke:url(#linear-gradient-4);}</style><linearGradient id="linear-gradient" x1="942.99" y1="659.24" x2="57.01" y2="340.76" gradientTransform="translate(483.33 -236.37) rotate(46.03)" gradientUnits="userSpaceOnUse"><stop offset="0" stop-color="#ed2024"/><stop offset="0.12" stop-color="#f26164"/><stop offset="0.25" stop-color="#f8a4a6"/><stop offset="0.36" stop-color="#fcd5d6"/><stop offset="0.45" stop-color="#fef4f4"/><stop offset="0.49" stop-color="#fff"/><stop offset="0.56" stop-color="#fffbfb"/><stop offset="0.63" stop-color="#feefef"/><stop offset="0.69" stop-color="#fcdbdb"/><stop offset="0.76" stop-color="#fabebf"/><stop offset="0.82" stop-color="#f79a9b"/><stop offset="0.89" stop-color="#f36d6f"/><stop offset="0.96" stop-color="#ef393c"/><stop offset="0.98" stop-color="#ed2024"/></linearGradient><radialGradient id="radial-gradient" cx="336.2" cy="405.68" r="19.41" gradientTransform="translate(455.53 -382.53) rotate(45)" xlink:href="#linear-gradient"/><radialGradient id="radial-gradient-2" cx="365.46" cy="491.96" r="19.41" gradientTransform="translate(455.53 -382.53) rotate(45)" xlink:href="#linear-gradient"/><radialGradient id="radial-gradient-3" cx="730.7" cy="529.67" r="19.41" gradientTransform="translate(-525.14 325.05) rotate(-45)" xlink:href="#linear-gradient"/><radialGradient id="radial-gradient-5" cx="671.66" cy="588.7" r="19.41" gradientTransform="translate(-525.14 325.05) rotate(-45)" xlink:href="#linear-gradient"/><radialGradient id="radial-gradient-6" cx="425.58" cy="552.08" r="19.41" gradientTransform="translate(455.53 -382.53) rotate(45)" xlink:href="#linear-gradient"/><radialGradient id="radial-gradient-7" cx="342.86" cy="515" r="19.41" gradientTransform="matrix(-0.71, 0.71, 0.71, 0.71, 453.14, -382.53)" xlink:href="#linear-gradient"/><radialGradient id="radial-gradient-8" cx="707.66" cy="507.07" r="19.41" gradientTransform="matrix(-0.71, -0.71, -0.71, 0.71, 1433.81, 325.05)" xlink:href="#linear-gradient"/><radialGradient id="radial-gradient-9" cx="648.63" cy="566.1" r="19.41" gradientTransform="matrix(-0.71, -0.71, -0.71, 0.71, 1433.81, 325.05)" xlink:href="#linear-gradient"/><radialGradient id="radial-gradient-10" cx="402.97" cy="575.12" r="19.41" gradientTransform="matrix(-0.71, 0.71, 0.71, 0.71, 453.14, -382.53)" xlink:href="#linear-gradient"/><radialGradient id="radial-gradient-11" cx="395.16" cy="346.72" r="19.41" gradientTransform="translate(455.53 -382.53) rotate(45)" xlink:href="#linear-gradient"/><radialGradient id="radial-gradient-12" cx="455.11" cy="286.77" r="19.41" gradientTransform="translate(455.53 -382.53) rotate(45)" xlink:href="#linear-gradient"/><radialGradient id="radial-gradient-13" cx="307.7" cy="434.18" r="19.41" gradientTransform="translate(455.53 -382.53) rotate(45)" xlink:href="#linear-gradient"/><radialGradient id="radial-gradient-14" cx="593.32" cy="500.77" r="19.41" gradientTransform="translate(-407.55 207.5) rotate(-45)" xlink:href="#linear-gradient"/><radialGradient id="radial-gradient-15" cx="652.78" cy="560.23" r="19.41" gradientTransform="translate(-407.55 207.5) rotate(-45)" xlink:href="#linear-gradient"/><radialGradient id="radial-gradient-16" cx="712.24" cy="619.68" r="19.41" gradientTransform="translate(-407.55 207.5) rotate(-45)" xlink:href="#linear-gradient"/><radialGradient id="radial-gradient-17" cx="742.21" cy="649.66" r="19.41" gradientTransform="translate(-407.55 207.5) rotate(-45)" xlink:href="#linear-gradient"/><radialGradient id="radial-gradient-18" cx="312.51" cy="419.86" r="15.05" gradientTransform="translate(994.73 -108.68) rotate(90)" xlink:href="#linear-gradient"/><radialGradient id="radial-gradient-19" cx="354.21" cy="419.86" r="15.05" gradientTransform="translate(994.73 -108.68) rotate(90)" xlink:href="#linear-gradient"/><radialGradient id="radial-gradient-20" cx="395.91" cy="419.86" r="15.05" gradientTransform="translate(994.73 -108.68) rotate(90)" xlink:href="#linear-gradient"/><radialGradient id="radial-gradient-21" cx="312.51" cy="628.66" r="15.05" gradientTransform="translate(994.73 -108.68) rotate(90)" xlink:href="#linear-gradient"/><radialGradient id="radial-gradient-22" cx="354.21" cy="628.66" r="15.05" gradientTransform="translate(994.73 -108.68) rotate(90)" xlink:href="#linear-gradient"/><radialGradient id="radial-gradient-23" cx="395.91" cy="628.66" r="15.05" gradientTransform="translate(994.73 -108.68) rotate(90)" xlink:href="#linear-gradient"/><radialGradient id="radial-gradient-24" cx="385.77" cy="142.06" r="13.26" gradientTransform="matrix(1, 0, 0, 1, 0, 0)" xlink:href="#linear-gradient"/><radialGradient id="radial-gradient-25" cx="428.16" cy="142.06" r="13.26" gradientTransform="matrix(1, 0, 0, 1, 0, 0)" xlink:href="#linear-gradient"/><radialGradient id="radial-gradient-26" cx="470.55" cy="142.06" r="13.26" gradientTransform="matrix(1, 0, 0, 1, 0, 0)" xlink:href="#linear-gradient"/><radialGradient id="radial-gradient-27" cx="512.24" cy="142.06" r="13.26" gradientTransform="matrix(1, 0, 0, 1, 0, 0)" xlink:href="#linear-gradient"/><radialGradient id="radial-gradient-28" cx="553.94" cy="142.06" r="13.26" gradientTransform="matrix(1, 0, 0, 1, 0, 0)" xlink:href="#linear-gradient"/><radialGradient id="radial-gradient-29" cx="365.47" cy="371.38" r="16.03" gradientTransform="matrix(1, 0, 0, 1, 0, 0)" xlink:href="#linear-gradient"/><radialGradient id="radial-gradient-30" cx="575.86" cy="371.38" r="16.03" gradientTransform="matrix(1, 0, 0, 1, 0, 0)" xlink:href="#linear-gradient"/><radialGradient id="radial-gradient-31" cx="470.67" cy="349.01" r="91.14" gradientTransform="matrix(1, 0, 0, 1, 0, 0)" xlink:href="#linear-gradient"/><radialGradient id="radial-gradient-32" cx="470.67" cy="142.06" r="91.14" gradientTransform="matrix(1, 0, 0, 1, 0, 0)" xlink:href="#linear-gradient"/><radialGradient id="radial-gradient-33" cx="400.38" cy="476.83" r="63.09" gradientTransform="translate(-4.93 -201.91)" xlink:href="#linear-gradient"/><radialGradient id="radial-gradient-34" cx="443.47" cy="549.48" r="64.09" gradientTransform="translate(-120.67 -231.48)" xlink:href="#linear-gradient"/><radialGradient id="radial-gradient-35" cx="443.47" cy="195.07" r="64.09" gradientTransform="translate(233.74 122.93)" xlink:href="#linear-gradient"/><radialGradient id="radial-gradient-36" cx="400.38" cy="268.35" r="63.09" gradientTransform="translate(203.55 6.57)" xlink:href="#linear-gradient"/><radialGradient id="radial-gradient-37" cx="293.61" cy="250.21" r="21.18" gradientTransform="matrix(1, 0, 0, 1, 0, 0)" xlink:href="#linear-gradient"/><radialGradient id="radial-gradient-38" cx="293.61" cy="216.92" r="8.34" gradientTransform="matrix(1, 0, 0, 1, 0, 0)" xlink:href="#linear-gradient"/><radialGradient id="radial-gradient-39" cx="293.61" cy="250.21" r="8.34" gradientTransform="matrix(1, 0, 0, 1, 0, 0)" xlink:href="#linear-gradient"/><radialGradient id="radial-gradient-40" cx="293.61" cy="300.6" r="8.34" gradientTransform="matrix(1, 0, 0, 1, 0, 0)" xlink:href="#linear-gradient"/><radialGradient id="radial-gradient-41" cx="293.61" cy="349.01" r="8.34" gradientTransform="matrix(1, 0, 0, 1, 0, 0)" xlink:href="#linear-gradient"/><radialGradient id="radial-gradient-42" cx="293.61" cy="299.9" r="21.18" gradientTransform="matrix(1, 0, 0, 1, 0, 0)" xlink:href="#linear-gradient"/><radialGradient id="radial-gradient-43" cx="293.61" cy="349.01" r="21.18" gradientTransform="matrix(1, 0, 0, 1, 0, 0)" xlink:href="#linear-gradient"/><radialGradient id="radial-gradient-44" cx="647.33" cy="250.21" r="21.18" gradientTransform="matrix(1, 0, 0, 1, 0, 0)" xlink:href="#linear-gradient"/><radialGradient id="radial-gradient-45" cx="647.33" cy="216.92" r="8.34" gradientTransform="matrix(1, 0, 0, 1, 0, 0)" xlink:href="#linear-gradient"/><radialGradient id="radial-gradient-46" cx="647.33" cy="250.21" r="8.34" gradientTransform="matrix(1, 0, 0, 1, 0, 0)" xlink:href="#linear-gradient"/><radialGradient id="radial-gradient-47" cx="647.33" cy="300.6" r="8.34" gradientTransform="matrix(1, 0, 0, 1, 0, 0)" xlink:href="#linear-gradient"/><radialGradient id="radial-gradient-48" cx="647.33" cy="349.01" r="8.34" gradientTransform="matrix(1, 0, 0, 1, 0, 0)" xlink:href="#linear-gradient"/><radialGradient id="radial-gradient-49" cx="647.33" cy="299.9" r="21.18" gradientTransform="matrix(1, 0, 0, 1, 0, 0)" xlink:href="#linear-gradient"/><radialGradient id="radial-gradient-50" cx="647.33" cy="349.01" r="21.18" gradientTransform="matrix(1, 0, 0, 1, 0, 0)" xlink:href="#linear-gradient"/><radialGradient id="radial-gradient-51" cx="85.36" cy="735.71" r="25.92" gradientTransform="translate(183.1 -183.1)" xlink:href="#linear-gradient"/><radialGradient id="radial-gradient-52" cx="361.56" cy="348.1" r="25.92" gradientTransform="matrix(0, 1, 1, 0, -218.06, 218.06)" xlink:href="#linear-gradient"/><radialGradient id="radial-gradient-53" cx="175.01" cy="658.99" r="36.66" gradientTransform="matrix(1, 0, 0, 1, 0, 0)" xlink:href="#linear-gradient"/><radialGradient id="radial-gradient-54" cx="137.88" cy="658.99" r="36.66" gradientTransform="matrix(1, 0, 0, 1, 0, 0)" xlink:href="#linear-gradient"/><radialGradient id="radial-gradient-55" cx="156.57" cy="552.67" r="49.67" gradientTransform="matrix(1, 0, 0, 1, 0, 0)" xlink:href="#linear-gradient"/><radialGradient id="radial-gradient-56" cx="287.08" cy="583.87" r="28.07" gradientTransform="translate(366.42 -148.12) rotate(45)" xlink:href="#linear-gradient"/><radialGradient id="radial-gradient-57" cx="283.5" cy="647.38" r="14.36" gradientTransform="matrix(1, 0, 0, 1, 0, 0)" xlink:href="#linear-gradient"/><radialGradient id="radial-gradient-58" cx="313.83" cy="647.35" r="15.16" gradientTransform="matrix(1, 0, 0, 1, 0, 0)" xlink:href="#linear-gradient"/><radialGradient id="radial-gradient-59" cx="344.93" cy="647.35" r="13.75" gradientTransform="matrix(1, 0, 0, 1, 0, 0)" xlink:href="#linear-gradient"/><radialGradient id="radial-gradient-60" cx="374.27" cy="647.35" r="14.33" gradientTransform="matrix(1, 0, 0, 1, 0, 0)" xlink:href="#linear-gradient"/><radialGradient id="radial-gradient-61" cx="396.25" cy="647.35" r="13.68" gradientTransform="matrix(1, 0, 0, 1, 0, 0)" xlink:href="#linear-gradient"/><radialGradient id="radial-gradient-62" cx="419.96" cy="647.35" r="12.61" gradientTransform="matrix(1, 0, 0, 1, 0, 0)" xlink:href="#linear-gradient"/><radialGradient id="radial-gradient-63" cx="319.45" cy="619.98" r="77.78" gradientTransform="matrix(1, 0, 0, 1, 0, 0)" xlink:href="#linear-gradient"/><linearGradient id="linear-gradient-2" x1="216.21" y1="752.69" x2="422.69" y2="546.2" gradientTransform="matrix(1, 0, 0, 1, 0, 0)" xlink:href="#linear-gradient"/><radialGradient id="radial-gradient-64" cx="662.32" cy="677.84" r="15.8" gradientTransform="matrix(1, 0, 0, 1, 0, 0)" xlink:href="#linear-gradient"/><radialGradient id="radial-gradient-65" cx="691.7" cy="676.87" r="12.41" gradientTransform="matrix(1, 0, 0, 1, 0, 0)" xlink:href="#linear-gradient"/><radialGradient id="radial-gradient-66" cx="662.05" cy="613.54" r="21.8" gradientTransform="matrix(1, 0, 0, 1, 0, 0)" xlink:href="#linear-gradient"/><radialGradient id="radial-gradient-67" cx="10.87" cy="625.03" r="75.13" gradientTransform="matrix(-1, 0, 0, 1, 777.4, 0)" xlink:href="#linear-gradient"/><radialGradient id="radial-gradient-68" cx="616.46" cy="625.03" r="75.13" gradientTransform="matrix(1, 0, 0, 1, 0, 0)" xlink:href="#linear-gradient"/><radialGradient id="radial-gradient-69" cx="554.79" cy="595.39" r="72.93" gradientTransform="matrix(1, 0, 0, 1, 0, 0)" xlink:href="#linear-gradient"/><radialGradient id="radial-gradient-70" cx="544.44" cy="595.39" r="72.93" gradientTransform="matrix(1, 0, 0, 1, 0, 0)" xlink:href="#linear-gradient"/><radialGradient id="radial-gradient-71" cx="534.08" cy="595.39" r="72.93" gradientTransform="matrix(1, 0, 0, 1, 0, 0)" xlink:href="#linear-gradient"/><radialGradient id="radial-gradient-72" cx="523.73" cy="595.39" r="72.93" gradientTransform="matrix(1, 0, 0, 1, 0, 0)" xlink:href="#linear-gradient"/><radialGradient id="radial-gradient-73" cx="800.14" cy="595.39" r="72.93" gradientTransform="matrix(1, 0, 0, 1, 0, 0)" xlink:href="#linear-gradient"/><radialGradient id="radial-gradient-74" cx="789.79" cy="595.39" r="72.93" gradientTransform="matrix(1, 0, 0, 1, 0, 0)" xlink:href="#linear-gradient"/><radialGradient id="radial-gradient-75" cx="779.44" cy="595.39" r="72.93" gradientTransform="matrix(1, 0, 0, 1, 0, 0)" xlink:href="#linear-gradient"/><radialGradient id="radial-gradient-76" cx="769.08" cy="595.39" r="72.93" gradientTransform="matrix(1, 0, 0, 1, 0, 0)" xlink:href="#linear-gradient"/><linearGradient id="linear-gradient-3" x1="513.27" y1="722.85" x2="811.37" y2="722.85" gradientTransform="matrix(1, 0, 0, 1, 0, 0)" xlink:href="#linear-gradient"/><linearGradient id="linear-gradient-4" x1="513.27" y1="473.06" x2="811.37" y2="473.06" gradientTransform="matrix(1, 0, 0, 1, 0, 0)" xlink:href="#linear-gradient"/></defs><title>Mega_event_icon</title><g id="Mega_events" data-name="Mega events"><circle class="cls-1" cx="470.62" cy="470.62" r="460.62"/><line class="cls-2" x1="426.31" y1="123.37" x2="386.48" y2="160.75"/><line class="cls-3" x1="385.99" y1="205.07" x2="346.16" y2="242.45"/><line class="cls-4" x1="347.38" y1="162.99" x2="384.76" y2="202.82"/><line class="cls-4" x1="347.38" y1="162.99" x2="384.76" y2="202.82"/><line class="cls-5" x1="347.38" y1="246.47" x2="384.76" y2="286.3"/><line class="cls-6" x1="385.99" y1="290.09" x2="346.16" y2="327.47"/><line class="cls-7" x1="554.95" y1="205.38" x2="594.78" y2="242.76"/><line class="cls-8" x1="593.55" y1="163.29" x2="556.17" y2="203.13"/><line class="cls-9" x1="593.55" y1="246.78" x2="556.17" y2="286.61"/><line class="cls-10" x1="554.95" y1="290.4" x2="594.78" y2="327.78"/><line class="cls-11" x1="509.7" y1="123.37" x2="469.87" y2="160.75"/><line class="cls-12" x1="594.48" y1="123.37" x2="554.65" y2="160.75"/><line class="cls-13" x1="386" y1="123.37" x2="346.17" y2="160.75"/><line class="cls-14" x1="347.4" y1="122.14" x2="384.78" y2="161.97"/><line class="cls-15" x1="431.48" y1="122.14" x2="468.86" y2="161.97"/><line class="cls-16" x1="515.57" y1="122.14" x2="552.95" y2="161.97"/><line class="cls-17" x1="557.96" y1="122.14" x2="595.34" y2="161.97"/><line class="cls-18" x1="596.09" y1="203.83" x2="553.64" y2="203.83"/><line class="cls-19" x1="596.09" y1="245.54" x2="553.64" y2="245.54"/><line class="cls-20" x1="596.09" y1="287.24" x2="553.64" y2="287.24"/><line class="cls-21" x1="387.3" y1="203.83" x2="344.84" y2="203.83"/><line class="cls-22" x1="387.3" y1="245.54" x2="344.84" y2="245.54"/><line class="cls-23" x1="387.3" y1="287.24" x2="344.84" y2="287.24"/><line class="cls-24" x1="385.77" y1="123.37" x2="385.77" y2="160.75"/><line class="cls-25" x1="428.16" y1="123.37" x2="428.16" y2="160.75"/><line class="cls-26" x1="470.55" y1="123.37" x2="470.55" y2="160.75"/><line class="cls-27" x1="512.24" y1="123.37" x2="512.24" y2="160.75"/><line class="cls-28" x1="553.94" y1="123.37" x2="553.94" y2="160.75"/><rect class="cls-29" x="344.87" y="367.85" width="41.21" height="7.07"/><rect class="cls-30" x="555.25" y="367.85" width="41.21" height="7.07"/><rect class="cls-31" x="344.87" y="330.32" width="251.59" height="37.38"/><rect class="cls-32" x="344.87" y="123.37" width="251.59" height="37.38"/><rect class="cls-33" x="310.66" y="253.71" width="169.58" height="42.41" transform="translate(640.99 -149.92) rotate(90)"/><rect class="cls-34" x="238.01" y="291.74" width="169.58" height="52.52" transform="translate(611.42 -34.17) rotate(90)"/><rect class="cls-35" x="592.42" y="291.74" width="169.58" height="52.52" transform="translate(965.83 -388.58) rotate(90)"/><rect class="cls-36" x="519.14" y="253.71" width="169.58" height="42.41" transform="translate(849.46 -358.39) rotate(90)"/><circle class="cls-37" cx="293.61" cy="250.21" r="19.68"/><circle class="cls-38" cx="293.61" cy="216.92" r="6.84"/><circle class="cls-39" cx="293.61" cy="250.21" r="6.84"/><circle class="cls-40" cx="293.61" cy="300.6" r="6.84"/><circle class="cls-41" cx="293.61" cy="349.01" r="6.84"/><circle class="cls-42" cx="293.61" cy="299.9" r="19.68"/><circle class="cls-43" cx="293.61" cy="349.01" r="19.68"/><circle class="cls-44" cx="647.33" cy="250.21" r="19.68"/><circle class="cls-45" cx="647.33" cy="216.92" r="6.84"/><circle class="cls-46" cx="647.33" cy="250.21" r="6.84"/><circle class="cls-47" cx="647.33" cy="300.6" r="6.84"/><circle class="cls-48" cx="647.33" cy="349.01" r="6.84"/><circle class="cls-49" cx="647.33" cy="299.9" r="19.68"/><circle class="cls-50" cx="647.33" cy="349.01" r="19.68"/><path class="cls-51" d="M235.52,545.71H269s30.57,6.22,32.36,11.89c1.66,5.23-24.47-1.64-31.09-4s-34.7-.61-34.7-.61Z" transform="translate(-29.38 -29.38)"/><path class="cls-52" d="M123.14,546.69v33.42s6.21,30.58,11.89,32.37c5.23,1.65-1.64-24.48-4-31.1s-.61-34.69-.61-34.69Z" transform="translate(-29.38 -29.38)"/><rect class="cls-53" x="168.87" y="610.37" width="12.27" height="97.23" rx="4.2"/><rect class="cls-54" x="131.75" y="610.37" width="12.27" height="97.23" rx="4.2"/><rect class="cls-55" x="114.03" y="504.05" width="85.08" height="97.23" rx="22.42"/><circle class="cls-56" cx="156.57" cy="467.73" r="24.07"/><path class="cls-57" d="M270.74,632.22a57.59,57.59,0,0,1,8.54-.64c5.76,0,9.87,1.33,12.59,3.87s4.38,6.14,4.38,11.17-1.56,9.22-4.47,12.08-7.7,4.48-13.75,4.48a64.94,64.94,0,0,1-7.29-.37Zm4,27.5a25.85,25.85,0,0,0,4.06.23c8.58,0,13.24-4.8,13.24-13.2,0-7.33-4.11-12-12.6-12a22.08,22.08,0,0,0-4.7.42Z" transform="translate(-29.38 -29.38)"/><path class="cls-58" d="M328,647c0,10.7-6.5,16.38-14.44,16.38-8.21,0-14-6.37-14-15.78,0-9.87,6.14-16.33,14.44-16.33C322.55,631.3,328,637.8,328,647Zm-24.13.51c0,6.64,3.6,12.59,9.92,12.59s10-5.86,10-12.91c0-6.19-3.23-12.64-9.92-12.64S303.91,640.71,303.91,647.54Z" transform="translate(-29.38 -29.38)"/><path class="cls-59" d="M333.26,662.9V631.81h4.38l10,15.73a86.41,86.41,0,0,1,5.58,10.1l.1,0c-.37-4.15-.47-7.93-.47-12.77v-13h3.79V662.9h-4.06l-9.87-15.78a98.52,98.52,0,0,1-5.82-10.38l-.13,0c.23,3.92.32,7.66.32,12.82V662.9Z" transform="translate(-29.38 -29.38)"/><path class="cls-60" d="M368.64,653.12l-3.23,9.78h-4.15l10.56-31.09h4.85l10.61,31.09H383l-3.33-9.78ZM378.83,650l-3-9c-.69-2-1.15-3.87-1.61-5.67h-.1c-.46,1.84-1,3.74-1.57,5.63l-3,9Z" transform="translate(-29.38 -29.38)"/><path class="cls-61" d="M394.2,635.22h-9.46v-3.41h23v3.41h-9.5V662.9H394.2Z" transform="translate(-29.38 -29.38)"/><path class="cls-62" d="M427.32,648.32H415.24v11.21h13.47v3.37H411.22V631.81H428v3.37H415.24V645h12.08Z" transform="translate(-29.38 -29.38)"/><rect class="cls-63" x="219.74" y="591.27" width="199.41" height="57.42"/><rect class="cls-64" x="219.74" y="549.74" width="199.41" height="199.41"/><line class="cls-65" x1="662.32" y1="657.59" x2="662.32" y2="698.1"/><path class="cls-66" d="M677,673.64s15,14.52,29.49,0" transform="translate(-29.38 -29.38)"/><rect class="cls-67" x="650.02" y="588.1" width="24.07" height="50.89" rx="9.24"/><path class="cls-68" d="M736.75,523.74s15,84.91,59.54,94.74c0,0-58.5,72-48.15,107.69" transform="translate(-29.38 -29.38)"/><path class="cls-69" d="M646.24,523.74s-15,84.91-59.54,94.74c0,0,58.5,72,48.15,107.69" transform="translate(-29.38 -29.38)"/><line class="cls-70" x1="554.79" y1="492.27" x2="554.79" y2="698.52"/><line class="cls-71" x1="544.44" y1="492.27" x2="544.44" y2="698.52"/><line class="cls-72" x1="534.08" y1="492.27" x2="534.08" y2="698.52"/><line class="cls-73" x1="523.73" y1="492.27" x2="523.73" y2="698.52"/><line class="cls-74" x1="800.14" y1="492.27" x2="800.14" y2="698.52"/><line class="cls-75" x1="789.79" y1="492.27" x2="789.79" y2="698.52"/><line class="cls-76" x1="779.44" y1="492.27" x2="779.44" y2="698.52"/><line class="cls-77" x1="769.08" y1="492.27" x2="769.08" y2="698.52"/><rect class="cls-78" x="514.77" y="698.36" width="295.11" height="48.99"/><rect class="cls-79" x="514.77" y="450.77" width="295.11" height="44.58"/></g></svg>