<svg xmlns="http://www.w3.org/2000/svg" xmlns:xlink="http://www.w3.org/1999/xlink" viewBox="0 0 991.53 991.53"><defs><style>.cls-1,.cls-2{fill:none;stroke-miterlimit:10;}.cls-1{stroke-width:20px;stroke:url(#linear-gradient);}.cls-2{stroke-width:10px;stroke:url(#linear-gradient-2);}</style><linearGradient id="linear-gradient" y1="495.77" x2="991.53" y2="495.77" gradientUnits="userSpaceOnUse"><stop offset="0" stop-color="#ed2024"/><stop offset="0.12" stop-color="#f26164"/><stop offset="0.25" stop-color="#f8a4a6"/><stop offset="0.36" stop-color="#fcd5d6"/><stop offset="0.45" stop-color="#fef4f4"/><stop offset="0.49" stop-color="#fff"/><stop offset="0.56" stop-color="#fffbfb"/><stop offset="0.63" stop-color="#feefef"/><stop offset="0.69" stop-color="#fcdbdb"/><stop offset="0.76" stop-color="#fabebf"/><stop offset="0.82" stop-color="#f79a9b"/><stop offset="0.89" stop-color="#f36d6f"/><stop offset="0.96" stop-color="#ef393c"/><stop offset="0.98" stop-color="#ed2024"/></linearGradient><linearGradient id="linear-gradient-2" x1="260.89" y1="500" x2="739.11" y2="500" xlink:href="#linear-gradient"/></defs><title>merchandise</title><g id="merchandise"><circle class="cls-1" cx="495.77" cy="495.77" r="485.77"/><path class="cls-2" d="M731.49,436.83,649.1,324.37v5.72c0-5.91-3.88-10.9-9.07-11.67l-54.28-8c-6.35-.94-12.55,2.92-15.08,9.56-11.77,30.93-39,52.59-70.67,52.59S441.1,350.89,429.33,320c-2.53-6.64-8.73-10.5-15.08-9.56l-54.28,8c-5.19.77-9.07,5.76-9.07,11.67v-5.72L268.51,436.83a15.5,15.5,0,0,0-2.62,9V512.4c0,10.39,7.95,15.83,12.88,8.82L350.9,418.69V651.77c0,21,15,38,33.61,38h231c18.57,0,33.61-17,33.61-38V418.69l72.13,102.53c4.93,7,12.88,1.57,12.88-8.82V445.81A15.5,15.5,0,0,0,731.49,436.83Z" transform="translate(-4.23 -4.23)"/><image width="837" height="827" transform="translate(431.78 432.55) scale(0.15)" xlink:href="logo%20white.png"/></g></svg>