<svg xmlns="http://www.w3.org/2000/svg" xmlns:xlink="http://www.w3.org/1999/xlink" viewBox="0 0 959.51 959.51"><defs><style>.cls-1,.cls-10,.cls-11,.cls-2,.cls-25,.cls-3,.cls-4,.cls-5,.cls-6,.cls-7,.cls-8,.cls-9{stroke-miterlimit:10;}.cls-1{fill:url(#linear-gradient);stroke:url(#linear-gradient-2);}.cls-2{fill:url(#linear-gradient-3);stroke:url(#linear-gradient-4);}.cls-3{fill:url(#linear-gradient-5);stroke:url(#linear-gradient-6);}.cls-4{fill:url(#linear-gradient-7);stroke:url(#linear-gradient-8);}.cls-5{fill:url(#linear-gradient-9);stroke:url(#linear-gradient-10);}.cls-6{fill:url(#linear-gradient-11);stroke:url(#linear-gradient-12);}.cls-7{fill:url(#linear-gradient-13);stroke:url(#linear-gradient-14);}.cls-8{fill:url(#linear-gradient-15);stroke:url(#linear-gradient-16);}.cls-9{fill:url(#linear-gradient-17);stroke:url(#linear-gradient-18);}.cls-10{fill:url(#linear-gradient-19);stroke:url(#linear-gradient-20);}.cls-11{fill:url(#linear-gradient-21);stroke:url(#linear-gradient-22);}.cls-12,.cls-13,.cls-14,.cls-15,.cls-16,.cls-17,.cls-18,.cls-19,.cls-20,.cls-21,.cls-22,.cls-23,.cls-24,.cls-25{fill:none;stroke-linecap:round;}.cls-12,.cls-13,.cls-14,.cls-15,.cls-16,.cls-17,.cls-18,.cls-19,.cls-20,.cls-21,.cls-22,.cls-23,.cls-24{stroke-linejoin:round;}.cls-12,.cls-13,.cls-14,.cls-15,.cls-16,.cls-17,.cls-18,.cls-19,.cls-20,.cls-21,.cls-22{stroke-width:6px;}.cls-12{stroke:url(#linear-gradient-23);}.cls-13{stroke:url(#linear-gradient-24);}.cls-14{stroke:url(#linear-gradient-25);}.cls-15{stroke:url(#linear-gradient-26);}.cls-16{stroke:url(#linear-gradient-27);}.cls-17{stroke:url(#linear-gradient-28);}.cls-18{stroke:url(#linear-gradient-29);}.cls-19{stroke:url(#linear-gradient-30);}.cls-20{stroke:url(#linear-gradient-31);}.cls-21{stroke:url(#linear-gradient-32);}.cls-22{stroke:url(#linear-gradient-33);}.cls-23{stroke-width:10px;stroke:url(#linear-gradient-34);}.cls-24{stroke-width:20px;stroke:url(#linear-gradient-35);}.cls-25{stroke-width:7px;stroke:url(#linear-gradient-36);}</style><linearGradient id="linear-gradient" x1="379.71" y1="585.02" x2="389.71" y2="585.02" gradientUnits="userSpaceOnUse"><stop offset="0" stop-color="#ed2024"/><stop offset="0.12" stop-color="#f26164"/><stop offset="0.25" stop-color="#f8a4a6"/><stop offset="0.36" stop-color="#fcd5d6"/><stop offset="0.45" stop-color="#fef4f4"/><stop offset="0.49" stop-color="#fff"/><stop offset="0.56" stop-color="#fffbfb"/><stop offset="0.63" stop-color="#feefef"/><stop offset="0.69" stop-color="#fcdbdb"/><stop offset="0.76" stop-color="#fabebf"/><stop offset="0.82" stop-color="#f79a9b"/><stop offset="0.89" stop-color="#f36d6f"/><stop offset="0.96" stop-color="#ef393c"/><stop offset="0.98" stop-color="#ed2024"/></linearGradient><linearGradient id="linear-gradient-2" x1="379.21" y1="585.02" x2="390.21" y2="585.02" xlink:href="#linear-gradient"/><linearGradient id="linear-gradient-3" x1="379.71" y1="558.93" x2="389.71" y2="558.93" xlink:href="#linear-gradient"/><linearGradient id="linear-gradient-4" x1="379.21" y1="558.93" x2="390.21" y2="558.93" xlink:href="#linear-gradient"/><linearGradient id="linear-gradient-5" x1="379.71" y1="532.84" x2="389.71" y2="532.84" xlink:href="#linear-gradient"/><linearGradient id="linear-gradient-6" x1="379.21" y1="532.84" x2="390.21" y2="532.84" xlink:href="#linear-gradient"/><linearGradient id="linear-gradient-7" x1="379.71" y1="506.76" x2="389.71" y2="506.76" xlink:href="#linear-gradient"/><linearGradient id="linear-gradient-8" x1="379.21" y1="506.76" x2="390.21" y2="506.76" xlink:href="#linear-gradient"/><linearGradient id="linear-gradient-9" x1="379.71" y1="480.67" x2="389.71" y2="480.67" xlink:href="#linear-gradient"/><linearGradient id="linear-gradient-10" x1="379.21" y1="480.67" x2="390.21" y2="480.67" xlink:href="#linear-gradient"/><linearGradient id="linear-gradient-11" x1="379.71" y1="454.58" x2="389.71" y2="454.58" xlink:href="#linear-gradient"/><linearGradient id="linear-gradient-12" x1="379.21" y1="454.58" x2="390.21" y2="454.58" xlink:href="#linear-gradient"/><linearGradient id="linear-gradient-13" x1="379.71" y1="428.49" x2="389.71" y2="428.49" xlink:href="#linear-gradient"/><linearGradient id="linear-gradient-14" x1="379.21" y1="428.49" x2="390.21" y2="428.49" xlink:href="#linear-gradient"/><linearGradient id="linear-gradient-15" x1="379.71" y1="402.41" x2="389.71" y2="402.41" xlink:href="#linear-gradient"/><linearGradient id="linear-gradient-16" x1="379.21" y1="402.41" x2="390.21" y2="402.41" xlink:href="#linear-gradient"/><linearGradient id="linear-gradient-17" x1="379.71" y1="376.32" x2="389.71" y2="376.32" xlink:href="#linear-gradient"/><linearGradient id="linear-gradient-18" x1="379.21" y1="376.32" x2="390.21" y2="376.32" xlink:href="#linear-gradient"/><linearGradient id="linear-gradient-19" x1="379.71" y1="350.23" x2="389.71" y2="350.23" xlink:href="#linear-gradient"/><linearGradient id="linear-gradient-20" x1="379.21" y1="350.23" x2="390.21" y2="350.23" xlink:href="#linear-gradient"/><linearGradient id="linear-gradient-21" x1="379.71" y1="324.15" x2="389.71" y2="324.15" xlink:href="#linear-gradient"/><linearGradient id="linear-gradient-22" x1="379.21" y1="324.15" x2="390.21" y2="324.15" xlink:href="#linear-gradient"/><linearGradient id="linear-gradient-23" x1="407.58" y1="585.02" x2="582.06" y2="585.02" xlink:href="#linear-gradient"/><linearGradient id="linear-gradient-24" x1="407.58" y1="558.93" x2="582.06" y2="558.93" xlink:href="#linear-gradient"/><linearGradient id="linear-gradient-25" x1="407.58" y1="532.84" x2="582.06" y2="532.84" xlink:href="#linear-gradient"/><linearGradient id="linear-gradient-26" x1="407.58" y1="506.76" x2="582.06" y2="506.76" xlink:href="#linear-gradient"/><linearGradient id="linear-gradient-27" x1="407.58" y1="480.67" x2="582.06" y2="480.67" xlink:href="#linear-gradient"/><linearGradient id="linear-gradient-28" x1="407.58" y1="454.58" x2="582.06" y2="454.58" xlink:href="#linear-gradient"/><linearGradient id="linear-gradient-29" x1="407.58" y1="428.49" x2="582.06" y2="428.49" xlink:href="#linear-gradient"/><linearGradient id="linear-gradient-30" x1="407.58" y1="402.41" x2="582.06" y2="402.41" xlink:href="#linear-gradient"/><linearGradient id="linear-gradient-31" x1="407.58" y1="376.32" x2="582.06" y2="376.32" xlink:href="#linear-gradient"/><linearGradient id="linear-gradient-32" x1="407.58" y1="350.23" x2="582.06" y2="350.23" xlink:href="#linear-gradient"/><linearGradient id="linear-gradient-33" x1="407.58" y1="324.15" x2="582.06" y2="324.15" xlink:href="#linear-gradient"/><linearGradient id="linear-gradient-34" x1="331.28" y1="479.76" x2="628.23" y2="479.76" xlink:href="#linear-gradient"/><linearGradient id="linear-gradient-35" x1="20.26" y1="500" x2="979.74" y2="500" gradientTransform="translate(555.06 -223.33) rotate(51.11)" xlink:href="#linear-gradient"/><linearGradient id="linear-gradient-36" x1="291.15" y1="338.53" x2="506.17" y2="338.53" xlink:href="#linear-gradient"/></defs><title>schedule &amp;amp; registration</title><g id="schedule"><circle class="cls-1" cx="384.71" cy="585.02" r="5"/><circle class="cls-2" cx="384.71" cy="558.93" r="5"/><circle class="cls-3" cx="384.71" cy="532.84" r="5"/><circle class="cls-4" cx="384.71" cy="506.76" r="5"/><circle class="cls-5" cx="384.71" cy="480.67" r="5"/><circle class="cls-6" cx="384.71" cy="454.58" r="5"/><circle class="cls-7" cx="384.71" cy="428.49" r="5"/><circle class="cls-8" cx="384.71" cy="402.41" r="5"/><circle class="cls-9" cx="384.71" cy="376.32" r="5"/><circle class="cls-10" cx="384.71" cy="350.23" r="5"/><circle class="cls-11" cx="384.71" cy="324.15" r="5"/><line class="cls-12" x1="410.58" y1="585.02" x2="579.06" y2="585.02"/><line class="cls-13" x1="410.58" y1="558.93" x2="579.06" y2="558.93"/><line class="cls-14" x1="410.58" y1="532.84" x2="579.06" y2="532.84"/><line class="cls-15" x1="410.58" y1="506.76" x2="579.06" y2="506.76"/><line class="cls-16" x1="410.58" y1="480.67" x2="579.06" y2="480.67"/><line class="cls-17" x1="410.58" y1="454.58" x2="579.06" y2="454.58"/><line class="cls-18" x1="410.58" y1="428.49" x2="579.06" y2="428.49"/><line class="cls-19" x1="410.58" y1="402.41" x2="579.06" y2="402.41"/><line class="cls-20" x1="410.58" y1="376.32" x2="579.06" y2="376.32"/><line class="cls-21" x1="410.58" y1="350.23" x2="579.06" y2="350.23"/><line class="cls-22" x1="410.58" y1="324.15" x2="579.06" y2="324.15"/><rect class="cls-23" x="336.28" y="265.62" width="286.96" height="428.26"/><circle class="cls-24" cx="479.76" cy="479.76" r="469.74"/><path class="cls-25" d="M294.65,318.56,310.24,367a14.19,14.19,0,0,0,19.17,8.66l173.26-75.41" transform="translate(-20.24 -20.24)"/></g></svg>