<svg xmlns="http://www.w3.org/2000/svg" xmlns:xlink="http://www.w3.org/1999/xlink" viewBox="0 0 933.92 933.92"><defs><style>.cls-1,.cls-2,.cls-3,.cls-4,.cls-5{fill:none;stroke-miterlimit:10;}.cls-1,.cls-3,.cls-4,.cls-5{stroke-linecap:round;}.cls-1,.cls-3{stroke-width:10px;}.cls-1{stroke:url(#linear-gradient);}.cls-2{stroke-width:22px;stroke:url(#linear-gradient-2);}.cls-3{stroke:url(#linear-gradient-3);}.cls-4,.cls-5{stroke-width:5px;}.cls-4{stroke:url(#linear-gradient-4);}.cls-5{stroke:url(#linear-gradient-5);}.cls-6{fill:url(#linear-gradient-6);}</style><linearGradient id="linear-gradient" x1="264.37" y1="654.81" x2="669.55" y2="249.63" gradientUnits="userSpaceOnUse"><stop offset="0" stop-color="#ed2024"/><stop offset="0.12" stop-color="#f26164"/><stop offset="0.25" stop-color="#f8a4a6"/><stop offset="0.36" stop-color="#fcd5d6"/><stop offset="0.45" stop-color="#fef4f4"/><stop offset="0.49" stop-color="#fff"/><stop offset="0.56" stop-color="#fffbfb"/><stop offset="0.63" stop-color="#feefef"/><stop offset="0.69" stop-color="#fcdbdb"/><stop offset="0.76" stop-color="#fabebf"/><stop offset="0.82" stop-color="#f79a9b"/><stop offset="0.89" stop-color="#f36d6f"/><stop offset="0.96" stop-color="#ef393c"/><stop offset="0.98" stop-color="#ed2024"/></linearGradient><linearGradient id="linear-gradient-2" x1="33.15" y1="500" x2="966.85" y2="500" gradientTransform="translate(225.04 -197.48) rotate(24.99)" xlink:href="#linear-gradient"/><linearGradient id="linear-gradient-3" x1="242.19" y1="691.73" x2="691.73" y2="242.19" xlink:href="#linear-gradient"/><linearGradient id="linear-gradient-4" x1="453.17" y1="213.58" x2="480.75" y2="186" xlink:href="#linear-gradient"/><linearGradient id="linear-gradient-5" x1="451" y1="741.96" x2="482.91" y2="710.05" xlink:href="#linear-gradient"/><linearGradient id="linear-gradient-6" x1="500" y1="579.82" x2="500" y2="414.36" xlink:href="#linear-gradient"/></defs><title>1 min stand</title><g id="_1_min_stand" data-name="1 min stand"><path class="cls-1" d="M310.47,217.41h313a16.43,16.43,0,0,1,16.43,16.43V668a22.81,22.81,0,0,1-22.81,22.81H316.85A22.81,22.81,0,0,1,294,668V233.84a16.43,16.43,0,0,1,16.43-16.43Z"/><circle class="cls-2" cx="466.96" cy="466.96" r="455.85"/><rect class="cls-3" x="294.04" y="176.48" width="345.84" height="580.95" rx="35.71"/><line class="cls-4" x1="442.91" y1="199.79" x2="491.01" y2="199.79"/><circle class="cls-5" cx="466.96" cy="726" r="20.06"/><path class="cls-6" d="M506,435.23h-.51l-28.76,15.53-4.33-17.05,36.15-19.35h19.09V579.82H506Z" transform="translate(-33.04 -33.04)"/></g></svg>