<svg xmlns="http://www.w3.org/2000/svg" xmlns:xlink="http://www.w3.org/1999/xlink" viewBox="0 0 956.77 956.77"><defs><style>.cls-1,.cls-10,.cls-12,.cls-16,.cls-17,.cls-18,.cls-19,.cls-20,.cls-4,.cls-5,.cls-6,.cls-7,.cls-8,.cls-9{fill:none;stroke-miterlimit:10;}.cls-1,.cls-17,.cls-18,.cls-19,.cls-20,.cls-4{stroke-linecap:round;}.cls-1{stroke-width:6px;stroke:url(#linear-gradient);}.cls-2{fill:url(#linear-gradient-2);}.cls-3{fill:url(#linear-gradient-3);}.cls-4{stroke-width:9px;stroke:url(#linear-gradient-4);}.cls-5,.cls-6{stroke-width:7px;}.cls-5{stroke:url(#linear-gradient-5);}.cls-6{stroke:url(#linear-gradient-6);}.cls-12,.cls-7{stroke-width:12px;}.cls-7{stroke:url(#linear-gradient-7);}.cls-8{stroke-width:22px;stroke:url(#linear-gradient-8);}.cls-9{stroke-width:14px;stroke:url(#linear-gradient-9);}.cls-10{stroke-width:10px;stroke:url(#linear-gradient-10);}.cls-11{fill:url(#linear-gradient-11);}.cls-12{stroke:url(#linear-gradient-12);}.cls-13{fill:url(#linear-gradient-13);}.cls-14{fill:url(#linear-gradient-14);}.cls-15{fill:url(#linear-gradient-15);}.cls-16,.cls-20{stroke-width:4px;}.cls-16{stroke:url(#linear-gradient-16);}.cls-17,.cls-18,.cls-19{stroke-width:5px;}.cls-17{stroke:url(#linear-gradient-17);}.cls-18{stroke:url(#linear-gradient-18);}.cls-19{stroke:url(#linear-gradient-19);}.cls-20{stroke:url(#linear-gradient-20);}</style><linearGradient id="linear-gradient" x1="281.69" y1="646.27" x2="337.76" y2="590.2" gradientUnits="userSpaceOnUse"><stop offset="0" stop-color="#ed2024"/><stop offset="0.12" stop-color="#f26164"/><stop offset="0.25" stop-color="#f8a4a6"/><stop offset="0.36" stop-color="#fcd5d6"/><stop offset="0.45" stop-color="#fef4f4"/><stop offset="0.49" stop-color="#fff"/><stop offset="0.56" stop-color="#fffbfb"/><stop offset="0.63" stop-color="#feefef"/><stop offset="0.69" stop-color="#fcdbdb"/><stop offset="0.76" stop-color="#fabebf"/><stop offset="0.82" stop-color="#f79a9b"/><stop offset="0.89" stop-color="#f36d6f"/><stop offset="0.96" stop-color="#ef393c"/><stop offset="0.98" stop-color="#ed2024"/></linearGradient><linearGradient id="linear-gradient-2" x1="314.76" y1="624.74" x2="323.92" y2="615.58" gradientTransform="matrix(0.99, -0.13, 0.13, 0.99, -94.54, 30.44)" xlink:href="#linear-gradient"/><linearGradient id="linear-gradient-3" x1="336.38" y1="636.5" x2="345.54" y2="627.34" gradientTransform="matrix(0.99, -0.13, 0.13, 0.99, -94.54, 30.44)" xlink:href="#linear-gradient"/><linearGradient id="linear-gradient-4" x1="276.25" y1="764.8" x2="433.05" y2="608.01" gradientTransform="translate(-98.14 308.35) scale(1.21 0.49)" xlink:href="#linear-gradient"/><linearGradient id="linear-gradient-5" x1="183.25" y1="436.35" x2="259.17" y2="360.43" xlink:href="#linear-gradient"/><linearGradient id="linear-gradient-6" x1="254.91" y1="397.26" x2="296.91" y2="355.26" xlink:href="#linear-gradient"/><linearGradient id="linear-gradient-7" x1="343.4" y1="681.28" x2="629.34" y2="395.34" xlink:href="#linear-gradient"/><linearGradient id="linear-gradient-8" x1="140.12" y1="816.65" x2="816.65" y2="140.12" xlink:href="#linear-gradient"/><linearGradient id="linear-gradient-9" x1="509.35" y1="573.33" x2="640.67" y2="442.01" xlink:href="#linear-gradient"/><linearGradient id="linear-gradient-10" x1="558.29" y1="567.62" x2="634.97" y2="490.94" gradientTransform="translate(1104.29 -88.96) rotate(90)" xlink:href="#linear-gradient"/><linearGradient id="linear-gradient-11" x1="583.73" y1="516.39" x2="609.52" y2="542.18" gradientTransform="translate(505.84 -286.89) rotate(43.45)" xlink:href="#linear-gradient"/><linearGradient id="linear-gradient-12" x1="334.48" y1="615.48" x2="644.16" y2="305.8" gradientTransform="translate(-71.39 -146.21) scale(1.17 1.41)" xlink:href="#linear-gradient"/><linearGradient id="linear-gradient-13" x1="657.89" y1="381.1" x2="693.73" y2="345.26" gradientTransform="translate(9.31 24.36)" xlink:href="#linear-gradient"/><linearGradient id="linear-gradient-14" x1="460.35" y1="383.39" x2="479.58" y2="364.16" xlink:href="#linear-gradient"/><linearGradient id="linear-gradient-15" x1="456.52" y1="407.24" x2="475.76" y2="388.01" gradientTransform="translate(-176.65 410.83) rotate(-45)" xlink:href="#linear-gradient"/><linearGradient id="linear-gradient-16" x1="348.39" y1="401.84" x2="416.17" y2="334.07" gradientTransform="translate(4.63 -4.72)" xlink:href="#linear-gradient"/><linearGradient id="linear-gradient-17" x1="752.75" y1="398" x2="785.94" y2="364.81" xlink:href="#linear-gradient"/><linearGradient id="linear-gradient-18" x1="764.52" y1="429.1" x2="796.47" y2="397.15" xlink:href="#linear-gradient"/><linearGradient id="linear-gradient-19" x1="773.52" y1="456.75" x2="799.23" y2="431.04" xlink:href="#linear-gradient"/><linearGradient id="linear-gradient-20" x1="322.71" y1="654.36" x2="333.75" y2="643.33" xlink:href="#linear-gradient"/></defs><title>crumbs</title><g id="crumbs"><circle class="cls-1" cx="309.73" cy="618.23" r="36.65"/><circle class="cls-2" cx="303.37" cy="603.37" r="6.47"/><circle class="cls-3" cx="326.35" cy="612.19" r="6.47"/><rect class="cls-4" x="247.73" y="605.73" width="163" height="78.64" transform="translate(187.13 -90.69) rotate(17.46)"/><path class="cls-5" d="M250.27,364.92S214,364.9,180,401c-10.59,11.23-4.65,30.18,10.55,32.87,7.54,1.33,18.19-.11,33.25-6.78,0,0,30.51-10.49,40.8-46.23C264.6,380.81,269.38,364.18,250.27,364.92Z" transform="translate(-21.62 -21.62)"/><path class="cls-6" d="M291.06,357.44s-25.51-2.25-34.19,12.62a19.48,19.48,0,0,0-2.23,12.34c1,7.28,4.53,20.34,18,22.09Z" transform="translate(-21.62 -21.62)"/><path class="cls-7" d="M283.7,380.81l257.74,82.7S480.3,518.74,528.05,581c0,0,70.33,83,141.63-6.54,0,0,20.11-24.47,12.81-69.38L748,525.5,698.3,683.61s-10.07,31.55-40.8,23.49S250.89,579,250.89,579s-30-18-13.9-49.67Z" transform="translate(-21.62 -21.62)"/><circle class="cls-8" cx="478.38" cy="478.38" r="467.38"/><circle class="cls-9" cx="575.01" cy="507.67" r="85.86"/><circle class="cls-10" cx="575.01" cy="507.67" r="49.22"/><circle class="cls-11" cx="575.01" cy="507.67" r="18.24"/><rect class="cls-12" x="256.37" y="359.68" width="486.36" height="290.71" rx="22.14" transform="translate(152.97 -148.25) rotate(17.46)"/><rect class="cls-13" x="662.88" y="373.94" width="44.48" height="27.2" transform="translate(126.26 -209.36) rotate(17.46)"/><circle class="cls-14" cx="469.97" cy="373.78" r="13.6"/><circle class="cls-15" cx="434.13" cy="362.38" r="13.6"/><rect class="cls-16" x="344.46" y="341.91" width="84.91" height="42.64" transform="translate(105.22 -120.99) rotate(17.46)"/><line class="cls-17" x1="753.66" y1="395.37" x2="785.03" y2="367.44"/><line class="cls-18" x1="760.77" y1="421.81" x2="800.22" y2="404.44"/><line class="cls-19" x1="764.2" y1="443.89" x2="808.55" y2="443.89"/><path class="cls-20" d="M317,645.05s8.82,15,22.79,7.19" transform="translate(-21.62 -21.62)"/></g></svg>