<svg xmlns="http://www.w3.org/2000/svg" xmlns:xlink="http://www.w3.org/1999/xlink" viewBox="0 0 909.83 909.83"><defs><style>.cls-1,.cls-10,.cls-11,.cls-2,.cls-3,.cls-4,.cls-5,.cls-6,.cls-7,.cls-8,.cls-9{fill:none;stroke-miterlimit:10;}.cls-1{stroke-width:20px;stroke:url(#linear-gradient);}.cls-2,.cls-3{stroke-width:12px;}.cls-2{stroke:url(#linear-gradient-2);}.cls-3{stroke:url(#linear-gradient-3);}.cls-10,.cls-11,.cls-4,.cls-5,.cls-6,.cls-7,.cls-8,.cls-9{stroke-width:6px;}.cls-4{stroke:url(#linear-gradient-4);}.cls-5{stroke:url(#linear-gradient-5);}.cls-6{stroke:url(#linear-gradient-6);}.cls-7{stroke:url(#linear-gradient-7);}.cls-8{stroke:url(#linear-gradient-8);}.cls-9{stroke:url(#linear-gradient-9);}.cls-10{stroke:url(#linear-gradient-10);}.cls-11{stroke:url(#linear-gradient-11);}</style><linearGradient id="linear-gradient" x1="409.63" y1="2.23" x2="500.2" y2="907.6" gradientUnits="userSpaceOnUse"><stop offset="0" stop-color="#ed2024"/><stop offset="0.12" stop-color="#f26164"/><stop offset="0.25" stop-color="#f8a4a6"/><stop offset="0.36" stop-color="#fcd5d6"/><stop offset="0.45" stop-color="#fef4f4"/><stop offset="0.49" stop-color="#fff"/><stop offset="0.56" stop-color="#fffbfb"/><stop offset="0.63" stop-color="#feefef"/><stop offset="0.69" stop-color="#fcdbdb"/><stop offset="0.76" stop-color="#fabebf"/><stop offset="0.82" stop-color="#f79a9b"/><stop offset="0.89" stop-color="#f36d6f"/><stop offset="0.96" stop-color="#ef393c"/><stop offset="0.98" stop-color="#ed2024"/></linearGradient><linearGradient id="linear-gradient-2" x1="476.92" y1="191.89" x2="517.59" y2="598.41" xlink:href="#linear-gradient"/><linearGradient id="linear-gradient-3" x1="482.71" y1="11.19" x2="513.04" y2="314.3" gradientTransform="translate(1001.32 817.15) rotate(180)" xlink:href="#linear-gradient"/><linearGradient id="linear-gradient-4" x1="338.53" y1="196.23" x2="344.15" y2="252.41" xlink:href="#linear-gradient"/><linearGradient id="linear-gradient-5" x1="564.23" y1="196.23" x2="569.85" y2="252.41" xlink:href="#linear-gradient"/><linearGradient id="linear-gradient-6" x1="338.53" y1="268.4" x2="344.15" y2="324.58" xlink:href="#linear-gradient"/><linearGradient id="linear-gradient-7" x1="564.23" y1="268.4" x2="569.85" y2="324.58" xlink:href="#linear-gradient"/><linearGradient id="linear-gradient-8" x1="338.53" y1="340.57" x2="344.15" y2="396.75" xlink:href="#linear-gradient"/><linearGradient id="linear-gradient-9" x1="338.53" y1="412.74" x2="344.15" y2="468.92" xlink:href="#linear-gradient"/><linearGradient id="linear-gradient-10" x1="564.23" y1="340.57" x2="569.85" y2="396.75" xlink:href="#linear-gradient"/><linearGradient id="linear-gradient-11" x1="574.23" y1="630.11" x2="579.62" y2="684.05" gradientTransform="translate(1122.7 55) rotate(90)" xlink:href="#linear-gradient"/></defs><title>instafilm</title><g id="instaclick_film"><circle class="cls-1" cx="454.91" cy="454.91" r="444.91"/><path class="cls-2" d="M333.17,242.91V608.06l335-155.36V242.91a33.83,33.83,0,0,0-33.83-33.82H367A33.83,33.83,0,0,0,333.17,242.91Z" transform="translate(-45.09 -45.09)"/><path class="cls-3" d="M668.15,767.94V493.7l-335,157.43V767.94c0,11.11,15.15,20.12,33.83,20.12H634.32C653,788.06,668.15,779.05,668.15,767.94Z" transform="translate(-45.09 -45.09)"/><rect class="cls-4" x="318.55" y="201.53" width="45.57" height="45.57"/><rect class="cls-5" x="544.26" y="201.53" width="45.57" height="45.57"/><rect class="cls-6" x="318.55" y="273.7" width="45.57" height="45.57"/><rect class="cls-7" x="544.26" y="273.7" width="45.57" height="45.57"/><rect class="cls-8" x="318.55" y="345.87" width="45.57" height="45.57"/><rect class="cls-9" x="318.55" y="418.04" width="45.57" height="45.57"/><rect class="cls-10" x="544.26" y="345.87" width="45.57" height="45.57"/><polygon class="cls-11" points="487.1 634.33 444.6 609.79 444.6 658.87 487.1 634.33"/></g></svg>