<svg xmlns="http://www.w3.org/2000/svg" xmlns:xlink="http://www.w3.org/1999/xlink" viewBox="0 0 944.6 944.6"><defs><style>.cls-1,.cls-10,.cls-11,.cls-12,.cls-2,.cls-3,.cls-4,.cls-5,.cls-6,.cls-7,.cls-8,.cls-9{fill:none;stroke-miterlimit:10;}.cls-1{stroke-width:18px;stroke:url(#linear-gradient);}.cls-2,.cls-3{stroke-width:8px;}.cls-2{stroke:url(#linear-gradient-2);}.cls-3{stroke:url(#linear-gradient-3);}.cls-10,.cls-11,.cls-12,.cls-4,.cls-5,.cls-6,.cls-7,.cls-8,.cls-9{stroke-width:6px;}.cls-4{stroke:url(#linear-gradient-4);}.cls-5{stroke:url(#linear-gradient-5);}.cls-6{stroke:url(#linear-gradient-6);}.cls-7{stroke:url(#linear-gradient-7);}.cls-8{stroke:url(#linear-gradient-8);}.cls-9{stroke:url(#linear-gradient-9);}.cls-10{stroke:url(#linear-gradient-10);}.cls-11{stroke:url(#linear-gradient-11);}.cls-12{stroke:url(#linear-gradient-12);}</style><linearGradient id="linear-gradient" x1="425.28" y1="2.31" x2="519.32" y2="942.28" gradientUnits="userSpaceOnUse"><stop offset="0" stop-color="#ed2024"/><stop offset="0.12" stop-color="#f26164"/><stop offset="0.25" stop-color="#f8a4a6"/><stop offset="0.36" stop-color="#fcd5d6"/><stop offset="0.45" stop-color="#fef4f4"/><stop offset="0.49" stop-color="#fff"/><stop offset="0.56" stop-color="#fffbfb"/><stop offset="0.63" stop-color="#feefef"/><stop offset="0.69" stop-color="#fcdbdb"/><stop offset="0.76" stop-color="#fabebf"/><stop offset="0.82" stop-color="#f79a9b"/><stop offset="0.89" stop-color="#f36d6f"/><stop offset="0.96" stop-color="#ef393c"/><stop offset="0.98" stop-color="#ed2024"/></linearGradient><linearGradient id="linear-gradient-2" x1="692.24" y1="343.22" x2="718.15" y2="602.25" xlink:href="#linear-gradient"/><linearGradient id="linear-gradient-3" x1="642.96" y1="533.55" x2="767.62" y2="408.89" xlink:href="#linear-gradient"/><linearGradient id="linear-gradient-4" x1="208.07" y1="316.63" x2="218.61" y2="422.02" xlink:href="#linear-gradient"/><linearGradient id="linear-gradient-5" x1="346.02" y1="314.98" x2="356.9" y2="423.67" xlink:href="#linear-gradient"/><linearGradient id="linear-gradient-6" x1="365.12" y1="417.78" x2="377.02" y2="536.7" xlink:href="#linear-gradient"/><linearGradient id="linear-gradient-7" x1="226.35" y1="415.46" x2="238.71" y2="539.02" xlink:href="#linear-gradient"/><linearGradient id="linear-gradient-8" x1="210" y1="530.47" x2="219.62" y2="626.6" xlink:href="#linear-gradient"/><linearGradient id="linear-gradient-9" x1="347.05" y1="529.02" x2="356.95" y2="628.05" xlink:href="#linear-gradient"/><linearGradient id="linear-gradient-10" x1="531.09" y1="297.51" x2="563.73" y2="623.8" xlink:href="#linear-gradient"/><linearGradient id="linear-gradient-11" x1="548.95" y1="393.55" x2="570.82" y2="612.16" xlink:href="#linear-gradient"/><linearGradient id="linear-gradient-12" x1="652.99" y1="370.06" x2="679.65" y2="636.54" xlink:href="#linear-gradient"/></defs><title>odyssey</title><g id="odyssey"><circle class="cls-1" cx="472.3" cy="472.3" r="463.3"/><ellipse class="cls-2" cx="705.2" cy="472.73" rx="74.45" ry="126.57"/><ellipse class="cls-3" cx="705.29" cy="471.22" rx="55.06" ry="105.48"/><rect class="cls-4" x="159.48" y="324.79" width="107.73" height="89.07"/><rect class="cls-5" x="280.92" y="324.79" width="141.07" height="89.07"/><rect class="cls-6" x="320.15" y="425.58" width="101.85" height="103.32"/><rect class="cls-7" x="158.14" y="425.58" width="148.77" height="103.32"/><rect class="cls-8" x="159.48" y="538.82" width="110.67" height="79.42"/><rect class="cls-9" x="282" y="538.82" width="139.99" height="79.42"/><polyline class="cls-10" points="667.74 346.05 435.51 310.87 435.51 633.5 667.74 602.47"/><path class="cls-11" d="M577.37,393.44s-44.67,26.2-43.57,107c0,0-1.1,85.21,47.43,108.09" transform="translate(-27.7 -27.7)"/><path class="cls-12" d="M732.9,373.86H645.76s-60.39,37.42-55.43,131.08c0,0-.82,85.39,55.43,127.58l87.14-4.32" transform="translate(-27.7 -27.7)"/></g></svg>