<svg xmlns="http://www.w3.org/2000/svg" xmlns:xlink="http://www.w3.org/1999/xlink" viewBox="0 0 980.34 980.34"><defs><style>.cls-1,.cls-12,.cls-13,.cls-2,.cls-3,.cls-4,.cls-5,.cls-6,.cls-7,.cls-8,.cls-9{fill:none;stroke-miterlimit:10;}.cls-1,.cls-12,.cls-13,.cls-9{stroke-width:3px;}.cls-1{stroke:url(#linear-gradient);}.cls-2{stroke-width:18px;stroke:url(#linear-gradient-2);}.cls-3,.cls-4,.cls-5,.cls-6,.cls-7,.cls-8{stroke-width:12px;}.cls-3{stroke:url(#linear-gradient-3);}.cls-4{stroke:url(#linear-gradient-4);}.cls-5{stroke:url(#linear-gradient-5);}.cls-6{stroke:url(#linear-gradient-6);}.cls-7{stroke:url(#linear-gradient-7);}.cls-8{stroke:url(#linear-gradient-8);}.cls-9{stroke:url(#linear-gradient-9);}.cls-10{fill:url(#linear-gradient-10);}.cls-11{fill:url(#linear-gradient-11);}.cls-12{stroke:url(#linear-gradient-12);}.cls-13{stroke:url(#linear-gradient-13);}.cls-14{font-size:45.6px;fill:#fff;font-family:ArialRoundedMTBold, Arial Rounded MT Bold;}.cls-15{letter-spacing:-0.04em;}.cls-16{fill:#231f20;}.cls-17{fill:#ed2024;letter-spacing:0em;}</style><linearGradient id="linear-gradient" x1="476.29" y1="541" x2="476.98" y2="547.88" gradientUnits="userSpaceOnUse"><stop offset="0" stop-color="#ed2024"/><stop offset="0.12" stop-color="#f26164"/><stop offset="0.25" stop-color="#f8a4a6"/><stop offset="0.36" stop-color="#fcd5d6"/><stop offset="0.45" stop-color="#fef4f4"/><stop offset="0.49" stop-color="#fff"/><stop offset="0.56" stop-color="#fffbfb"/><stop offset="0.63" stop-color="#feefef"/><stop offset="0.69" stop-color="#fcdbdb"/><stop offset="0.76" stop-color="#fabebf"/><stop offset="0.82" stop-color="#f79a9b"/><stop offset="0.89" stop-color="#f36d6f"/><stop offset="0.96" stop-color="#ef393c"/><stop offset="0.98" stop-color="#ed2024"/></linearGradient><linearGradient id="linear-gradient-2" x1="441.37" y1="2.4" x2="538.97" y2="977.94" xlink:href="#linear-gradient"/><linearGradient id="linear-gradient-3" x1="290.96" y1="379.03" x2="318.66" y2="655.83" xlink:href="#linear-gradient"/><linearGradient id="linear-gradient-4" x1="227.75" y1="274.54" x2="252.83" y2="525.22" gradientTransform="translate(584.2 -60.16) rotate(58.81)" xlink:href="#linear-gradient"/><linearGradient id="linear-gradient-5" x1="533.46" y1="209.33" x2="552.03" y2="394.99" xlink:href="#linear-gradient"/><linearGradient id="linear-gradient-6" x1="700.09" y1="322.82" x2="724.05" y2="562.4" xlink:href="#linear-gradient"/><linearGradient id="linear-gradient-7" x1="595.88" y1="486.67" x2="624.8" y2="775.79" xlink:href="#linear-gradient"/><linearGradient id="linear-gradient-8" x1="390.31" y1="607.63" x2="408.97" y2="794.08" xlink:href="#linear-gradient"/><linearGradient id="linear-gradient-9" x1="484.28" y1="375.66" x2="501.39" y2="546.7" xlink:href="#linear-gradient"/><linearGradient id="linear-gradient-10" x1="451.54" y1="552.08" x2="452.81" y2="564.81" xlink:href="#linear-gradient"/><linearGradient id="linear-gradient-11" x1="502.92" y1="539.29" x2="504.19" y2="552.02" xlink:href="#linear-gradient"/><linearGradient id="linear-gradient-12" x1="451" y1="550.7" x2="455.19" y2="592.59" xlink:href="#linear-gradient"/><linearGradient id="linear-gradient-13" x1="519.01" y1="533.16" x2="523.2" y2="575.05" gradientTransform="translate(-64.4 69.08) rotate(-7.22)" xlink:href="#linear-gradient"/></defs><title>shoot m up</title><g id="shoot_m_up" data-name="shoot m up"><line class="cls-1" x1="468.89" y1="547.23" x2="484.39" y2="541.66"/><circle class="cls-2" cx="490.17" cy="490.17" r="481.17"/><path class="cls-3" d="M210.47,398,420.33,607,239.26,657.11S156.62,536.7,210.47,398Z" transform="translate(-9.83 -9.83)"/><path class="cls-4" d="M414.13,224.22,351.14,483,228.24,367S282.38,247.37,414.13,224.22Z" transform="translate(-9.83 -9.83)"/><path class="cls-5" d="M451,224.22,407.33,401.75l282.28-78.92S596.75,199,451,224.22Z" transform="translate(-9.83 -9.83)"/><path class="cls-6" d="M613.46,370.18,767.6,322.83S841,424,792.67,544.75Z" transform="translate(-9.83 -9.83)"/><path class="cls-7" d="M582.82,500l136.5,132S674.75,750,517.82,779.67Z" transform="translate(-9.83 -9.83)"/><path class="cls-8" d="M257.83,678.46l272.06-77.07L489,779.67S334,782.46,257.83,678.46Z" transform="translate(-9.83 -9.83)"/><path class="cls-9" d="M420.33,544.75l-26.47-39.62s20.27-37.14,38.23-48.9l6.81,8.87S470,417,490.59,406.5v28.89s81-68.82,93.88-68.2c0,0-34.46,28.37-53,94,0,0-5.26,10.52,12.07,3.1L553.73,456s-14.34,24.81-14.55,56.8c0,0-7-24.76-13-26.21,0,0-36.32,3.3-45.19,10.73l.62,11.76L461,508.43l-1.24,5.16-16.92.21S409,508.85,420.33,544.75Z" transform="translate(-9.83 -9.83)"/><circle class="cls-10" cx="452.18" cy="558.44" r="6.4"/><circle class="cls-11" cx="503.56" cy="545.65" r="6.4"/><path class="cls-12" d="M427,562.06c6.63-4.53,26.89-16.08,50.3-7.16a2.3,2.3,0,0,1,1.47,2.16v20.46a3.35,3.35,0,0,1-.72,2.09c-2,2.51-8.54,8.94-24.66,11.57,0,0-13.34,2.76-20.48-5.24a3.76,3.76,0,0,1-.7-1.21l-6.58-18.43A3.64,3.64,0,0,1,427,562.06Z" transform="translate(-9.83 -9.83)"/><path class="cls-13" d="M495,547.1c6-5.32,24.67-19.32,49-13.42a2.31,2.31,0,0,1,1.73,2l2.57,20.3a3.34,3.34,0,0,1-.45,2.16c-1.67,2.74-7.36,9.94-23,14.58,0,0-12.89,4.42-21-2.62a3.58,3.58,0,0,1-.85-1.12l-8.84-17.45A3.66,3.66,0,0,1,495,547.1Z" transform="translate(-9.83 -9.83)"/><text class="cls-14" transform="translate(583.83 446.33) rotate(45) scale(1.06 1)">SHO<tspan class="cls-15" x="101.17" y="0">O</tspan><tspan x="135.55" y="0">T</tspan><tspan class="cls-16" x="164.05" y="0"> </tspan><tspan class="cls-17" x="175.45" y="0">M</tspan><tspan class="cls-16" x="213.44" y="0"> </tspan><tspan x="224.84" y="0">UP</tspan></text></g></svg>