<svg xmlns="http://www.w3.org/2000/svg" xmlns:xlink="http://www.w3.org/1999/xlink" viewBox="0 0 926.96 926.96"><defs><style>.cls-1,.cls-11,.cls-14,.cls-15,.cls-16,.cls-17,.cls-18,.cls-19,.cls-2,.cls-3,.cls-4,.cls-5,.cls-6,.cls-7,.cls-8{fill:none;stroke-miterlimit:10;}.cls-1,.cls-17,.cls-18,.cls-19,.cls-2,.cls-3,.cls-6{stroke-width:17px;}.cls-1{stroke:url(#radial-gradient);}.cls-2{stroke:url(#radial-gradient-2);}.cls-3{stroke:url(#radial-gradient-3);}.cls-4,.cls-5{stroke-width:10px;}.cls-4{stroke:url(#radial-gradient-4);}.cls-5{stroke:url(#radial-gradient-5);}.cls-11,.cls-6,.cls-7,.cls-8{stroke-linecap:round;}.cls-6{stroke:url(#radial-gradient-6);}.cls-7{stroke-width:18px;stroke:url(#linear-gradient);}.cls-11,.cls-16,.cls-8{stroke-width:12px;}.cls-8{stroke:url(#radial-gradient-7);}.cls-9{fill:url(#radial-gradient-8);}.cls-10{fill:url(#radial-gradient-9);}.cls-11{stroke:url(#radial-gradient-10);}.cls-12{fill:url(#radial-gradient-11);}.cls-13{fill:url(#radial-gradient-12);}.cls-14{stroke-width:8px;stroke:url(#radial-gradient-13);}.cls-15{stroke-width:6px;stroke:url(#radial-gradient-14);}.cls-16{stroke:url(#radial-gradient-15);}.cls-17{stroke:url(#radial-gradient-16);}.cls-18{stroke:url(#radial-gradient-17);}.cls-19{stroke:url(#radial-gradient-18);}</style><radialGradient id="radial-gradient" cx="308.36" cy="422.41" r="78.13" gradientUnits="userSpaceOnUse"><stop offset="0" stop-color="#ed2024"/><stop offset="0.12" stop-color="#f26164"/><stop offset="0.25" stop-color="#f8a4a6"/><stop offset="0.36" stop-color="#fcd5d6"/><stop offset="0.45" stop-color="#fef4f4"/><stop offset="0.49" stop-color="#fff"/><stop offset="0.56" stop-color="#fffbfb"/><stop offset="0.63" stop-color="#feefef"/><stop offset="0.69" stop-color="#fcdbdb"/><stop offset="0.76" stop-color="#fabebf"/><stop offset="0.82" stop-color="#f79a9b"/><stop offset="0.89" stop-color="#f36d6f"/><stop offset="0.96" stop-color="#ef393c"/><stop offset="0.98" stop-color="#ed2024"/></radialGradient><radialGradient id="radial-gradient-2" cx="567.48" cy="716.96" r="22.43" gradientTransform="translate(60.22 -44.76) rotate(4.88)" xlink:href="#radial-gradient"/><radialGradient id="radial-gradient-3" cx="456.2" cy="719.53" r="22.43" gradientTransform="translate(58.19 -35.76) rotate(4.74)" xlink:href="#radial-gradient"/><radialGradient id="radial-gradient-4" cx="445.2" cy="777.04" r="47.05" xlink:href="#radial-gradient"/><radialGradient id="radial-gradient-5" cx="557.61" cy="775.79" r="47.05" gradientTransform="translate(-132.48 121.67) rotate(-11.17)" xlink:href="#radial-gradient"/><radialGradient id="radial-gradient-6" cx="520.34" cy="388.18" r="31.93" xlink:href="#radial-gradient"/><linearGradient id="linear-gradient" x1="695.26" y1="864.93" x2="231.7" y2="62.03" xlink:href="#radial-gradient"/><radialGradient id="radial-gradient-7" cx="390.6" cy="247.58" r="48.83" xlink:href="#radial-gradient"/><radialGradient id="radial-gradient-8" cx="390.6" cy="247.58" r="19.2" xlink:href="#radial-gradient"/><radialGradient id="radial-gradient-9" cx="511.81" cy="232.43" r="19.2" xlink:href="#radial-gradient"/><radialGradient id="radial-gradient-10" cx="511.81" cy="232.43" r="48.83" xlink:href="#radial-gradient"/><radialGradient id="radial-gradient-11" cx="443.08" cy="532.97" r="11.49" xlink:href="#radial-gradient"/><radialGradient id="radial-gradient-12" cx="400.9" cy="532.97" r="11.49" xlink:href="#radial-gradient"/><radialGradient id="radial-gradient-13" cx="475.15" cy="522.51" r="140.34" xlink:href="#radial-gradient"/><radialGradient id="radial-gradient-14" cx="476.74" cy="457.43" r="65.34" xlink:href="#radial-gradient"/><radialGradient id="radial-gradient-15" cx="489.14" cy="278.96" r="124.81" gradientTransform="translate(-2.85 -11.11) scale(1 1.04)" xlink:href="#radial-gradient"/><radialGradient id="radial-gradient-16" cx="701.16" cy="436.05" r="66.75" xlink:href="#radial-gradient"/><radialGradient id="radial-gradient-17" cx="672.62" cy="413.01" r="61.36" gradientTransform="matrix(0.56, 0.56, -0.71, 0.71, 686.9, -325.8)" xlink:href="#radial-gradient"/><radialGradient id="radial-gradient-18" cx="207.72" cy="738.56" r="61.36" gradientTransform="matrix(0.75, -0.26, 0.33, 0.95, -173.22, -321.84)" xlink:href="#radial-gradient"/></defs><title>double up</title><g id="exult"><path class="cls-1" d="M391.52,486.58s-47.33-.43-85.88-20a97.51,97.51,0,0,1-36.73-32.85,250.35,250.35,0,0,1-35.5-82.08" transform="translate(-36.52 -36.52)"/><path class="cls-2" d="M564.46,688.85s.6,55.87.35,58.82" transform="translate(-36.52 -36.52)"/><path class="cls-3" d="M453,690s.74,55.86.49,58.82" transform="translate(-36.52 -36.52)"/><path class="cls-4" d="M441.68,750.39c-14.29,9-37.53,24.92-47,38.33A7.28,7.28,0,0,0,399.37,800c16.81,3.25,55,9.29,91.69,5.51a6.57,6.57,0,0,0,5.28-9.39c-5-10.44-15.29-28.79-30.93-43.43A19.5,19.5,0,0,0,441.68,750.39Z" transform="translate(-36.52 -36.52)"/><path class="cls-5" d="M556.25,749.25C544,760.87,524.26,781,517.59,796a7.28,7.28,0,0,0,6.77,10.14c17.12-.07,55.79-1.55,91-12.36a6.58,6.58,0,0,0,3.35-10.24c-7-9.26-20.58-25.28-38.76-36.61A19.5,19.5,0,0,0,556.25,749.25Z" transform="translate(-36.52 -36.52)"/><path class="cls-6" d="M515.89,353.42s17.75,34.46,3.1,69.52" transform="translate(-36.52 -36.52)"/><circle class="cls-7" cx="463.48" cy="463.48" r="454.48"/><circle class="cls-8" cx="390.6" cy="247.58" r="42.83"/><circle class="cls-9" cx="390.6" cy="247.58" r="19.2"/><circle class="cls-10" cx="511.81" cy="232.43" r="19.2"/><circle class="cls-11" cx="511.81" cy="232.43" r="42.83"/><circle class="cls-12" cx="443.08" cy="532.97" r="11.49"/><circle class="cls-13" cx="400.9" cy="532.97" r="11.49"/><polygon class="cls-14" points="616.94 647.24 333.34 652.58 361.16 392.36 587.53 392.36 616.94 647.24"/><polygon class="cls-15" points="556.93 492.45 396.51 493.95 403.05 420.87 549.8 420.87 556.93 492.45"/><rect class="cls-16" x="332.01" y="209.36" width="308.55" height="141.93" rx="44.61" transform="translate(-57.54 3.59) rotate(-4.62)"/><path class="cls-17" d="M631.1,490a170.42,170.42,0,0,0,45.19-4.16,91.83,91.83,0,0,0,56.86-40.74c12.12-19.31,27.63-47.79,30.22-70.66" transform="translate(-36.52 -36.52)"/><path class="cls-18" d="M839.36,355.86c-27,27-66.27,31.47-87.73,10s-17-60.74,10-87.74" transform="translate(-36.52 -36.52)"/><path class="cls-19" d="M263.28,267.72c12.46,36.08-.69,73.36-29.38,83.27s-62.06-11.31-74.52-47.39" transform="translate(-36.52 -36.52)"/></g></svg>