<svg xmlns="http://www.w3.org/2000/svg" xmlns:xlink="http://www.w3.org/1999/xlink" viewBox="0 0 941.4 941.4"><defs><style>.cls-1{fill:url(#linear-gradient);}.cls-2{fill:url(#linear-gradient-2);}.cls-10,.cls-11,.cls-12,.cls-13,.cls-14,.cls-15,.cls-16,.cls-17,.cls-18,.cls-19,.cls-20,.cls-3,.cls-4,.cls-5,.cls-6,.cls-7,.cls-8,.cls-9{fill:none;stroke-miterlimit:10;}.cls-10,.cls-11,.cls-12,.cls-13,.cls-14,.cls-15,.cls-16,.cls-17,.cls-18,.cls-19,.cls-3,.cls-4,.cls-5,.cls-6,.cls-7,.cls-8,.cls-9{stroke-width:10px;}.cls-3{stroke:url(#linear-gradient-3);}.cls-4{stroke:url(#linear-gradient-4);}.cls-5{stroke:url(#linear-gradient-5);}.cls-6{stroke:url(#linear-gradient-6);}.cls-7{stroke:url(#linear-gradient-7);}.cls-8{stroke:url(#linear-gradient-8);}.cls-9{stroke:url(#linear-gradient-9);}.cls-10{stroke:url(#linear-gradient-10);}.cls-11{stroke:url(#linear-gradient-11);}.cls-12{stroke:url(#linear-gradient-12);}.cls-13{stroke:url(#linear-gradient-13);}.cls-14{stroke:url(#linear-gradient-14);}.cls-15{stroke:url(#linear-gradient-15);}.cls-16{stroke:url(#linear-gradient-16);}.cls-17{stroke:url(#linear-gradient-17);}.cls-18{stroke:url(#linear-gradient-18);}.cls-19{stroke:url(#linear-gradient-19);}.cls-20{stroke-width:20px;stroke:url(#linear-gradient-20);}.cls-21{fill:url(#linear-gradient-21);}</style><linearGradient id="linear-gradient" x1="458.32" y1="295.59" x2="440.48" y2="289.17" gradientUnits="userSpaceOnUse"><stop offset="0" stop-color="#ed2024"/><stop offset="0.12" stop-color="#f26164"/><stop offset="0.25" stop-color="#f8a4a6"/><stop offset="0.36" stop-color="#fcd5d6"/><stop offset="0.45" stop-color="#fef4f4"/><stop offset="0.49" stop-color="#fff"/><stop offset="0.56" stop-color="#fffbfb"/><stop offset="0.63" stop-color="#feefef"/><stop offset="0.69" stop-color="#fcdbdb"/><stop offset="0.76" stop-color="#fabebf"/><stop offset="0.82" stop-color="#f79a9b"/><stop offset="0.89" stop-color="#f36d6f"/><stop offset="0.96" stop-color="#ef393c"/><stop offset="0.98" stop-color="#ed2024"/></linearGradient><linearGradient id="linear-gradient-2" x1="524.2" y1="295.59" x2="506.35" y2="289.17" xlink:href="#linear-gradient"/><linearGradient id="linear-gradient-3" x1="281.49" y1="485.74" x2="56.82" y2="404.97" xlink:href="#linear-gradient"/><linearGradient id="linear-gradient-4" x1="642.35" y1="400.57" x2="537.7" y2="362.95" gradientTransform="matrix(1.04, 0, 0, -1.01, -225.29, 758.58)" xlink:href="#linear-gradient"/><linearGradient id="linear-gradient-5" x1="109.45" y1="493.41" x2="67.32" y2="478.27" xlink:href="#linear-gradient"/><linearGradient id="linear-gradient-6" x1="210.08" y1="378.19" x2="173.49" y2="365.04" xlink:href="#linear-gradient"/><linearGradient id="linear-gradient-7" x1="226.96" y1="449.55" x2="194.64" y2="437.93" gradientTransform="translate(-220.46 625.99) rotate(-90)" xlink:href="#linear-gradient"/><linearGradient id="linear-gradient-8" x1="738.44" y1="105.77" x2="635.01" y2="68.59" gradientTransform="matrix(-4.18, 0, 0, 1.11, 3373.95, 295.88)" xlink:href="#linear-gradient"/><linearGradient id="linear-gradient-9" x1="534.03" y1="915.87" x2="248.52" y2="813.24" xlink:href="#linear-gradient"/><linearGradient id="linear-gradient-10" x1="533.76" y1="724.22" x2="380.56" y2="669.15" xlink:href="#linear-gradient"/><linearGradient id="linear-gradient-11" x1="543.15" y1="794.5" x2="398.8" y2="742.61" xlink:href="#linear-gradient"/><linearGradient id="linear-gradient-12" x1="723.73" y1="779.58" x2="641.8" y2="750.13" xlink:href="#linear-gradient"/><linearGradient id="linear-gradient-13" x1="832.31" y1="775.72" x2="690.15" y2="724.62" xlink:href="#linear-gradient"/><linearGradient id="linear-gradient-14" x1="294.38" y1="748.53" x2="144.14" y2="694.52" xlink:href="#linear-gradient"/><linearGradient id="linear-gradient-15" x1="201.08" y1="174.79" x2="117.25" y2="144.65" xlink:href="#linear-gradient"/><linearGradient id="linear-gradient-16" x1="498.68" y1="50.8" x2="467.53" y2="39.6" xlink:href="#linear-gradient"/><linearGradient id="linear-gradient-17" x1="691.87" y1="252.8" x2="508.41" y2="186.85" xlink:href="#linear-gradient"/><linearGradient id="linear-gradient-18" x1="949.99" y1="323.44" x2="736.1" y2="246.56" xlink:href="#linear-gradient"/><linearGradient id="linear-gradient-19" x1="895.56" y1="306.46" x2="841.4" y2="286.99" xlink:href="#linear-gradient"/><linearGradient id="linear-gradient-20" x1="942.99" y1="659.24" x2="57.01" y2="340.76" gradientTransform="matrix(0.98, 0.18, -0.18, 0.98, 67.43, -110.14)" xlink:href="#linear-gradient"/><linearGradient id="linear-gradient-21" x1="521.25" y1="337.94" x2="443.43" y2="309.97" xlink:href="#linear-gradient"/></defs><title>jigsaw</title><g id="jigsaw"><rect class="cls-1" x="443.27" y="281.4" width="12.26" height="21.96"/><rect class="cls-2" x="509.15" y="281.4" width="12.26" height="21.96"/><polyline class="cls-3" points="10.76 538.11 255.87 538.11 255.87 323.64"/><polyline class="cls-4" points="305.4 241.06 394.25 241.06 394.25 538.75"/><line class="cls-5" x1="88.38" y1="433.57" x2="88.38" y2="538.1"/><line class="cls-6" x1="191.79" y1="328.04" x2="191.79" y2="415.19"/><line class="cls-7" x1="186.42" y1="415.19" x2="260.14" y2="415.19"/><polyline class="cls-8" points="839.7 538.11 483.11 538.11 483.11 213.49"/><line class="cls-9" x1="231.87" y1="864.55" x2="550.68" y2="864.55"/><polyline class="cls-10" points="391.27 864.55 391.27 658.25 550.68 658.25 550.68 538.75"/><line class="cls-11" x1="391.27" y1="768.55" x2="550.68" y2="768.55"/><line class="cls-12" x1="682.76" y1="650.08" x2="682.76" y2="879.62"/><line class="cls-13" x1="682.76" y1="750.17" x2="839.7" y2="750.17"/><polyline class="cls-14" points="119.32 768.55 280.38 768.55 280.38 662.34 174.17 662.34"/><polyline class="cls-15" points="186.42 108.26 186.42 196.64 100.36 196.64"/><line class="cls-16" x1="483.1" y1="80.21" x2="483.1" y2="10.18"/><polyline class="cls-17" points="682.76 61.67 560.21 61.67 560.21 152.45 635.79 152.45 635.79 389.9 550.68 389.9"/><polyline class="cls-18" points="782.45 131.53 782.45 389.9 924.3 389.9"/><line class="cls-19" x1="839.7" y1="296.72" x2="897.26" y2="296.72"/><circle class="cls-20" cx="470.7" cy="470.7" r="460.62"/><rect class="cls-21" x="455.53" y="276.3" width="53.62" height="95.32"/></g></svg>