<svg xmlns="http://www.w3.org/2000/svg" xmlns:xlink="http://www.w3.org/1999/xlink" viewBox="0 0 968.21 968.21"><defs><style>.cls-1,.cls-10,.cls-11,.cls-12,.cls-13,.cls-14,.cls-15,.cls-16,.cls-17,.cls-18,.cls-2,.cls-20,.cls-22,.cls-26,.cls-27,.cls-29,.cls-3,.cls-31,.cls-32,.cls-33,.cls-34,.cls-35,.cls-36,.cls-37,.cls-38,.cls-39,.cls-4,.cls-40,.cls-41,.cls-42,.cls-5,.cls-6,.cls-7,.cls-8,.cls-9{fill:none;stroke-miterlimit:10;}.cls-1,.cls-10,.cls-11,.cls-12,.cls-2,.cls-3,.cls-4,.cls-5,.cls-6,.cls-7,.cls-8,.cls-9{stroke-width:6px;}.cls-1{stroke:url(#linear-gradient);}.cls-2{stroke:url(#linear-gradient-2);}.cls-3{stroke:url(#linear-gradient-3);}.cls-4{stroke:url(#linear-gradient-4);}.cls-5{stroke:url(#linear-gradient-5);}.cls-6{stroke:url(#linear-gradient-6);}.cls-7{stroke:url(#linear-gradient-7);}.cls-8{stroke:url(#linear-gradient-8);}.cls-9{stroke:url(#linear-gradient-9);}.cls-10{stroke:url(#linear-gradient-10);}.cls-11{stroke:url(#linear-gradient-11);}.cls-12{stroke:url(#linear-gradient-12);}.cls-13{stroke-width:12px;stroke:url(#linear-gradient-13);}.cls-14,.cls-15,.cls-16,.cls-17,.cls-20,.cls-22,.cls-26,.cls-27,.cls-31,.cls-32,.cls-33,.cls-34,.cls-35,.cls-36,.cls-37,.cls-38,.cls-39,.cls-40,.cls-41,.cls-42{stroke-width:4px;}.cls-14{stroke:url(#linear-gradient-14);}.cls-15{stroke:url(#linear-gradient-15);}.cls-16{stroke:url(#linear-gradient-16);}.cls-17{stroke:url(#linear-gradient-17);}.cls-18{stroke-width:3px;stroke:url(#linear-gradient-18);}.cls-19{fill:url(#linear-gradient-19);}.cls-20{stroke:url(#linear-gradient-20);}.cls-21{fill:url(#linear-gradient-21);}.cls-22{stroke:url(#linear-gradient-22);}.cls-23{fill:url(#linear-gradient-23);}.cls-24{fill:url(#linear-gradient-24);}.cls-25{fill:url(#linear-gradient-25);}.cls-26{stroke:url(#linear-gradient-26);}.cls-27{stroke:url(#linear-gradient-27);}.cls-28{fill:url(#linear-gradient-28);}.cls-29{stroke-width:5px;stroke:url(#linear-gradient-29);}.cls-30{fill:url(#linear-gradient-30);}.cls-31{stroke:url(#linear-gradient-31);}.cls-32{stroke:url(#linear-gradient-32);}.cls-33{stroke:url(#linear-gradient-33);}.cls-34{stroke:url(#linear-gradient-34);}.cls-35{stroke:url(#linear-gradient-35);}.cls-36{stroke:url(#linear-gradient-36);}.cls-37{stroke:url(#linear-gradient-37);}.cls-38{stroke:url(#linear-gradient-38);}.cls-39{stroke:url(#linear-gradient-39);}.cls-40{stroke:url(#linear-gradient-40);}.cls-41{stroke:url(#linear-gradient-41);}.cls-42{stroke:url(#linear-gradient-42);}</style><linearGradient id="linear-gradient" x1="298.53" y1="676.02" x2="270.65" y2="648.13" gradientUnits="userSpaceOnUse"><stop offset="0" stop-color="#ed2024"/><stop offset="0.05" stop-color="#f04a4d"/><stop offset="0.14" stop-color="#f58083"/><stop offset="0.21" stop-color="#f8aeaf"/><stop offset="0.29" stop-color="#fbd1d2"/><stop offset="0.36" stop-color="#fdeaeb"/><stop offset="0.42" stop-color="snow"/><stop offset="0.47" stop-color="#fff"/><stop offset="0.51" stop-color="#fef7f7"/><stop offset="0.57" stop-color="#fde1e2"/><stop offset="0.64" stop-color="#fabebf"/><stop offset="0.73" stop-color="#f68c8f"/><stop offset="0.82" stop-color="#f14e51"/><stop offset="0.88" stop-color="#ed2024"/></linearGradient><linearGradient id="linear-gradient-2" x1="354.49" y1="717.85" x2="333.28" y2="696.64" xlink:href="#linear-gradient"/><linearGradient id="linear-gradient-3" x1="327.63" y1="763.78" x2="300.08" y2="736.22" xlink:href="#linear-gradient"/><linearGradient id="linear-gradient-4" x1="432.7" y1="677.75" x2="404.12" y2="649.16" xlink:href="#linear-gradient"/><linearGradient id="linear-gradient-5" x1="488.64" y1="715.82" x2="468.79" y2="695.97" xlink:href="#linear-gradient"/><linearGradient id="linear-gradient-6" x1="475.4" y1="765.93" x2="447.72" y2="738.24" xlink:href="#linear-gradient"/><linearGradient id="linear-gradient-7" x1="573.79" y1="676.27" x2="546.42" y2="648.9" xlink:href="#linear-gradient"/><linearGradient id="linear-gradient-8" x1="627.89" y1="715.82" x2="608.03" y2="695.97" xlink:href="#linear-gradient"/><linearGradient id="linear-gradient-9" x1="618.44" y1="766.55" x2="589.04" y2="737.15" xlink:href="#linear-gradient"/><linearGradient id="linear-gradient-10" x1="707.18" y1="677.84" x2="678.77" y2="649.42" xlink:href="#linear-gradient"/><linearGradient id="linear-gradient-11" x1="645.35" y1="848.06" x2="327.32" y2="530.03" xlink:href="#linear-gradient"/><linearGradient id="linear-gradient-12" x1="633.86" y1="872.8" x2="339.16" y2="578.1" xlink:href="#linear-gradient"/><linearGradient id="linear-gradient-13" x1="826.42" y1="826.42" x2="141.79" y2="141.79" xlink:href="#linear-gradient"/><linearGradient id="linear-gradient-14" x1="558.48" y1="632.97" x2="484.73" y2="559.22" gradientTransform="translate(-149.69 149.89) rotate(-16.19)" xlink:href="#linear-gradient"/><linearGradient id="linear-gradient-15" x1="440.26" y1="636.01" x2="366.51" y2="562.26" gradientTransform="translate(177.45 -118.13) rotate(18.17)" xlink:href="#linear-gradient"/><linearGradient id="linear-gradient-16" x1="461.56" y1="326.64" x2="425.95" y2="291.03" xlink:href="#linear-gradient"/><linearGradient id="linear-gradient-17" x1="291.28" y1="651.54" x2="217.53" y2="577.79" gradientTransform="matrix(0.94, 0.33, -0.33, 0.94, 183.23, -87.2)" xlink:href="#linear-gradient"/><linearGradient id="linear-gradient-18" x1="306.25" y1="652.34" x2="267.58" y2="613.67" gradientTransform="translate(467.75 -72.95) rotate(45.14)" xlink:href="#linear-gradient"/><linearGradient id="linear-gradient-19" x1="230.56" y1="586.04" x2="212.34" y2="567.82" xlink:href="#linear-gradient"/><linearGradient id="linear-gradient-20" x1="306.6" y1="652.69" x2="267.22" y2="613.31" gradientTransform="translate(467.75 -72.95) rotate(45.14)" xlink:href="#linear-gradient"/><linearGradient id="linear-gradient-21" x1="326.18" y1="645.25" x2="307.96" y2="627.03" gradientTransform="translate(675.14 29.78) rotate(66.16)" xlink:href="#linear-gradient"/><linearGradient id="linear-gradient-22" x1="463.96" y1="611.49" x2="424.58" y2="572.11" gradientTransform="translate(776.79 -43.73) rotate(69.89)" xlink:href="#linear-gradient"/><linearGradient id="linear-gradient-23" x1="459.58" y1="595.53" x2="441.36" y2="577.31" gradientTransform="translate(870.97 29.51) rotate(79.77)" xlink:href="#linear-gradient"/><linearGradient id="linear-gradient-24" x1="452.86" y1="317.94" x2="434.64" y2="299.72" xlink:href="#linear-gradient"/><linearGradient id="linear-gradient-25" x1="560.67" y1="291.84" x2="537.19" y2="268.37" gradientTransform="matrix(0.4, 0.91, -0.91, 0.4, 661.08, -320.94)" xlink:href="#linear-gradient"/><linearGradient id="linear-gradient-26" x1="617.02" y1="319.58" x2="636.53" y2="269.16" xlink:href="#linear-gradient"/><linearGradient id="linear-gradient-27" x1="537.12" y1="596.62" x2="497.74" y2="557.24" xlink:href="#linear-gradient"/><linearGradient id="linear-gradient-28" x1="558.88" y1="589.26" x2="540.66" y2="571.04" gradientTransform="translate(302.04 -192.76) rotate(27.83)" xlink:href="#linear-gradient"/><linearGradient id="linear-gradient-29" x1="783.24" y1="631.24" x2="685.94" y2="533.94" xlink:href="#linear-gradient"/><linearGradient id="linear-gradient-30" x1="687.65" y1="860.82" x2="312.1" y2="485.28" xlink:href="#linear-gradient"/><linearGradient id="linear-gradient-31" x1="487.07" y1="576.83" x2="295.99" y2="385.75" xlink:href="#linear-gradient"/><linearGradient id="linear-gradient-32" x1="497.56" y1="508.6" x2="423.67" y2="434.71" xlink:href="#linear-gradient"/><linearGradient id="linear-gradient-33" x1="454.88" y1="418.98" x2="437.54" y2="401.64" xlink:href="#linear-gradient"/><linearGradient id="linear-gradient-34" x1="318.91" y1="546.3" x2="278.7" y2="506.09" xlink:href="#linear-gradient"/><linearGradient id="linear-gradient-35" x1="462.47" y1="547.18" x2="423.12" y2="507.84" xlink:href="#linear-gradient"/><linearGradient id="linear-gradient-36" x1="485.12" y1="627.65" x2="286.76" y2="429.29" xlink:href="#linear-gradient"/><linearGradient id="linear-gradient-37" x1="489.44" y1="418.22" x2="435.08" y2="363.86" xlink:href="#linear-gradient"/><linearGradient id="linear-gradient-38" x1="576.82" y1="305.62" x2="514.16" y2="242.96" xlink:href="#linear-gradient"/><linearGradient id="linear-gradient-39" x1="647.43" y1="423.5" x2="678.26" y2="343.85" xlink:href="#linear-gradient"/><linearGradient id="linear-gradient-40" x1="653.92" y1="509.4" x2="684.71" y2="429.84" xlink:href="#linear-gradient"/><linearGradient id="linear-gradient-41" x1="493.58" y1="555.85" x2="524.37" y2="476.29" gradientTransform="matrix(-0.65, 0.76, 0.76, 0.65, 652.07, -273.51)" xlink:href="#linear-gradient"/><linearGradient id="linear-gradient-42" x1="630.04" y1="284.21" x2="605.54" y2="259.71" xlink:href="#linear-gradient"/></defs><title>lift n lay</title><g id="affiliator"><line class="cls-1" x1="284.59" y1="637.19" x2="284.59" y2="686.96"/><line class="cls-2" x1="343.89" y1="689.04" x2="343.89" y2="725.45"/><line class="cls-3" x1="313.86" y1="725.45" x2="313.86" y2="774.55"/><line class="cls-4" x1="418.41" y1="637.87" x2="418.41" y2="689.04"/><line class="cls-5" x1="478.72" y1="689.04" x2="478.72" y2="722.75"/><line class="cls-6" x1="461.56" y1="727.4" x2="461.56" y2="776.77"/><line class="cls-7" x1="560.11" y1="638.21" x2="560.11" y2="686.96"/><line class="cls-8" x1="617.96" y1="689.04" x2="617.96" y2="722.75"/><line class="cls-9" x1="603.74" y1="725.45" x2="603.74" y2="778.26"/><line class="cls-10" x1="692.98" y1="638.21" x2="692.98" y2="689.04"/><line class="cls-11" x1="171.3" y1="689.04" x2="801.36" y2="689.04"/><line class="cls-12" x1="194.81" y1="725.45" x2="778.21" y2="725.45"/><circle class="cls-13" cx="484.11" cy="484.11" r="478.11"/><circle class="cls-14" cx="517.43" cy="576.93" r="50.15"/><circle class="cls-15" cx="373.84" cy="576.93" r="50.15"/><circle class="cls-16" cx="443.75" cy="308.83" r="23.18"/><circle class="cls-17" cx="221.45" cy="576.93" r="50.15"/><circle class="cls-18" cx="221.45" cy="576.93" r="25.84"/><circle class="cls-19" cx="221.45" cy="576.93" r="12.88"/><circle class="cls-20" cx="221.45" cy="576.93" r="25.84"/><circle class="cls-21" cx="221.45" cy="576.93" r="12.88"/><circle class="cls-22" cx="373.84" cy="576.93" r="25.84"/><circle class="cls-23" cx="373.84" cy="576.93" r="12.88"/><circle class="cls-24" cx="443.75" cy="308.83" r="12.88"/><circle class="cls-25" cx="626.77" cy="294.37" r="16.6"/><circle class="cls-26" cx="626.77" cy="294.37" r="25.03"/><circle class="cls-27" cx="517.43" cy="576.93" r="25.84"/><circle class="cls-28" cx="517.43" cy="576.93" r="12.88"/><rect class="cls-29" x="688.07" y="536.81" width="93.03" height="91.56"/><path class="cls-30" d="M835.32,656.94a418.24,418.24,0,0,1-28.52,60.31c-18.61,31.87-48.52,70.37-85.28,72.79-32.21,2.13-77,3.2-133.13,3.2-103.06,0-222.87-3.49-310.36-6l-14.58-.42c-5.57-.16-15.48-3.89-31-20.73-11-11.87-23-28.45-35.82-49.28-14.11-22.93-26-46-32.84-59.82H835.32m12.79-9H149.44s67.14,146.47,113.75,147.82c86,2.5,216,6.48,325.2,6.48,51.45,0,98.28-.88,133.72-3.22,79-5.21,126-151.08,126-151.08Z" transform="translate(-15.89 -15.89)"/><path class="cls-31" d="M224.34,461.42H557.59a4.48,4.48,0,0,1,4.48,4.48v31.93a0,0,0,0,1,0,0H221.45a0,0,0,0,1,0,0V464.31A2.89,2.89,0,0,1,224.34,461.42Z"/><path class="cls-32" d="M397.29,477.32h127.6s.41-19.48-41.72-51.12H439.88S411.63,439.07,397.29,477.32Z" transform="translate(-15.89 -15.89)"/><line class="cls-33" x1="461.56" y1="410.31" x2="430.87" y2="410.31"/><path class="cls-34" d="M284.59,504.2h29.26a0,0,0,0,1,0,0V547a3.8,3.8,0,0,1-3.8,3.8H285.54a1,1,0,0,1-1-1V504.2A0,0,0,0,1,284.59,504.2Z"/><path class="cls-35" d="M430.76,504.2h24a0,0,0,0,1,0,0v47.29a1.4,1.4,0,0,1-1.4,1.4H432.43a1.67,1.67,0,0,1-1.67-1.67v-47A0,0,0,0,1,430.76,504.2Z"/><path class="cls-36" d="M198.72,546v-23a7,7,0,0,1,7-7H578v15.11a1.94,1.94,0,0,1-1.51,1.89c-2.22.53-6.61,2.33-11.34,8.42a1.88,1.88,0,0,1-2.19.61c-9.95-4.15-73.43-27.38-88.36,49a.4.4,0,0,1-.79-.06v-75H442.88v45.44a.94.94,0,0,1-1.69.57c-8.68-11.6-50-59.21-105.33.55a1,1,0,0,1-1.67-.64l-.12-45.92H296.29v58a1.29,1.29,0,0,1-2.44.6c-8.27-16.21-37.81-62.4-92.16-27.07A1.92,1.92,0,0,1,198.72,546Z" transform="translate(-15.89 -15.89)"/><path class="cls-37" d="M446.76,356.07V426.2h30.69V355.44a2.36,2.36,0,0,0-3.1-2.3c-5,1.79-15.3,4.49-24.17.63A2.45,2.45,0,0,0,446.76,356.07Z" transform="translate(-15.89 -15.89)"/><path class="cls-38" d="M603,216.66l24.82,34.51-135,84.62a1.27,1.27,0,0,1-1.91-1.36c1.73-7.22,3.06-25.34-21.31-39.48a2.61,2.61,0,0,1,.05-4.55Z" transform="translate(-15.89 -15.89)"/><path class="cls-39" d="M649.11,340.65a13.64,13.64,0,0,0,6.84-2.1,2.49,2.49,0,0,1,3.9,1.63l8.73,56.67a.81.81,0,0,0,.61.67c2.25.57,11.2,3.27,15,10.84a3,3,0,0,1-2.26,4.27c-5.79.7-17,3.1-22.73,11.33a2.3,2.3,0,0,1-3.87,0c-1.76-2.84-1.74-9,.92-22.81a9.63,9.63,0,0,0-.1-1.52l-9.39-56.1A2.49,2.49,0,0,1,649.11,340.65Z" transform="translate(-15.89 -15.89)"/><path class="cls-40" d="M670.11,426.6l6.28,6s-52.59,29.91,1.1,83.44c0,0-62.27-14.86-24.15-84.18,0,0,8.36.39,12-4.83A3.14,3.14,0,0,1,670.11,426.6Z" transform="translate(-15.89 -15.89)"/><path class="cls-41" d="M681.8,421.29l.53,8.7s56.86-20.66,62.82,54.93c0,0,29.05-57.05-48.44-73,0,0-5.12,6.61-11.46,6A3.15,3.15,0,0,0,681.8,421.29Z" transform="translate(-15.89 -15.89)"/><path class="cls-42" d="M621.51,255.14l-21.44,13.44,13.85,20.89a1.72,1.72,0,0,0,2.81.09c2.3-3.1,7.33-8.69,14.24-9.6a1.7,1.7,0,0,0,1.28-2.44Z" transform="translate(-15.89 -15.89)"/></g></svg>