<svg xmlns="http://www.w3.org/2000/svg" xmlns:xlink="http://www.w3.org/1999/xlink" viewBox="0 0 939.45 939.45"><defs><style>.cls-1,.cls-10,.cls-2,.cls-3,.cls-4,.cls-5,.cls-6,.cls-7,.cls-8,.cls-9{fill:none;}.cls-1,.cls-10,.cls-2,.cls-6,.cls-9{stroke-linecap:round;}.cls-1,.cls-10,.cls-2,.cls-4,.cls-5,.cls-6,.cls-7,.cls-9{stroke-linejoin:round;}.cls-1,.cls-2{stroke-width:3px;}.cls-1{stroke:url(#radial-gradient);}.cls-2{stroke:url(#radial-gradient-2);}.cls-3,.cls-8{stroke-miterlimit:10;}.cls-10,.cls-3,.cls-4,.cls-5,.cls-6,.cls-9{stroke-width:5px;}.cls-3{stroke:url(#radial-gradient-3);}.cls-4,.cls-5{stroke-linecap:square;}.cls-4{stroke:url(#radial-gradient-4);}.cls-5{stroke:url(#radial-gradient-5);}.cls-6{stroke:url(#radial-gradient-6);}.cls-7{stroke-width:10px;stroke:url(#radial-gradient-7);}.cls-8{stroke-width:20px;stroke:url(#radial-gradient-8);}.cls-9{stroke:url(#radial-gradient-9);}.cls-10{stroke:url(#radial-gradient-10);}</style><radialGradient id="radial-gradient" cx="679.99" cy="494.54" r="22.69" gradientUnits="userSpaceOnUse"><stop offset="0" stop-color="#ed2024"/><stop offset="0.12" stop-color="#f26164"/><stop offset="0.25" stop-color="#f8a4a6"/><stop offset="0.36" stop-color="#fcd5d6"/><stop offset="0.45" stop-color="#fef4f4"/><stop offset="0.49" stop-color="#fff"/><stop offset="0.56" stop-color="#fffbfb"/><stop offset="0.63" stop-color="#feefef"/><stop offset="0.69" stop-color="#fcdbdb"/><stop offset="0.76" stop-color="#fabebf"/><stop offset="0.82" stop-color="#f79a9b"/><stop offset="0.89" stop-color="#f36d6f"/><stop offset="0.96" stop-color="#ef393c"/><stop offset="0.98" stop-color="#ed2024"/></radialGradient><radialGradient id="radial-gradient-2" cx="708.54" cy="543.46" r="22.54" xlink:href="#radial-gradient"/><radialGradient id="radial-gradient-3" cx="801.83" cy="513.3" r="58.82" xlink:href="#radial-gradient"/><radialGradient id="radial-gradient-4" cx="288.37" cy="455.01" r="56.44" xlink:href="#radial-gradient"/><radialGradient id="radial-gradient-5" cx="457.01" cy="441.42" r="24.14" xlink:href="#radial-gradient"/><radialGradient id="radial-gradient-6" cx="465.73" cy="533.21" r="197.63" xlink:href="#radial-gradient"/><radialGradient id="radial-gradient-7" cx="499.38" cy="552.68" r="324.25" xlink:href="#radial-gradient"/><radialGradient id="radial-gradient-8" cx="469.72" cy="469.72" r="469.72" xlink:href="#radial-gradient"/><radialGradient id="radial-gradient-9" cx="465.98" cy="471.24" r="197.94" xlink:href="#radial-gradient"/><radialGradient id="radial-gradient-10" cx="358.94" cy="387.63" r="19.24" xlink:href="#radial-gradient"/></defs><title>Export</title><g id="export"><polygon class="cls-1" points="650.98 487.29 709.36 487.29 705.91 501.79 650.62 501.79 650.98 487.29"/><path class="cls-2" d="M680.9,532.06V554s34.62,5.62,52.57-12l2.72-10Z" transform="translate(-30.28 -30.28)"/><path class="cls-3" d="M738.77,532.61h91S814.25,520,807.44,495.76c-3-10.63,2-22.2,10.15-29.67,6.42-5.9,14.75-8.19,22.21,6.63,2.43,4.82,1,10.32.06,15.63l-8,44.44,27.56,26.65-27.37,3.8.54-30.63-21,32.27-29.91-3.63,48.76-28.64" transform="translate(-30.28 -30.28)"/><path class="cls-4" d="M363.38,439s4.08,20.69-35.35,32.11H213.23s25-14.77,30.05-32Z" transform="translate(-30.28 -30.28)"/><line class="cls-5" x1="457.01" y1="409.88" x2="457.01" y2="472.96"/><path class="cls-6" d="M190.71,503.42l58.37,36.08,12.24-.18s91.91,55.38,153.59-.41c0,0,94.68,51.35,155.13-2.4,0,0,53.84,41.51,103.61,17.4,0,0,25.83,16.4,59.82-11.88,0,0,10.06-23.65,6.52-39.42C740,502.61,189.35,504.78,190.71,503.42Z" transform="translate(-30.28 -30.28)"/><path class="cls-7" d="M41.7,568.86s62.81-4.89,82.39-28.55c0,0,73.69,34.26,138.14-1.76,0,0,94.63,56.15,152.82-.41,0,0,96.26,52.48,155-1.63,0,0,53.84,42.42,103.61,17.4,0,0,42.42,8.16,59.82-12.78,0,0,33.45,27.46,65,21.21,0,0,64.72,12.23,99-22,0,0,44.32,30.19,56.83,19.85" transform="translate(-30.28 -30.28)"/><circle class="cls-8" cx="469.72" cy="469.72" r="459.72"/><path class="cls-9" d="M741.08,503.42H190.71s0-19.4,24.65-33.9,27.92-30.45,27.92-30.45H578.65s27.92,4.71,26.83,32.26H723S743.26,480.76,741.08,503.42Z" transform="translate(-30.28 -30.28)"/><rect class="cls-10" x="340.45" y="372.81" width="36.98" height="29.64"/></g></svg>