<svg xmlns="http://www.w3.org/2000/svg" xmlns:xlink="http://www.w3.org/1999/xlink" viewBox="0 0 967.96 967.96"><defs><style>.cls-1,.cls-10,.cls-11,.cls-12,.cls-13,.cls-14,.cls-15,.cls-16,.cls-17,.cls-18,.cls-19,.cls-2,.cls-20,.cls-21,.cls-22,.cls-23,.cls-24,.cls-25,.cls-26,.cls-27,.cls-28,.cls-29,.cls-3,.cls-30,.cls-31,.cls-32,.cls-33,.cls-4,.cls-5,.cls-6,.cls-7,.cls-8,.cls-9{fill:none;stroke-miterlimit:10;}.cls-1,.cls-2,.cls-3,.cls-6,.cls-7{stroke-width:8px;}.cls-1{stroke:url(#radial-gradient);}.cls-2{stroke:url(#radial-gradient-2);}.cls-3{stroke:url(#radial-gradient-3);}.cls-4{stroke-width:20px;stroke:url(#linear-gradient);}.cls-5{stroke-width:10px;stroke:url(#radial-gradient-4);}.cls-6{stroke:url(#radial-gradient-5);}.cls-7{stroke:url(#radial-gradient-6);}.cls-10,.cls-11,.cls-12,.cls-13,.cls-14,.cls-15,.cls-16,.cls-19,.cls-20,.cls-21,.cls-22,.cls-23,.cls-24,.cls-25,.cls-26,.cls-27,.cls-28,.cls-29,.cls-32,.cls-33,.cls-8,.cls-9{stroke-width:3px;}.cls-8{stroke:url(#radial-gradient-7);}.cls-9{stroke:url(#radial-gradient-8);}.cls-10{stroke:url(#radial-gradient-9);}.cls-11{stroke:url(#radial-gradient-10);}.cls-12{stroke:url(#radial-gradient-11);}.cls-13{stroke:url(#radial-gradient-12);}.cls-14{stroke:url(#radial-gradient-13);}.cls-15{stroke:url(#radial-gradient-14);}.cls-16{stroke:url(#radial-gradient-15);}.cls-17,.cls-18,.cls-30,.cls-31{stroke-width:2px;}.cls-17{stroke:url(#radial-gradient-16);}.cls-18{stroke:url(#radial-gradient-17);}.cls-19{stroke:url(#radial-gradient-18);}.cls-20{stroke:url(#radial-gradient-19);}.cls-21{stroke:url(#radial-gradient-20);}.cls-22{stroke:url(#radial-gradient-21);}.cls-23{stroke:url(#radial-gradient-22);}.cls-24{stroke:url(#radial-gradient-23);}.cls-25{stroke:url(#radial-gradient-24);}.cls-26{stroke:url(#radial-gradient-25);}.cls-27{stroke:url(#radial-gradient-26);}.cls-28{stroke:url(#radial-gradient-27);}.cls-29{stroke:url(#radial-gradient-28);}.cls-30{stroke:url(#radial-gradient-29);}.cls-31{stroke:url(#radial-gradient-30);}.cls-32{stroke:url(#radial-gradient-31);}.cls-33{stroke:url(#radial-gradient-32);}</style><radialGradient id="radial-gradient" cx="481.31" cy="214.54" r="57.54" gradientUnits="userSpaceOnUse"><stop offset="0" stop-color="#ed2024"/><stop offset="0.12" stop-color="#f26164"/><stop offset="0.25" stop-color="#f8a4a6"/><stop offset="0.36" stop-color="#fcd5d6"/><stop offset="0.45" stop-color="#fef4f4"/><stop offset="0.49" stop-color="#fff"/><stop offset="0.56" stop-color="#fffbfb"/><stop offset="0.63" stop-color="#feefef"/><stop offset="0.69" stop-color="#fcdbdb"/><stop offset="0.76" stop-color="#fabebf"/><stop offset="0.82" stop-color="#f79a9b"/><stop offset="0.89" stop-color="#f36d6f"/><stop offset="0.96" stop-color="#ef393c"/><stop offset="0.98" stop-color="#ed2024"/></radialGradient><radialGradient id="radial-gradient-2" cx="481.31" cy="752.87" r="57.54" xlink:href="#radial-gradient"/><radialGradient id="radial-gradient-3" cx="481.01" cy="481.36" r="156.67" xlink:href="#radial-gradient"/><linearGradient id="linear-gradient" x1="0" y1="483.98" x2="967.96" y2="483.98" xlink:href="#radial-gradient"/><radialGradient id="radial-gradient-4" cx="482.69" cy="486.35" r="294.5" xlink:href="#radial-gradient"/><radialGradient id="radial-gradient-5" cx="481.01" cy="483.7" r="262.93" xlink:href="#radial-gradient"/><radialGradient id="radial-gradient-6" cx="483.98" cy="483.98" r="80.27" xlink:href="#radial-gradient"/><radialGradient id="radial-gradient-7" cx="483.4" cy="289.13" r="22.55" xlink:href="#radial-gradient"/><radialGradient id="radial-gradient-8" cx="480.86" cy="336.47" r="29.45" xlink:href="#radial-gradient"/><radialGradient id="radial-gradient-9" cx="464.58" cy="374.91" r="10.84" xlink:href="#radial-gradient"/><radialGradient id="radial-gradient-10" cx="498.93" cy="374.91" r="10.84" xlink:href="#radial-gradient"/><radialGradient id="radial-gradient-11" cx="524.46" cy="337.24" r="14.28" gradientTransform="translate(15.71 9.86)" xlink:href="#radial-gradient"/><radialGradient id="radial-gradient-12" cx="524.46" cy="423.66" r="14.28" gradientTransform="translate(-70.72 -76.57)" xlink:href="#radial-gradient"/><radialGradient id="radial-gradient-13" cx="433.53" cy="361.68" r="10.63" xlink:href="#radial-gradient"/><radialGradient id="radial-gradient-14" cx="369.41" cy="377.7" r="10.63" gradientTransform="matrix(-1, 0, 0, 1, 897.98, -16.02)" xlink:href="#radial-gradient"/><radialGradient id="radial-gradient-15" cx="483.35" cy="307.93" r="12.47" xlink:href="#radial-gradient"/><radialGradient id="radial-gradient-16" cx="471.75" cy="289.21" r="6.74" xlink:href="#radial-gradient"/><radialGradient id="radial-gradient-17" cx="493.41" cy="289.21" r="6.74" xlink:href="#radial-gradient"/><radialGradient id="radial-gradient-18" cx="466.91" cy="335.57" r="7.84" xlink:href="#radial-gradient"/><radialGradient id="radial-gradient-19" cx="494.3" cy="335.57" r="7.94" xlink:href="#radial-gradient"/><radialGradient id="radial-gradient-20" cx="499.43" cy="38.68" r="22.55" gradientTransform="matrix(1, 0, 0, -1, -16.02, 720.7)" xlink:href="#radial-gradient"/><radialGradient id="radial-gradient-21" cx="496.88" cy="86.02" r="29.45" gradientTransform="matrix(1, 0, 0, -1, -16.02, 720.7)" xlink:href="#radial-gradient"/><radialGradient id="radial-gradient-22" cx="480.6" cy="124.46" r="10.84" gradientTransform="matrix(1, 0, 0, -1, -16.02, 720.7)" xlink:href="#radial-gradient"/><radialGradient id="radial-gradient-23" cx="514.95" cy="124.46" r="10.84" gradientTransform="matrix(1, 0, 0, -1, -16.02, 720.7)" xlink:href="#radial-gradient"/><radialGradient id="radial-gradient-24" cx="257.99" cy="337.24" r="14.28" gradientTransform="matrix(1, 0, 0, -1, 282.18, 993.34)" xlink:href="#radial-gradient"/><radialGradient id="radial-gradient-25" cx="257.99" cy="423.66" r="14.28" gradientTransform="matrix(1, 0, 0, -1, 195.76, 1079.76)" xlink:href="#radial-gradient"/><radialGradient id="radial-gradient-26" cx="449.55" cy="111.23" r="10.63" gradientTransform="matrix(1, 0, 0, -1, -16.02, 720.7)" xlink:href="#radial-gradient"/><radialGradient id="radial-gradient-27" cx="369.41" cy="111.23" r="10.63" gradientTransform="translate(897.98 720.7) rotate(180)" xlink:href="#radial-gradient"/><radialGradient id="radial-gradient-28" cx="499.38" cy="57.48" r="12.47" gradientTransform="matrix(1, 0, 0, -1, -16.02, 720.7)" xlink:href="#radial-gradient"/><radialGradient id="radial-gradient-29" cx="487.77" cy="38.76" r="6.74" gradientTransform="matrix(1, 0, 0, -1, -16.02, 720.7)" xlink:href="#radial-gradient"/><radialGradient id="radial-gradient-30" cx="509.43" cy="38.76" r="6.74" gradientTransform="matrix(1, 0, 0, -1, -16.02, 720.7)" xlink:href="#radial-gradient"/><radialGradient id="radial-gradient-31" cx="482.93" cy="85.12" r="7.84" gradientTransform="matrix(1, 0, 0, -1, -16.02, 720.7)" xlink:href="#radial-gradient"/><radialGradient id="radial-gradient-32" cx="510.33" cy="85.12" r="7.94" gradientTransform="matrix(1, 0, 0, -1, -16.02, 720.7)" xlink:href="#radial-gradient"/></defs><title>robo soccer</title><g id="kickibot"><rect class="cls-1" x="408.36" y="192.07" width="145.89" height="44.94"/><rect class="cls-2" x="408.36" y="730.4" width="145.89" height="44.94"/><line class="cls-3" x1="259.48" y1="481.36" x2="702.54" y2="481.36"/><circle class="cls-4" cx="483.98" cy="483.98" r="473.98"/><rect class="cls-5" x="231.91" y="162.66" width="501.56" height="647.37"/><rect class="cls-6" x="259.48" y="192.07" width="443.06" height="583.26"/><circle class="cls-7" cx="483.98" cy="483.98" r="76.27"/><rect class="cls-8" x="456.59" y="275.95" width="53.62" height="26.36" rx="7.66"/><rect class="cls-9" x="448.5" y="313.7" width="64.71" height="45.53"/><rect class="cls-10" x="454.2" y="366.72" width="20.77" height="16.38"/><rect class="cls-11" x="488.55" y="366.72" width="20.77" height="16.38"/><rect class="cls-12" x="522.79" y="341.4" width="34.75" height="11.38" transform="translate(871.24 -209.09) rotate(90)"/><rect class="cls-13" x="436.37" y="341.4" width="34.75" height="11.38" transform="translate(784.82 -122.67) rotate(90)"/><polygon class="cls-14" points="432.03 353.37 443.41 353.37 443.41 369.99 423.64 369.99 423.64 362.8 432.03 362.8 432.03 353.37"/><polygon class="cls-15" points="530.06 353.37 518.68 353.37 518.68 369.99 538.45 369.99 538.45 362.8 530.06 362.8 530.06 353.37"/><line class="cls-16" x1="465.78" y1="307.93" x2="500.93" y2="307.93"/><circle class="cls-17" cx="471.75" cy="289.21" r="5.74"/><circle class="cls-18" cx="493.41" cy="289.21" r="5.74"/><rect class="cls-19" x="460.67" y="329.13" width="12.48" height="12.88"/><rect class="cls-20" x="487.86" y="329.13" width="12.88" height="12.88"/><rect class="cls-21" x="456.59" y="668.84" width="53.62" height="26.36" rx="7.66"/><rect class="cls-22" x="448.5" y="611.92" width="64.71" height="45.53"/><rect class="cls-23" x="454.2" y="588.05" width="20.77" height="16.38"/><rect class="cls-24" x="488.55" y="588.05" width="20.77" height="16.38"/><rect class="cls-25" x="522.79" y="650.41" width="34.75" height="11.38" transform="translate(-131.95 1180.25) rotate(-90)"/><rect class="cls-26" x="436.37" y="650.41" width="34.75" height="11.38" transform="translate(-218.38 1093.82) rotate(-90)"/><polygon class="cls-27" points="432.03 617.78 443.41 617.78 443.41 601.16 423.64 601.16 423.64 608.35 432.03 608.35 432.03 617.78"/><polygon class="cls-28" points="530.06 617.78 518.68 617.78 518.68 601.16 538.45 601.16 538.45 608.35 530.06 608.35 530.06 617.78"/><line class="cls-29" x1="465.78" y1="663.22" x2="500.93" y2="663.22"/><circle class="cls-30" cx="471.75" cy="681.94" r="5.74"/><circle class="cls-31" cx="493.41" cy="681.94" r="5.74"/><rect class="cls-32" x="460.67" y="629.14" width="12.48" height="12.88"/><rect class="cls-33" x="487.86" y="629.14" width="12.88" height="12.88"/></g></svg>