<svg xmlns="http://www.w3.org/2000/svg" xmlns:xlink="http://www.w3.org/1999/xlink" viewBox="0 0 918 918"><defs><style>.cls-1,.cls-10,.cls-11,.cls-12,.cls-13,.cls-14,.cls-15,.cls-16,.cls-17,.cls-18,.cls-19,.cls-2,.cls-20,.cls-21,.cls-22,.cls-23,.cls-24,.cls-25,.cls-26,.cls-27,.cls-28,.cls-29,.cls-3,.cls-30,.cls-31,.cls-32,.cls-33,.cls-34,.cls-35,.cls-36,.cls-37,.cls-38,.cls-39,.cls-4,.cls-40,.cls-41,.cls-42,.cls-43,.cls-44,.cls-45,.cls-46,.cls-47,.cls-48,.cls-49,.cls-5,.cls-50,.cls-51,.cls-52,.cls-53,.cls-54,.cls-55,.cls-56,.cls-57,.cls-58,.cls-59,.cls-6,.cls-7,.cls-8,.cls-9{fill:none;}.cls-1{stroke-miterlimit:10;stroke:url(#linear-gradient);}.cls-1,.cls-23,.cls-24,.cls-25,.cls-26{stroke-width:10px;}.cls-10,.cls-11,.cls-12,.cls-13,.cls-14,.cls-15,.cls-16,.cls-17,.cls-18,.cls-19,.cls-2,.cls-20,.cls-21,.cls-22,.cls-23,.cls-24,.cls-25,.cls-26,.cls-27,.cls-28,.cls-29,.cls-3,.cls-30,.cls-31,.cls-32,.cls-33,.cls-34,.cls-35,.cls-36,.cls-37,.cls-38,.cls-39,.cls-4,.cls-40,.cls-41,.cls-42,.cls-43,.cls-44,.cls-45,.cls-46,.cls-47,.cls-48,.cls-49,.cls-5,.cls-50,.cls-51,.cls-52,.cls-53,.cls-54,.cls-55,.cls-56,.cls-57,.cls-58,.cls-59,.cls-6,.cls-7,.cls-8,.cls-9{stroke-linejoin:round;}.cls-10,.cls-15,.cls-2,.cls-3,.cls-4,.cls-5,.cls-52,.cls-53,.cls-54,.cls-55,.cls-56,.cls-57,.cls-58,.cls-59,.cls-6,.cls-7,.cls-8,.cls-9{stroke-width:3px;}.cls-2{stroke:url(#linear-gradient-2);}.cls-3{stroke:url(#linear-gradient-3);}.cls-4{stroke:url(#linear-gradient-4);}.cls-5{stroke:url(#linear-gradient-5);}.cls-6{stroke:url(#linear-gradient-6);}.cls-7{stroke:url(#linear-gradient-7);}.cls-8{stroke:url(#linear-gradient-8);}.cls-9{stroke:url(#linear-gradient-9);}.cls-10{stroke:url(#linear-gradient-10);}.cls-11,.cls-27,.cls-31{stroke-width:5px;}.cls-11{stroke:url(#linear-gradient-11);}.cls-12,.cls-13,.cls-14,.cls-16,.cls-21,.cls-32,.cls-33,.cls-34,.cls-35,.cls-36,.cls-37,.cls-38,.cls-39,.cls-40{stroke-width:4px;}.cls-12{stroke:url(#linear-gradient-12);}.cls-13{stroke:url(#linear-gradient-13);}.cls-14{stroke:url(#linear-gradient-14);}.cls-15{stroke:url(#linear-gradient-15);}.cls-16{stroke:url(#linear-gradient-16);}.cls-17,.cls-18,.cls-28,.cls-29,.cls-30,.cls-51{stroke-width:6px;}.cls-17{stroke:url(#linear-gradient-17);}.cls-18{stroke:url(#linear-gradient-18);}.cls-19{stroke:url(#linear-gradient-19);}.cls-20{stroke:url(#linear-gradient-20);}.cls-21{stroke:url(#linear-gradient-21);}.cls-22,.cls-23,.cls-24,.cls-25,.cls-26,.cls-27{stroke-linecap:round;}.cls-22{stroke-width:20px;stroke:url(#linear-gradient-22);}.cls-23{stroke:url(#linear-gradient-23);}.cls-24{stroke:url(#linear-gradient-24);}.cls-25{stroke:url(#linear-gradient-25);}.cls-26{stroke:url(#linear-gradient-26);}.cls-27{stroke:url(#linear-gradient-27);}.cls-28{stroke:url(#linear-gradient-28);}.cls-29{stroke:url(#linear-gradient-29);}.cls-30{stroke:url(#linear-gradient-30);}.cls-31{stroke:url(#linear-gradient-31);}.cls-32{stroke:url(#linear-gradient-32);}.cls-33{stroke:url(#linear-gradient-33);}.cls-34{stroke:url(#linear-gradient-34);}.cls-35{stroke:url(#linear-gradient-35);}.cls-36{stroke:url(#linear-gradient-36);}.cls-37{stroke:url(#linear-gradient-37);}.cls-38{stroke:url(#linear-gradient-38);}.cls-39{stroke:url(#linear-gradient-39);}.cls-40{stroke:url(#linear-gradient-40);}.cls-41{stroke:url(#linear-gradient-41);}.cls-42{stroke:url(#linear-gradient-42);}.cls-43{stroke:url(#linear-gradient-43);}.cls-44{stroke:url(#linear-gradient-44);}.cls-45{stroke:url(#linear-gradient-45);}.cls-46{stroke:url(#linear-gradient-46);}.cls-47{stroke:url(#linear-gradient-47);}.cls-48{stroke:url(#linear-gradient-48);}.cls-49{stroke:url(#linear-gradient-49);}.cls-50{stroke:url(#linear-gradient-50);}.cls-51{stroke:url(#linear-gradient-51);}.cls-52{stroke:url(#linear-gradient-52);}.cls-53{stroke:url(#linear-gradient-53);}.cls-54{stroke:url(#linear-gradient-54);}.cls-55{stroke:url(#linear-gradient-55);}.cls-56{stroke:url(#linear-gradient-56);}.cls-57{stroke:url(#linear-gradient-57);}.cls-58{stroke:url(#linear-gradient-58);}.cls-59{stroke:url(#linear-gradient-59);}</style><linearGradient id="linear-gradient" x1="74.97" y1="807.04" x2="925.03" y2="807.04" gradientUnits="userSpaceOnUse"><stop offset="0" stop-color="#ed2024"/><stop offset="0.12" stop-color="#f26164"/><stop offset="0.25" stop-color="#f8a4a6"/><stop offset="0.36" stop-color="#fcd5d6"/><stop offset="0.45" stop-color="#fef4f4"/><stop offset="0.49" stop-color="#fff"/><stop offset="0.56" stop-color="#fffbfb"/><stop offset="0.63" stop-color="#feefef"/><stop offset="0.69" stop-color="#fcdbdb"/><stop offset="0.76" stop-color="#fabebf"/><stop offset="0.82" stop-color="#f79a9b"/><stop offset="0.89" stop-color="#f36d6f"/><stop offset="0.96" stop-color="#ef393c"/><stop offset="0.98" stop-color="#ed2024"/></linearGradient><linearGradient id="linear-gradient-2" x1="351.27" y1="454.81" x2="367.37" y2="454.81" xlink:href="#linear-gradient"/><linearGradient id="linear-gradient-3" x1="359.48" y1="368.64" x2="383.29" y2="368.64" xlink:href="#linear-gradient"/><linearGradient id="linear-gradient-4" x1="368.86" y1="368.57" x2="384.97" y2="368.57" xlink:href="#linear-gradient"/><linearGradient id="linear-gradient-5" x1="395.35" y1="588.6" x2="398.35" y2="588.6" xlink:href="#linear-gradient"/><linearGradient id="linear-gradient-6" x1="167.61" y1="587.64" x2="170.61" y2="587.64" xlink:href="#linear-gradient"/><linearGradient id="linear-gradient-7" x1="308.03" y1="513.62" x2="349.84" y2="513.62" xlink:href="#linear-gradient"/><linearGradient id="linear-gradient-8" x1="277.39" y1="514.13" x2="301.84" y2="514.13" xlink:href="#linear-gradient"/><linearGradient id="linear-gradient-9" x1="243.35" y1="514.3" x2="262.69" y2="514.3" xlink:href="#linear-gradient"/><linearGradient id="linear-gradient-10" x1="216.88" y1="513.4" x2="233.16" y2="513.4" xlink:href="#linear-gradient"/><linearGradient id="linear-gradient-11" x1="95.29" y1="539.94" x2="467.27" y2="539.94" xlink:href="#linear-gradient"/><linearGradient id="linear-gradient-12" x1="168.79" y1="632.92" x2="252.45" y2="632.92" xlink:href="#linear-gradient"/><linearGradient id="linear-gradient-13" x1="179.51" y1="628.92" x2="241.72" y2="628.92" xlink:href="#linear-gradient"/><linearGradient id="linear-gradient-14" x1="406.57" y1="628.92" x2="468.79" y2="628.92" xlink:href="#linear-gradient"/><linearGradient id="linear-gradient-15" x1="116.1" y1="596.19" x2="218.78" y2="596.19" xlink:href="#linear-gradient"/><linearGradient id="linear-gradient-16" x1="395.17" y1="632.92" x2="478.83" y2="632.92" xlink:href="#linear-gradient"/><linearGradient id="linear-gradient-17" x1="179.02" y1="564.66" x2="241.87" y2="564.66" xlink:href="#linear-gradient"/><linearGradient id="linear-gradient-18" x1="407.45" y1="564.66" x2="470.3" y2="564.66" xlink:href="#linear-gradient"/><linearGradient id="linear-gradient-19" x1="529.64" y1="338.08" x2="551.71" y2="338.08" gradientTransform="translate(966.26 -179.4) rotate(90)" xlink:href="#linear-gradient"/><linearGradient id="linear-gradient-20" x1="529.64" y1="338.08" x2="551.71" y2="338.08" gradientTransform="translate(1199.96 94.05) rotate(120)" xlink:href="#linear-gradient"/><linearGradient id="linear-gradient-21" x1="598.77" y1="494.98" x2="602.77" y2="494.98" xlink:href="#linear-gradient"/><linearGradient id="linear-gradient-22" x1="0" y1="459" x2="918" y2="459" xlink:href="#linear-gradient"/><linearGradient id="linear-gradient-23" x1="520.7" y1="526.04" x2="860.23" y2="526.04" xlink:href="#linear-gradient"/><linearGradient id="linear-gradient-24" x1="522.06" y1="577.62" x2="858.19" y2="577.62" xlink:href="#linear-gradient"/><linearGradient id="linear-gradient-25" x1="549.19" y1="575.69" x2="594.7" y2="575.69" xlink:href="#linear-gradient"/><linearGradient id="linear-gradient-26" x1="775.15" y1="575.69" x2="820.66" y2="575.69" xlink:href="#linear-gradient"/><linearGradient id="linear-gradient-27" x1="605.24" y1="568.43" x2="760.12" y2="568.43" xlink:href="#linear-gradient"/><linearGradient id="linear-gradient-28" x1="660.19" y1="629.07" x2="701.7" y2="629.07" xlink:href="#linear-gradient"/><linearGradient id="linear-gradient-29" x1="703.26" y1="629.07" x2="744.77" y2="629.07" xlink:href="#linear-gradient"/><linearGradient id="linear-gradient-30" x1="746.32" y1="629.07" x2="787.83" y2="629.07" xlink:href="#linear-gradient"/><linearGradient id="linear-gradient-31" x1="741.33" y1="500.51" x2="844.12" y2="500.51" xlink:href="#linear-gradient"/><linearGradient id="linear-gradient-32" x1="717.3" y1="468.21" x2="737.38" y2="468.21" xlink:href="#linear-gradient"/><linearGradient id="linear-gradient-33" x1="711.62" y1="399.98" x2="742.26" y2="399.98" xlink:href="#linear-gradient"/><linearGradient id="linear-gradient-34" x1="771.97" y1="382.82" x2="792.05" y2="382.82" gradientTransform="translate(-49.06 109.73) scale(1 0.75)" xlink:href="#linear-gradient"/><linearGradient id="linear-gradient-35" x1="636.66" y1="316.72" x2="667.3" y2="316.72" xlink:href="#linear-gradient"/><linearGradient id="linear-gradient-36" x1="516.15" y1="352.81" x2="546.79" y2="352.81" xlink:href="#linear-gradient"/><linearGradient id="linear-gradient-37" x1="477.02" y1="352.81" x2="585.91" y2="352.81" xlink:href="#linear-gradient"/><linearGradient id="linear-gradient-38" x1="627.6" y1="368.68" x2="680.11" y2="368.68" xlink:href="#linear-gradient"/><linearGradient id="linear-gradient-39" x1="528.89" y1="326.51" x2="532.89" y2="326.51" xlink:href="#linear-gradient"/><linearGradient id="linear-gradient-40" x1="528.13" y1="377.45" x2="532.13" y2="377.45" xlink:href="#linear-gradient"/><linearGradient id="linear-gradient-41" x1="529.64" y1="338.08" x2="551.71" y2="338.08" xlink:href="#linear-gradient"/><linearGradient id="linear-gradient-42" x1="529.64" y1="338.08" x2="551.71" y2="338.08" gradientTransform="translate(273.46 -233.71) rotate(30)" xlink:href="#linear-gradient"/><linearGradient id="linear-gradient-43" x1="529.64" y1="338.08" x2="551.71" y2="338.08" gradientTransform="translate(627.13 -299.37) rotate(60)" xlink:href="#linear-gradient"/><linearGradient id="linear-gradient-44" x1="529.64" y1="338.08" x2="551.71" y2="338.08" gradientTransform="translate(1265.63 447.73) rotate(150)" xlink:href="#linear-gradient"/><linearGradient id="linear-gradient-45" x1="529.64" y1="338.08" x2="551.71" y2="338.08" gradientTransform="translate(1145.66 786.85) rotate(180)" xlink:href="#linear-gradient"/><linearGradient id="linear-gradient-46" x1="529.64" y1="338.08" x2="551.71" y2="338.08" gradientTransform="translate(872.2 1020.56) rotate(-150)" xlink:href="#linear-gradient"/><linearGradient id="linear-gradient-47" x1="529.64" y1="338.08" x2="551.71" y2="338.08" gradientTransform="translate(518.53 1086.22) rotate(-120)" xlink:href="#linear-gradient"/><linearGradient id="linear-gradient-48" x1="529.64" y1="338.08" x2="551.71" y2="338.08" gradientTransform="translate(179.4 966.26) rotate(-90)" xlink:href="#linear-gradient"/><linearGradient id="linear-gradient-49" x1="529.64" y1="338.08" x2="551.71" y2="338.08" gradientTransform="translate(-54.3 692.8) rotate(-60)" xlink:href="#linear-gradient"/><linearGradient id="linear-gradient-50" x1="529.64" y1="338.08" x2="551.71" y2="338.08" gradientTransform="translate(-119.97 339.12) rotate(-30)" xlink:href="#linear-gradient"/><linearGradient id="linear-gradient-51" x1="81.94" y1="573.79" x2="485.6" y2="573.79" xlink:href="#linear-gradient"/><linearGradient id="linear-gradient-52" x1="238.93" y1="580.68" x2="271.88" y2="580.68" xlink:href="#linear-gradient"/><linearGradient id="linear-gradient-53" x1="281.82" y1="591.74" x2="307.97" y2="591.74" xlink:href="#linear-gradient"/><linearGradient id="linear-gradient-54" x1="287.41" y1="522.28" x2="307.78" y2="522.28" xlink:href="#linear-gradient"/><linearGradient id="linear-gradient-55" x1="184.89" y1="595.3" x2="206.67" y2="595.3" xlink:href="#linear-gradient"/><linearGradient id="linear-gradient-56" x1="386.84" y1="309.79" x2="431.03" y2="309.79" xlink:href="#linear-gradient"/><linearGradient id="linear-gradient-57" x1="369.33" y1="344" x2="392.2" y2="344" xlink:href="#linear-gradient"/><linearGradient id="linear-gradient-58" x1="343.05" y1="472.94" x2="360.78" y2="472.94" xlink:href="#linear-gradient"/><linearGradient id="linear-gradient-59" x1="346.84" y1="419.19" x2="382.52" y2="419.19" xlink:href="#linear-gradient"/></defs><title>robowar</title><g id="robo_war" data-name="robo war"><path class="cls-1" d="M82.32,665.09C148.1,831.37,310.31,949,500,949S851.9,831.37,917.68,665.09Z" transform="translate(-41 -41)"/><polygon class="cls-2" points="365.87 442.64 354.13 439.23 352.77 470.38 365.87 442.64"/><polygon class="cls-3" points="360.98 387.28 370.04 399.79 381.79 337.49 360.98 387.28"/><polygon class="cls-4" points="382.9 337.5 370.36 399.64 383.46 391.46 382.9 337.5"/><line class="cls-5" x1="396.85" y1="576.85" x2="396.85" y2="600.34"/><line class="cls-6" x1="169.11" y1="576.21" x2="169.11" y2="599.06"/><polygon class="cls-7" points="309.53 523.32 348.34 523.32 348.34 503.92 309.87 503.92 309.53 523.32"/><polygon class="cls-8" points="278.89 504.94 278.89 523.32 290.47 523.32 300.34 504.94 278.89 504.94"/><polygon class="cls-9" points="244.85 505.96 244.85 522.64 261.19 522.64 261.19 506.64 244.85 505.96"/><polygon class="cls-10" points="231.66 504.34 231.66 523.49 218.38 523.49 218.38 517.87 226.04 517.87 226.04 503.32 231.66 504.34"/><polyline class="cls-11" points="97.79 593.11 97.79 568.6 147.15 501.53 147.15 489.28 227.83 489.28 227.83 505.28 309.87 505.28 347.66 505.28 366.38 491.32 420.85 491.32 464.77 564.17 464.77 586.64"/><path class="cls-12" d="M170.79,617.09s2.81,31.4,38.81,31.65,40.85-31.14,40.85-31.14Z" transform="translate(-41 -41)"/><path class="cls-13" d="M181.51,617.35s2.05,22.95,28.36,23.13,29.85-22.76,29.85-22.76Z" transform="translate(-41 -41)"/><path class="cls-14" d="M408.57,617.35s2.06,22.95,28.36,23.13,29.86-22.76,29.86-22.76Z" transform="translate(-41 -41)"/><rect class="cls-15" x="117.6" y="576.47" width="99.68" height="39.45"/><path class="cls-16" d="M397.17,617.09S400,648.49,436,648.74s40.85-31.14,40.85-31.14Z" transform="translate(-41 -41)"/><path class="cls-17" d="M182,572.15s24.85-33.7,56.85,0C238.87,572.15,182,571.64,182,572.15Z" transform="translate(-41 -41)"/><path class="cls-18" d="M410.45,572.15s24.85-33.7,56.85,0C467.3,572.15,410.45,571.64,410.45,572.15Z" transform="translate(-41 -41)"/><path class="cls-19" d="M621.48,365s8.9-.39,10.45-11.42,8.32,12.77-6.19,18.19Z" transform="translate(-41 -41)"/><path class="cls-20" d="M629.16,393.17s7.9,4.11,14.76-4.67.82,15.22-14.46,12.66Z" transform="translate(-41 -41)"/><line class="cls-21" x1="600.77" y1="463.06" x2="600.77" y2="526.89"/><circle class="cls-22" cx="459" cy="459" r="449"/><line class="cls-23" x1="525.7" y1="526.04" x2="855.23" y2="526.04"/><rect class="cls-24" x="527.06" y="542.72" width="326.13" height="69.79" rx="34.89"/><circle class="cls-25" cx="571.95" cy="575.69" r="17.76"/><circle class="cls-26" cx="797.9" cy="575.69" r="17.76"/><rect class="cls-27" x="607.74" y="561.28" width="149.87" height="14.3"/><path class="cls-28" d="M698.7,618.69a17.76,17.76,0,1,1-35.51,0" transform="translate(-41 -41)"/><path class="cls-29" d="M741.77,618.69a17.76,17.76,0,1,1-35.51,0" transform="translate(-41 -41)"/><path class="cls-30" d="M784.83,618.69a17.76,17.76,0,1,1-35.51,0" transform="translate(-41 -41)"/><rect class="cls-31" x="743.83" y="484.17" width="97.79" height="32.68"/><rect class="cls-32" x="719.3" y="420.34" width="16.09" height="95.74"/><circle class="cls-33" cx="726.94" cy="399.98" r="13.32"/><rect class="cls-34" x="724.91" y="359.71" width="16.09" height="71.45" transform="translate(-111.1 575.1) rotate(-43.71)"/><circle class="cls-35" cx="651.98" cy="316.72" r="13.32"/><circle class="cls-36" cx="531.47" cy="352.81" r="13.32"/><circle class="cls-37" cx="531.47" cy="352.81" r="52.45"/><path class="cls-38" d="M669.68,349.51l8.43,29.62-39.41,8.59a5.72,5.72,0,0,1-7-5.8,16.83,16.83,0,0,0-1.54-8,5.89,5.89,0,0,1,2.81-8Z" transform="translate(-41 -41)"/><line class="cls-39" x1="530.89" y1="322.55" x2="530.89" y2="330.47"/><line class="cls-40" x1="530.13" y1="372.6" x2="530.13" y2="382.3"/><path class="cls-41" d="M544.44,344.77s-.39-8.9-11.42-10.45,12.77-8.32,18.19,6.2Z" transform="translate(-41 -41)"/><path class="cls-42" d="M572.57,337.1s4.12-7.91-4.66-14.76,15.22-.82,12.65,14.46Z" transform="translate(-41 -41)"/><path class="cls-43" d="M600.77,344.51s7.52-4.78,3.34-15.11,13.59,6.9,3.73,18.85Z" transform="translate(-41 -41)"/><path class="cls-44" d="M621.74,421.37s4.79,7.51,15.11,3.34S630,438.3,618,428.44Z" transform="translate(-41 -41)"/><path class="cls-45" d="M601.22,442.08s.39,8.9,11.42,10.45-12.78,8.32-18.19-6.19Z" transform="translate(-41 -41)"/><path class="cls-46" d="M573.09,449.76s-4.12,7.9,4.66,14.75-15.22.82-12.65-14.45Z" transform="translate(-41 -41)"/><path class="cls-47" d="M544.89,442.34s-7.52,4.78-3.34,15.11-13.59-6.9-3.73-18.85Z" transform="translate(-41 -41)"/><path class="cls-48" d="M524.18,421.81s-8.9.39-10.45,11.42-8.32-12.77,6.19-18.19Z" transform="translate(-41 -41)"/><path class="cls-49" d="M516.5,393.68s-7.9-4.11-14.76,4.67-.82-15.22,14.46-12.66Z" transform="translate(-41 -41)"/><path class="cls-50" d="M523.92,365.49s-4.79-7.52-15.11-3.35,6.9-13.59,18.84-3.73Z" transform="translate(-41 -41)"/><polygon class="cls-51" points="482.6 615.91 84.94 615.91 136.94 531.66 432.6 531.66 482.6 615.91"/><polygon class="cls-52" points="241.11 580.51 241.11 606.72 270.38 606.72 270.38 565.53 254.72 554.64 240.43 554.64 240.43 563.15 256.43 576.43 240.77 576.43 241.11 580.51"/><polygon class="cls-53" points="283.32 580.85 283.32 602.64 306.47 602.64 283.32 580.85"/><path class="cls-54" d="M289.94,507.47h16.34v29.62H288.91S289.94,508.49,289.94,507.47Z" transform="translate(-41 -41)"/><path class="cls-55" d="M187.13,579.64h18V611H186.45S186.11,580.66,187.13,579.64Z" transform="translate(-41 -41)"/><polygon class="cls-56" points="391.75 302.38 429.53 291.66 429.02 327.92 388.34 313.45 391.75 302.38"/><line class="cls-57" x1="390.72" y1="290.64" x2="370.81" y2="397.36"/><polyline class="cls-58" points="359.32 441.28 352.85 468.92 344.51 504.6"/><circle class="cls-59" cx="364.68" cy="419.19" r="16.34"/></g></svg>