<svg xmlns="http://www.w3.org/2000/svg" xmlns:xlink="http://www.w3.org/1999/xlink" viewBox="0 0 967.02 967.02"><defs><style>.cls-1,.cls-2,.cls-24,.cls-25,.cls-26,.cls-3,.cls-30,.cls-31,.cls-32,.cls-33,.cls-4,.cls-5,.cls-6,.cls-7,.cls-8,.cls-9{fill:none;}.cls-1,.cls-2,.cls-3,.cls-32,.cls-33,.cls-4,.cls-6,.cls-7{stroke-linecap:round;}.cls-1,.cls-2,.cls-3,.cls-32,.cls-33,.cls-4{stroke-linejoin:round;}.cls-1,.cls-2,.cls-3,.cls-30,.cls-31,.cls-32,.cls-33,.cls-4{stroke-width:3px;}.cls-1{stroke:url(#radial-gradient);}.cls-2{stroke:url(#radial-gradient-2);}.cls-3{stroke:url(#radial-gradient-3);}.cls-4{stroke:url(#radial-gradient-4);}.cls-24,.cls-25,.cls-26,.cls-30,.cls-31,.cls-5,.cls-6,.cls-7,.cls-8,.cls-9{stroke-miterlimit:10;}.cls-5,.cls-6,.cls-7,.cls-8{stroke-width:10px;}.cls-5{stroke:url(#radial-gradient-5);}.cls-6{stroke:url(#radial-gradient-6);}.cls-7{stroke:url(#radial-gradient-7);}.cls-8{stroke:url(#radial-gradient-8);}.cls-9{stroke-width:20px;stroke:url(#linear-gradient);}.cls-10{fill:url(#radial-gradient-9);}.cls-11{fill:url(#radial-gradient-10);}.cls-12{fill:url(#radial-gradient-11);}.cls-13{fill:url(#radial-gradient-12);}.cls-14{fill:url(#radial-gradient-13);}.cls-15{fill:url(#radial-gradient-14);}.cls-16{fill:url(#radial-gradient-15);}.cls-17{fill:url(#radial-gradient-16);}.cls-18{fill:url(#radial-gradient-17);}.cls-19{fill:url(#radial-gradient-18);}.cls-20{fill:url(#radial-gradient-19);}.cls-21{fill:url(#radial-gradient-20);}.cls-22{fill:url(#radial-gradient-21);}.cls-23{fill:url(#radial-gradient-22);}.cls-24,.cls-25,.cls-26{stroke-width:5px;}.cls-24{stroke:url(#radial-gradient-23);}.cls-25{stroke:url(#radial-gradient-24);}.cls-26{stroke:url(#radial-gradient-25);}.cls-27{fill:url(#radial-gradient-26);}.cls-28{fill:url(#radial-gradient-27);}.cls-29{fill:url(#radial-gradient-28);}.cls-30{stroke:url(#radial-gradient-29);}.cls-31{stroke:url(#radial-gradient-30);}.cls-32{stroke:url(#radial-gradient-31);}.cls-33{stroke:url(#radial-gradient-32);}</style><radialGradient id="radial-gradient" cx="577.77" cy="419.89" r="16.33" gradientUnits="userSpaceOnUse"><stop offset="0" stop-color="#ed2024"/><stop offset="0.12" stop-color="#f26164"/><stop offset="0.25" stop-color="#f8a4a6"/><stop offset="0.36" stop-color="#fcd5d6"/><stop offset="0.45" stop-color="#fef4f4"/><stop offset="0.49" stop-color="#fff"/><stop offset="0.56" stop-color="#fffbfb"/><stop offset="0.63" stop-color="#feefef"/><stop offset="0.69" stop-color="#fcdbdb"/><stop offset="0.76" stop-color="#fabebf"/><stop offset="0.82" stop-color="#f79a9b"/><stop offset="0.89" stop-color="#f36d6f"/><stop offset="0.96" stop-color="#ef393c"/><stop offset="0.98" stop-color="#ed2024"/></radialGradient><radialGradient id="radial-gradient-2" cx="685.53" cy="360.26" r="15.54" xlink:href="#radial-gradient"/><radialGradient id="radial-gradient-3" cx="675.83" cy="366.04" r="20.77" xlink:href="#radial-gradient"/><radialGradient id="radial-gradient-4" cx="616.09" cy="377.79" r="17.1" xlink:href="#radial-gradient"/><radialGradient id="radial-gradient-5" cx="128.46" cy="620.94" r="106.74" xlink:href="#radial-gradient"/><radialGradient id="radial-gradient-6" cx="366.47" cy="601.62" r="98.38" xlink:href="#radial-gradient"/><radialGradient id="radial-gradient-7" cx="713.06" cy="599.32" r="126.1" xlink:href="#radial-gradient"/><radialGradient id="radial-gradient-8" cx="494.56" cy="864.08" r="299.47" xlink:href="#radial-gradient"/><linearGradient id="linear-gradient" x1="725.31" y1="902.31" x2="241.72" y2="64.71" xlink:href="#radial-gradient"/><radialGradient id="radial-gradient-9" cx="160.67" cy="468.65" r="6.39" xlink:href="#radial-gradient"/><radialGradient id="radial-gradient-10" cx="191.82" cy="473.9" r="6.39" xlink:href="#radial-gradient"/><radialGradient id="radial-gradient-11" cx="220.67" cy="480.54" r="6.39" xlink:href="#radial-gradient"/><radialGradient id="radial-gradient-12" cx="249.52" cy="487.18" r="6.39" xlink:href="#radial-gradient"/><radialGradient id="radial-gradient-13" cx="275.56" cy="481.82" r="6.39" xlink:href="#radial-gradient"/><radialGradient id="radial-gradient-14" cx="304.93" cy="477.99" r="6.39" xlink:href="#radial-gradient"/><radialGradient id="radial-gradient-15" cx="332.76" cy="470.33" r="6.39" xlink:href="#radial-gradient"/><radialGradient id="radial-gradient-16" cx="391.22" cy="478.24" r="6.39" xlink:href="#radial-gradient"/><radialGradient id="radial-gradient-17" cx="424.16" cy="483.35" r="6.39" xlink:href="#radial-gradient"/><radialGradient id="radial-gradient-18" cx="457.1" cy="488.46" r="6.39" xlink:href="#radial-gradient"/><radialGradient id="radial-gradient-19" cx="489.52" cy="488.46" r="6.39" xlink:href="#radial-gradient"/><radialGradient id="radial-gradient-20" cx="521.69" cy="482.84" r="6.39" xlink:href="#radial-gradient"/><radialGradient id="radial-gradient-21" cx="553.86" cy="477.22" r="6.39" xlink:href="#radial-gradient"/><radialGradient id="radial-gradient-22" cx="586.03" cy="471.61" r="6.39" xlink:href="#radial-gradient"/><radialGradient id="radial-gradient-23" cx="537.62" cy="429.36" r="28.03" xlink:href="#radial-gradient"/><radialGradient id="radial-gradient-24" cx="631.57" cy="405.19" r="28.03" xlink:href="#radial-gradient"/><radialGradient id="radial-gradient-25" cx="725.53" cy="383.06" r="28.03" xlink:href="#radial-gradient"/><radialGradient id="radial-gradient-26" cx="725.53" cy="383.06" r="10.89" xlink:href="#radial-gradient"/><radialGradient id="radial-gradient-27" cx="632.91" cy="403.83" r="10.89" xlink:href="#radial-gradient"/><radialGradient id="radial-gradient-28" cx="538.28" cy="429.7" r="10.89" xlink:href="#radial-gradient"/><radialGradient id="radial-gradient-29" cx="612.3" cy="339.35" r="19.97" gradientTransform="translate(-1.68 -1.2)" xlink:href="#radial-gradient"/><radialGradient id="radial-gradient-30" cx="655.64" cy="359.21" r="67.62" xlink:href="#radial-gradient"/><radialGradient id="radial-gradient-31" cx="600.55" cy="411" r="28.54" xlink:href="#radial-gradient"/><radialGradient id="radial-gradient-32" cx="686.53" cy="385.91" r="37.57" xlink:href="#radial-gradient"/></defs><title>robo race</title><g id="expedition"><path class="cls-1" d="M587.3,406.53l-25.7,8.17s19.23,5.45,19.74,18.56l12.6-2.73Z" transform="translate(-16.49 -16.49)"/><line class="cls-2" x1="666.3" y1="366.04" x2="704.77" y2="354.47"/><polyline class="cls-3" points="660.85 343.23 672.09 388.85 690.81 385.11"/><line class="cls-4" x1="594.81" y1="384.43" x2="637.36" y2="371.15"/><path class="cls-5" d="M129.43,751.38S62.79,651,68.91,598.19L188.4,495.55v256.6S131.72,751.38,129.43,751.38Z" transform="translate(-16.49 -16.49)"/><line class="cls-6" x1="366.47" y1="735.66" x2="366.47" y2="467.57"/><polyline class="cls-7" points="605.45 732.6 605.45 466.04 820.68 466.04"/><path class="cls-8" d="M97.26,751.38H894.62S838.7,932.15,505.51,976.57C505.51,976.57,263.47,991.89,97.26,751.38Z" transform="translate(-16.49 -16.49)"/><circle class="cls-9" cx="483.51" cy="483.51" r="473.51"/><circle class="cls-10" cx="160.67" cy="468.65" r="6.39"/><circle class="cls-11" cx="191.82" cy="473.9" r="6.39"/><circle class="cls-12" cx="220.67" cy="480.54" r="6.39"/><circle class="cls-13" cx="249.52" cy="487.18" r="6.39"/><circle class="cls-14" cx="275.56" cy="481.82" r="6.39"/><circle class="cls-15" cx="304.93" cy="477.99" r="6.39"/><circle class="cls-16" cx="332.76" cy="470.33" r="6.39"/><circle class="cls-17" cx="391.22" cy="478.24" r="6.39"/><circle class="cls-18" cx="424.16" cy="483.35" r="6.39"/><circle class="cls-19" cx="457.1" cy="488.46" r="6.39"/><circle class="cls-20" cx="489.52" cy="488.46" r="6.39"/><circle class="cls-21" cx="521.69" cy="482.84" r="6.39"/><circle class="cls-22" cx="553.86" cy="477.22" r="6.39"/><circle class="cls-23" cx="586.03" cy="471.61" r="6.39"/><circle class="cls-24" cx="537.62" cy="429.36" r="25.53"/><circle class="cls-25" cx="631.57" cy="405.19" r="25.53"/><circle class="cls-26" cx="725.53" cy="383.06" r="25.53"/><circle class="cls-27" cx="725.53" cy="383.06" r="10.89"/><circle class="cls-28" cx="632.91" cy="403.83" r="10.89"/><circle class="cls-29" cx="538.28" cy="429.7" r="10.89"/><rect class="cls-30" x="592.23" y="319.6" width="36.77" height="37.11" transform="translate(-77.01 129.89) rotate(-13.03)"/><path class="cls-31" d="M567.72,367.55l133.11-31.32L741.34,343,704.91,353.6l-118.8,28.59-18.39-2.38S560.91,375,567.72,367.55Z" transform="translate(-16.49 -16.49)"/><path class="cls-32" d="M581.68,383.89l12.26,46.64-12.6,2.73s5.36,5.19,3.06,10.89l35.37-10.26a25.79,25.79,0,0,1-6-18.89l-9.83-37.15Z" transform="translate(-16.49 -16.49)"/><path class="cls-33" d="M650.79,369.68l4.08,20.17s15.32,3.32,19.66,13.28a66.25,66.25,0,0,1,5.09,18.68L711,412.32s-5.36-12.51-.76-23.75,12.51-16.08,12.51-16.08L715.64,350l-65.36,16.6Z" transform="translate(-16.49 -16.49)"/></g></svg>