<svg xmlns="http://www.w3.org/2000/svg" xmlns:xlink="http://www.w3.org/1999/xlink" viewBox="0 0 941.24 941.24"><defs><style>.cls-1{fill:url(#linear-gradient);}.cls-17,.cls-18,.cls-19,.cls-2,.cls-20,.cls-3,.cls-4,.cls-5{fill:none;stroke-miterlimit:10;}.cls-2{stroke-width:20px;stroke:url(#linear-gradient-2);}.cls-3,.cls-4,.cls-5{stroke-width:10px;}.cls-3{stroke:url(#linear-gradient-3);}.cls-4{stroke:url(#linear-gradient-4);}.cls-5{stroke:url(#linear-gradient-5);}.cls-6{fill:url(#linear-gradient-6);}.cls-7{fill:url(#linear-gradient-7);}.cls-8{fill:url(#linear-gradient-8);}.cls-9{fill:url(#linear-gradient-9);}.cls-10{fill:url(#linear-gradient-10);}.cls-11{fill:url(#linear-gradient-11);}.cls-12{fill:url(#linear-gradient-12);}.cls-13{fill:url(#linear-gradient-13);}.cls-14{fill:url(#linear-gradient-14);}.cls-15{fill:url(#linear-gradient-15);}.cls-16{fill:url(#linear-gradient-16);}.cls-17{stroke-width:5px;stroke:url(#linear-gradient-17);}.cls-18{stroke:url(#linear-gradient-18);}.cls-19{stroke:url(#linear-gradient-19);}.cls-20{stroke:url(#linear-gradient-20);}</style><linearGradient id="linear-gradient" x1="246.8" y1="626.41" x2="320.29" y2="626.41" gradientUnits="userSpaceOnUse"><stop offset="0" stop-color="#ed2024"/><stop offset="0.12" stop-color="#f26164"/><stop offset="0.25" stop-color="#f8a4a6"/><stop offset="0.36" stop-color="#fcd5d6"/><stop offset="0.45" stop-color="#fef4f4"/><stop offset="0.49" stop-color="#fff"/><stop offset="0.56" stop-color="#fffbfb"/><stop offset="0.63" stop-color="#feefef"/><stop offset="0.69" stop-color="#fcdbdb"/><stop offset="0.76" stop-color="#fabebf"/><stop offset="0.82" stop-color="#f79a9b"/><stop offset="0.89" stop-color="#f36d6f"/><stop offset="0.96" stop-color="#ef393c"/><stop offset="0.98" stop-color="#ed2024"/></linearGradient><linearGradient id="linear-gradient-2" x1="942.99" y1="659.24" x2="57.01" y2="340.76" gradientTransform="translate(483.33 -236.37) rotate(46.03)" xlink:href="#linear-gradient"/><linearGradient id="linear-gradient-3" x1="687.48" y1="541.05" x2="206.76" y2="368.24" xlink:href="#linear-gradient"/><linearGradient id="linear-gradient-4" x1="633.6" y1="499.74" x2="471.58" y2="441.5" xlink:href="#linear-gradient"/><linearGradient id="linear-gradient-5" x1="832.01" y1="600.53" x2="109.23" y2="340.71" xlink:href="#linear-gradient"/><linearGradient id="linear-gradient-6" x1="300.9" y1="165.32" x2="311.72" y2="165.32" xlink:href="#linear-gradient"/><linearGradient id="linear-gradient-7" x1="315.42" y1="165.32" x2="318.02" y2="165.32" xlink:href="#linear-gradient"/><linearGradient id="linear-gradient-8" x1="322.55" y1="165.32" x2="337.64" y2="165.32" xlink:href="#linear-gradient"/><linearGradient id="linear-gradient-9" x1="342.17" y1="165.32" x2="344.76" y2="165.32" xlink:href="#linear-gradient"/><linearGradient id="linear-gradient-10" x1="348.28" y1="165.3" x2="360.45" y2="165.3" xlink:href="#linear-gradient"/><linearGradient id="linear-gradient-11" x1="364" y1="165.32" x2="378.94" y2="165.32" xlink:href="#linear-gradient"/><linearGradient id="linear-gradient-12" x1="398.3" y1="724.03" x2="410.46" y2="724.03" xlink:href="#linear-gradient"/><linearGradient id="linear-gradient-13" x1="411.72" y1="724.05" x2="426.6" y2="724.05" xlink:href="#linear-gradient"/><linearGradient id="linear-gradient-14" x1="425.08" y1="724.05" x2="441.89" y2="724.05" xlink:href="#linear-gradient"/><linearGradient id="linear-gradient-15" x1="444.85" y1="723.97" x2="457.94" y2="723.97" xlink:href="#linear-gradient"/><linearGradient id="linear-gradient-16" x1="458.86" y1="724.05" x2="473.74" y2="724.05" xlink:href="#linear-gradient"/><linearGradient id="linear-gradient-17" x1="223.5" y1="652.25" x2="341.19" y2="652.25" xlink:href="#linear-gradient"/><linearGradient id="linear-gradient-18" x1="243.87" y1="652.25" x2="254.87" y2="652.25" xlink:href="#linear-gradient"/><linearGradient id="linear-gradient-19" x1="276.84" y1="652.25" x2="287.84" y2="652.25" xlink:href="#linear-gradient"/><linearGradient id="linear-gradient-20" x1="309.82" y1="652.25" x2="320.82" y2="652.25" xlink:href="#linear-gradient"/></defs><title>Stalker</title><g id="Stalker"><rect class="cls-1" x="246.8" y="618.58" width="73.49" height="15.66"/><circle class="cls-2" cx="470.62" cy="470.62" r="460.62"/><polyline class="cls-3" points="283.54 168.54 283.54 309.81 642.27 309.81 642.27 647.91 361.32 647.91"/><line class="cls-4" x1="642.27" y1="470.62" x2="462.91" y2="470.62"/><rect class="cls-5" x="168.54" y="168.54" width="604.16" height="604.16" rx="26.63"/><path class="cls-6" d="M300.9,155.27h10.82v2.17h-8.23v6.68h7.61v2.15h-7.61v9.09H300.9Z" transform="translate(-29.38 -29.38)"/><path class="cls-7" d="M318,155.27v20.09h-2.6V155.27Z" transform="translate(-29.38 -29.38)"/><path class="cls-8" d="M322.55,175.36V155.27h2.83l6.44,10.17a56.5,56.5,0,0,1,3.61,6.52l.06,0c-.24-2.69-.3-5.13-.3-8.26v-8.41h2.45v20.09H335l-6.38-10.19a66.35,66.35,0,0,1-3.76-6.71l-.09,0c.15,2.53.21,4.95.21,8.29v8.58Z" transform="translate(-29.38 -29.38)"/><path class="cls-9" d="M344.76,155.27v20.09h-2.59V155.27Z" transform="translate(-29.38 -29.38)"/><path class="cls-10" d="M348.94,172.2a9.13,9.13,0,0,0,4.65,1.32c2.65,0,4.2-1.41,4.2-3.43s-1.07-3-3.78-4c-3.28-1.16-5.31-2.86-5.31-5.69,0-3.13,2.59-5.46,6.5-5.46a9.18,9.18,0,0,1,4.44,1l-.71,2.12a8,8,0,0,0-3.82-.95c-2.74,0-3.79,1.64-3.79,3,0,1.88,1.23,2.8,4,3.87,3.4,1.32,5.13,3,5.13,5.91,0,3.1-2.3,5.78-7,5.78a10.36,10.36,0,0,1-5.13-1.28Z" transform="translate(-29.38 -29.38)"/><path class="cls-11" d="M366.59,155.27v8.41h9.72v-8.41h2.63v20.09h-2.63v-9.42h-9.72v9.42H364V155.27Z" transform="translate(-29.38 -29.38)"/><path class="cls-12" d="M399,730.93a9.2,9.2,0,0,0,4.66,1.32c2.65,0,4.2-1.41,4.2-3.43s-1.07-3-3.79-4c-3.28-1.16-5.3-2.86-5.3-5.69,0-3.13,2.59-5.46,6.5-5.46a9.25,9.25,0,0,1,4.44,1l-.72,2.12a7.93,7.93,0,0,0-3.81-.95c-2.75,0-3.79,1.64-3.79,3,0,1.88,1.22,2.8,4,3.87,3.4,1.32,5.13,3,5.13,5.91s-2.29,5.78-7,5.78a10.33,10.33,0,0,1-5.13-1.28Z" transform="translate(-29.38 -29.38)"/><path class="cls-13" d="M417.83,716.21h-6.11V714H426.6v2.21h-6.15v17.88h-2.62Z" transform="translate(-29.38 -29.38)"/><path class="cls-14" d="M429.85,727.77l-2.09,6.32h-2.68L431.9,714H435l6.86,20.09h-2.77L437,727.77Zm6.59-2-2-5.79c-.45-1.31-.75-2.5-1.05-3.67h-.05c-.3,1.2-.63,2.42-1,3.64l-2,5.82Z" transform="translate(-29.38 -29.38)"/><path class="cls-15" d="M444.85,714.27a26.84,26.84,0,0,1,5-.42c2.77,0,4.56.51,5.81,1.64a5,5,0,0,1,1.58,3.82,5.26,5.26,0,0,1-3.79,5.12v.09c1.55.54,2.48,2,3,4.06a31,31,0,0,0,1.55,5.51h-2.69a25.89,25.89,0,0,1-1.34-4.8c-.6-2.77-1.67-3.81-4-3.9h-2.45v8.7h-2.59Zm2.59,9.15h2.65c2.78,0,4.54-1.52,4.54-3.82,0-2.59-1.88-3.72-4.63-3.75a11.34,11.34,0,0,0-2.56.23Z" transform="translate(-29.38 -29.38)"/><path class="cls-16" d="M465,716.21h-6.11V714h14.88v2.21H467.6v17.88H465Z" transform="translate(-29.38 -29.38)"/><rect class="cls-17" x="226" y="634.24" width="112.7" height="36.02" rx="18.01"/><circle class="cls-18" cx="249.37" cy="652.25" r="5"/><circle class="cls-19" cx="282.34" cy="652.25" r="5"/><circle class="cls-20" cx="315.32" cy="652.25" r="5"/></g></svg>