<svg xmlns="http://www.w3.org/2000/svg" xmlns:xlink="http://www.w3.org/1999/xlink" viewBox="0 0 945.57 945.57"><defs><style>.cls-1,.cls-10,.cls-11,.cls-12,.cls-13,.cls-14,.cls-15,.cls-16,.cls-17,.cls-2,.cls-3,.cls-4,.cls-5,.cls-6,.cls-7,.cls-8,.cls-9{fill:none;stroke-miterlimit:10;}.cls-1,.cls-10,.cls-11,.cls-2,.cls-3,.cls-4,.cls-5,.cls-6,.cls-8,.cls-9{stroke-width:8px;}.cls-1{stroke:url(#radial-gradient);}.cls-2{stroke:url(#radial-gradient-2);}.cls-3{stroke:url(#radial-gradient-3);}.cls-4{stroke:url(#radial-gradient-4);}.cls-5{stroke:url(#radial-gradient-5);}.cls-6{stroke:url(#radial-gradient-6);}.cls-7{stroke-width:20px;stroke:url(#linear-gradient);}.cls-8{stroke:url(#radial-gradient-7);}.cls-9{stroke:url(#radial-gradient-8);}.cls-10{stroke:url(#radial-gradient-9);}.cls-11{stroke:url(#radial-gradient-10);}.cls-12,.cls-13{stroke-width:7px;}.cls-12{stroke:url(#radial-gradient-11);}.cls-13{stroke:url(#radial-gradient-12);}.cls-14,.cls-15,.cls-16,.cls-17{stroke-width:3px;}.cls-14{stroke:url(#radial-gradient-13);}.cls-15{stroke:url(#radial-gradient-14);}.cls-16{stroke:url(#radial-gradient-15);}.cls-17{stroke:url(#radial-gradient-16);}</style><radialGradient id="radial-gradient" cx="611.96" cy="618.82" r="61.96" gradientUnits="userSpaceOnUse"><stop offset="0" stop-color="#ed2024"/><stop offset="0.12" stop-color="#f26164"/><stop offset="0.25" stop-color="#f8a4a6"/><stop offset="0.36" stop-color="#fcd5d6"/><stop offset="0.45" stop-color="#fef4f4"/><stop offset="0.49" stop-color="#fff"/><stop offset="0.56" stop-color="#fffbfb"/><stop offset="0.63" stop-color="#feefef"/><stop offset="0.69" stop-color="#fcdbdb"/><stop offset="0.76" stop-color="#fabebf"/><stop offset="0.82" stop-color="#f79a9b"/><stop offset="0.89" stop-color="#f36d6f"/><stop offset="0.96" stop-color="#ef393c"/><stop offset="0.98" stop-color="#ed2024"/></radialGradient><radialGradient id="radial-gradient-2" cx="653.37" cy="655.45" r="61.96" xlink:href="#radial-gradient"/><radialGradient id="radial-gradient-3" cx="701.01" cy="699.5" r="61.96" xlink:href="#radial-gradient"/><radialGradient id="radial-gradient-4" cx="736.18" cy="728.69" r="61.96" xlink:href="#radial-gradient"/><radialGradient id="radial-gradient-5" cx="751.31" cy="741.86" r="61.96" xlink:href="#radial-gradient"/><radialGradient id="radial-gradient-6" cx="786.12" cy="759.96" r="27.12" xlink:href="#radial-gradient"/><linearGradient id="linear-gradient" x1="0" y1="472.79" x2="945.57" y2="472.79" xlink:href="#radial-gradient"/><radialGradient id="radial-gradient-7" cx="294.41" cy="216.11" r="130.26" xlink:href="#radial-gradient"/><radialGradient id="radial-gradient-8" cx="608.99" cy="729.15" r="85.79" xlink:href="#radial-gradient"/><radialGradient id="radial-gradient-9" cx="732.59" cy="611.57" r="100.06" xlink:href="#radial-gradient"/><radialGradient id="radial-gradient-10" cx="680.38" cy="675.23" r="106.52" xlink:href="#radial-gradient"/><radialGradient id="radial-gradient-11" cx="486.14" cy="503.88" r="156.99" xlink:href="#radial-gradient"/><radialGradient id="radial-gradient-12" cx="486.53" cy="504.94" r="85" xlink:href="#radial-gradient"/><radialGradient id="radial-gradient-13" cx="510.25" cy="394.89" r="30.21" gradientTransform="translate(-94.94 28.54) scale(1.17 0.91)" xlink:href="#radial-gradient"/><radialGradient id="radial-gradient-14" cx="368.23" cy="394.89" r="30.21" gradientTransform="translate(199.66 133.56) scale(1.17 0.91)" xlink:href="#radial-gradient"/><radialGradient id="radial-gradient-15" cx="515.83" cy="192.05" r="30.21" gradientTransform="translate(-223.87 352.82) scale(1.17 0.91)" xlink:href="#radial-gradient"/><radialGradient id="radial-gradient-16" cx="372.53" cy="173.68" r="30.21" gradientTransform="translate(62.26 489.08) scale(1.17 0.91)" xlink:href="#radial-gradient"/></defs><title>wall street</title><g id="exstreet"><polyline class="cls-1" points="557.62 683.79 569.08 575.66 669.57 557.37"/><polyline class="cls-2" points="599.02 720.42 610.49 612.29 710.98 593.99"/><polyline class="cls-3" points="646.67 764.47 658.13 656.34 758.62 638.05"/><polyline class="cls-4" points="681.84 793.66 693.3 685.53 793.79 667.24"/><polyline class="cls-5" points="696.97 806.83 708.43 698.7 808.92 680.4"/><polyline class="cls-6" points="760.77 784.04 766.87 748.34 814.66 739.14"/><circle class="cls-7" cx="472.79" cy="472.79" r="462.79"/><polyline class="cls-8" points="287.25 48.69 359.09 118 229.77 261.81 359.09 383.5"/><line class="cls-9" x1="521.02" y1="651.48" x2="696.97" y2="806.83"/><line class="cls-10" x1="628.31" y1="521.88" x2="836.87" y2="701.26"/><line class="cls-11" x1="571.37" y1="577.09" x2="789.38" y2="773.36"/><path class="cls-12" d="M331.94,485.58,442.66,354.26,453,362s-8.87,11.73-4.29,22.32l65.23,54.93s18.88.28,21.74-7.44L581.13,469s-5.72,10.87-1.14,20l60.82,54.36-29.92,35.47L447,438.94l-30.9,8-2.57,31.76L575.7,617.18l-29.47,36.05-59.86-53.79s-17.1,3.44-22.54-1.43-40.91-38-40.91-38,9.16-10.58.57-29.18L367.13,481s-19.64-.24-26.51,9.77Z" transform="translate(-27.21 -27.21)"/><polygon class="cls-13" points="555.35 579.96 571.37 560.79 415.45 428.89 403.15 432.81 400.57 447.49 555.35 579.96"/><rect class="cls-14" x="460.27" y="370.92" width="82.49" height="36.95" rx="6.94" transform="translate(616.42 981.01) rotate(-140.76)"/><rect class="cls-15" x="588.85" y="475.93" width="82.49" height="36.95" rx="6.94" transform="translate(778.16 1248.69) rotate(-140.76)"/><rect class="cls-16" x="337.85" y="509.85" width="82.49" height="36.95" rx="6.94" transform="translate(285.92 1148.01) rotate(-138.52)"/><rect class="cls-17" x="456.47" y="629.32" width="82.49" height="36.95" rx="6.94" transform="translate(414.27 1435.56) rotate(-138.52)"/></g></svg>