<svg xmlns="http://www.w3.org/2000/svg" xmlns:xlink="http://www.w3.org/1999/xlink" viewBox="0 0 933.92 933.92"><defs><style>.cls-1,.cls-10,.cls-11,.cls-12,.cls-13,.cls-14,.cls-15,.cls-16,.cls-17,.cls-18,.cls-19,.cls-2,.cls-20,.cls-3,.cls-4,.cls-5,.cls-6,.cls-7,.cls-8,.cls-9{fill:none;stroke-miterlimit:10;}.cls-1{stroke-width:22px;stroke:url(#linear-gradient);}.cls-12,.cls-13,.cls-14,.cls-15,.cls-16,.cls-17,.cls-18,.cls-19,.cls-2,.cls-20,.cls-3,.cls-4,.cls-5,.cls-6{stroke-width:8px;}.cls-2{stroke:url(#linear-gradient-2);}.cls-3{stroke:url(#linear-gradient-3);}.cls-4{stroke:url(#linear-gradient-4);}.cls-5{stroke:url(#linear-gradient-5);}.cls-6{stroke:url(#linear-gradient-6);}.cls-10,.cls-11,.cls-7,.cls-8,.cls-9{stroke-width:5px;}.cls-7{stroke:url(#linear-gradient-7);}.cls-8{stroke:url(#linear-gradient-8);}.cls-9{stroke:url(#linear-gradient-9);}.cls-10{stroke:url(#linear-gradient-10);}.cls-11{stroke:url(#linear-gradient-11);}.cls-12{stroke:url(#linear-gradient-12);}.cls-13{stroke:url(#linear-gradient-13);}.cls-14{stroke:url(#linear-gradient-14);}.cls-15{stroke:url(#linear-gradient-15);}.cls-16{stroke:url(#linear-gradient-16);}.cls-17{stroke:url(#linear-gradient-17);}.cls-18{stroke:url(#linear-gradient-18);}.cls-19{stroke:url(#linear-gradient-19);}.cls-20{stroke:url(#linear-gradient-20);}</style><linearGradient id="linear-gradient" x1="33.15" y1="500" x2="966.85" y2="500" gradientTransform="translate(225.04 -197.48) rotate(24.99)" gradientUnits="userSpaceOnUse"><stop offset="0" stop-color="#ed2024"/><stop offset="0.12" stop-color="#f26164"/><stop offset="0.25" stop-color="#f8a4a6"/><stop offset="0.36" stop-color="#fcd5d6"/><stop offset="0.45" stop-color="#fef4f4"/><stop offset="0.49" stop-color="#fff"/><stop offset="0.56" stop-color="#fffbfb"/><stop offset="0.63" stop-color="#feefef"/><stop offset="0.69" stop-color="#fcdbdb"/><stop offset="0.76" stop-color="#fabebf"/><stop offset="0.82" stop-color="#f79a9b"/><stop offset="0.89" stop-color="#f36d6f"/><stop offset="0.96" stop-color="#ef393c"/><stop offset="0.98" stop-color="#ed2024"/></linearGradient><linearGradient id="linear-gradient-2" x1="427.38" y1="580.67" x2="572.9" y2="580.67" gradientTransform="matrix(1, 0, 0, 1, 0, 0)" xlink:href="#linear-gradient"/><linearGradient id="linear-gradient-3" x1="120.53" y1="581.36" x2="266.49" y2="581.36" gradientTransform="matrix(1, 0, 0, 1, 0, 0)" xlink:href="#linear-gradient"/><linearGradient id="linear-gradient-4" x1="274.05" y1="580.58" x2="419.45" y2="580.58" gradientTransform="matrix(1, 0, 0, 1, 0, 0)" xlink:href="#linear-gradient"/><linearGradient id="linear-gradient-5" x1="580.68" y1="580.67" x2="726.13" y2="580.67" gradientTransform="matrix(1, 0, 0, 1, 0, 0)" xlink:href="#linear-gradient"/><linearGradient id="linear-gradient-6" x1="733.75" y1="580.48" x2="879.47" y2="580.48" gradientTransform="matrix(1, 0, 0, 1, 0, 0)" xlink:href="#linear-gradient"/><linearGradient id="linear-gradient-7" x1="164.57" y1="423.44" x2="223.3" y2="423.44" gradientTransform="matrix(1, 0, 0, 1, 0, 0)" xlink:href="#linear-gradient"/><linearGradient id="linear-gradient-8" x1="317.59" y1="423.52" x2="376.31" y2="423.52" gradientTransform="matrix(1, 0, 0, 1, 0, 0)" xlink:href="#linear-gradient"/><linearGradient id="linear-gradient-9" x1="470.65" y1="423.81" x2="529.42" y2="423.81" gradientTransform="matrix(1, 0, 0, 1, 0, 0)" xlink:href="#linear-gradient"/><linearGradient id="linear-gradient-10" x1="623.84" y1="423.7" x2="683.17" y2="423.7" gradientTransform="matrix(1, 0, 0, 1, 0, 0)" xlink:href="#linear-gradient"/><linearGradient id="linear-gradient-11" x1="776.96" y1="423.71" x2="836.12" y2="423.71" gradientTransform="matrix(1, 0, 0, 1, 0, 0)" xlink:href="#linear-gradient"/><linearGradient id="linear-gradient-12" x1="243.69" y1="377.04" x2="295.92" y2="377.04" gradientTransform="matrix(1, 0, 0, 1, 0, 0)" xlink:href="#linear-gradient"/><linearGradient id="linear-gradient-13" x1="703.49" y1="375.99" x2="755.32" y2="375.99" gradientTransform="matrix(1, 0, 0, 1, 0, 0)" xlink:href="#linear-gradient"/><linearGradient id="linear-gradient-14" x1="396.82" y1="375.85" x2="449.55" y2="375.85" gradientTransform="matrix(1, 0, 0, 1, 0, 0)" xlink:href="#linear-gradient"/><linearGradient id="linear-gradient-15" x1="549.88" y1="376.51" x2="602.59" y2="376.51" gradientTransform="matrix(1, 0, 0, 1, 0, 0)" xlink:href="#linear-gradient"/><linearGradient id="linear-gradient-16" x1="620.74" y1="339.52" x2="672.39" y2="339.52" gradientTransform="matrix(1, 0, 0, 1, 0, 0)" xlink:href="#linear-gradient"/><linearGradient id="linear-gradient-17" x1="472.01" y1="341.86" x2="522.49" y2="341.86" gradientTransform="matrix(1, 0, 0, 1, 0, 0)" xlink:href="#linear-gradient"/><linearGradient id="linear-gradient-18" x1="324.08" y1="340.25" x2="376.04" y2="340.25" gradientTransform="matrix(1, 0, 0, 1, 0, 0)" xlink:href="#linear-gradient"/><linearGradient id="linear-gradient-19" x1="565.9" y1="308.96" x2="609.26" y2="308.96" gradientTransform="matrix(1, 0, 0, 1, 0, 0)" xlink:href="#linear-gradient"/><linearGradient id="linear-gradient-20" x1="401.82" y1="306.68" x2="445.79" y2="306.68" gradientTransform="matrix(1, 0, 0, 1, 0, 0)" xlink:href="#linear-gradient"/></defs><title>crowd pitch</title><g id="CIIC"><circle class="cls-1" cx="466.96" cy="466.96" r="455.85"/><path class="cls-2" d="M469.5,507.59c-5.51,16.73-10.79,33.53-16.63,50.13-2.26,6.46-6,13.12-14.47,10.57-9-2.7-7.51-11.29-5.47-17,9.46-26.61,18.18-53.72,30.54-79,11.81-24.13,62.37-23.49,74,.78,11.83,24.74,20.36,51.1,29.54,77,2,5.76,4.33,14.24-4.13,17.66-9.86,4-13.25-4.31-15.93-11.17-6-15.34-11.29-31-18.42-46.13-1.68,42.55,4.83,84.3,9.38,126.19,1.93,17.81,4.9,35.51,6.76,53.32.76,7.26,1.63,15.75-9.57,16.68-10,.83-13-6-14.19-13.85-4.13-28.06-7.91-56.17-11.77-84.27-.41-3-.06-6.06-.71-8.94-1.24-5.51-.24-13.63-8-14.08-8.57-.49-7.49,8.38-8.24,13.44-3.93,26.59-7.07,53.3-10.46,80-.56,4.45-.49,9.06-1.68,13.32-2.27,8.15-5.25,16.47-16.39,14.22-10.37-2.1-9.19-10.72-8.34-18,3.34-28.18,7.56-56.25,10.74-84.45C469.67,572.14,474.32,540.27,469.5,507.59Z" transform="translate(-33.04 -33.04)"/><path class="cls-3" d="M166.07,506.22c-11.89,16.12-11.13,32.49-17.55,46-3.64,7.65-5.17,19.94-17.44,15.36-10.48-3.92-5.81-14.74-3.41-21.74,7.72-22.55,17.26-44.48,25.19-67,6.77-19.2,21.32-22.8,39.13-22.85,18.21,0,34.58,1.83,42,22.07,8.49,23.09,17.84,45.88,25.85,69.13,2.48,7.17,6.16,17.88-5,21-10.64,2.95-13.15-7.39-15.78-15-5.21-15.17-10-30.49-16.49-45.4-3.39,45,4.65,89,9.16,133.17,1.59,15.61,4.82,31.05,6.52,46.65.85,7.86,2.72,17.55-9.6,19-11.48,1.33-14.08-7.8-15.23-15.7-4.1-28.13-6.93-56.43-10.93-84.57-1.05-7.46,1-20-8.67-20.28-10.79-.33-8,12.13-9,19.63-3.52,26-6,52.05-10.14,77.89-1.49,9.35-.32,24.37-15.62,22.64-18.32-2.07-10.19-17.92-8.94-27,7.28-52.68,13.66-105.42,16.49-158.54C166.84,517.27,166.41,513.88,166.07,506.22Z" transform="translate(-33.04 -33.04)"/><path class="cls-4" d="M316.16,507c-5,16.06-9.64,32.27-15.31,48.09-2.39,6.66-5.4,15.76-15.14,13.29-10.35-2.63-7.94-12.45-5.7-18.8,9.17-25.93,17.93-52.21,29.84-76.91,11.12-23.09,60.27-24.18,72.92-1.95,14.37,25.26,22.24,53.5,31.29,81,2,6,3.14,14.48-6,16.7-8.42,2-11.93-4.86-14.18-11.32-5.78-16.61-11.08-33.39-18.27-49.84-2.75,44.45,4.69,88.08,9.33,131.88,1.57,14.84,4.94,29.51,6.07,44.37.66,8.59,6,21.44-9.52,22.82-14,1.24-14.27-11.39-15.58-20.36-4-27.33-6.67-54.85-10.4-82.22-.92-6.77,1-17.88-8.58-18s-7.82,11-8.75,17.81c-3.65,26.63-6.23,53.41-10.18,80-1.42,9.56-.62,24.19-15.65,22.55-18.23-2-10.28-17.6-9-26.88C311.15,622.29,318.74,565.31,316.16,507Z" transform="translate(-33.04 -33.04)"/><path class="cls-5" d="M622.07,505.7c-5.4,17.74-10.47,35.58-16.36,53.15-2.17,6.5-6.54,12.4-15,9-7.51-3-6.48-10.37-4.76-15.45,9.51-28.09,17.27-57.14,32.26-82.84,12.18-20.9,61.16-19.67,71.64,2.08C702,497,710.7,524,720.27,550.46c2.14,5.93,4.13,14.25-4.35,17.44-9.87,3.72-13.21-4.7-15.74-11.53-4.63-12.52-8.29-25.4-12.35-38.13-2.11,0-4.35-5.61-4.71-2.4-1.48,12.94-2.55,26.13.48,39.12,1,40.49,7.84,80.32,12.7,120.39,1.25,10.27,10.07,27.34-7,30.34-19.24,3.4-15.8-16.2-17.6-27.28C667.4,651.88,665,625,661.57,598.34c-.73-5.62-.53-13.38-9-12.9-7.12.4-6,7.94-6.69,12.44-4.08,27.35-7.52,54.8-11.12,82.22-.49,3.71-.15,7.62-1.18,11.14-2.29,7.9-4.3,16.9-15.65,15.28-12.06-1.71-10.29-11.3-9.37-19.22,4.71-40.84,10.06-81.62,14.7-122.47,1.77-15.59,2.26-31.33,3.33-47C626.17,513.39,634,505.83,622.07,505.7Z" transform="translate(-33.04 -33.04)"/><path class="cls-6" d="M836.83,554.57c1.07,40.51,7.95,80.37,12.74,120.48,1.23,10.25,9.84,27.37-6.7,30.63-19.54,3.85-15.87-16.37-17.77-27-4.72-26.47-7-53.38-10.28-80.11-.72-5.81-.39-13.25-8.71-13.12-7.7.13-5.82,7.85-6.5,12.28-4.24,27.35-7.88,54.79-11.67,82.2-.3,2.22,0,4.53-.45,6.73-1.75,9.51-2.31,21.46-16,19.69-14.77-1.91-10.29-14.19-9-23.21,7.87-54.84,15.58-109.67,17.12-165.16,2.13-9.84,2.13-9.84-5.13-9-5,16.37-9.58,32.85-15,49.06-2.15,6.37-6.14,13-14.67,10.21-8.75-2.88-7.64-11.17-5.49-17.11,9.61-26.6,18.38-53.73,30.82-79,11.84-24.07,62.73-23.28,74.15,1,11.69,24.83,20,51.29,29.32,77.2,2.23,6.21,4.12,14.27-4.19,17.53-9.85,3.86-13.22-4.44-15.76-11.45-4.57-12.59-8.39-25.45-12.52-38.2-2.28.19-4.45-5.72-4.84-2.51C834.67,528.53,833.28,541.67,836.83,554.57Z" transform="translate(-33.04 -33.04)"/><path class="cls-7" d="M191.91,395.86c17.59.79,27.27,9.47,28.78,26.08,1.45,16-11.2,29.68-26.9,29.06-16.82-.65-26.33-10.14-26.71-26.88S176.26,398.23,191.91,395.86Z" transform="translate(-33.04 -33.04)"/><path class="cls-8" d="M373.8,428C372.18,440.49,364,451.06,347,450.9c-16.9-.16-26-10.35-26.84-26.87-.86-16,12.25-28.5,28.16-27.87C363.31,396.76,374.22,408.74,373.8,428Z" transform="translate(-33.04 -33.04)"/><path class="cls-9" d="M501.48,451.38c-17.32-1.13-26.77-10.29-28.23-26.65-1.41-15.78,11.79-29.2,27.59-28.46,17,.79,25.93,10.52,26.08,27.3C527.07,440.58,517.31,449.23,501.48,451.38Z" transform="translate(-33.04 -33.04)"/><path class="cls-10" d="M680.66,423c-1.23,16.71-9.18,27-26.19,28.05-15.53.95-29.55-12.85-28-28.27,1.58-15.85,10-26.71,27.4-26.5S678.94,407,680.66,423Z" transform="translate(-33.04 -33.04)"/><path class="cls-11" d="M806.26,451.21c-15.91-.59-24.81-10.65-26.65-26.49-1.77-15.23,12.27-29.16,27.8-28.49,17.11.74,25.65,10.78,26.2,27.34C834.12,439.05,822.4,451,806.26,451.21Z" transform="translate(-33.04 -33.04)"/><path class="cls-12" d="M291.35,388.54c-15.46-12.57-29.06-15-43.53-.35-1.22-18.95,6.66-27.51,21.25-27.52S290.2,370.3,291.35,388.54Z" transform="translate(-33.04 -33.04)"/><path class="cls-13" d="M750.23,384.78c-14.93-9.71-28.23-10.25-42.06,2.77-3.08-16.27,4.64-24.78,17.56-26.71C742.18,358.39,748.28,369.85,750.23,384.78Z" transform="translate(-33.04 -33.04)"/><path class="cls-14" d="M445,388.18c-12.87-7.56-22.8-15.28-34.69-7.11-3.36,2.32-7.26,3.18-9.16-.94-1-2.07.38-5.87,1.78-8.24,4.9-8.3,12.34-13.14,22.11-11.31C437.32,362.87,443.72,371,445,388.18Z" transform="translate(-33.04 -33.04)"/><path class="cls-15" d="M598.19,388.84c-13.24-9.45-23.44-15.57-35.34-7.18-2.92,2.06-6.05,1.75-7.83-.65-2.49-3.37-.43-6.88,1.66-10,5.45-8,13-12.68,22.61-10.31C591,363.63,597.33,371.64,598.19,388.84Z" transform="translate(-33.04 -33.04)"/><path class="cls-16" d="M667.15,349.6c-14.75-11.13-27.42-11.2-41.77-.67,1.23-16.44,7.73-24.47,20.72-24.45C659.27,324.49,665,333.25,667.15,349.6Z" transform="translate(-33.04 -33.04)"/><path class="cls-17" d="M518.27,351.86c-13.32-16.32-26.56-9.21-40.58-9.51,4.25-11.63,10.07-19.07,22.07-17.89S517.89,333,518.27,351.86Z" transform="translate(-33.04 -33.04)"/><path class="cls-18" d="M371.21,350.42c-14.8-13.07-26.85-11.75-41.65-.3,2.52-16.34,7.67-25.1,20.37-25.61C362.86,324,369.61,331.66,371.21,350.42Z" transform="translate(-33.04 -33.04)"/><path class="cls-19" d="M604,316.9c-12.46-13.79-22.67-10.46-34-4.32.19-12.55,5.52-18.81,15.07-19.36C596.12,292.59,602.05,299.25,604,316.9Z" transform="translate(-33.04 -33.04)"/><path class="cls-20" d="M439.23,311.14c-13.1-2.6-23.58-4.93-32.62,3.69-3.06-12.51,3.26-17.59,11.72-19.49C428.57,293,434.21,299.05,439.23,311.14Z" transform="translate(-33.04 -33.04)"/></g></svg>