<svg xmlns="http://www.w3.org/2000/svg" xmlns:xlink="http://www.w3.org/1999/xlink" viewBox="0 0 933.92 933.92"><defs><style>.cls-1,.cls-2,.cls-3,.cls-4,.cls-5,.cls-6,.cls-7,.cls-8,.cls-9{fill:none;}.cls-1,.cls-8,.cls-9{stroke-miterlimit:10;}.cls-1{stroke-width:22px;stroke:url(#linear-gradient);}.cls-2,.cls-3,.cls-4,.cls-5,.cls-6,.cls-7{stroke-linecap:round;stroke-linejoin:round;stroke-width:10px;}.cls-2{stroke:url(#linear-gradient-2);}.cls-3{stroke:url(#linear-gradient-3);}.cls-4{stroke:url(#linear-gradient-4);}.cls-5{stroke:url(#linear-gradient-5);}.cls-6{stroke:url(#linear-gradient-6);}.cls-7{stroke:url(#linear-gradient-7);}.cls-8{stroke-width:5px;stroke:url(#linear-gradient-8);}.cls-9{stroke-width:7px;stroke:url(#linear-gradient-9);}</style><linearGradient id="linear-gradient" x1="33.15" y1="500" x2="966.85" y2="500" gradientTransform="translate(225.04 -197.48) rotate(24.99)" gradientUnits="userSpaceOnUse"><stop offset="0" stop-color="#ed2024"/><stop offset="0.12" stop-color="#f26164"/><stop offset="0.25" stop-color="#f8a4a6"/><stop offset="0.36" stop-color="#fcd5d6"/><stop offset="0.45" stop-color="#fef4f4"/><stop offset="0.49" stop-color="#fff"/><stop offset="0.56" stop-color="#fffbfb"/><stop offset="0.63" stop-color="#feefef"/><stop offset="0.69" stop-color="#fcdbdb"/><stop offset="0.76" stop-color="#fabebf"/><stop offset="0.82" stop-color="#f79a9b"/><stop offset="0.89" stop-color="#f36d6f"/><stop offset="0.96" stop-color="#ef393c"/><stop offset="0.98" stop-color="#ed2024"/></linearGradient><linearGradient id="linear-gradient-2" x1="356.12" y1="306.42" x2="759.76" y2="306.42" gradientTransform="matrix(1, 0, 0, 1, 0, 0)" xlink:href="#linear-gradient"/><linearGradient id="linear-gradient-3" x1="505.5" y1="230.32" x2="614.13" y2="230.32" gradientTransform="matrix(1, 0, 0, 1, 0, 0)" xlink:href="#linear-gradient"/><linearGradient id="linear-gradient-4" x1="505.5" y1="266.96" x2="711.5" y2="266.96" gradientTransform="matrix(1, 0, 0, 1, 0, 0)" xlink:href="#linear-gradient"/><linearGradient id="linear-gradient-5" x1="505.5" y1="303.61" x2="663.96" y2="303.61" gradientTransform="matrix(1, 0, 0, 1, 0, 0)" xlink:href="#linear-gradient"/><linearGradient id="linear-gradient-6" x1="505.5" y1="340.25" x2="708.53" y2="340.25" gradientTransform="matrix(1, 0, 0, 1, 0, 0)" xlink:href="#linear-gradient"/><linearGradient id="linear-gradient-7" x1="505.5" y1="376.9" x2="689.71" y2="376.9" gradientTransform="matrix(1, 0, 0, 1, 0, 0)" xlink:href="#linear-gradient"/><linearGradient id="linear-gradient-8" x1="243.07" y1="364.23" x2="339.19" y2="364.23" gradientTransform="matrix(1, 0, 0, 1, 0, 0)" xlink:href="#linear-gradient"/><linearGradient id="linear-gradient-9" x1="208.7" y1="548.2" x2="530.13" y2="548.2" gradientTransform="matrix(1, 0, 0, 1, 0, 0)" xlink:href="#linear-gradient"/></defs><title>pitch right</title><g id="CIIC"><circle class="cls-1" cx="466.96" cy="466.96" r="455.85"/><rect class="cls-2" x="361.12" y="175.69" width="393.64" height="261.47" rx="22.98"/><line class="cls-3" x1="510.5" y1="230.32" x2="609.13" y2="230.32"/><line class="cls-4" x1="510.5" y1="266.96" x2="706.5" y2="266.96"/><line class="cls-5" x1="510.5" y1="303.61" x2="658.96" y2="303.61"/><line class="cls-6" x1="510.5" y1="340.25" x2="703.53" y2="340.25"/><line class="cls-7" x1="510.5" y1="376.9" x2="684.71" y2="376.9"/><circle class="cls-8" cx="291.13" cy="364.23" r="45.56"/><path class="cls-9" d="M295.84,460.49l-79.08,91.2s-10.62,16.27.55,28.4S244.55,579,244.55,579l27.57-32.77s7.84-.72,3.34,9.42l-4.06,55.7s-2.86,5.28,9,6.82c0,0,10.34,3.31,3.08,18.93l-9.68,111.15-2.2,24.21s-.67,16.07,16.06,18.71c0,0,19.37,2.2,21.57-14.75s14.31-143.72,14.31-143.72l16.06,140.2s2.64,20.69,22.45,18.05S378,764.43,378,764.43L364.5,621.71s-1.76-4,7.05-3.75c0,0,7,.22,6.16-9.9S371.33,526,371.33,526s.36-27.51,21.2-41.6l9.39-8.37,18.93-20.68s-1.1-3.09,9.9-14.31S448.36,420.1,444,407.56l81-92s4.79-3-1.81-8.75-13.21,5.28-13.21,5.28l-71.48,80.72s-9.24,10.73-21.78,3l-32,36.65L361.2,458.51s-4.29,5.77-7.43-2.15c0,0,2.15-7.26-16.17.66,0,0-14.36,2.81-26.58-.49C311,456.53,300.62,455.7,295.84,460.49Z" transform="translate(-33.04 -33.04)"/></g></svg>