<svg xmlns="http://www.w3.org/2000/svg" xmlns:xlink="http://www.w3.org/1999/xlink" viewBox="0 0 933.92 933.92"><defs><style>.cls-1,.cls-2,.cls-6{fill:none;}.cls-1,.cls-13,.cls-14,.cls-15,.cls-2,.cls-6{stroke-miterlimit:10;}.cls-1{stroke-width:22px;stroke:url(#linear-gradient);}.cls-2,.cls-6{stroke-width:10px;}.cls-2{stroke:url(#linear-gradient-2);}.cls-3{fill:url(#linear-gradient-3);}.cls-4{fill:url(#linear-gradient-4);}.cls-5{fill:url(#linear-gradient-5);}.cls-6{stroke:url(#linear-gradient-6);}.cls-7{fill:url(#linear-gradient-7);}.cls-8{fill:url(#linear-gradient-8);}.cls-9{fill:url(#linear-gradient-9);}.cls-10{fill:url(#linear-gradient-10);}.cls-11{fill:url(#linear-gradient-11);}.cls-12{fill:url(#linear-gradient-12);}.cls-13{fill:#fbfafa;stroke:url(#linear-gradient-13);}.cls-13,.cls-14,.cls-15{stroke-width:3px;}.cls-14{fill:#f0efef;stroke:url(#linear-gradient-14);}.cls-15{fill:#f1f0f0;stroke:url(#linear-gradient-15);}.cls-16{fill:url(#linear-gradient-16);}.cls-17{fill:url(#linear-gradient-17);}.cls-18{fill:url(#linear-gradient-18);}</style><linearGradient id="linear-gradient" x1="33.15" y1="500" x2="966.85" y2="500" gradientTransform="translate(225.04 -197.48) rotate(24.99)" gradientUnits="userSpaceOnUse"><stop offset="0" stop-color="#ed2024"/><stop offset="0.12" stop-color="#f26164"/><stop offset="0.25" stop-color="#f8a4a6"/><stop offset="0.36" stop-color="#fcd5d6"/><stop offset="0.45" stop-color="#fef4f4"/><stop offset="0.49" stop-color="#fff"/><stop offset="0.56" stop-color="#fffbfb"/><stop offset="0.63" stop-color="#feefef"/><stop offset="0.69" stop-color="#fcdbdb"/><stop offset="0.76" stop-color="#fabebf"/><stop offset="0.82" stop-color="#f79a9b"/><stop offset="0.89" stop-color="#f36d6f"/><stop offset="0.96" stop-color="#ef393c"/><stop offset="0.98" stop-color="#ed2024"/></linearGradient><linearGradient id="linear-gradient-2" x1="393.43" y1="503.67" x2="616.36" y2="503.67" gradientTransform="matrix(1, 0, 0, 1, 0, 0)" xlink:href="#linear-gradient"/><linearGradient id="linear-gradient-3" x1="699.59" y1="775.74" x2="699.59" y2="623" gradientTransform="matrix(1, 0, 0, 1, 0, 0)" xlink:href="#linear-gradient"/><linearGradient id="linear-gradient-4" x1="202.31" y1="599.68" x2="394.11" y2="267.48" gradientTransform="matrix(1, 0, 0, 1, 0, 0)" xlink:href="#linear-gradient"/><linearGradient id="linear-gradient-5" x1="602.66" y1="440.62" x2="779.53" y2="440.62" gradientTransform="matrix(1, 0, 0, 1, 0, 0)" xlink:href="#linear-gradient"/><linearGradient id="linear-gradient-6" x1="451.07" y1="329.97" x2="530.77" y2="191.93" gradientTransform="matrix(1, 0, 0, 1, 0, 0)" xlink:href="#linear-gradient"/><linearGradient id="linear-gradient-7" x1="279.96" y1="689.42" x2="373.78" y2="689.42" gradientTransform="matrix(1, 0, 0, 1, 0, 0)" xlink:href="#linear-gradient"/><linearGradient id="linear-gradient-8" x1="392.82" y1="776.84" x2="616.61" y2="776.84" gradientTransform="matrix(1, 0, 0, 1, 0, 0)" xlink:href="#linear-gradient"/><linearGradient id="linear-gradient-9" x1="256.2" y1="743.51" x2="256.2" y2="675.68" gradientTransform="matrix(1, 0, 0, 1, 0, 0)" xlink:href="#linear-gradient"/><linearGradient id="linear-gradient-10" x1="566.04" y1="240.83" x2="577.12" y2="221.64" gradientTransform="matrix(1, 0, 0, 1, 0, 0)" xlink:href="#linear-gradient"/><linearGradient id="linear-gradient-11" x1="566.41" y1="253.63" x2="589.69" y2="253.63" gradientTransform="matrix(1, 0, 0, 1, 0, 0)" xlink:href="#linear-gradient"/><linearGradient id="linear-gradient-12" x1="562.89" y1="276.53" x2="579.97" y2="276.53" gradientTransform="matrix(1, 0, 0, 1, 0, 0)" xlink:href="#linear-gradient"/><linearGradient id="linear-gradient-13" x1="491.42" y1="447.46" x2="521.12" y2="396.01" gradientTransform="matrix(1, 0, 0, 1, 0, 0)" xlink:href="#linear-gradient"/><linearGradient id="linear-gradient-14" x1="535.09" y1="480.57" x2="545.15" y2="463.15" gradientTransform="matrix(1, 0, 0, 1, 0, 0)" xlink:href="#linear-gradient"/><linearGradient id="linear-gradient-15" x1="462.29" y1="482.06" x2="472.32" y2="464.69" gradientTransform="matrix(1, 0, 0, 1, 0, 0)" xlink:href="#linear-gradient"/><linearGradient id="linear-gradient-16" x1="667.91" y1="669.37" x2="735.85" y2="669.37" gradientTransform="matrix(1, 0, 0, 1, 0, 0)" xlink:href="#linear-gradient"/><linearGradient id="linear-gradient-17" x1="668.26" y1="689.73" x2="735.62" y2="689.73" gradientTransform="matrix(1, 0, 0, 1, 0, 0)" xlink:href="#linear-gradient"/><linearGradient id="linear-gradient-18" x1="667.89" y1="711.98" x2="703.52" y2="711.98" gradientTransform="matrix(1, 0, 0, 1, 0, 0)" xlink:href="#linear-gradient"/></defs><title>troll marketting</title><g id="CIIC"><circle class="cls-1" cx="466.96" cy="466.96" r="455.85"/><path class="cls-2" d="M505.2,629.68c-30.93,0-61.87-.35-92.8.19-10.26.18-14.74-2.24-13.86-13.5C403,559.29,407,502.18,411,445.06c.56-8,4.76-10.81,12-9.76,19.79,2.89,32.22-1.05,37.64-24.44,5.1-22,26.79-34.46,45.56-33.35,18.94,1.11,38.76,16.2,43.42,39,3.64,17.78,12,21.49,27.26,18.76,15-2.7,19.47,3.18,20.48,18.48,3.58,54.07,8.86,108,13.88,162,1,10.61-2.18,14.4-13.19,14.19C567.08,629.28,536.14,629.68,505.2,629.68Z" transform="translate(-33.04 -33.04)"/><path class="cls-3" d="M643.11,775.61c19.32-15.92,16.34-27.4,1.53-43.65-20.58-22.55-18.27-57.37-.08-81.44,17.64-23.35,48.38-33.18,75.86-24.27,29.29,9.5,49.19,36.55,48.71,66.21-.47,29.3-20,56.17-48.59,64.81-22.66,6.86-45.76,12.3-68.69,18.29C650.44,775.93,648.86,775.61,643.11,775.61Z" transform="translate(-33.04 -33.04)"/><path class="cls-4" d="M246.45,625.16c-17.32-40-24.51-81.68-20.44-124.42,9.69-101.5,59.81-177.16,149.59-225.95,6.31-3.43,13.78-11.49,20.82-5.84,6.66,5.35-1.32,23.82-11.18,29.22-62.3,34.14-104.55,84.7-124.84,153.09-13.43,45.26-14.07,91-.25,135.89C265.51,604.56,264.38,616,246.45,625.16Z" transform="translate(-33.04 -33.04)"/><path class="cls-5" d="M760.16,617.48c-14.69-8.35-19.27-18.67-14.76-36.79,28.75-115.45-24.72-231.71-130.91-285-14.16-7.1-12-16.87-11.24-27.25.65-8.59,6.69-3.11,10-1.73,22.48,9.46,42.94,22.34,62.09,37.41,91,71.69,127.92,199.51,88.62,307.21C763.08,613.7,763,616.41,760.16,617.48Z" transform="translate(-33.04 -33.04)"/><path class="cls-6" d="M465,278.08c6.87,16.23,9.34,32.48,21.57,44.36,5.3,5.14,2.81,8.93-3.66,10.74-14,3.91-22.3-.38-27.72-14.4-4.35-11.27-9-22.44-12.95-33.84-1.76-5.05-3.81-10.42-8.92-11.39-19.86-3.74-14.92-19.71-12.29-30.1,2.28-8.95,15.38-10.62,24.69-11.74,11-1.33,22.24-.51,33.38-.29,22.62.46,42.75-6,60-20.83,2.23-1.91,4.27-5.17,7.65-3.6,3.22,1.5,2.55,5.16,2.63,8.12.31,11.77-2.6,24.19,8.42,33.46,2.75,2.31,3.3,8.16,1.13,9.89-14.4,11.52-7.12,28-10.57,42-.23.9-1.13,1.63-2.61,3.66C523.75,282.76,496.84,275.41,465,278.08Z" transform="translate(-33.04 -33.04)"/><path class="cls-7" d="M321.45,672.58c15.51,0,29.56.26,43.59-.11,7-.19,10.16.87,8.14,9.15-4.29,17.62-7.89,35.43-11.2,53.27-1.17,6.31-4,8.3-10.15,8.23-21.26-.24-42.53-.35-63.79,0-7.28.14-8.16-3.22-8.06-9.2q.4-25.05,0-50.12a18.35,18.35,0,0,1,5.1-13.62c8.85-9.74,17.69-19.52,25.94-29.76,4.87-6.05,10.69-5.38,16.37-3.41,8.56,3,1.58,8.54.87,12.5C326.92,656.86,324.11,663.9,321.45,672.58Z" transform="translate(-33.04 -33.04)"/><path class="cls-8" d="M392.82,774.17c8.66-15.15,19.4-18.76,37.17-12.8,49.94,16.76,100.91,15.56,150.31-1.94,17.73-6.29,28.33-4.87,36.31,11.77C564.45,805.19,448.43,806.82,392.82,774.17Z" transform="translate(-33.04 -33.04)"/><path class="cls-9" d="M268.38,709.22c0,6.08-.88,12.32.18,18.2,2.61,14.5-4.41,16.91-16.75,15.89-6.72-.56-8.53-2.62-8.38-9,.37-16.2.77-32.45-.1-48.62-.64-12,7-9.22,13.77-9.86,8.2-.78,12.29,1.44,11.43,10.61C267.82,694,268.38,701.62,268.38,709.22Z" transform="translate(-33.04 -33.04)"/><path class="cls-10" d="M566.63,240.27c-3.55,0-4.5-2.46-3.82-4,2.93-6.39,7.35-11.72,14.32-13.89,2-.64,4.25,2.28,3.4,3.74A37.5,37.5,0,0,1,566.63,240.27Z" transform="translate(-33.04 -33.04)"/><path class="cls-11" d="M589.69,253.46c-7.26,4.75-14,4.6-23.28,1C576.23,247.74,583.11,250.09,589.69,253.46Z" transform="translate(-33.04 -33.04)"/><path class="cls-12" d="M567.56,267.57c4.11,4.86,11.42,7.45,12.4,15.17.2,1.57-2.4,3.8-4.34,2.19-4.91-4.05-10.8-7.49-12.61-14.17C562.28,268,564.92,267.92,567.56,267.57Z" transform="translate(-33.04 -33.04)"/><path class="cls-13" d="M503.23,434.45c-9.1,0-18.22-.35-27.3.1-7.67.37-8.14-3.38-6.88-9.36,3.84-18.23,19.1-33,34.51-33.15,15.14-.14,29.87,13.23,34.55,31,2.16,8.19.6,12.35-9.09,11.54C520.48,433.88,511.83,434.45,503.23,434.45Z" transform="translate(-33.04 -33.04)"/><path class="cls-14" d="M549,471.9c-1,6-4.27,8.44-9.49,8.15-5.43-.31-8.34-3.82-7.88-8.83s3.71-8.09,9.24-7.64S548.44,467.54,549,471.9Z" transform="translate(-33.04 -33.04)"/><path class="cls-15" d="M475.57,473c0,5.49-2.84,8.65-8.22,8.61-4.34,0-7.85-2.08-8.22-7.07-.4-5.3,1.81-8.82,7.4-9.34S474.86,467.74,475.57,473Z" transform="translate(-33.04 -33.04)"/><path class="cls-16" d="M701.53,675.05c-9.12,0-18.24-.08-27.35,0-4.53.06-6.52-2-6.24-6.43.24-3.82,2.61-5,6.13-5q27.34.06,54.7,0c3.85,0,7.05.66,7.08,5.63s-3.06,5.75-7,5.75Z" transform="translate(-33.04 -33.04)"/><path class="cls-17" d="M702.31,684.6c8.56,0,17.12-.08,25.68,0,3.3.05,7.39-.84,7.62,4.64.23,5.18-3.31,5.56-7,5.57-17.63.06-35.26,0-52.88,0-3.6,0-7.25.12-7.48-5-.29-6.67,4.68-5.18,8.35-5.25C685.18,684.49,693.74,684.6,702.31,684.6Z" transform="translate(-33.04 -33.04)"/><path class="cls-18" d="M684.74,717.67c-3,0-6-.1-9.06,0-4.55.19-8.11-.67-7.77-6.38.3-5,3.78-5.12,7.51-5.09,6.55.06,13.09,0,19.63,0,4,0,8.36-.64,8.46,5.55s-4.06,5.88-8.2,5.87C691.79,717.66,688.27,717.67,684.74,717.67Z" transform="translate(-33.04 -33.04)"/></g></svg>