<svg xmlns="http://www.w3.org/2000/svg" xmlns:xlink="http://www.w3.org/1999/xlink" viewBox="0 0 982.34 982.34"><defs><style>.cls-1{fill:url(#linear-gradient);}.cls-2{fill:url(#linear-gradient-2);}.cls-3{fill:url(#linear-gradient-3);}.cls-4{fill:url(#linear-gradient-4);}.cls-5{fill:url(#linear-gradient-5);}.cls-6{fill:url(#linear-gradient-6);}.cls-7{fill:url(#linear-gradient-7);}.cls-8{fill:url(#linear-gradient-8);}.cls-9{fill:url(#linear-gradient-9);}.cls-10{fill:url(#linear-gradient-10);}.cls-11{fill:url(#linear-gradient-11);}.cls-12{fill:url(#linear-gradient-12);}.cls-13,.cls-14,.cls-15,.cls-16,.cls-17,.cls-18,.cls-19{fill:none;stroke-miterlimit:10;}.cls-13{stroke-width:20px;stroke:url(#linear-gradient-13);}.cls-14{stroke-width:16px;stroke:url(#linear-gradient-14);}.cls-15{stroke-width:12px;stroke:url(#linear-gradient-15);}.cls-16,.cls-17,.cls-18,.cls-19{stroke-width:5px;}.cls-16{stroke:url(#linear-gradient-16);}.cls-17{stroke:url(#linear-gradient-17);}.cls-18{stroke:url(#linear-gradient-18);}.cls-19{stroke:url(#linear-gradient-19);}</style><linearGradient id="linear-gradient" x1="485.42" y1="-104.1" x2="383.27" y2="-163.08" gradientTransform="matrix(0.91, -0.41, -0.41, -0.91, 207.08, 829.21)" gradientUnits="userSpaceOnUse"><stop offset="0" stop-color="#ed2024"/><stop offset="0.12" stop-color="#f26164"/><stop offset="0.25" stop-color="#f8a4a6"/><stop offset="0.36" stop-color="#fcd5d6"/><stop offset="0.45" stop-color="#fef4f4"/><stop offset="0.49" stop-color="#fff"/><stop offset="0.56" stop-color="#fffbfb"/><stop offset="0.63" stop-color="#feefef"/><stop offset="0.69" stop-color="#fcdbdb"/><stop offset="0.76" stop-color="#fabebf"/><stop offset="0.82" stop-color="#f79a9b"/><stop offset="0.89" stop-color="#f36d6f"/><stop offset="0.96" stop-color="#ef393c"/><stop offset="0.98" stop-color="#ed2024"/></linearGradient><linearGradient id="linear-gradient-2" x1="551.38" y1="217.98" x2="449.23" y2="159" gradientTransform="matrix(1, 0, 0, 1, 0, 0)" xlink:href="#linear-gradient"/><linearGradient id="linear-gradient-3" x1="715.11" y1="244.31" x2="612.95" y2="185.33" gradientTransform="translate(224.83 -318.88) rotate(33.8)" xlink:href="#linear-gradient"/><linearGradient id="linear-gradient-4" x1="867.7" y1="274.92" x2="765.54" y2="215.94" gradientTransform="translate(589.94 -484.93) rotate(60.88)" xlink:href="#linear-gradient"/><linearGradient id="linear-gradient-5" x1="1015.78" y1="308.04" x2="913.62" y2="249.06" gradientTransform="translate(1068.73 -462.19) rotate(88.78)" xlink:href="#linear-gradient"/><linearGradient id="linear-gradient-6" x1="958.46" y1="80.11" x2="856.3" y2="21.12" gradientTransform="matrix(-0.83, 0.56, 0.56, 0.83, 1062.51, -318.88)" xlink:href="#linear-gradient"/><linearGradient id="linear-gradient-7" x1="1009.62" y1="17.93" x2="907.46" y2="-41.05" gradientTransform="matrix(-0.49, 0.87, 0.87, 0.49, 697.41, -484.93)" xlink:href="#linear-gradient"/><linearGradient id="linear-gradient-8" x1="551.38" y1="-206.43" x2="449.23" y2="-265.41" gradientTransform="matrix(1, 0, 0, -1, 0, 581.92)" xlink:href="#linear-gradient"/><linearGradient id="linear-gradient-9" x1="496.95" y1="68.36" x2="394.79" y2="9.38" gradientTransform="matrix(0.49, -0.87, -0.87, -0.49, 589.94, 1066.84)" xlink:href="#linear-gradient"/><linearGradient id="linear-gradient-10" x1="728.04" y1="-263.49" x2="625.88" y2="-322.47" gradientTransform="translate(1071.65 842.1) rotate(-150.89)" xlink:href="#linear-gradient"/><linearGradient id="linear-gradient-11" x1="638.45" y1="-177.17" x2="536.29" y2="-236.15" gradientTransform="translate(715.96 1045.6) rotate(-121.74)" xlink:href="#linear-gradient"/><linearGradient id="linear-gradient-12" x1="1020.94" y1="14.52" x2="918.78" y2="-44.46" gradientTransform="matrix(-0.02, 1, 1, 0.02, 218.62, -462.19)" xlink:href="#linear-gradient"/><linearGradient id="linear-gradient-13" x1="916.61" y1="736.8" x2="65.73" y2="245.54" gradientTransform="matrix(1, 0, 0, 1, 0, 0)" xlink:href="#linear-gradient"/><linearGradient id="linear-gradient-14" x1="733.54" y1="631.1" x2="248.8" y2="351.24" gradientTransform="matrix(1, 0, 0, 1, 0, 0)" xlink:href="#linear-gradient"/><linearGradient id="linear-gradient-15" x1="673.7" y1="596.56" x2="308.64" y2="385.79" gradientTransform="matrix(1, 0, 0, 1, 0, 0)" xlink:href="#linear-gradient"/><linearGradient id="linear-gradient-16" x1="634.57" y1="590.85" x2="351.8" y2="427.59" gradientTransform="matrix(1, 0, 0, 1, 0, 0)" xlink:href="#linear-gradient"/><linearGradient id="linear-gradient-17" x1="549.72" y1="485.92" x2="473.04" y2="441.65" gradientTransform="matrix(1, 0, 0, 1, 0, 0)" xlink:href="#linear-gradient"/><linearGradient id="linear-gradient-18" x1="486.17" y1="547.48" x2="355.7" y2="586.13" gradientTransform="matrix(1, 0, 0, 1, 0, 0)" xlink:href="#linear-gradient"/><linearGradient id="linear-gradient-19" x1="636.68" y1="395.91" x2="515.88" y2="431.69" gradientTransform="matrix(1, 0, 0, 1, 0, 0)" xlink:href="#linear-gradient"/></defs><title>mekanix</title><g id="mekanix"><path class="cls-1" d="M647.79,838.09l56.9-25.61-23.28-95.55s-61.18,38-86.63,39Z" transform="translate(-8.83 -8.83)"/><path class="cls-2" d="M464.19,133.09h62.39l18,96.68s-71.39-9.55-95,0Z" transform="translate(-8.83 -8.83)"/><path class="cls-3" d="M658,162.88l51.85,34.7L671,287.94s-54-47.65-79-52.84Z" transform="translate(-8.83 -8.83)"/><path class="cls-4" d="M803.81,289.38l30.37,54.51-75.71,62.77s-26.4-67-46.24-83Z" transform="translate(-8.83 -8.83)"/><path class="cls-5" d="M865.43,470.94l1.33,62.38-96.28,20s8-71.58-2-95Z" transform="translate(-8.83 -8.83)"/><path class="cls-6" d="M335.81,161.77,284,196.48l38.83,90.36s54-47.65,78.95-52.84Z" transform="translate(-8.83 -8.83)"/><path class="cls-7" d="M190,288.28,159.6,342.79l75.71,62.77s26.4-67,46.24-83Z" transform="translate(-8.83 -8.83)"/><path class="cls-8" d="M464.19,873.24h62.39l18-96.69s-71.39,9.56-95,0Z" transform="translate(-8.83 -8.83)"/><path class="cls-9" d="M803.81,716.94l30.37-54.51-75.71-62.77s-26.4,67-46.24,83Z" transform="translate(-8.83 -8.83)"/><path class="cls-10" d="M342.28,834.76l-54.52-30.35,31.31-93.23s57.73,43.08,83,46.22Z" transform="translate(-8.83 -8.83)"/><path class="cls-11" d="M203.07,714.69l-32.83-53.06L243,595.46s29.43,65.74,50,80.79Z" transform="translate(-8.83 -8.83)"/><path class="cls-12" d="M128.35,469.84,127,532.22l96.28,20s-8-71.58,2-95Z" transform="translate(-8.83 -8.83)"/><circle class="cls-13" cx="491.17" cy="491.17" r="481.17"/><circle class="cls-14" cx="491.17" cy="491.17" r="271.82"/><circle class="cls-15" cx="491.17" cy="491.17" r="204.74"/><path class="cls-16" d="M569,545.4l-.83.83-112-112-.28.28c2.1-57.19-54.67-54.66-54.67-54.66l27.54,32.6-30.92,30.92L365.25,413c-5.62,57.9,52.14,60,52.14,60l2.81-2.81,112,112-1.7,1.71c-2.11,57.19,54.67,54.66,54.67,54.66L557.6,606l30.91-30.92,32.61,30.36C626.74,547.51,569,545.4,569,545.4Z" transform="translate(-8.83 -8.83)"/><line class="cls-17" x1="479.15" y1="432.31" x2="543.61" y2="495.27"/><path class="cls-18" d="M478.14,551.25l-23.53,22.47A9.16,9.16,0,0,1,442,560.47L465.48,538l-9.85-10.31-24.06,23a9.16,9.16,0,0,1-13-.29h0a9.16,9.16,0,0,1,.3-13l24.06-23-8-8.32-61.87,59.1A37.12,37.12,0,0,0,372,617.7h0a37.12,37.12,0,0,0,52.49,1.2l61.87-59.09Z" transform="translate(-8.83 -8.83)"/><path class="cls-19" d="M606.41,361.6l-24.17,24.17a22.44,22.44,0,0,0-4.82,19.12l-51.34,49.38L539.33,468l51.34-49.38c8.15.29,14.9-7,14.9-7L630,385.21Z" transform="translate(-8.83 -8.83)"/></g></svg>