<svg xmlns="http://www.w3.org/2000/svg" xmlns:xlink="http://www.w3.org/1999/xlink" viewBox="0 0 967.02 967.02"><defs><style>.cls-1,.cls-10,.cls-11,.cls-12,.cls-13,.cls-14,.cls-15,.cls-16,.cls-17,.cls-18,.cls-19,.cls-2,.cls-20,.cls-21,.cls-22,.cls-23,.cls-24,.cls-25,.cls-26,.cls-27,.cls-28,.cls-29,.cls-3,.cls-30,.cls-31,.cls-32,.cls-33,.cls-34,.cls-35,.cls-36,.cls-37,.cls-38,.cls-39,.cls-4,.cls-40,.cls-41,.cls-42,.cls-43,.cls-44,.cls-45,.cls-46,.cls-47,.cls-48,.cls-49,.cls-5,.cls-50,.cls-51,.cls-52,.cls-53,.cls-54,.cls-55,.cls-8,.cls-9{fill:none;stroke-miterlimit:10;}.cls-1,.cls-10,.cls-11,.cls-12,.cls-13,.cls-14,.cls-15,.cls-16,.cls-17,.cls-18,.cls-19,.cls-2,.cls-20,.cls-21,.cls-22,.cls-23,.cls-24,.cls-25,.cls-26,.cls-27,.cls-28,.cls-29,.cls-3,.cls-30,.cls-31,.cls-32,.cls-33,.cls-34,.cls-35,.cls-36,.cls-37,.cls-38,.cls-39,.cls-4,.cls-40,.cls-41,.cls-42,.cls-43,.cls-44,.cls-45,.cls-46,.cls-47,.cls-48,.cls-49,.cls-5,.cls-50,.cls-51,.cls-52,.cls-53,.cls-54,.cls-55,.cls-9{stroke-width:3px;}.cls-1{stroke:url(#linear-gradient);}.cls-2{stroke:url(#linear-gradient-2);}.cls-3{stroke:url(#linear-gradient-3);}.cls-4{stroke:url(#linear-gradient-4);}.cls-5{stroke:url(#linear-gradient-5);}.cls-6{fill:url(#linear-gradient-6);}.cls-7{fill:url(#linear-gradient-7);}.cls-8{stroke-width:20px;stroke:url(#linear-gradient-8);}.cls-9{stroke:url(#linear-gradient-9);}.cls-10{stroke:url(#linear-gradient-10);}.cls-11{stroke:url(#linear-gradient-11);}.cls-12{stroke:url(#linear-gradient-12);}.cls-13{stroke:url(#linear-gradient-13);}.cls-14{stroke:url(#linear-gradient-14);}.cls-15{stroke:url(#linear-gradient-15);}.cls-16{stroke:url(#linear-gradient-16);}.cls-17{stroke:url(#linear-gradient-17);}.cls-18{stroke:url(#linear-gradient-18);}.cls-19{stroke:url(#linear-gradient-19);}.cls-20{stroke:url(#linear-gradient-20);}.cls-21{stroke:url(#linear-gradient-21);}.cls-22{stroke:url(#linear-gradient-22);}.cls-23{stroke:url(#linear-gradient-23);}.cls-24{stroke:url(#linear-gradient-24);}.cls-25{stroke:url(#linear-gradient-25);}.cls-26{stroke:url(#linear-gradient-26);}.cls-27{stroke:url(#linear-gradient-27);}.cls-28{stroke:url(#linear-gradient-28);}.cls-29{stroke:url(#linear-gradient-29);}.cls-30{stroke:url(#linear-gradient-30);}.cls-31{stroke:url(#linear-gradient-31);}.cls-32{stroke:url(#linear-gradient-32);}.cls-33{stroke:url(#linear-gradient-33);}.cls-34{stroke:url(#linear-gradient-34);}.cls-35{stroke:url(#linear-gradient-35);}.cls-36{stroke:url(#linear-gradient-36);}.cls-37{stroke:url(#linear-gradient-37);}.cls-38{stroke:url(#linear-gradient-38);}.cls-39{stroke:url(#linear-gradient-39);}.cls-40{stroke:url(#linear-gradient-40);}.cls-41{stroke:url(#linear-gradient-41);}.cls-42{stroke:url(#linear-gradient-42);}.cls-43{stroke:url(#linear-gradient-43);}.cls-44{stroke:url(#linear-gradient-44);}.cls-45{stroke:url(#linear-gradient-45);}.cls-46{stroke:url(#linear-gradient-46);}.cls-47{stroke:url(#linear-gradient-47);}.cls-48{stroke:url(#linear-gradient-48);}.cls-49{stroke:url(#linear-gradient-49);}.cls-50{stroke:url(#linear-gradient-50);}.cls-51{stroke:url(#linear-gradient-51);}.cls-52{stroke:url(#linear-gradient-52);}.cls-53{stroke:url(#linear-gradient-53);}.cls-54{stroke:url(#linear-gradient-54);}.cls-55{stroke:url(#linear-gradient-55);}</style><linearGradient id="linear-gradient" x1="770.48" y1="406.24" x2="744.85" y2="391.44" gradientUnits="userSpaceOnUse"><stop offset="0" stop-color="#ed2024"/><stop offset="0.12" stop-color="#f26164"/><stop offset="0.25" stop-color="#f8a4a6"/><stop offset="0.36" stop-color="#fcd5d6"/><stop offset="0.45" stop-color="#fef4f4"/><stop offset="0.49" stop-color="#fff"/><stop offset="0.56" stop-color="#fffbfb"/><stop offset="0.63" stop-color="#feefef"/><stop offset="0.69" stop-color="#fcdbdb"/><stop offset="0.76" stop-color="#fabebf"/><stop offset="0.82" stop-color="#f79a9b"/><stop offset="0.89" stop-color="#f36d6f"/><stop offset="0.96" stop-color="#ef393c"/><stop offset="0.98" stop-color="#ed2024"/></linearGradient><linearGradient id="linear-gradient-2" x1="782.91" y1="361.36" x2="701.6" y2="314.42" xlink:href="#linear-gradient"/><linearGradient id="linear-gradient-3" x1="682.76" y1="347.29" x2="668.21" y2="338.89" xlink:href="#linear-gradient"/><linearGradient id="linear-gradient-4" x1="816.26" y1="407.81" x2="644.1" y2="308.42" xlink:href="#linear-gradient"/><linearGradient id="linear-gradient-5" x1="415.78" y1="712.28" x2="210.5" y2="593.77" xlink:href="#linear-gradient"/><linearGradient id="linear-gradient-6" x1="209.52" y1="569.1" x2="456.14" y2="426.72" xlink:href="#linear-gradient"/><linearGradient id="linear-gradient-7" x1="-132.67" y1="569.1" x2="113.95" y2="426.72" gradientTransform="matrix(-1, 0, 0, 1, 691.87, 0)" xlink:href="#linear-gradient"/><linearGradient id="linear-gradient-8" x1="64.71" y1="725.31" x2="902.31" y2="241.72" xlink:href="#linear-gradient"/><linearGradient id="linear-gradient-9" x1="477.4" y1="346.82" x2="485.21" y2="342.31" xlink:href="#linear-gradient"/><linearGradient id="linear-gradient-10" x1="462.9" y1="357.4" x2="479.36" y2="347.89" xlink:href="#linear-gradient"/><linearGradient id="linear-gradient-11" x1="450.31" y1="367" x2="472.99" y2="353.9" xlink:href="#linear-gradient"/><linearGradient id="linear-gradient-12" x1="437.27" y1="376.27" x2="467.91" y2="358.58" xlink:href="#linear-gradient"/><linearGradient id="linear-gradient-13" x1="430.19" y1="391.97" x2="465.51" y2="371.58" xlink:href="#linear-gradient"/><linearGradient id="linear-gradient-14" x1="430.83" y1="406.62" x2="465.7" y2="386.48" xlink:href="#linear-gradient"/><linearGradient id="linear-gradient-15" x1="431.01" y1="422.75" x2="465.53" y2="402.82" xlink:href="#linear-gradient"/><linearGradient id="linear-gradient-16" x1="428.76" y1="436.35" x2="464.07" y2="415.96" xlink:href="#linear-gradient"/><linearGradient id="linear-gradient-17" x1="429.4" y1="451" x2="464.27" y2="430.86" xlink:href="#linear-gradient"/><linearGradient id="linear-gradient-18" x1="429.57" y1="467.13" x2="464.09" y2="447.2" xlink:href="#linear-gradient"/><linearGradient id="linear-gradient-19" x1="430.19" y1="481.93" x2="465.51" y2="461.54" xlink:href="#linear-gradient"/><linearGradient id="linear-gradient-20" x1="430.83" y1="496.58" x2="465.7" y2="476.45" xlink:href="#linear-gradient"/><linearGradient id="linear-gradient-21" x1="431.01" y1="512.72" x2="465.53" y2="492.79" xlink:href="#linear-gradient"/><linearGradient id="linear-gradient-22" x1="428.76" y1="526.31" x2="464.07" y2="505.92" xlink:href="#linear-gradient"/><linearGradient id="linear-gradient-23" x1="429.4" y1="540.96" x2="464.27" y2="520.83" xlink:href="#linear-gradient"/><linearGradient id="linear-gradient-24" x1="429.57" y1="557.1" x2="464.09" y2="537.17" xlink:href="#linear-gradient"/><linearGradient id="linear-gradient-25" x1="428.76" y1="573.31" x2="464.07" y2="552.92" xlink:href="#linear-gradient"/><linearGradient id="linear-gradient-26" x1="429.4" y1="587.95" x2="464.27" y2="567.82" xlink:href="#linear-gradient"/><linearGradient id="linear-gradient-27" x1="429.57" y1="604.09" x2="464.09" y2="584.16" xlink:href="#linear-gradient"/><linearGradient id="linear-gradient-28" x1="423.32" y1="608.92" x2="446.73" y2="595.4" xlink:href="#linear-gradient"/><linearGradient id="linear-gradient-29" x1="417.55" y1="614.99" x2="434.93" y2="604.95" xlink:href="#linear-gradient"/><linearGradient id="linear-gradient-30" x1="381.68" y1="373.89" x2="398.15" y2="364.38" gradientTransform="matrix(-1, 0, 0, 1, 917.9, -16.49)" xlink:href="#linear-gradient"/><linearGradient id="linear-gradient-31" x1="369.09" y1="383.49" x2="391.78" y2="370.39" gradientTransform="matrix(-1, 0, 0, 1, 917.9, -16.49)" xlink:href="#linear-gradient"/><linearGradient id="linear-gradient-32" x1="356.05" y1="392.76" x2="386.7" y2="375.07" gradientTransform="matrix(-1, 0, 0, 1, 917.9, -16.49)" xlink:href="#linear-gradient"/><linearGradient id="linear-gradient-33" x1="348.98" y1="408.46" x2="384.29" y2="388.07" gradientTransform="matrix(-1, 0, 0, 1, 917.9, -16.49)" xlink:href="#linear-gradient"/><linearGradient id="linear-gradient-34" x1="349.62" y1="423.11" x2="384.49" y2="402.97" gradientTransform="matrix(-1, 0, 0, 1, 917.9, -16.49)" xlink:href="#linear-gradient"/><linearGradient id="linear-gradient-35" x1="349.79" y1="439.24" x2="384.31" y2="419.31" gradientTransform="matrix(-1, 0, 0, 1, 917.9, -16.49)" xlink:href="#linear-gradient"/><linearGradient id="linear-gradient-36" x1="347.54" y1="452.84" x2="382.86" y2="432.45" gradientTransform="matrix(-1, 0, 0, 1, 917.9, -16.49)" xlink:href="#linear-gradient"/><linearGradient id="linear-gradient-37" x1="348.18" y1="467.49" x2="383.06" y2="447.35" gradientTransform="matrix(-1, 0, 0, 1, 917.9, -16.49)" xlink:href="#linear-gradient"/><linearGradient id="linear-gradient-38" x1="348.36" y1="483.62" x2="382.88" y2="463.69" gradientTransform="matrix(-1, 0, 0, 1, 917.9, -16.49)" xlink:href="#linear-gradient"/><linearGradient id="linear-gradient-39" x1="348.98" y1="498.42" x2="384.29" y2="478.03" gradientTransform="matrix(-1, 0, 0, 1, 917.9, -16.49)" xlink:href="#linear-gradient"/><linearGradient id="linear-gradient-40" x1="349.62" y1="513.07" x2="384.49" y2="492.93" gradientTransform="matrix(-1, 0, 0, 1, 917.9, -16.49)" xlink:href="#linear-gradient"/><linearGradient id="linear-gradient-41" x1="349.79" y1="529.21" x2="384.31" y2="509.28" gradientTransform="matrix(-1, 0, 0, 1, 917.9, -16.49)" xlink:href="#linear-gradient"/><linearGradient id="linear-gradient-42" x1="347.54" y1="542.8" x2="382.86" y2="522.41" gradientTransform="matrix(-1, 0, 0, 1, 917.9, -16.49)" xlink:href="#linear-gradient"/><linearGradient id="linear-gradient-43" x1="348.18" y1="557.45" x2="383.06" y2="537.31" gradientTransform="matrix(-1, 0, 0, 1, 917.9, -16.49)" xlink:href="#linear-gradient"/><linearGradient id="linear-gradient-44" x1="348.36" y1="573.59" x2="382.88" y2="553.66" gradientTransform="matrix(-1, 0, 0, 1, 917.9, -16.49)" xlink:href="#linear-gradient"/><linearGradient id="linear-gradient-45" x1="347.54" y1="589.8" x2="382.86" y2="569.41" gradientTransform="matrix(-1, 0, 0, 1, 917.9, -16.49)" xlink:href="#linear-gradient"/><linearGradient id="linear-gradient-46" x1="348.18" y1="604.44" x2="383.06" y2="584.31" gradientTransform="matrix(-1, 0, 0, 1, 917.9, -16.49)" xlink:href="#linear-gradient"/><linearGradient id="linear-gradient-47" x1="348.36" y1="620.58" x2="382.88" y2="600.65" gradientTransform="matrix(-1, 0, 0, 1, 917.9, -16.49)" xlink:href="#linear-gradient"/><linearGradient id="linear-gradient-48" x1="342.1" y1="625.41" x2="365.52" y2="611.89" gradientTransform="matrix(-1, 0, 0, 1, 917.9, -16.49)" xlink:href="#linear-gradient"/><linearGradient id="linear-gradient-49" x1="336.34" y1="631.48" x2="353.72" y2="621.44" gradientTransform="matrix(-1, 0, 0, 1, 917.9, -16.49)" xlink:href="#linear-gradient"/><linearGradient id="linear-gradient-50" x1="411.48" y1="622.77" x2="422.04" y2="616.68" xlink:href="#linear-gradient"/><linearGradient id="linear-gradient-51" x1="238.68" y1="654.66" x2="167.44" y2="613.53" xlink:href="#linear-gradient"/><linearGradient id="linear-gradient-52" x1="441.39" y1="597.47" x2="392.86" y2="569.45" xlink:href="#linear-gradient"/><linearGradient id="linear-gradient-53" x1="370.29" y1="614.48" x2="362.69" y2="610.09" xlink:href="#linear-gradient"/><linearGradient id="linear-gradient-54" x1="304.55" y1="668.22" x2="286.99" y2="658.08" xlink:href="#linear-gradient"/><linearGradient id="linear-gradient-55" x1="397.18" y1="655.51" x2="364.01" y2="636.36" xlink:href="#linear-gradient"/></defs><title>rag to riches</title><g id="rags_to_riches" data-name="rags to riches"><path class="cls-1" d="M775.43,395.34s-28.07,10.78-36.25,5.94" transform="translate(-16.49 -16.49)"/><path class="cls-2" d="M710.37,299.62l29.74,23s-8.08,34.39,8.55,38.2,34-3.91,38.29-9.48" transform="translate(-16.49 -16.49)"/><path class="cls-3" d="M683.05,321.73s-23.23,17.66-11.89,43.87" transform="translate(-16.49 -16.49)"/><path class="cls-4" d="M631.75,355.47s-15.61-23.14,21.19-37.92l30.11,4.18s29.83-32.34,46.28-24.81l57.71,34s8.93,10.88,0,22.31-18.4,39.31-18.4,39.31l14.78,7.8h13.66s13.1,5.86,13.38,11.71c0,0-1.39,12.55-12.82,13.94l-25.37.28-46.84-21.19-48.51-24-35.13-13.39Z" transform="translate(-16.49 -16.49)"/><path class="cls-5" d="M195.16,622.09s13.38-1.3,21.93,31.41c0,0,13.46,54.1,43.43,48.71.64-.11,1.28-.23,1.92-.3,4.43-.5,23.55-2.91,32.85-8A23.62,23.62,0,0,1,306.64,691h23.87a24.18,24.18,0,0,1,12.24,3.34c3.94,2.32,9.5,5.42,15,8a24,24,0,0,0,29-7.14A39,39,0,0,0,395,675.71a24.89,24.89,0,0,1,5.14-12.39c2-2.64,4.51-5.67,7.05-8.4a24,24,0,0,1,17.53-7.55h27.7" transform="translate(-16.49 -16.49)"/><path class="cls-6" d="M363.18,423h52.41V356.49s-156.86-22.3-158,101.48c0,0-.18,57,59.63,82.59L248,635.66h90.33l51.69-81,1.08-1.88c7.73-.15,15.89-.61,24.54-1.46V492.54H359.84s-28.63-4.83-27.51-37.17C332.33,455.37,334.19,430.84,363.18,423Z" transform="translate(-16.49 -16.49)"/><path class="cls-7" d="M670.88,423H618.47V356.49s156.86-22.3,158,101.48c0,0,.18,57-59.63,82.59l69.29,95.1H695.78l-51.69-81L643,552.74c-7.73-.15-15.89-.61-24.54-1.46V492.54h55.75s28.63-4.83,27.51-37.17C701.73,455.37,699.87,430.84,670.88,423Z" transform="translate(-16.49 -16.49)"/><circle class="cls-8" cx="483.51" cy="483.51" r="473.51"/><line class="cls-9" x1="474.19" y1="338.44" x2="488.41" y2="350.69"/><line class="cls-10" x1="453.56" y1="338.44" x2="488.69" y2="366.86"/><line class="cls-11" x1="435.44" y1="338.44" x2="487.86" y2="382.47"/><line class="cls-12" x1="417.04" y1="338.44" x2="488.13" y2="396.41"/><line class="cls-13" x1="408.12" y1="350.97" x2="487.58" y2="412.58"/><line class="cls-14" x1="408.68" y1="365.46" x2="487.86" y2="427.64"/><line class="cls-15" x1="408.96" y1="381.77" x2="487.58" y2="443.81"/><line class="cls-16" x1="406.69" y1="395.35" x2="486.14" y2="456.96"/><line class="cls-17" x1="407.24" y1="409.84" x2="486.42" y2="472.02"/><line class="cls-18" x1="407.52" y1="426.15" x2="486.14" y2="488.19"/><line class="cls-19" x1="408.12" y1="440.93" x2="487.58" y2="502.54"/><line class="cls-20" x1="408.68" y1="455.43" x2="487.86" y2="517.6"/><line class="cls-21" x1="408.96" y1="471.74" x2="487.58" y2="533.77"/><line class="cls-22" x1="406.69" y1="485.31" x2="486.14" y2="546.92"/><line class="cls-23" x1="407.24" y1="499.81" x2="486.42" y2="561.98"/><line class="cls-24" x1="407.52" y1="516.12" x2="486.14" y2="578.15"/><line class="cls-25" x1="406.69" y1="532.3" x2="486.14" y2="593.92"/><line class="cls-26" x1="407.24" y1="546.8" x2="486.42" y2="608.97"/><line class="cls-27" x1="407.52" y1="563.11" x2="486.14" y2="625.14"/><line class="cls-28" x1="408.96" y1="581.25" x2="461.09" y2="623.07"/><line class="cls-29" x1="408.68" y1="596.86" x2="443.81" y2="623.07"/><line class="cls-30" x1="545.55" y1="338.44" x2="510.42" y2="366.86"/><line class="cls-31" x1="563.67" y1="338.44" x2="511.26" y2="382.47"/><line class="cls-32" x1="582.07" y1="338.44" x2="510.98" y2="396.41"/><line class="cls-33" x1="590.99" y1="350.97" x2="511.54" y2="412.58"/><line class="cls-34" x1="590.44" y1="365.46" x2="511.26" y2="427.64"/><line class="cls-35" x1="590.16" y1="381.77" x2="511.54" y2="443.81"/><line class="cls-36" x1="592.43" y1="395.35" x2="512.97" y2="456.96"/><line class="cls-37" x1="591.87" y1="409.84" x2="512.69" y2="472.02"/><line class="cls-38" x1="591.59" y1="426.15" x2="512.97" y2="488.19"/><line class="cls-39" x1="590.99" y1="440.93" x2="511.54" y2="502.54"/><line class="cls-40" x1="590.44" y1="455.43" x2="511.26" y2="517.6"/><line class="cls-41" x1="590.16" y1="471.74" x2="511.54" y2="533.77"/><line class="cls-42" x1="592.43" y1="485.31" x2="512.97" y2="546.92"/><line class="cls-43" x1="591.87" y1="499.81" x2="512.69" y2="561.98"/><line class="cls-44" x1="591.59" y1="516.12" x2="512.97" y2="578.15"/><line class="cls-45" x1="592.43" y1="532.3" x2="512.97" y2="593.92"/><line class="cls-46" x1="591.87" y1="546.8" x2="512.69" y2="608.97"/><line class="cls-47" x1="591.59" y1="563.11" x2="512.97" y2="625.14"/><line class="cls-48" x1="590.16" y1="581.25" x2="538.02" y2="623.07"/><line class="cls-49" x1="590.44" y1="596.86" x2="555.31" y2="623.07"/><line class="cls-50" x1="407.28" y1="612.76" x2="426.24" y2="626.7"/><path class="cls-51" d="M268.2,601.09s-46.28,20.63-81.4,20.63c0,0-34.22.27-38,34.38a6.68,6.68,0,0,0,.19,2.44c1.28,4.92,7.09,22.6,25.63,27.86,21.61,6.13,32.76-14.78,32.76-14.78s7.38-20.35-8.37-32.2c0,0-23.58-12-36.33,10.8a7,7,0,0,0-.3,6.28c2.65,5.88,9.42,18,20.18,17.63,0,0,14.5,3.07,16.45-14.87,0,0-.83-12.17-13.75-12.45,0,0-9.45-1.2-10,9.11a6.91,6.91,0,0,0,.41,2.81,11.77,11.77,0,0,0,2.19,3.77,6.87,6.87,0,0,0,11.53-2.41c.76-2.3,0-5-5-7.24" transform="translate(-16.49 -16.49)"/><path class="cls-52" d="M389.2,577.3s11.53,20.07,56.88,10" transform="translate(-16.49 -16.49)"/><path class="cls-53" d="M379.17,584.36s-5.58,34.2-29.37,53.53" transform="translate(-16.49 -16.49)"/><path class="cls-54" d="M317.46,643.09S287.72,665.4,274,683.61" transform="translate(-16.49 -16.49)"/><path class="cls-55" d="M357.6,649.41s35.32-6.69,46.1-6.69" transform="translate(-16.49 -16.49)"/></g></svg>