<svg xmlns="http://www.w3.org/2000/svg" xmlns:xlink="http://www.w3.org/1999/xlink" viewBox="0 0 979.28 979.28"><defs><style>.cls-1,.cls-10,.cls-12,.cls-13,.cls-14,.cls-15,.cls-16,.cls-17,.cls-18,.cls-19,.cls-2,.cls-21,.cls-3,.cls-4,.cls-5,.cls-6,.cls-7,.cls-8,.cls-9{fill:none;stroke-miterlimit:10;}.cls-1,.cls-2{stroke-width:17px;}.cls-1{stroke:url(#linear-gradient);}.cls-2{stroke:url(#linear-gradient-2);}.cls-14,.cls-15,.cls-16,.cls-17,.cls-18,.cls-19,.cls-21,.cls-3,.cls-4{stroke-linecap:round;}.cls-12,.cls-13,.cls-14,.cls-15,.cls-16,.cls-17,.cls-18,.cls-19,.cls-3,.cls-4,.cls-5,.cls-6,.cls-7{stroke-width:6px;}.cls-3{stroke:url(#linear-gradient-3);}.cls-4{stroke:url(#linear-gradient-4);}.cls-5{stroke:url(#linear-gradient-5);}.cls-6{stroke:url(#linear-gradient-6);}.cls-7{stroke:url(#linear-gradient-7);}.cls-8{stroke-width:10px;stroke:url(#linear-gradient-8);}.cls-9{stroke-width:20px;stroke:url(#linear-gradient-9);}.cls-10,.cls-21{stroke-width:15px;}.cls-10{stroke:url(#linear-gradient-10);}.cls-11{fill:url(#linear-gradient-11);}.cls-12{stroke:url(#linear-gradient-12);}.cls-13{stroke:url(#linear-gradient-13);}.cls-14{stroke:url(#linear-gradient-14);}.cls-15{stroke:url(#linear-gradient-15);}.cls-16{stroke:url(#linear-gradient-16);}.cls-17{stroke:url(#linear-gradient-17);}.cls-18{stroke:url(#linear-gradient-18);}.cls-19{stroke:url(#linear-gradient-19);}.cls-20{fill:url(#linear-gradient-20);}.cls-21{stroke:url(#linear-gradient-21);}</style><linearGradient id="linear-gradient" x1="448.29" y1="678.7" x2="417.05" y2="667.47" gradientUnits="userSpaceOnUse"><stop offset="0" stop-color="#ed2024"/><stop offset="0.12" stop-color="#f26164"/><stop offset="0.25" stop-color="#f8a4a6"/><stop offset="0.36" stop-color="#fcd5d6"/><stop offset="0.45" stop-color="#fef4f4"/><stop offset="0.49" stop-color="#fff"/><stop offset="0.56" stop-color="#fffbfb"/><stop offset="0.63" stop-color="#feefef"/><stop offset="0.69" stop-color="#fcdbdb"/><stop offset="0.76" stop-color="#fabebf"/><stop offset="0.82" stop-color="#f79a9b"/><stop offset="0.89" stop-color="#f36d6f"/><stop offset="0.96" stop-color="#ef393c"/><stop offset="0.98" stop-color="#ed2024"/></linearGradient><linearGradient id="linear-gradient-2" x1="309.29" y1="678.7" x2="278.05" y2="667.47" gradientTransform="matrix(-1, 0, 0, 1, 860.44, 0)" xlink:href="#linear-gradient"/><linearGradient id="linear-gradient-3" x1="504.32" y1="419.19" x2="459.21" y2="402.97" xlink:href="#linear-gradient"/><linearGradient id="linear-gradient-4" x1="562.63" y1="357.45" x2="523.57" y2="343.41" xlink:href="#linear-gradient"/><linearGradient id="linear-gradient-5" x1="487.94" y1="453.99" x2="455.98" y2="442.5" xlink:href="#linear-gradient"/><linearGradient id="linear-gradient-6" x1="486.29" y1="395.21" x2="457.66" y2="384.92" xlink:href="#linear-gradient"/><linearGradient id="linear-gradient-7" x1="437.2" y1="460.14" x2="408.57" y2="449.84" gradientTransform="matrix(0.05, -1, -1, -0.05, 957.94, 885.95)" xlink:href="#linear-gradient"/><linearGradient id="linear-gradient-8" x1="702.36" y1="603.98" x2="279.7" y2="452.04" xlink:href="#linear-gradient"/><linearGradient id="linear-gradient-9" x1="960.82" y1="665.65" x2="39.18" y2="334.35" gradientTransform="matrix(0.98, 0.18, -0.18, 0.98, 86.37, -91.2)" xlink:href="#linear-gradient"/><linearGradient id="linear-gradient-10" x1="757.66" y1="546.7" x2="224.39" y2="355.01" xlink:href="#linear-gradient"/><linearGradient id="linear-gradient-11" x1="501.28" y1="577.74" x2="478" y2="569.37" xlink:href="#linear-gradient"/><linearGradient id="linear-gradient-12" x1="536.76" y1="376.83" x2="507.83" y2="366.43" xlink:href="#linear-gradient"/><linearGradient id="linear-gradient-13" x1="560.67" y1="402.18" x2="483.51" y2="374.45" xlink:href="#linear-gradient"/><linearGradient id="linear-gradient-14" x1="441.83" y1="417.78" x2="428.27" y2="412.9" xlink:href="#linear-gradient"/><linearGradient id="linear-gradient-15" x1="485.61" y1="461.56" x2="472.05" y2="456.68" xlink:href="#linear-gradient"/><linearGradient id="linear-gradient-16" x1="434.26" y1="445.59" x2="416.16" y2="439.09" xlink:href="#linear-gradient"/><linearGradient id="linear-gradient-17" x1="460.59" y1="471.93" x2="442.5" y2="465.43" xlink:href="#linear-gradient"/><linearGradient id="linear-gradient-18" x1="435.6" y1="472.86" x2="416.79" y2="466.1" xlink:href="#linear-gradient"/><linearGradient id="linear-gradient-19" x1="506.6" y1="394.45" x2="496.71" y2="390.89" xlink:href="#linear-gradient"/><linearGradient id="linear-gradient-20" x1="494.8" y1="403.73" x2="488.15" y2="401.34" xlink:href="#linear-gradient"/><linearGradient id="linear-gradient-21" x1="628.56" y1="749.05" x2="351.03" y2="649.28" xlink:href="#linear-gradient"/></defs><title>motion canvas</title><g id="motion_canvas" data-name="motion canvas"><path class="cls-1" d="M442.93,629.87s14,58.49-34.81,79.66" transform="translate(-10.36 -10.36)"/><path class="cls-2" d="M556.52,629.87s-14,58.49,34.8,79.66" transform="translate(-10.36 -10.36)"/><line class="cls-3" x1="465.31" y1="394.86" x2="498.22" y2="427.3"/><line class="cls-4" x1="529.17" y1="336.7" x2="557.03" y2="364.16"/><path class="cls-5" d="M472,427.86s-15.45,8.5-17.2,32.72c0,0,17.16.78,33.88-16.76" transform="translate(-10.36 -10.36)"/><path class="cls-6" d="M492.55,376.48s-18.95-10.16-30.7,7.6c0,0-5.81,11.14-7,20.55a.53.53,0,0,0,.88.46c2.2-1.89,8.3-5.6,21.84-5" transform="translate(-10.36 -10.36)"/><path class="cls-7" d="M540.22,420.1s9.17,19.45-9.18,30.26c0,0-11.42,5.22-20.89,5.94a.53.53,0,0,1-.42-.9c2-2.1,6-8,6.11-21.55" transform="translate(-10.36 -10.36)"/><line class="cls-8" x1="254.19" y1="528.01" x2="727.87" y2="528.01"/><circle class="cls-9" cx="489.64" cy="489.64" r="479.56"/><rect class="cls-10" x="254.19" y="282.2" width="473.68" height="337.31" rx="14.66"/><circle class="cls-11" cx="489.64" cy="573.56" r="12.37"/><circle class="cls-12" cx="522.29" cy="371.63" r="12.37"/><path class="cls-13" d="M575.51,340.48s-34.63-1.43-70.15,24.58S472,427.86,472,427.86l16.68,16S529.76,435.57,550,409,575.51,340.48,575.51,340.48Z" transform="translate(-10.36 -10.36)"/><line class="cls-14" x1="441.92" y1="408.68" x2="428.19" y2="422"/><line class="cls-15" x1="485.7" y1="452.46" x2="471.97" y2="465.78"/><line class="cls-16" x1="436.33" y1="430.95" x2="414.09" y2="453.73"/><line class="cls-17" x1="462.67" y1="457.29" x2="440.42" y2="480.07"/><line class="cls-18" x1="437.77" y1="457.95" x2="414.62" y2="481"/><line class="cls-19" x1="505.33" y1="389.13" x2="497.99" y2="396.2"/><circle class="cls-20" cx="491.48" cy="402.54" r="3.53"/><line class="cls-21" x1="341.07" y1="699.16" x2="638.52" y2="699.16"/></g></svg>