<svg xmlns="http://www.w3.org/2000/svg" xmlns:xlink="http://www.w3.org/1999/xlink" viewBox="0 0 976.21 976.21"><defs><style>.cls-1,.cls-10,.cls-11,.cls-12,.cls-13,.cls-14,.cls-15,.cls-16,.cls-17,.cls-18,.cls-19,.cls-2,.cls-20,.cls-3,.cls-4,.cls-5,.cls-6,.cls-7,.cls-8,.cls-9{fill:none;stroke-miterlimit:10;}.cls-1,.cls-13,.cls-14,.cls-15,.cls-16,.cls-17,.cls-18,.cls-19,.cls-2,.cls-20,.cls-3,.cls-4,.cls-5,.cls-6,.cls-7,.cls-8,.cls-9{stroke-width:4px;}.cls-1{stroke:url(#linear-gradient);}.cls-2{stroke:url(#linear-gradient-2);}.cls-3{stroke:url(#linear-gradient-3);}.cls-4{stroke:url(#linear-gradient-4);}.cls-5{stroke:url(#linear-gradient-5);}.cls-6{stroke:url(#linear-gradient-6);}.cls-7{stroke:url(#linear-gradient-7);}.cls-8{stroke:url(#linear-gradient-8);}.cls-9{stroke:url(#linear-gradient-9);}.cls-10{stroke-width:20px;stroke:url(#linear-gradient-10);}.cls-11{stroke-width:15px;stroke:url(#linear-gradient-11);}.cls-12{stroke-width:13px;stroke:url(#linear-gradient-12);}.cls-13{stroke:url(#linear-gradient-13);}.cls-14{stroke:url(#linear-gradient-14);}.cls-15{stroke:url(#linear-gradient-15);}.cls-16{stroke:url(#linear-gradient-16);}.cls-17{stroke:url(#linear-gradient-17);}.cls-18{stroke:url(#linear-gradient-18);}.cls-19{stroke:url(#linear-gradient-19);}.cls-20{stroke:url(#linear-gradient-20);}</style><linearGradient id="linear-gradient" x1="622.88" y1="425.15" x2="554.26" y2="385.53" gradientUnits="userSpaceOnUse"><stop offset="0" stop-color="#ed2024"/><stop offset="0.12" stop-color="#f26164"/><stop offset="0.25" stop-color="#f8a4a6"/><stop offset="0.36" stop-color="#fcd5d6"/><stop offset="0.45" stop-color="#fef4f4"/><stop offset="0.49" stop-color="#fff"/><stop offset="0.56" stop-color="#fffbfb"/><stop offset="0.63" stop-color="#feefef"/><stop offset="0.69" stop-color="#fcdbdb"/><stop offset="0.76" stop-color="#fabebf"/><stop offset="0.82" stop-color="#f79a9b"/><stop offset="0.89" stop-color="#f36d6f"/><stop offset="0.96" stop-color="#ef393c"/><stop offset="0.98" stop-color="#ed2024"/></linearGradient><linearGradient id="linear-gradient-2" x1="568.18" y1="480.23" x2="542.03" y2="465.13" xlink:href="#linear-gradient"/><linearGradient id="linear-gradient-3" x1="528.1" y1="492.12" x2="501.95" y2="477.03" gradientTransform="matrix(-1, 0, 0, 1, 1115.64, -11.89)" xlink:href="#linear-gradient"/><linearGradient id="linear-gradient-4" x1="588.34" y1="435.01" x2="565.59" y2="421.88" xlink:href="#linear-gradient"/><linearGradient id="linear-gradient-5" x1="599.67" y1="522.75" x2="559.27" y2="499.43" xlink:href="#linear-gradient"/><linearGradient id="linear-gradient-6" x1="583.37" y1="382.68" x2="568.6" y2="374.15" xlink:href="#linear-gradient"/><linearGradient id="linear-gradient-7" x1="622.92" y1="404.84" x2="529.04" y2="350.64" xlink:href="#linear-gradient"/><linearGradient id="linear-gradient-8" x1="516.84" y1="382.68" x2="502.07" y2="374.15" xlink:href="#linear-gradient"/><linearGradient id="linear-gradient-9" x1="651.99" y1="381.63" x2="637.22" y2="373.1" xlink:href="#linear-gradient"/><linearGradient id="linear-gradient-10" x1="959.38" y1="665.13" x2="40.62" y2="334.87" gradientTransform="matrix(0.98, 0.18, -0.18, 0.98, 84.84, -92.73)" xlink:href="#linear-gradient"/><linearGradient id="linear-gradient-11" x1="755.53" y1="586.68" x2="266.87" y2="304.55" xlink:href="#linear-gradient"/><linearGradient id="linear-gradient-12" x1="748" y1="782.93" x2="262.82" y2="502.81" xlink:href="#linear-gradient"/><linearGradient id="linear-gradient-13" x1="551.28" y1="682.29" x2="467.99" y2="634.2" xlink:href="#linear-gradient"/><linearGradient id="linear-gradient-14" x1="610.39" y1="458.31" x2="560.74" y2="429.65" xlink:href="#linear-gradient"/><linearGradient id="linear-gradient-15" x1="599.69" y1="507.64" x2="557.82" y2="483.47" xlink:href="#linear-gradient"/><linearGradient id="linear-gradient-16" x1="584.82" y1="461.3" x2="570.9" y2="453.26" xlink:href="#linear-gradient"/><linearGradient id="linear-gradient-17" x1="529.71" y1="438.77" x2="521.53" y2="434.05" xlink:href="#linear-gradient"/><linearGradient id="linear-gradient-18" x1="399.24" y1="438.77" x2="391.06" y2="434.05" gradientTransform="matrix(-1, 0, 0, 1, 1049.74, 0)" xlink:href="#linear-gradient"/><linearGradient id="linear-gradient-19" x1="521.4" y1="451.3" x2="500.28" y2="439.11" xlink:href="#linear-gradient"/><linearGradient id="linear-gradient-20" x1="656.48" y1="451.3" x2="635.37" y2="439.11" xlink:href="#linear-gradient"/></defs><title>pixel plot</title><g id="pixel_plot" data-name="pixel plot"><path class="cls-1" d="M544.33,406.63s35-37.38,89.06,0" transform="translate(-11.89 -11.89)"/><line class="cls-2" x1="548.71" y1="456.07" x2="561.5" y2="489.29"/><line class="cls-3" x1="607.01" y1="456.07" x2="594.22" y2="489.29"/><line class="cls-4" x1="576.96" y1="405.64" x2="576.96" y2="451.24"/><rect class="cls-5" x="561.05" y="501.81" width="36.84" height="18.55"/><circle class="cls-6" cx="575.98" cy="378.41" r="6.53"/><line class="cls-7" x1="514.55" y1="377.74" x2="637.41" y2="377.74"/><circle class="cls-8" cx="509.45" cy="378.41" r="6.53"/><circle class="cls-9" cx="644.61" cy="377.36" r="6.53"/><circle class="cls-10" cx="488.11" cy="488.11" r="478.02"/><rect class="cls-11" x="279.03" y="303.97" width="464.34" height="283.27"/><path class="cls-12" d="M200.16,629.09H819a0,0,0,0,1,0,0v2.83a55.91,55.91,0,0,1-55.91,55.91h-507a55.91,55.91,0,0,1-55.91-55.91v-2.83A0,0,0,0,1,200.16,629.09Z"/><rect class="cls-13" x="463.4" y="647.6" width="92.46" height="21.28"/><polyline class="cls-14" points="562.48 456.07 548.71 456.07 576.97 405.64 607.01 456.07 593.6 456.07"/><rect class="cls-15" x="554.79" y="489.29" width="47.93" height="12.52" rx="4.68"/><circle class="cls-16" cx="577.86" cy="457.28" r="6.04"/><path class="cls-17" d="M530.92,423.26s-8.95,8.4-9.57,26.47" transform="translate(-11.89 -11.89)"/><path class="cls-18" d="M649.3,423.26s9,8.4,9.57,26.47" transform="translate(-11.89 -11.89)"/><rect class="cls-19" x="504.18" y="437.83" width="13.32" height="14.75"/><rect class="cls-20" x="639.27" y="437.83" width="13.32" height="14.75"/></g></svg>