<svg xmlns="http://www.w3.org/2000/svg" xmlns:xlink="http://www.w3.org/1999/xlink" viewBox="0 0 988.47 988.47"><defs><style>.cls-1,.cls-10,.cls-11,.cls-12,.cls-13,.cls-14,.cls-15,.cls-16,.cls-17,.cls-18,.cls-19,.cls-2,.cls-20,.cls-21,.cls-22,.cls-3,.cls-4,.cls-5,.cls-6,.cls-7,.cls-8,.cls-9{fill:none;stroke-linecap:round;stroke-linejoin:round;}.cls-1,.cls-13,.cls-14,.cls-15,.cls-16,.cls-17,.cls-18,.cls-19,.cls-2,.cls-20,.cls-3,.cls-4,.cls-5,.cls-6,.cls-7,.cls-8{stroke-width:2px;}.cls-1{stroke:url(#linear-gradient);}.cls-2{stroke:url(#linear-gradient-2);}.cls-3{stroke:url(#linear-gradient-3);}.cls-4{stroke:url(#linear-gradient-4);}.cls-5{stroke:url(#linear-gradient-5);}.cls-6{stroke:url(#linear-gradient-6);}.cls-7{stroke:url(#linear-gradient-7);}.cls-8{stroke:url(#linear-gradient-8);}.cls-21,.cls-22,.cls-9{stroke-width:19px;}.cls-9{stroke:url(#linear-gradient-9);}.cls-10{stroke-width:20px;stroke:url(#linear-gradient-10);}.cls-11,.cls-12{stroke-width:3px;}.cls-11{stroke:url(#linear-gradient-11);}.cls-12{stroke:url(#linear-gradient-12);}.cls-13{stroke:url(#linear-gradient-13);}.cls-14{stroke:url(#linear-gradient-14);}.cls-15{stroke:url(#linear-gradient-15);}.cls-16{stroke:url(#linear-gradient-16);}.cls-17{stroke:url(#linear-gradient-17);}.cls-18{stroke:url(#linear-gradient-18);}.cls-19{stroke:url(#linear-gradient-19);}.cls-20{stroke:url(#linear-gradient-20);}.cls-21{stroke:url(#linear-gradient-21);}.cls-22{stroke:url(#linear-gradient-22);}</style><linearGradient id="linear-gradient" x1="181.82" y1="506.05" x2="487.56" y2="506.05" gradientUnits="userSpaceOnUse"><stop offset="0" stop-color="#ed2024"/><stop offset="0.12" stop-color="#f26164"/><stop offset="0.25" stop-color="#f8a4a6"/><stop offset="0.36" stop-color="#fcd5d6"/><stop offset="0.45" stop-color="#fef4f4"/><stop offset="0.49" stop-color="#fff"/><stop offset="0.56" stop-color="#fffbfb"/><stop offset="0.63" stop-color="#feefef"/><stop offset="0.69" stop-color="#fcdbdb"/><stop offset="0.76" stop-color="#fabebf"/><stop offset="0.82" stop-color="#f79a9b"/><stop offset="0.89" stop-color="#f36d6f"/><stop offset="0.96" stop-color="#ef393c"/><stop offset="0.98" stop-color="#ed2024"/></linearGradient><linearGradient id="linear-gradient-2" x1="343.67" y1="539.15" x2="480.2" y2="539.15" xlink:href="#linear-gradient"/><linearGradient id="linear-gradient-3" x1="343.67" y1="661.34" x2="414.57" y2="661.34" xlink:href="#linear-gradient"/><linearGradient id="linear-gradient-4" x1="203.72" y1="609.94" x2="345.67" y2="609.94" xlink:href="#linear-gradient"/><linearGradient id="linear-gradient-5" x1="192.33" y1="533.59" x2="345.67" y2="533.59" xlink:href="#linear-gradient"/><linearGradient id="linear-gradient-6" x1="192.33" y1="394.99" x2="330.48" y2="394.99" xlink:href="#linear-gradient"/><linearGradient id="linear-gradient-7" x1="328.48" y1="402.99" x2="483.46" y2="402.99" xlink:href="#linear-gradient"/><linearGradient id="linear-gradient-8" x1="287.06" y1="476.97" x2="487.56" y2="476.97" xlink:href="#linear-gradient"/><linearGradient id="linear-gradient-9" x1="369.18" y1="439.6" x2="278.94" y2="439.6" xlink:href="#linear-gradient"/><linearGradient id="linear-gradient-10" x1="0" y1="494.23" x2="988.47" y2="494.23" xlink:href="#linear-gradient"/><linearGradient id="linear-gradient-11" x1="419.12" y1="684.8" x2="482.29" y2="684.8" xlink:href="#linear-gradient"/><linearGradient id="linear-gradient-12" x1="343.72" y1="773.27" x2="449.96" y2="773.27" xlink:href="#linear-gradient"/><linearGradient id="linear-gradient-13" x1="-122.89" y1="506.05" x2="182.85" y2="506.05" gradientTransform="matrix(-1, 0, 0, 1, 690.34, 0)" xlink:href="#linear-gradient"/><linearGradient id="linear-gradient-14" x1="44.73" y1="544.91" x2="181.26" y2="544.91" gradientTransform="matrix(-1, 0, 0, 1, 684.57, -5.77)" xlink:href="#linear-gradient"/><linearGradient id="linear-gradient-15" x1="44.73" y1="667.1" x2="115.62" y2="667.1" gradientTransform="matrix(-1, 0, 0, 1, 684.57, -5.77)" xlink:href="#linear-gradient"/><linearGradient id="linear-gradient-16" x1="-95.23" y1="615.7" x2="46.73" y2="615.7" gradientTransform="matrix(-1, 0, 0, 1, 684.57, -5.77)" xlink:href="#linear-gradient"/><linearGradient id="linear-gradient-17" x1="-106.62" y1="539.35" x2="46.73" y2="539.35" gradientTransform="matrix(-1, 0, 0, 1, 684.57, -5.77)" xlink:href="#linear-gradient"/><linearGradient id="linear-gradient-18" x1="-106.62" y1="400.75" x2="31.54" y2="400.75" gradientTransform="matrix(-1, 0, 0, 1, 684.57, -5.77)" xlink:href="#linear-gradient"/><linearGradient id="linear-gradient-19" x1="29.54" y1="408.75" x2="184.51" y2="408.75" gradientTransform="matrix(-1, 0, 0, 1, 684.57, -5.77)" xlink:href="#linear-gradient"/><linearGradient id="linear-gradient-20" x1="-17.65" y1="476.97" x2="182.85" y2="476.97" gradientTransform="matrix(-1, 0, 0, 1, 690.34, 0)" xlink:href="#linear-gradient"/><linearGradient id="linear-gradient-21" x1="475.07" y1="442.93" x2="280.32" y2="442.93" xlink:href="#linear-gradient"/><linearGradient id="linear-gradient-22" x1="705.15" y1="542.67" x2="516.9" y2="542.67" xlink:href="#linear-gradient"/></defs><title>electronically urs</title><g id="electronically_urs" data-name="electronically urs"><path class="cls-1" d="M486.56,237.7V745.77l-32.33,62.35h-68l-47.19-24.8L349.62,750l-43.93-21.15L253.61,639.3,215.37,610l-32.55-79.75,16.27-35.8S178.75,479,184.45,449.71s48.82-131,48.82-131,20.34-22,45.56-13.83L283.44,258s70.52-53.7,135.62-54C419.06,204,475.67,207.59,486.56,237.7Z" transform="translate(-5.77 -5.77)"/><polygon class="cls-2" points="478.12 557.86 421.16 623.5 344.67 488.97 479.2 454.79 478.12 557.86"/><polygon class="cls-3" points="413.56 626.21 345.21 744.2 344.67 578.47 413.56 626.21"/><polygon class="cls-4" points="344.67 578.47 250.28 641.4 255.17 621.33 204.72 593.66 344.67 578.47"/><polygon class="cls-5" points="193.33 488.7 344.67 578.47 344.67 488.97 193.33 488.7"/><polygon class="cls-6" points="193.33 488.7 282.29 301.28 329.48 388.61 193.33 488.7"/><polygon class="cls-7" points="329.48 388.61 341.96 490.05 409.23 343.59 478.12 374.51 482.46 315.92 409.23 343.59 329.48 388.61"/><path class="cls-8" d="M486.56,750H351V498c80.29-160.57,104.7-287,104.7-287-6.51-4.34-36.62-7.06-36.62-7.06L288.06,307,415,349.35" transform="translate(-5.77 -5.77)"/><line class="cls-9" x1="288.44" y1="439.6" x2="359.68" y2="439.6"/><circle class="cls-10" cx="494.23" cy="494.23" r="484.23"/><polygon class="cls-11" points="420.62 627.84 436.35 741.75 480.79 740 480.29 673.4 420.62 627.84"/><line class="cls-12" x1="345.22" y1="744.2" x2="448.46" y2="802.35"/><path class="cls-13" d="M508.49,237.7V745.77l32.33,62.35h68L656,783.32,645.43,750l43.93-21.15,52.08-89.51L779.68,610l32.55-79.75L796,494.46S816.3,479,810.6,449.71s-48.82-131-48.82-131-20.34-22-45.56-13.83L711.61,258S641.09,204.25,576,204C576,204,519.38,207.59,508.49,237.7Z" transform="translate(-5.77 -5.77)"/><polygon class="cls-14" points="505.4 557.86 562.36 623.5 638.85 488.97 504.31 454.79 505.4 557.86"/><polygon class="cls-15" points="569.95 626.21 638.3 744.2 638.85 578.47 569.95 626.21"/><polygon class="cls-16" points="638.85 578.47 733.23 641.4 728.35 621.33 778.8 593.66 638.85 578.47"/><polygon class="cls-17" points="790.19 488.7 638.85 578.47 638.85 488.97 790.19 488.7"/><polygon class="cls-18" points="790.19 488.7 701.23 301.28 654.03 388.61 790.19 488.7"/><polygon class="cls-19" points="654.03 388.61 641.56 490.05 574.29 343.59 505.4 374.51 501.06 315.92 574.29 343.59 654.03 388.61"/><path class="cls-20" d="M508.49,750H644.07V498c-80.29-160.57-104.7-287-104.7-287C545.88,206.69,576,204,576,204L707,307,580.06,349.35" transform="translate(-5.77 -5.77)"/><polyline class="cls-21" points="364.68 345.28 289.82 345.28 289.82 540.57 465.57 540.57 465.57 499.43"/><polyline class="cls-22" points="526.4 437.43 526.4 543.76 695.65 543.76 695.65 442.86 695.65 647.91 640.32 647.91"/></g></svg>