<svg xmlns="http://www.w3.org/2000/svg" xmlns:xlink="http://www.w3.org/1999/xlink" viewBox="0 0 960.82 960.82"><defs><style>.cls-1,.cls-10,.cls-2,.cls-5,.cls-6,.cls-7,.cls-8,.cls-9{fill:none;stroke-miterlimit:10;}.cls-1{stroke-width:18px;stroke:url(#linear-gradient);}.cls-2{stroke-width:16px;stroke:url(#linear-gradient-2);}.cls-3{fill:url(#linear-gradient-3);}.cls-4{fill:url(#linear-gradient-4);}.cls-10,.cls-5,.cls-6,.cls-7,.cls-8,.cls-9{stroke-linecap:round;stroke-width:5px;}.cls-5{stroke:url(#linear-gradient-5);}.cls-6{stroke:url(#linear-gradient-6);}.cls-7{stroke:url(#linear-gradient-7);}.cls-8{stroke:url(#linear-gradient-8);}.cls-9{stroke:url(#linear-gradient-9);}.cls-10{stroke:url(#linear-gradient-10);}</style><linearGradient id="linear-gradient" x1="153.24" y1="150.84" x2="832.64" y2="830.24" gradientTransform="translate(478.71 -215.01) rotate(45)" gradientUnits="userSpaceOnUse"><stop offset="0" stop-color="#ed2024"/><stop offset="0.12" stop-color="#f26164"/><stop offset="0.25" stop-color="#f8a4a6"/><stop offset="0.36" stop-color="#fcd5d6"/><stop offset="0.45" stop-color="#fef4f4"/><stop offset="0.49" stop-color="#fff"/><stop offset="0.56" stop-color="#fffbfb"/><stop offset="0.63" stop-color="#feefef"/><stop offset="0.69" stop-color="#fcdbdb"/><stop offset="0.76" stop-color="#fabebf"/><stop offset="0.82" stop-color="#f79a9b"/><stop offset="0.89" stop-color="#f36d6f"/><stop offset="0.96" stop-color="#ef393c"/><stop offset="0.98" stop-color="#ed2024"/></linearGradient><linearGradient id="linear-gradient-2" x1="303.86" y1="303.86" x2="656.96" y2="656.96" gradientTransform="matrix(1, 0, 0, 1, 0, 0)" xlink:href="#linear-gradient"/><linearGradient id="linear-gradient-3" x1="486.13" y1="497.13" x2="718.11" y2="729.11" gradientTransform="matrix(1, 0, 0, 1, 0, 0)" xlink:href="#linear-gradient"/><linearGradient id="linear-gradient-4" x1="458.55" y1="150.21" x2="543.02" y2="234.68" gradientTransform="matrix(1, 0, 0, 1, 0, 0)" xlink:href="#linear-gradient"/><linearGradient id="linear-gradient-5" x1="414.19" y1="298.16" x2="524.34" y2="408.31" gradientTransform="matrix(1, 0, 0, 1, 0, 0)" xlink:href="#linear-gradient"/><linearGradient id="linear-gradient-6" x1="387.22" y1="337.2" x2="540.06" y2="490.05" gradientTransform="matrix(1, 0, 0, 1, 0, 0)" xlink:href="#linear-gradient"/><linearGradient id="linear-gradient-7" x1="331.62" y1="449.44" x2="399.92" y2="517.74" gradientTransform="matrix(1, 0, 0, 1, 0, 0)" xlink:href="#linear-gradient"/><linearGradient id="linear-gradient-8" x1="350.36" y1="519.41" x2="418.66" y2="587.71" gradientTransform="matrix(1, 0, 0, 1, 0, 0)" xlink:href="#linear-gradient"/><linearGradient id="linear-gradient-9" x1="407.42" y1="589.38" x2="475.72" y2="657.68" gradientTransform="matrix(1, 0, 0, 1, 0, 0)" xlink:href="#linear-gradient"/><linearGradient id="linear-gradient-10" x1="606.99" y1="465.63" x2="642.91" y2="501.55" gradientTransform="matrix(1, 0, 0, 1, 0, 0)" xlink:href="#linear-gradient"/></defs><title>the quiz</title><g id="the_quiz" data-name="the quiz"><circle class="cls-1" cx="480.41" cy="480.41" r="471.41"/><circle class="cls-2" cx="480.41" cy="480.41" r="241.68"/><polygon class="cls-3" points="459.69 523.58 527.15 467.77 700.41 746.81 682.29 763.67 459.69 523.58"/><path class="cls-4" d="M482.7,214.9c0,.09,0,.19,0,.29a9.82,9.82,0,0,0,9.79,9.7h54.56a7.64,7.64,0,0,0,2.84-.55l.16-.07A30.4,30.4,0,0,0,569,196.12v-1.47c0-11.86-7.79-22.6-19.28-25.51l-.47-.11a10.65,10.65,0,0,0-2.46-.26H451.1a26,26,0,0,0-19.35,8.28,22.1,22.1,0,0,0-5.28,10c-2.49,11.2,10.45,19.89,19.67,13.06.19-.13.37-.27.55-.42a4,4,0,0,0,1.5-3.28v-.1a5.78,5.78,0,0,1,5.78-6h90.77a5.71,5.71,0,0,1,5.37,3.64,11.07,11.07,0,0,1,.4,1.23,6.51,6.51,0,0,1-6.32,8.14l-50,0A11.53,11.53,0,0,0,482.7,214.9Z" transform="translate(-12.53 -10.13)"/><line class="cls-5" x1="362.65" y1="353.24" x2="575.88" y2="353.24"/><line class="cls-6" x1="314.34" y1="413.63" x2="612.95" y2="413.63"/><line class="cls-7" x1="301.01" y1="483.59" x2="430.53" y2="483.59"/><line class="cls-8" x1="319.75" y1="553.56" x2="449.27" y2="553.56"/><line class="cls-9" x1="376.81" y1="623.53" x2="506.33" y2="623.53"/><line class="cls-10" x1="592.57" y1="483.59" x2="657.33" y2="483.59"/></g></svg>