<svg xmlns="http://www.w3.org/2000/svg" xmlns:xlink="http://www.w3.org/1999/xlink" viewBox="0 0 970.09 970.09"><defs><style>.cls-1,.cls-10,.cls-2,.cls-3,.cls-4,.cls-5,.cls-6,.cls-7,.cls-8,.cls-9{fill:none;stroke-linecap:round;stroke-miterlimit:10;}.cls-1,.cls-10,.cls-4,.cls-5,.cls-6,.cls-7,.cls-8,.cls-9{stroke-width:3px;}.cls-1{stroke:url(#linear-gradient);}.cls-2{stroke-width:32px;stroke:url(#linear-gradient-2);}.cls-3{stroke-width:20px;stroke:url(#linear-gradient-3);}.cls-4{stroke:url(#linear-gradient-4);}.cls-5{stroke:url(#linear-gradient-5);}.cls-6{stroke:url(#linear-gradient-6);}.cls-7{stroke:url(#linear-gradient-7);}.cls-8{stroke:url(#linear-gradient-8);}.cls-9{stroke:url(#linear-gradient-9);}.cls-10{stroke:url(#linear-gradient-10);}</style><linearGradient id="linear-gradient" x1="558.33" y1="384.61" x2="432.02" y2="311.68" gradientUnits="userSpaceOnUse"><stop offset="0" stop-color="#ed2024"/><stop offset="0.12" stop-color="#f26164"/><stop offset="0.25" stop-color="#f8a4a6"/><stop offset="0.36" stop-color="#fcd5d6"/><stop offset="0.45" stop-color="#fef4f4"/><stop offset="0.49" stop-color="#fff"/><stop offset="0.56" stop-color="#fffbfb"/><stop offset="0.63" stop-color="#feefef"/><stop offset="0.69" stop-color="#fcdbdb"/><stop offset="0.76" stop-color="#fabebf"/><stop offset="0.82" stop-color="#f79a9b"/><stop offset="0.89" stop-color="#f36d6f"/><stop offset="0.96" stop-color="#ef393c"/><stop offset="0.98" stop-color="#ed2024"/></linearGradient><linearGradient id="linear-gradient-2" x1="693.56" y1="833.33" x2="259.91" y2="582.96" xlink:href="#linear-gradient"/><linearGradient id="linear-gradient-3" x1="905.17" y1="727.6" x2="64.91" y2="242.48" xlink:href="#linear-gradient"/><linearGradient id="linear-gradient-4" x1="566.79" y1="386.54" x2="410.66" y2="296.4" xlink:href="#linear-gradient"/><linearGradient id="linear-gradient-5" x1="694.97" y1="653.7" x2="357.29" y2="458.74" xlink:href="#linear-gradient"/><linearGradient id="linear-gradient-6" x1="532.82" y1="512.97" x2="449.43" y2="464.82" xlink:href="#linear-gradient"/><linearGradient id="linear-gradient-7" x1="452.5" y1="513.55" x2="403.43" y2="485.21" xlink:href="#linear-gradient"/><linearGradient id="linear-gradient-8" x1="570.77" y1="528.5" x2="521.7" y2="500.17" gradientTransform="matrix(-1, 0, 0, 1, 1080.32, -14.96)" xlink:href="#linear-gradient"/><linearGradient id="linear-gradient-9" x1="601.3" y1="686.99" x2="520.65" y2="640.43" xlink:href="#linear-gradient"/><linearGradient id="linear-gradient-10" x1="788.16" y1="406.12" x2="707.51" y2="359.56" xlink:href="#linear-gradient"/></defs><title>youth parliament</title><g id="youth_parliament" data-name="youth parliament"><path class="cls-1" d="M414.23,379.58l2.62-16.34,10.13-2-1-35.95s11.11-11.44,20.59-23.21c0,0,55.89,1.31,73.87-16.67,0,0,26.8,8.5,38.56,40.53,0,0,.66,35,9.15,38.57" transform="translate(-14.96 -14.96)"/><line class="cls-2" x1="206.11" y1="708.14" x2="747.36" y2="708.14"/><circle class="cls-3" cx="485.04" cy="485.04" r="475.04"/><path class="cls-4" d="M495.61,235S416.93,229.45,407,334.4a32.07,32.07,0,0,0,0,6l2.56,26.47a63.59,63.59,0,0,0,14.68,34.88c9,10.74,20.77,25.35,27.8,36.74a39,39,0,0,0,15.4,13.92c13.68,7.22,29.93,7.44,44.27,1.65,8.61-3.46,18-8.73,22.09-16.13.43-.78.84-1.57,1.3-2.34,2.38-3.88,10.41-16.92,18.22-29.07A132.59,132.59,0,0,0,573.51,350l2.18-19.07S588.11,241.44,495.61,235Z" transform="translate(-14.96 -14.96)"/><path class="cls-5" d="M454.21,441.14s-7,24.41-53.6,33.12c0,0-58.83,17-61,18.74s-41.4,70.16-37.48,106.77l-2.18,53.17s4.14,11.65,24.41,14.6H507.71V629.62s-120.28-9.15-130.09-12.42l-4.25-38.57s15.37,9.16,13.08,26.15l128.78,10.13s3.59,17.33,34,17.65c0,0,35.62,6.54,51,16,0,0,13.07-14.38,23.2-89.23l82.37,24.19s25.82,15.68,36.93-17.65,32.36-83,30.07-98.71l-50.66-19.94L702.51,510s-2.62,18.63-24.19-2-97.73-37.91-97.73-37.91-39.66-.56-46.79-32.15" transform="translate(-14.96 -14.96)"/><path class="cls-6" d="M460,449.53s-13.08,21.57,1.63,58.83L479.93,544s3.92,5.23,7.84-11.11V506.07l-14.38-6.21,19.28-31.05,19.94,29.09-9.15,8.17v27.46s-1,27.45,11.11,7.52,28.44-47.4,26.48-56.22-16-37.26-16-37.26S494.31,469.14,460,449.53Z" transform="translate(-14.96 -14.96)"/><polygon class="cls-7" points="413.98 472.49 413.98 500.6 438.17 507.13 438.82 530.01 428.04 516.61 400.91 506.81 413.98 472.49"/><polygon class="cls-8" points="548.07 472.49 548.07 500.6 523.88 507.13 523.23 530.01 534.01 516.61 561.14 506.81 548.07 472.49"/><path class="cls-9" d="M523.07,640.08v26.15h84.65S561.31,633.22,523.07,640.08Z" transform="translate(-14.96 -14.96)"/><path class="cls-10" d="M760.69,448.22s21.9-25.16,21.9-57.52-35-34.65-35-34.65V314.54l-9.15-.32s-9.48,6.21-10.13,15.36,0,34.64,0,34.64-22.55,19.94-16.67,52.63S760.69,448.22,760.69,448.22Z" transform="translate(-14.96 -14.96)"/></g></svg>